<svg width="880" height="775" viewBox="0 0 880 775" fill="none" xmlns="http://www.w3.org/2000/svg">
<path d="M358.738 442.742C425.646 325.228 253.097 222.584 182.28 337.664L14.0004 621.536C-49.4921 738.194 119.507 837.82 190.279 726.524L358.738 442.742Z" fill="#394C8F"/>
<path d="M778.83 569.089L449.639 568.819C317.217 573.64 318.251 770.097 449.639 774.423L778.83 774.693C913.723 772.575 913.723 571.387 778.83 569.089Z" fill="#39BDE5"/>
<path d="M352.627 155.086L520.502 438.958C591.274 553.994 763.913 451.439 696.96 333.88L532.365 55.8657C523.748 39.0606 510.681 24.9604 494.598 15.1122C478.515 5.26405 460.037 0.0483807 441.193 0.0375476C363.681 -2.12529 312.051 89.6149 352.717 154.951L352.627 155.086Z" fill="#3169B1"/>
</svg>
