<svg width="123" height="24" viewBox="0 0 123 24" fill="none" xmlns="http://www.w3.org/2000/svg">
<path d="M8.82971 23.9257C7.20461 23.9257 5.71494 23.5035 4.3336 22.6872C2.95227 21.8709 1.89595 20.7168 1.13757 19.3094C0.37919 17.8739 0 16.3258 0 14.6932C0 13.0044 0.406275 11.4562 1.19174 10.0207C1.97721 8.58516 3.06061 7.4874 4.41486 6.67112C5.76911 5.85483 7.25878 5.43262 8.8568 5.43262C10.6986 5.43262 12.3508 5.96742 13.8134 7.03704C15.2489 8.10665 16.3052 9.51404 16.9552 11.2592L13.5154 12.2162C13.0821 11.2311 12.4591 10.4429 11.6466 9.85181C10.834 9.26071 9.88603 8.95108 8.8568 8.95108C7.85465 8.95108 6.96085 9.20441 6.1483 9.73922C5.30866 10.2459 4.65862 10.9496 4.19818 11.8222C3.71065 12.6947 3.46688 13.6518 3.46688 14.6932C3.46688 15.7347 3.71065 16.6917 4.17109 17.5643C4.65862 18.4369 5.30866 19.1406 6.1483 19.6472C6.96085 20.1539 7.88174 20.4072 8.8568 20.4072C9.91311 20.4072 10.834 20.0976 11.6466 19.5065C12.4591 18.9154 13.0821 18.1272 13.5154 17.1702L16.9552 18.1554C16.2781 19.8724 15.2218 21.2516 13.7592 22.3213C12.2966 23.3909 10.6715 23.9257 8.82971 23.9257Z" fill="white"/>
<path d="M27.0035 23.9257C25.3784 23.9257 23.8888 23.5035 22.5345 22.6872C21.1803 21.8709 20.1239 20.7168 19.3385 19.3094C18.553 17.8739 18.1738 16.3258 18.1738 14.6932C18.1738 13.0044 18.5801 11.4562 19.3656 10.0207C20.151 8.58516 21.2344 7.4874 22.5887 6.67112C23.9429 5.85483 25.4326 5.43262 27.0306 5.43262C28.4661 5.43262 29.7933 5.77039 31.0392 6.44594C32.2851 7.12148 33.2873 8.05036 34.0998 9.20441C34.9124 10.3585 35.427 11.6533 35.6707 13.1169C35.8874 14.1303 35.8874 15.1436 35.6978 16.1288H21.8303C21.9928 17.0295 22.2907 17.8176 22.7783 18.465C23.2658 19.1124 23.8617 19.6191 24.593 19.9568C25.3243 20.3228 26.1097 20.4917 26.9765 20.4917C27.8973 20.4917 28.7641 20.2946 29.6308 19.9006C30.4975 19.5065 31.2017 18.9717 31.7705 18.2961L35.0478 19.1687C34.3707 20.6042 33.2873 21.7583 31.7705 22.6309C30.2808 23.4753 28.6828 23.9257 27.0035 23.9257ZM32.0414 13.1451C31.8788 12.3851 31.5809 11.6814 31.1205 11.0059C30.66 10.3585 30.0641 9.82366 29.3599 9.45774C28.6557 9.06367 27.8703 8.89479 26.9765 8.89479C26.0827 8.89479 25.2701 9.09182 24.5659 9.45774C23.8617 9.82366 23.2387 10.3585 22.7783 11.0059C22.2907 11.6533 21.9928 12.3851 21.8303 13.1451H32.0414Z" fill="white"/>
<path d="M38.001 0H41.7387V23.6441H38.001V0V0Z" fill="white"/>
<path d="M52.7897 23.9254C51.1646 23.9254 49.6749 23.5031 48.3206 22.6869C46.9664 21.8706 45.9101 20.7165 45.1246 19.3091C44.3392 17.9017 43.96 16.3536 43.96 14.7211C43.96 13.0322 44.3662 11.4841 45.1517 10.0485C45.9372 8.613 47.0206 7.51523 48.3748 6.69895C49.7291 5.88267 51.2187 5.46045 52.8168 5.46045C54.2523 5.46045 55.5794 5.79822 56.8253 6.47377C58.0713 7.14931 59.0734 8.07819 59.886 9.23225C60.6985 10.3863 61.2131 11.6811 61.4569 13.1448C61.6736 14.1581 61.6736 15.1714 61.484 16.1566H47.6435C47.806 17.0573 48.104 17.8455 48.5915 18.4929C49.079 19.1402 49.6749 19.6469 50.4062 19.9847C51.1375 20.3506 51.923 20.5195 52.7897 20.5195C53.7106 20.5195 54.5773 20.3225 55.444 19.9284C56.3107 19.5343 57.0149 18.9995 57.5837 18.324L60.861 19.1965C60.1839 20.6321 59.1005 21.7861 57.5837 22.6587C56.0399 23.475 54.4419 23.9254 52.7897 23.9254ZM57.8275 13.1448C57.665 12.3848 57.367 11.6811 56.9066 11.0056C56.4462 10.3582 55.8503 9.82335 55.1461 9.45743C54.4419 9.06336 53.6564 8.89447 52.7626 8.89447C51.8688 8.89447 51.0562 9.09151 50.352 9.45743C49.6478 9.82335 49.0249 10.3582 48.5644 11.0056C48.104 11.653 47.7789 12.3566 47.6435 13.1448H57.8275Z" fill="white"/>
<path d="M63.3799 5.74191H67.0905V8.72557C67.6593 7.57151 68.499 6.72708 69.6365 6.13598C70.7741 5.54487 72.1284 5.40413 73.7264 5.68561V9.85148C72.5888 9.48555 71.5325 9.45741 70.5033 9.73888C69.474 10.0204 68.6615 10.5833 68.0385 11.4559C67.4156 12.3285 67.0905 13.3699 67.0905 14.6084V23.6439H63.3799V5.74191Z" fill="white"/>
<path d="M82.7442 23.9254C81.1732 23.9254 79.7377 23.5031 78.4376 22.6869C77.1376 21.8424 76.0812 20.7165 75.3229 19.3091C74.5645 17.9017 74.1582 16.3536 74.1582 14.7211C74.1582 13.0322 74.5374 11.4841 75.3229 10.0485C76.0812 8.64114 77.1376 7.51523 78.4376 6.69895C79.7377 5.88267 81.1732 5.46045 82.7442 5.46045C83.8817 5.46045 84.938 5.71378 85.886 6.19229C86.834 6.6708 87.6195 7.34635 88.2695 8.16263V5.74193H92.0072V23.6439H88.2695V21.2513C87.6466 22.0958 86.8611 22.7432 85.886 23.2217C84.911 23.7002 83.9088 23.9254 82.7442 23.9254ZM83.0692 20.4069C84.0442 20.4069 84.9381 20.1536 85.7777 19.6188C86.6173 19.1121 87.2674 18.4084 87.782 17.5358C88.2695 16.6632 88.5404 15.7062 88.5404 14.6929C88.5404 13.6796 88.2966 12.7226 87.782 11.85C87.2944 10.9774 86.6173 10.2737 85.7777 9.7389C84.9381 9.2041 84.0442 8.95077 83.0692 8.95077C82.067 8.95077 81.1461 9.2041 80.3336 9.7389C79.494 10.2456 78.8439 10.9493 78.3564 11.8218C77.8689 12.6944 77.6522 13.6514 77.6522 14.6929C77.6522 15.7344 77.8959 16.6914 78.3564 17.5358C78.8168 18.3803 79.494 19.084 80.3065 19.6188C81.1461 20.1536 82.067 20.4069 83.0692 20.4069Z" fill="white"/>
<path d="M94.771 5.74191H98.4816V8.72557C99.0504 7.57151 99.8901 6.72708 101.028 6.13598C102.165 5.54487 103.519 5.40413 105.117 5.68561V9.85148C103.98 9.45741 102.924 9.42926 101.894 9.71074C100.865 9.99221 100.053 10.5552 99.4296 11.4277C98.8067 12.3003 98.4816 13.3418 98.4816 14.5803V23.6439H94.771V5.74191Z" fill="white"/>
<path d="M116.493 23.5035C114.732 24.0101 113.161 24.1227 111.807 23.8694C110.426 23.6161 109.342 22.9687 108.584 21.9553C107.799 20.942 107.419 19.5909 107.419 17.8739V1.4638L111.049 0.337891V5.74225H116.357V9.11998H111.049V17.8458C111.049 18.5776 111.238 19.1406 111.645 19.5909C112.051 20.0413 112.647 20.2665 113.486 20.3228C114.299 20.3791 115.301 20.182 116.466 19.7598V23.5035H116.493Z" fill="white"/>
<path d="M120.284 23.9254C119.607 23.9254 119.038 23.6721 118.551 23.1936C118.063 22.6869 117.819 22.0958 117.819 21.364C117.819 20.6322 118.063 20.0411 118.551 19.5344C119.038 19.0277 119.607 18.7744 120.284 18.7744C120.988 18.7744 121.557 19.0277 122.045 19.5344C122.532 20.0411 122.776 20.6603 122.776 21.364C122.776 22.0958 122.532 22.6869 122.045 23.1936C121.557 23.7003 120.988 23.9254 120.284 23.9254Z" fill="white"/>
</svg>
