<svg width="121" height="56" viewBox="0 0 121 56" fill="none" xmlns="http://www.w3.org/2000/svg">
<g clip-path="url(#clip0_212_11220)">
<path d="M37.3852 16H28.0389C24.8519 16 21.7954 17.2643 19.5418 19.5147C17.2883 21.7652 16.0222 24.8174 16.0222 28C16.0222 31.1826 17.2883 34.2348 19.5418 36.4853C21.7954 38.7357 24.8519 40 28.0389 40H38.4934C38.9077 40 39.305 39.8356 39.598 39.5431C39.891 39.2505 40.0556 38.8537 40.0556 38.44V10.8933C40.0584 8.4931 40.855 6.16101 42.3216 4.25938C43.7882 2.35775 45.8426 0.993066 48.1658 0.37736C50.4889 -0.238346 52.9507 -0.0706006 55.1685 0.854533C57.3864 1.77967 59.2362 3.41039 60.4305 5.49333L72.1 25.88V10.8933C72.1028 8.4931 72.8994 6.16101 74.366 4.25938C75.8326 2.35775 77.8871 0.993066 80.2102 0.37736C82.5334 -0.238346 84.9951 -0.0706006 87.213 0.854533C89.4308 1.77967 91.2806 3.41039 92.4749 5.49333L104.144 25.88V0H110.82L112.156 1.33333L113.491 0H120.167V45.1067C120.164 47.5069 119.367 49.839 117.901 51.7406C116.434 53.6423 114.38 55.0069 112.056 55.6226C109.733 56.2384 107.272 56.0706 105.054 55.1455C102.836 54.2203 100.986 52.5896 99.7917 50.5067L88.1222 30.12V45.1067C88.1194 47.5069 87.3228 49.839 85.8562 51.7406C84.3896 53.6423 82.3351 55.0069 80.012 55.6226C77.6889 56.2384 75.2271 56.0706 73.0093 55.1455C70.7914 54.2203 68.9416 52.5896 67.7473 50.5067L56.0778 30.12V45.1067C56.0778 47.9958 54.9285 50.7665 52.8828 52.8094C50.837 54.8523 48.0624 56 45.1693 56H28.0389C20.6025 56 13.4707 53.05 8.2124 47.799C2.95409 42.548 0 35.4261 0 28C0 20.5739 2.95409 13.452 8.2124 8.20101C13.4707 2.94999 20.6025 0 28.0389 0H37.3852V6.66667L36.05 8L37.3852 9.33333V16Z" fill="#1E2949"/>
<path d="M37.3853 8H28.039C22.7273 8 17.6332 10.1071 13.8772 13.8579C10.1213 17.6086 8.01123 22.6957 8.01123 28C8.01123 33.3043 10.1213 38.3914 13.8772 42.1421C17.6332 45.8929 22.7273 48 28.039 48H45.1694C45.5499 48 45.9267 47.9252 46.2782 47.7798C46.6297 47.6344 46.9491 47.4212 47.2182 47.1526C47.4872 46.8839 47.7006 46.5649 47.8462 46.2139C47.9918 45.8629 48.0668 45.4866 48.0668 45.1067V10.8933C48.0679 10.2567 48.2792 9.63815 48.6681 9.13362C49.0569 8.62909 49.6016 8.26672 50.2176 8.10268C50.8336 7.93863 51.4866 7.98207 52.0754 8.22626C52.6642 8.47045 53.1559 8.90176 53.4743 9.45333L74.7037 46.5467C75.0221 47.0982 75.5138 47.5295 76.1026 47.7737C76.6914 48.0179 77.3444 48.0614 77.9604 47.8973C78.5764 47.7333 79.1211 47.3709 79.5099 46.8664C79.8988 46.3619 80.1101 45.7433 80.1112 45.1067V10.8933C80.1123 10.2567 80.3237 9.63815 80.7125 9.13362C81.1014 8.62909 81.646 8.26672 82.262 8.10268C82.8781 7.93863 83.5311 7.98207 84.1199 8.22626C84.7086 8.47045 85.2003 8.90176 85.5187 9.45333L106.748 46.5467C107.067 47.0982 107.558 47.5295 108.147 47.7737C108.736 48.0179 109.389 48.0614 110.005 47.8973C110.621 47.7333 111.166 47.3709 111.554 46.8664C111.943 46.3619 112.155 45.7433 112.156 45.1067V0" stroke="white" stroke-width="5.09524"/>
</g>
<defs>
<clipPath id="clip0_212_11220">
<path d="M0 16C0 7.16344 7.16344 0 16 0H120.167V56H16C7.16343 56 0 48.8366 0 40V16Z" fill="white"/>
</clipPath>
</defs>
</svg>
