<svg width="224" height="56" fill="none" xmlns="http://www.w3.org/2000/svg"><path d="M135.983 15.924c-3.591 0-6.412.772-9.235 2.311 0-8.219 0-15.667.258-18.235l-17.191 3.081v1.541l1.796.257c2.307.513 3.08 1.796 3.588 4.88.517 6.165.258 39.045 0 44.44 4.618 1.028 9.494 1.8 14.37 1.8 13.599 0 21.808-8.478 21.808-21.836 0-10.53-6.67-18.239-15.394-18.239zm-5.901 37.247c-1.027 0-2.311 0-3.079-.255-.258-3.596-.512-18.753-.258-32.11 1.54-.515 2.565-.771 3.85-.771 5.648 0 8.726 6.678 8.726 14.896-.001 10.279-3.85 18.24-9.239 18.24zM45.157 1.027H0v2.31l2.566.257c3.334.514 4.618 2.568 5.13 7.449.771 9.247.514 25.946 0 33.906-.513 4.882-1.795 7.194-5.13 7.448L0 52.913v2.055h28.992v-2.055l-3.078-.516c-3.336-.255-4.619-2.566-5.131-7.448-.258-3.34-.514-8.736-.514-15.413l6.157.257c3.85 0 5.644 3.082 6.414 7.448h2.31V19.008h-2.31c-.772 4.368-2.565 7.449-6.414 7.449l-6.156.258c0-8.735.256-16.954.514-21.835h8.979c6.93 0 10.52 4.366 13.085 12.074l2.567-.771-.258-15.156z" fill="#1E2949"/><path d="M59.782 15.411c12.83 0 19.243 8.734 19.243 20.293C79.025 46.749 71.841 56 59.011 56 46.183 56 39.77 47.264 39.77 35.704c0-11.046 7.183-20.293 20.013-20.293zm-.77 2.57c-5.646 0-7.185 7.705-7.185 17.723 0 9.76 2.566 17.724 7.699 17.724 5.896 0 7.439-7.706 7.439-17.724 0-9.76-2.564-17.724-7.954-17.724zm95.699 17.981c0-10.532 6.67-20.551 19.756-20.551 10.773 0 15.906 7.964 15.906 18.495h-23.861c-.258 9.504 4.36 16.44 13.598 16.44 4.106 0 6.158-1.024 8.726-2.824l1.023 1.284C187.293 52.4 181.65 56 174.467 56c-11.546-.002-19.756-8.221-19.756-20.038zm11.801-4.88 12.059-.258c0-5.138-.771-12.844-5.131-12.844s-6.673 7.192-6.928 13.102zm54.398-13.615c-3.079-1.286-7.183-2.056-11.801-2.056-9.492 0-15.396 5.65-15.396 12.33s4.358 9.504 10.523 11.56c6.412 2.31 8.209 4.11 8.209 7.192s-2.31 5.907-6.415 5.907c-4.873 0-8.468-2.825-11.289-10.532l-1.797.516.258 11.302c3.079 1.283 8.722 2.313 13.598 2.313 10.007 0 16.423-5.14 16.423-13.102 0-5.395-2.824-8.476-9.495-11.047-7.186-2.824-9.749-4.622-9.749-7.963 0-3.339 2.313-5.652 5.392-5.652 4.615 0 7.694 2.826 10.007 9.763l1.794-.514-.262-10.017zm-108.532-1.028c-4.36-2.566-12.059-1.285-16.163 7.964l.255-8.99-17.189 3.339v1.54l1.796.257c2.311.259 3.335 1.542 3.593 4.882.513 6.165.256 16.956 0 22.35-.258 3.079-1.282 4.62-3.593 4.878l-1.796.258v2.055h23.86v-2.055l-3.078-.258c-2.565-.258-3.335-1.799-3.593-4.879-.513-4.882-.513-14.642-.255-20.807 1.281-1.8 6.926-3.34 12.057 0l4.106-10.534z" fill="#1E2949"/></svg>