<svg width="272" height="56" viewBox="0 0 272 56" fill="none" xmlns="http://www.w3.org/2000/svg">
<path d="M76.332 44.6186L90.8452 7.23267H96.5386L110.997 44.6186H103.559L100.995 37.6509H86.1798L83.6158 44.6186H76.332ZM88.4264 31.5908H98.7912L93.6511 17.4444L88.4264 31.5908Z" fill="#1E2949"/>
<path d="M114.381 44.6186V7.23267H121.099V44.6186H114.381Z" fill="#1E2949"/>
<path d="M137.097 43.9278C134.977 43.9554 132.895 43.3734 131.098 42.2515C129.316 41.1316 127.872 39.5509 126.919 37.6777C125.887 35.6443 125.368 33.3901 125.408 31.1111C125.376 28.8667 125.895 26.6485 126.919 24.6499C127.873 22.7773 129.317 21.1969 131.098 20.0762C132.895 18.9542 134.977 18.3722 137.097 18.3999C138.464 18.3817 139.822 18.6264 141.097 19.1204C142.248 19.5687 143.296 20.2469 144.175 21.1134V18.9335H150.827V43.2886C150.827 45.8433 150.254 48.0764 149.11 49.9879C147.982 51.8866 146.337 53.4268 144.366 54.429C142.203 55.5082 139.81 56.0463 137.393 55.9968C134.991 56.0442 132.609 55.5441 130.43 54.5345C128.483 53.6178 126.819 52.1952 125.613 50.4161L129.867 46.0021C130.707 47.1363 131.795 48.0644 133.048 48.7156C134.392 49.3511 135.867 49.661 137.354 49.6201C139.44 49.6201 141.09 49.0704 142.303 47.9709C143.517 46.8714 144.122 45.3469 144.118 43.3972V41.2686C143.242 42.1329 142.193 42.8028 141.04 43.2344C139.78 43.707 138.443 43.9421 137.097 43.9278ZM138.43 37.5963C140.277 37.5963 141.755 36.9933 142.866 35.7873C143.976 34.5813 144.532 33.0397 144.532 31.1623C144.532 29.281 143.976 27.7383 142.866 26.5343C141.755 25.3303 140.277 24.7273 138.43 24.7253C136.586 24.7253 135.099 25.3364 133.97 26.5584C132.877 27.8431 132.277 29.4731 132.277 31.1578C132.277 32.8425 132.877 34.4725 133.97 35.7572C135.099 36.9853 136.586 37.5993 138.43 37.5993V37.5963Z" fill="#1E2949"/>
<path d="M168.364 45.1491C165.995 45.1847 163.662 44.5681 161.621 43.3672C158.602 41.4975 156.421 38.5414 155.528 35.1113C154.635 31.6813 155.1 28.0403 156.826 24.9426C157.956 22.9479 159.592 21.2843 161.57 20.1186C163.611 18.9195 165.944 18.303 168.312 18.3368C170.649 18.3098 172.951 18.9053 174.98 20.0618C177.008 21.2183 178.691 22.8939 179.853 24.9155C181.031 26.98 181.634 29.3212 181.598 31.6962C181.634 34.1046 181.032 36.48 179.853 38.5824C178.733 40.5842 177.095 42.25 175.109 43.4064C173.06 44.5851 170.729 45.1874 168.364 45.1491ZM168.312 38.6638C170.227 38.6638 171.774 38.0166 172.954 36.7222C174.133 35.4277 174.722 33.7705 174.722 31.7505C174.722 29.7284 174.124 28.0792 172.926 26.8029C172.339 26.1743 171.623 25.6783 170.827 25.3481C170.031 25.0179 169.174 24.8611 168.312 24.8883C167.456 24.8646 166.605 25.0259 165.818 25.3611C165.03 25.6962 164.325 26.1973 163.75 26.83C162.552 28.1244 161.954 29.7646 161.954 31.7505C161.954 33.7604 162.552 35.4177 163.75 36.7222C164.326 37.3564 165.034 37.8585 165.823 38.1937C166.613 38.5289 167.467 38.6893 168.324 38.6638H168.312Z" fill="#1E2949"/>
<path d="M185.94 44.6185V7.23267H200.501C202.894 7.23267 204.894 7.68391 206.5 8.5864C208.029 9.41386 209.299 10.6473 210.168 12.1501C211.004 13.6201 211.437 15.2841 211.423 16.9741C211.423 20.3087 209.953 22.8614 207.014 24.6322C208.749 25.4908 210.219 26.8013 211.268 28.425C212.277 30.0629 212.793 31.9547 212.756 33.8761C212.779 35.778 212.293 37.6515 211.347 39.3031C210.378 40.9605 208.954 42.3076 207.244 43.1864C205.448 44.1432 203.269 44.6216 200.707 44.6216L185.94 44.6185ZM199.682 13.136H192.855V22.1237H199.676C201.109 22.1237 202.262 21.7519 203.135 21.0082C204.008 20.2645 204.444 19.1479 204.444 17.6585C204.444 16.1691 204.008 15.0435 203.135 14.2817C202.262 13.5199 201.111 13.138 199.682 13.136ZM200.45 27.9728H192.855V38.7152H200.444C202.119 38.7152 203.429 38.1926 204.375 37.1474C205.286 36.089 205.787 34.7403 205.787 33.3455C205.787 31.9507 205.286 30.602 204.375 29.5436C203.433 28.4964 202.125 27.9728 200.45 27.9728Z" fill="#1E2949"/>
<path d="M228.627 45.149C226.471 45.177 224.356 44.5663 222.549 43.3943C220.734 42.1999 219.267 40.5495 218.295 38.6095C217.235 36.4982 216.702 34.1626 216.741 31.8016C216.707 29.4321 217.244 27.0892 218.307 24.9696C219.271 23.0141 220.74 21.3492 222.561 20.1457C224.35 18.9753 226.448 18.3633 228.587 18.3879C229.986 18.3749 231.373 18.6468 232.663 19.1869C233.854 19.6833 234.925 20.4275 235.805 21.3697V18.9246H242.472V44.6093H235.805V42.1732C234.928 43.1109 233.863 43.8537 232.678 44.353C231.397 44.8936 230.018 45.1646 228.627 45.149ZM229.857 38.715C231.738 38.715 233.259 38.0678 234.42 36.7733C235.581 35.4789 236.163 33.8046 236.165 31.7504C236.165 29.7283 235.583 28.0701 234.42 26.7756C233.257 25.4812 231.736 24.835 229.857 24.837C229.009 24.8096 228.164 24.9691 227.385 25.3042C226.605 25.6393 225.909 26.1417 225.346 26.7756C224.181 28.0721 223.6 29.7303 223.602 31.7504C223.602 33.8066 224.183 35.4809 225.346 36.7733C225.908 37.4082 226.604 37.9114 227.384 38.247C228.164 38.5826 229.008 38.7424 229.857 38.715Z" fill="#1E2949"/>
<path d="M249.344 55.3607L255.24 42.4384L245.867 18.9215H253.148L258.769 35.2597L264.668 18.9336H272L260.976 44.7781L256.462 55.3607H249.344Z" fill="#1E2949"/>
<path d="M24.0518 29.7066C28.5376 21.8218 16.969 14.9347 12.2211 22.6563L0.938665 41.7031C-3.31822 49.5305 8.01239 56.215 12.7573 48.7474L24.0518 29.7066Z" fill="#394C8F"/>
<path d="M52.2169 38.1839L30.1462 38.1658C21.2679 38.4893 21.3372 51.6709 30.1462 51.9611L52.2169 51.9793C61.2609 51.8372 61.2609 38.3381 52.2169 38.1839Z" fill="#39BDE5"/>
<path d="M23.6422 10.4057L34.8975 29.4526C39.6424 37.1711 51.217 30.2901 46.7282 22.4022L35.6928 3.7484C35.1151 2.62084 34.239 1.67476 33.1607 1.01398C32.0824 0.3532 30.8436 0.00324618 29.5801 0.00251932C24.3833 -0.1426 20.9218 6.01286 23.6482 10.3967L23.6422 10.4057Z" fill="#3169B1"/>
</svg>
