<svg width="120" height="120" viewBox="0 0 120 120" fill="none" xmlns="http://www.w3.org/2000/svg">
<circle cx="60" cy="60" r="60" fill="#39BDE5"/>
<path d="M69.5185 59.1453L51.5215 48.1467C51.3699 48.0541 51.1963 48.0035 51.0187 48.0002C50.8411 47.9968 50.6658 48.0409 50.5108 48.1278C50.3559 48.2147 50.2269 48.3413 50.1371 48.4946C50.0473 48.6479 50 48.8223 50 49V70.9972C50 71.1748 50.0473 71.3493 50.1371 71.5026C50.2269 71.6558 50.3559 71.7825 50.5108 71.8694C50.6658 71.9563 50.8411 72.0003 51.0187 71.997C51.1963 71.9937 51.3699 71.9431 51.5215 71.8504L69.5185 60.8519C69.6647 60.7625 69.7855 60.6371 69.8693 60.4877C69.9531 60.3383 69.9971 60.1699 69.9971 59.9986C69.9971 59.8273 69.9531 59.6588 69.8693 59.5094C69.7855 59.36 69.6647 59.2346 69.5185 59.1453Z" fill="white"/>
</svg>
