<svg width="434" height="418" viewBox="0 0 434 418" fill="none" xmlns="http://www.w3.org/2000/svg">
<path opacity="0.5" d="M242.403 313.729L155.559 264.26C152.377 262.428 152.781 259.223 156.448 257.108L206.416 228.3C210.084 226.172 215.625 225.943 218.807 227.774L305.651 277.243C308.833 279.075 308.442 282.28 304.761 284.395L254.861 313.217C251.126 315.331 245.585 315.56 242.403 313.729Z" fill="#084EA8"/>
<path d="M313.401 260.596V58.0202L232.786 36.9827L217.955 28.4169C214.557 26.464 208.598 26.7064 204.661 28.9691L190.814 36.9558H147.803L160.477 232.461C160.468 233.213 160.681 233.951 161.088 234.583C161.496 235.215 162.08 235.713 162.769 236.017L243.208 296.624C246.62 298.59 252.566 298.334 256.503 296.072L310.111 265.095C312.43 263.869 313.522 262.172 313.401 260.596Z" fill="#084EA8"/>
<path d="M211.78 27.1104C209.287 27.1428 206.839 27.7807 204.647 28.969L190.8 36.9557H147.803V240.017C147.794 240.768 148.007 241.506 148.415 242.138C148.822 242.77 149.406 243.269 150.095 243.572L243.263 296.651C245.158 297.646 247.287 298.111 249.424 297.998L250.395 93.6571L211.78 27.1104Z" fill="#C2E7FF"/>
<path d="M244.072 297.069C247.513 298.308 251.286 298.265 254.697 296.947V91.1926H244.072V297.069Z" fill="#39BDE5"/>
<path d="M243.261 93.6303L150.094 40.5114C146.683 38.5451 147.114 35.1241 151.038 32.848L204.646 1.87096C208.583 -0.391707 214.543 -0.634136 217.94 1.31876L311.121 54.3972C314.519 56.3636 314.101 59.7845 310.164 62.0606L256.556 93.0377C252.619 95.3542 246.673 95.5966 243.261 93.6303Z" fill="#C2E7FF"/>
<path d="M310.136 58.3971L256.527 89.3742C252.59 91.6368 246.644 91.8927 243.233 89.9264L150.092 36.8075C149.404 36.4398 148.806 35.9247 148.34 35.2991C147.221 37.1712 147.746 39.1645 150.092 40.5113L243.26 93.5763C246.671 95.5426 252.617 95.3002 256.554 93.0375L310.163 62.0605C313.21 60.2962 314.14 57.8315 312.859 55.9055C312.173 56.9496 311.237 57.806 310.136 58.3971V58.3971Z" fill="#E9F0F4"/>
<path d="M245.89 72.1213L183.868 36.2149C182.263 35.2856 182.52 33.6829 184.313 32.6189L209.391 18.154C210.337 17.6283 211.394 17.3313 212.475 17.2869C213.557 17.2424 214.634 17.4518 215.62 17.8981L277.642 53.818C279.247 54.7338 278.99 56.3365 277.197 57.4005L252.159 71.8654C251.209 72.4009 250.145 72.7033 249.055 72.7477C247.965 72.7922 246.88 72.5775 245.89 72.1213Z" fill="#084EA8"/>
<path d="M212.412 37.8177L208.812 35.7435C208.596 35.6223 208.623 35.4068 208.812 35.2587L212.291 33.2519C212.425 33.1855 212.572 33.1509 212.722 33.1509C212.872 33.1509 213.019 33.1855 213.154 33.2519L216.74 35.326C216.969 35.4607 216.942 35.6762 216.74 35.8244L213.261 37.8177C213.131 37.8872 212.985 37.9236 212.837 37.9236C212.689 37.9236 212.543 37.8872 212.412 37.8177V37.8177Z" fill="#C2E7FF"/>
<path d="M224.412 44.7269L220.826 42.6528C220.597 42.5181 220.624 42.3026 220.826 42.1545L224.305 40.1477C224.436 40.0814 224.582 40.0469 224.729 40.0469C224.877 40.0469 225.022 40.0814 225.154 40.1477L228.754 42.2218C228.97 42.3565 228.943 42.572 228.687 42.7202L225.221 44.7269C225.095 44.785 224.957 44.8151 224.817 44.8151C224.677 44.8151 224.539 44.785 224.412 44.7269V44.7269Z" fill="#C2E7FF"/>
<path d="M236.429 51.6227L232.829 49.5486C232.613 49.4139 232.64 49.1984 232.896 49.0503L236.361 47.0435C236.494 46.9739 236.642 46.9375 236.793 46.9375C236.943 46.9375 237.091 46.9739 237.224 47.0435L240.824 49.1176C241.04 49.2388 241.013 49.4543 240.757 49.6025L237.332 51.5823C237.196 51.6607 237.042 51.7052 236.885 51.7123C236.728 51.7193 236.571 51.6886 236.429 51.6227V51.6227Z" fill="#C2E7FF"/>
<path d="M248.425 58.5186L244.839 56.4445C244.61 56.3098 244.65 56.0943 244.839 55.9461L248.371 53.9798C248.504 53.9101 248.652 53.8738 248.803 53.8738C248.953 53.8738 249.101 53.9101 249.234 53.9798L252.821 56.0539C253.05 56.1751 253.023 56.4041 252.821 56.5387L249.342 58.5455C249.199 58.6168 249.04 58.6517 248.88 58.647C248.72 58.6423 248.564 58.5982 248.425 58.5186V58.5186Z" fill="#C2E7FF"/>
<path d="M183.872 36.2151H183.94C184.058 36.1193 184.184 36.0337 184.317 35.9592L209.396 21.4942C210.341 20.9674 211.397 20.6687 212.478 20.6219C213.56 20.5751 214.637 20.7816 215.625 21.2249L277.579 57.1043C279.049 56.0538 279.13 54.6262 277.647 53.7777L215.625 17.8578C214.639 17.4115 213.562 17.2021 212.48 17.2466C211.398 17.291 210.342 17.588 209.396 18.1137L184.317 32.5786C182.47 33.683 182.268 35.2858 183.872 36.2151Z" fill="#084EA8"/>
<path d="M232.963 133.766L164.119 94.0612C163.016 93.2839 162.112 92.2583 161.48 91.0674C160.847 89.8765 160.504 88.5537 160.479 87.2058V74.5996C160.479 71.9059 162.083 70.7476 164.065 71.9059L232.909 111.61C234.006 112.391 234.903 113.418 235.529 114.609C236.154 115.8 236.49 117.121 236.509 118.466V131.059C236.563 133.698 234.959 134.91 232.963 133.766Z" fill="white"/>
<path d="M227.758 122.668L224.521 120.796C224.281 120.626 224.086 120.402 223.95 120.142C223.814 119.882 223.741 119.594 223.738 119.301V115.813C223.738 115.234 224.089 114.978 224.521 115.22L227.758 117.092C227.997 117.262 228.192 117.486 228.328 117.746C228.464 118.006 228.537 118.294 228.54 118.587V122.035C228.54 122.668 228.189 122.87 227.758 122.668Z" fill="#394C8F"/>
<path d="M216.945 116.392L213.708 114.587C213.469 114.417 213.273 114.193 213.137 113.933C213.001 113.673 212.929 113.385 212.926 113.092V109.577C212.926 108.998 213.276 108.728 213.708 108.984L216.945 110.843C217.182 111.015 217.376 111.239 217.512 111.499C217.647 111.758 217.721 112.045 217.727 112.338V115.799C217.727 116.378 217.377 116.634 216.945 116.392Z" fill="#394C8F"/>
<path d="M232.963 179.235L164.119 139.584C163.015 138.805 162.111 137.777 161.478 136.584C160.846 135.39 160.503 134.065 160.479 132.715V120.122C160.479 117.429 162.083 116.257 164.065 117.429L232.909 157.133C234.007 157.915 234.905 158.945 235.53 160.138C236.156 161.332 236.491 162.655 236.509 164.002V176.541C236.563 179.235 234.959 180.433 232.963 179.235Z" fill="white"/>
<path d="M227.758 168.15L224.521 166.278C224.281 166.108 224.086 165.884 223.95 165.624C223.814 165.364 223.741 165.076 223.738 164.783V161.335C223.738 160.756 224.089 160.487 224.521 160.743L227.758 162.601C227.995 162.773 228.188 162.998 228.324 163.257C228.46 163.517 228.534 163.804 228.54 164.096V167.558C228.54 168.137 228.189 168.46 227.758 168.15Z" fill="#394C8F"/>
<path d="M216.945 161.901L213.708 160.042C213.47 159.871 213.276 159.646 213.14 159.387C213.004 159.127 212.931 158.84 212.926 158.547V155.099C212.926 154.52 213.276 154.251 213.708 154.507L216.945 156.365C217.183 156.537 217.377 156.761 217.513 157.021C217.649 157.28 217.722 157.568 217.727 157.86V161.322C217.727 161.887 217.377 162.157 216.945 161.901Z" fill="#C2E7FF"/>
<path d="M232.963 224.798L164.119 185.093C163.016 184.316 162.112 183.29 161.48 182.099C160.847 180.909 160.504 179.586 160.479 178.238V165.645C160.479 162.951 162.083 161.78 164.065 162.951L232.909 202.656C234.006 203.436 234.903 204.463 235.529 205.654C236.154 206.845 236.49 208.166 236.509 209.511V222.118C236.563 224.73 234.959 225.943 232.963 224.798Z" fill="white"/>
<path d="M227.758 213.659L224.521 211.801C224.283 211.629 224.088 211.405 223.953 211.146C223.817 210.886 223.743 210.599 223.738 210.306V206.858C223.738 206.279 224.089 206.009 224.521 206.265L227.758 208.124C227.995 208.295 228.19 208.52 228.325 208.779C228.461 209.039 228.535 209.326 228.54 209.619V213.08C228.54 213.646 228.189 213.915 227.758 213.659Z" fill="#C2E7FF"/>
<path d="M216.945 207.424L213.708 205.565C213.471 205.393 213.277 205.168 213.142 204.909C213.006 204.65 212.932 204.362 212.926 204.07V200.609C212.926 200.043 213.276 199.774 213.708 200.016L216.945 201.888C217.183 202.06 217.377 202.284 217.513 202.543C217.649 202.803 217.722 203.09 217.727 203.383V206.831C217.727 207.41 217.377 207.679 216.945 207.424Z" fill="#394C8F"/>
<path d="M232.963 270.32L164.119 230.616C163.016 229.839 162.112 228.813 161.48 227.622C160.847 226.431 160.504 225.108 160.479 223.761V211.168C160.479 208.474 162.083 207.302 164.065 208.474L232.909 248.179C234.006 248.959 234.903 249.986 235.529 251.177C236.154 252.368 236.49 253.689 236.509 255.034V267.64C236.563 270.253 234.959 271.465 232.963 270.32Z" fill="white"/>
<path d="M227.758 259.182L224.521 257.35C224.283 257.179 224.088 256.955 223.953 256.695C223.817 256.436 223.743 256.148 223.738 255.855V252.367C223.738 251.802 224.089 251.532 224.521 251.788L227.758 253.647C227.995 253.818 228.19 254.042 228.325 254.302C228.461 254.561 228.535 254.849 228.54 255.142V258.59C228.54 259.169 228.189 259.438 227.758 259.182Z" fill="#C2E7FF"/>
<path d="M216.945 252.946L213.708 251.088C213.471 250.916 213.277 250.691 213.142 250.432C213.006 250.173 212.932 249.885 212.926 249.593V246.132C212.926 245.552 213.276 245.296 213.708 245.539L216.945 247.411C217.184 247.581 217.38 247.805 217.516 248.065C217.652 248.325 217.724 248.613 217.727 248.906V252.354C217.727 252.933 217.377 253.202 216.945 252.946Z" fill="#C2E7FF"/>
<path d="M266.991 133.766L302.262 113.563C303.355 112.78 304.249 111.752 304.871 110.562C305.494 109.371 305.829 108.051 305.849 106.708V94.1286C305.849 91.4349 304.244 90.2767 302.262 91.435L266.991 111.597C265.898 112.38 265.005 113.408 264.382 114.599C263.759 115.789 263.424 117.109 263.404 118.452V131.045C263.431 133.698 265.036 134.911 266.991 133.766Z" fill="#084EA8"/>
<path d="M266.991 179.235L302.262 159.032C303.355 158.249 304.249 157.221 304.871 156.03C305.494 154.84 305.829 153.52 305.849 152.177V139.57C305.849 136.877 304.244 135.719 302.262 136.877L266.991 157.079C265.897 157.864 265.003 158.895 264.38 160.088C263.757 161.281 263.423 162.603 263.404 163.948V176.541C263.431 179.235 265.036 180.433 266.991 179.235Z" fill="#084EA8"/>
<path d="M266.991 224.798L302.262 204.595C303.356 203.81 304.25 202.78 304.873 201.587C305.496 200.394 305.83 199.072 305.849 197.727V185.134C305.849 182.44 304.244 181.282 302.262 182.44L266.991 202.642C265.898 203.426 265.005 204.454 264.382 205.644C263.759 206.835 263.424 208.155 263.404 209.498V222.104C263.431 224.73 265.036 225.943 266.991 224.798Z" fill="#084EA8"/>
<path d="M266.991 270.32L302.262 250.118C303.356 249.333 304.25 248.302 304.873 247.109C305.496 245.917 305.83 244.594 305.849 243.249V230.656C305.849 227.963 304.244 226.791 302.262 227.963L266.991 248.165C265.898 248.948 265.005 249.976 264.382 251.167C263.759 252.357 263.424 253.677 263.404 255.02V267.627C263.431 270.253 265.036 271.465 266.991 270.32Z" fill="#394C8F"/>
<path d="M277.632 120.082L280.869 118.21C281.108 118.04 281.304 117.816 281.44 117.556C281.576 117.296 281.648 117.008 281.651 116.715V113.24C281.651 112.661 281.301 112.392 280.869 112.647L277.632 114.587C277.395 114.759 277.201 114.984 277.065 115.243C276.93 115.502 276.856 115.789 276.85 116.082V119.543C276.85 120.055 277.2 120.324 277.632 120.082Z" fill="white"/>
<path d="M288.448 113.833L291.685 111.974C291.923 111.803 292.117 111.578 292.253 111.319C292.389 111.059 292.462 110.772 292.468 110.479V107.031C292.468 106.452 292.117 106.183 291.685 106.439L288.448 108.297C288.211 108.469 288.016 108.693 287.88 108.953C287.745 109.212 287.671 109.5 287.666 109.792V113.24C287.666 113.819 288.017 114.089 288.448 113.833Z" fill="white"/>
<path d="M277.632 165.254L280.869 163.382C281.108 163.212 281.304 162.988 281.44 162.729C281.576 162.469 281.648 162.18 281.651 161.887V158.439C281.651 157.86 281.301 157.591 280.869 157.847L277.632 159.705C277.395 159.878 277.201 160.102 277.065 160.361C276.93 160.621 276.856 160.908 276.85 161.2V164.662C276.85 165.227 277.2 165.497 277.632 165.254Z" fill="white"/>
<path d="M288.448 159.032L291.685 157.174C291.923 157.002 292.117 156.778 292.253 156.518C292.389 156.259 292.462 155.971 292.468 155.679V152.231C292.468 151.652 292.117 151.382 291.685 151.638L288.448 153.497C288.211 153.668 288.016 153.893 287.88 154.152C287.745 154.412 287.671 154.699 287.666 154.992V158.44C287.666 159.032 288.017 159.261 288.448 159.032Z" fill="white"/>
<path d="M277.632 211.181L280.869 209.323C281.107 209.151 281.301 208.927 281.437 208.667C281.573 208.408 281.646 208.12 281.651 207.828V204.38C281.651 203.801 281.301 203.531 280.869 203.787L277.632 205.646C277.394 205.817 277.2 206.041 277.064 206.301C276.928 206.56 276.855 206.848 276.85 207.141V210.589C276.85 211.168 277.2 211.437 277.632 211.181Z" fill="white"/>
<path d="M288.448 204.945L291.685 203.087C291.922 202.915 292.116 202.69 292.252 202.431C292.387 202.171 292.461 201.884 292.468 201.592V198.09C292.468 197.524 292.117 197.255 291.685 197.497L288.448 199.37C288.209 199.539 288.013 199.763 287.878 200.023C287.742 200.283 287.669 200.571 287.666 200.864V204.312C287.666 204.932 288.017 205.201 288.448 204.945Z" fill="white"/>
<path d="M277.632 256.448L280.869 254.59C281.107 254.418 281.301 254.194 281.437 253.934C281.573 253.675 281.646 253.387 281.651 253.095V249.647C281.651 249.068 281.301 248.798 280.869 249.054L277.632 250.913C277.394 251.084 277.2 251.309 277.064 251.568C276.928 251.828 276.855 252.115 276.85 252.408V255.869C276.85 256.435 277.2 256.704 277.632 256.448Z" fill="white"/>
<path d="M288.448 250.212L291.685 248.354C291.922 248.182 292.116 247.957 292.252 247.698C292.387 247.438 292.461 247.151 292.468 246.859V243.397C292.468 242.832 292.117 242.562 291.685 242.805L288.448 244.677C288.211 244.848 288.016 245.073 287.88 245.332C287.745 245.592 287.671 245.879 287.666 246.172V249.62C287.666 250.199 288.017 250.468 288.448 250.212Z" fill="white"/>
<path d="M157.522 364.208L70.6777 314.739C67.4957 312.907 67.9002 309.715 71.5676 307.601L121.536 278.779C125.203 276.664 130.758 276.435 133.926 278.267L220.784 327.736C223.952 329.567 223.561 332.759 219.894 334.874L169.913 363.75C166.245 365.81 160.704 366.039 157.522 364.208Z" fill="#084EA8"/>
<path d="M228.524 311.075V108.54L147.923 87.4617L133.091 78.9093C129.694 76.943 123.734 77.1854 119.797 79.4615L105.923 87.4482H62.9258L75.6672 282.94C75.654 283.691 75.8633 284.429 76.2687 285.062C76.6741 285.694 77.2576 286.193 77.9458 286.496L158.385 347.103C161.797 349.069 167.743 348.813 171.68 346.551L225.288 315.574C227.553 314.348 228.645 312.651 228.524 311.075Z" fill="#084EA8"/>
<path d="M126.903 77.5896C124.408 77.6202 121.958 78.2631 119.77 79.4617L105.923 87.4484H62.9259V290.496C62.9199 291.249 63.1335 291.987 63.5405 292.621C63.9475 293.255 64.5304 293.757 65.218 294.065L158.386 347.13C160.287 348.12 162.419 348.585 164.561 348.477L165.518 144.123L126.903 77.5896Z" fill="#C2E7FF"/>
<path d="M159.234 347.588C162.68 348.827 166.456 348.784 169.872 347.467V141.685H159.234V347.588Z" fill="#39BDE5"/>
<path d="M158.385 144.123L65.2175 91.0444C61.8063 89.078 62.2378 85.6571 66.1748 83.381L119.77 52.4713C123.707 50.1952 129.666 49.9527 133.064 51.9191L226.245 104.984C229.643 106.95 229.225 110.371 225.288 112.648L171.679 143.625C167.742 145.833 161.823 146.089 158.385 144.123Z" fill="#C2E7FF"/>
<path d="M225.288 108.89L171.679 139.867C167.742 142.143 161.796 142.385 158.385 140.419L65.2174 87.3541C64.5447 86.9855 63.964 86.4699 63.5186 85.8457C62.3455 87.7313 62.8714 89.765 65.2174 91.1118L158.385 144.19C161.796 146.157 167.742 145.901 171.679 143.638L225.288 112.661C228.348 110.897 229.333 108.432 227.984 106.506C227.291 107.507 226.366 108.325 225.288 108.89V108.89Z" fill="#E9F0F4"/>
<path d="M161.013 122.668L98.991 86.7481C97.3865 85.8323 97.6427 84.2161 99.4359 83.1521L124.514 68.6872C125.465 68.1419 126.531 67.8296 127.625 67.7757C128.72 67.7219 129.812 67.9281 130.811 68.3774L192.833 104.297C194.437 105.213 194.181 106.829 192.388 107.88L167.215 122.358C166.275 122.884 165.226 123.186 164.15 123.24C163.074 123.293 162 123.098 161.013 122.668V122.668Z" fill="#084EA8"/>
<path d="M127.539 88.3102L123.939 86.3035C123.723 86.1688 123.75 85.9533 123.939 85.8051L127.404 83.7984C127.537 83.7287 127.685 83.6924 127.836 83.6924C127.986 83.6924 128.134 83.7287 128.267 83.7984L131.853 85.859C132.083 85.9937 132.056 86.2092 131.853 86.3573L128.388 88.2698C128.26 88.3425 128.116 88.384 127.968 88.391C127.821 88.398 127.674 88.3704 127.539 88.3102Z" fill="#C2E7FF"/>
<path d="M139.537 95.2062L135.951 93.1321C135.722 92.9974 135.749 92.7819 135.951 92.6337L139.43 90.627C139.563 90.5574 139.711 90.521 139.861 90.521C140.011 90.521 140.159 90.5574 140.293 90.627L143.879 92.7011C144.108 92.8223 144.068 93.0513 143.879 93.1859L140.4 95.1927C140.267 95.2613 140.12 95.2982 139.971 95.3005C139.821 95.3028 139.673 95.2706 139.537 95.2062V95.2062Z" fill="#C2E7FF"/>
<path d="M151.548 102.102L147.948 100.028C147.732 99.8931 147.759 99.6776 148.015 99.5294L151.48 97.5227C151.614 97.4562 151.762 97.4216 151.912 97.4216C152.061 97.4216 152.209 97.4562 152.343 97.5227L155.943 99.5968C156.159 99.718 156.132 99.947 155.943 100.095L152.384 102.061C152.256 102.129 152.115 102.168 151.97 102.175C151.826 102.182 151.681 102.157 151.548 102.102V102.102Z" fill="#C2E7FF"/>
<path d="M163.568 108.998L159.968 106.924C159.753 106.802 159.779 106.573 159.968 106.425L163.433 104.432C163.567 104.362 163.715 104.326 163.865 104.326C164.015 104.326 164.163 104.362 164.296 104.432L167.95 106.506C168.179 106.627 168.152 106.856 167.95 107.004L164.472 108.998C164.333 109.073 164.178 109.113 164.02 109.113C163.862 109.113 163.707 109.073 163.568 108.998V108.998Z" fill="#C2E7FF"/>
<path d="M98.9934 86.6939H99.0608C99.1822 86.6131 99.29 86.5189 99.4384 86.438L124.517 71.9731C125.473 71.4397 126.544 71.1418 127.639 71.1043C128.734 71.0669 129.822 71.2908 130.813 71.7576L192.835 107.624C194.305 106.573 194.386 105.145 192.835 104.297L130.813 68.3771C129.827 67.9308 128.75 67.7214 127.668 67.7659C126.587 67.8103 125.53 68.1073 124.584 68.633L99.4384 83.0979C97.5912 84.1619 97.3889 85.7781 98.9934 86.6939Z" fill="#084EA8"/>
<path d="M148.102 184.245L79.2582 144.54C78.1615 143.76 77.2641 142.733 76.6387 141.542C76.0133 140.351 75.6774 139.03 75.6582 137.685V125.079C75.6582 122.385 77.2627 121.227 79.2582 122.385L148.102 162.09C149.195 162.873 150.089 163.901 150.711 165.091C151.334 166.282 151.669 167.602 151.689 168.945V181.551C151.689 184.178 150.084 185.39 148.102 184.245Z" fill="white"/>
<path d="M142.949 173.106L139.712 171.248C139.477 171.084 139.282 170.869 139.142 170.62C139.002 170.37 138.92 170.092 138.902 169.807V166.345C138.902 165.766 139.253 165.51 139.685 165.753L142.922 167.625C143.161 167.795 143.356 168.019 143.492 168.279C143.628 168.538 143.701 168.827 143.704 169.12V172.5C143.663 173.093 143.313 173.362 142.949 173.106Z" fill="#084EA8"/>
<path d="M132.068 166.871L128.831 164.999C128.592 164.829 128.396 164.605 128.26 164.345C128.124 164.085 128.052 163.797 128.049 163.504V160.056C128.049 159.477 128.4 159.221 128.831 159.463L132.068 161.335C132.307 161.505 132.503 161.729 132.639 161.989C132.775 162.249 132.847 162.537 132.85 162.83V166.278C132.85 166.857 132.5 167.113 132.068 166.871Z" fill="#084EA8"/>
<path d="M148.102 229.768L79.2582 190.009C78.1777 189.241 77.2903 188.233 76.6656 187.065C76.041 185.897 75.6961 184.599 75.6582 183.275V170.669C75.6582 167.975 77.2627 166.817 79.2582 167.975L148.102 207.68C149.195 208.463 150.089 209.491 150.711 210.681C151.334 211.872 151.669 213.192 151.689 214.535V227.128C151.689 229.7 150.084 230.912 148.102 229.768Z" fill="white"/>
<path d="M142.949 218.629L139.712 216.757C139.473 216.587 139.277 216.363 139.141 216.103C139.005 215.844 138.933 215.555 138.93 215.262V211.814C138.93 211.235 139.28 210.979 139.712 211.222L142.949 213.094C143.188 213.264 143.384 213.488 143.52 213.748C143.656 214.007 143.728 214.296 143.731 214.589V218.037C143.664 218.616 143.313 218.872 142.949 218.629Z" fill="#084EA8"/>
<path d="M132.068 212.393L128.831 210.521C128.592 210.351 128.396 210.127 128.26 209.867C128.124 209.608 128.052 209.319 128.049 209.026V205.578C128.049 204.999 128.4 204.73 128.831 204.986L132.068 206.844C132.305 207.017 132.499 207.241 132.635 207.5C132.77 207.76 132.844 208.047 132.85 208.339V211.801C132.85 212.38 132.5 212.636 132.068 212.393Z" fill="#C2E7FF"/>
<path d="M148.102 275.29L79.2582 235.586C78.1604 234.803 77.2625 233.774 76.6371 232.581C76.0117 231.387 75.6763 230.064 75.6582 228.717V216.124C75.6582 213.43 77.2627 212.272 79.2582 213.43L148.102 253.135C149.196 253.92 150.09 254.95 150.713 256.143C151.336 257.336 151.67 258.658 151.689 260.004V272.596C151.689 275.209 150.084 276.435 148.102 275.29Z" fill="white"/>
<path d="M142.949 264.152L139.712 262.28C139.473 262.11 139.277 261.886 139.141 261.626C139.005 261.366 138.933 261.078 138.93 260.785V257.35C138.93 256.771 139.28 256.502 139.712 256.758L142.949 258.616C143.186 258.789 143.38 259.013 143.515 259.272C143.651 259.532 143.725 259.819 143.731 260.111V263.573C143.664 264.084 143.313 264.394 142.949 264.152Z" fill="#C2E7FF"/>
<path d="M132.068 257.903L128.831 256.004C128.593 255.832 128.399 255.608 128.263 255.348C128.127 255.089 128.054 254.801 128.049 254.509V251.061C128.049 250.482 128.4 250.212 128.831 250.468L132.068 252.327C132.306 252.498 132.5 252.723 132.636 252.982C132.772 253.242 132.845 253.529 132.85 253.822V257.35C132.85 257.889 132.5 258.159 132.068 257.903Z" fill="#084EA8"/>
<path d="M148.102 320.799L79.2582 281.095C78.1615 280.315 77.2641 279.288 76.6387 278.097C76.0133 276.906 75.6774 275.584 75.6582 274.24V261.647C75.6582 258.953 77.2627 257.781 79.2582 258.953L148.102 298.658C149.196 299.443 150.09 300.473 150.713 301.666C151.336 302.859 151.67 304.181 151.689 305.526V318.119C151.689 320.732 150.084 321.998 148.102 320.799Z" fill="white"/>
<path d="M142.949 309.675L139.712 307.803C139.474 307.631 139.28 307.407 139.144 307.147C139.008 306.888 138.935 306.6 138.93 306.308V302.86C138.93 302.281 139.28 302.011 139.712 302.267L142.949 304.126C143.187 304.297 143.381 304.522 143.517 304.781C143.653 305.041 143.726 305.328 143.731 305.621V309.082C143.664 309.648 143.313 309.877 142.949 309.675Z" fill="#C2E7FF"/>
<path d="M132.068 303.426L128.831 301.567C128.593 301.395 128.399 301.171 128.263 300.912C128.127 300.652 128.054 300.365 128.049 300.072V296.611C128.049 296.045 128.4 295.776 128.831 296.031L132.068 297.89C132.306 298.061 132.5 298.286 132.636 298.545C132.772 298.805 132.845 299.092 132.85 299.385V302.833C132.85 303.412 132.5 303.681 132.068 303.426Z" fill="#C2E7FF"/>
<path d="M182.147 184.245L217.419 164.042C218.513 163.26 219.409 162.232 220.034 161.042C220.659 159.851 220.996 158.531 221.019 157.187V144.621C221.019 141.928 219.401 140.756 217.419 141.928L182.147 162.13C181.054 162.913 180.161 163.941 179.538 165.132C178.915 166.322 178.58 167.642 178.561 168.985V181.592C178.561 184.177 180.165 185.39 182.147 184.245Z" fill="#084EA8"/>
<path d="M182.147 229.767L217.419 209.565C218.513 208.783 219.409 207.755 220.034 206.565C220.659 205.374 220.996 204.054 221.019 202.71V190.103C221.019 187.41 219.401 186.252 217.419 187.41L182.147 207.612C181.054 208.395 180.161 209.423 179.538 210.614C178.915 211.805 178.58 213.124 178.561 214.468V227.06C178.561 229.7 180.165 230.912 182.147 229.767Z" fill="#084EA8"/>
<path d="M182.147 275.29L217.419 255.088C218.513 254.305 219.409 253.278 220.034 252.087C220.659 250.897 220.996 249.577 221.019 248.232V235.626C221.019 232.933 219.401 231.774 217.419 232.933L182.147 253.135C181.053 253.92 180.159 254.951 179.536 256.143C178.913 257.336 178.579 258.658 178.561 260.004V272.597C178.561 275.209 180.165 276.435 182.147 275.29Z" fill="#084EA8"/>
<path d="M182.147 320.8L217.419 300.597C218.513 299.815 219.409 298.787 220.034 297.597C220.659 296.406 220.996 295.086 221.019 293.742V281.136C221.019 278.442 219.401 277.284 217.419 278.442L182.147 298.644C181.053 299.43 180.159 300.46 179.536 301.653C178.913 302.846 178.579 304.168 178.561 305.513V318.106C178.561 320.732 180.165 321.998 182.147 320.8Z" fill="#084EA8"/>
<path d="M192.755 170.561L195.992 168.689C196.231 168.519 196.427 168.295 196.563 168.035C196.699 167.775 196.771 167.487 196.774 167.194V163.746C196.774 163.167 196.424 162.911 195.992 163.153L192.755 165.025C192.516 165.195 192.32 165.419 192.184 165.679C192.048 165.939 191.976 166.227 191.973 166.52V169.968C191.973 170.547 192.323 170.803 192.755 170.561Z" fill="white"/>
<path d="M203.624 164.325L206.861 162.453C207.1 162.283 207.296 162.059 207.431 161.799C207.567 161.54 207.64 161.251 207.643 160.958V157.51C207.643 156.931 207.292 156.662 206.861 156.918L203.624 158.776C203.387 158.948 203.193 159.173 203.057 159.432C202.922 159.692 202.848 159.979 202.841 160.271V163.733C202.787 164.298 203.138 164.568 203.624 164.325Z" fill="white"/>
<path d="M192.755 215.733L195.992 213.861C196.231 213.691 196.427 213.467 196.563 213.208C196.699 212.948 196.771 212.66 196.774 212.366V208.865C196.774 208.286 196.424 208.03 195.992 208.272L192.755 210.144C192.516 210.314 192.32 210.538 192.184 210.798C192.048 211.058 191.976 211.346 191.973 211.639V215.087C191.973 215.72 192.323 215.976 192.755 215.733Z" fill="white"/>
<path d="M203.624 209.498L206.861 207.626C207.1 207.456 207.296 207.232 207.431 206.972C207.567 206.712 207.64 206.424 207.643 206.131V202.683C207.643 202.104 207.292 201.834 206.861 202.09L203.624 203.949C203.387 204.121 203.193 204.346 203.057 204.605C202.922 204.864 202.848 205.151 202.841 205.444V208.865C202.787 209.471 203.138 209.74 203.624 209.498Z" fill="white"/>
<path d="M192.755 261.674L195.992 259.802C196.231 259.632 196.427 259.408 196.563 259.148C196.699 258.888 196.771 258.6 196.774 258.307V254.859C196.774 254.28 196.424 254.01 195.992 254.266L192.755 256.125C192.518 256.297 192.324 256.522 192.188 256.781C192.053 257.04 191.979 257.327 191.973 257.62V261.081C191.973 261.647 192.323 261.916 192.755 261.674Z" fill="white"/>
<path d="M203.624 255.425L206.861 253.566C207.098 253.394 207.293 253.17 207.429 252.911C207.564 252.651 207.638 252.364 207.643 252.071V248.623C207.643 248.044 207.292 247.775 206.861 248.03L203.624 249.889C203.386 250.061 203.192 250.285 203.056 250.544C202.92 250.804 202.847 251.091 202.841 251.384V254.832C202.787 255.411 203.138 255.68 203.624 255.425Z" fill="white"/>
<path d="M192.755 306.941L195.992 305.069C196.231 304.899 196.427 304.675 196.563 304.415C196.699 304.155 196.771 303.867 196.774 303.574V300.126C196.774 299.547 196.424 299.277 195.992 299.533L192.755 301.392C192.518 301.564 192.324 301.788 192.188 302.048C192.053 302.307 191.979 302.594 191.973 302.887V306.348C191.973 306.927 192.323 307.183 192.755 306.941Z" fill="white"/>
<path d="M203.624 300.691L206.861 298.833C207.098 298.661 207.293 298.437 207.429 298.178C207.564 297.918 207.638 297.631 207.643 297.338V293.89C207.643 293.311 207.292 293.041 206.861 293.297L203.624 295.156C203.386 295.327 203.192 295.552 203.056 295.811C202.92 296.071 202.847 296.358 202.841 296.651V300.112C202.787 300.678 203.138 300.947 203.624 300.691Z" fill="white"/>
<path d="M362.036 380.666L275.178 331.197C272.01 329.365 272.401 326.173 276.068 324.059L326.049 295.237C329.717 293.122 335.258 292.893 338.44 294.725L425.284 344.194C428.466 346.026 428.062 349.231 424.394 351.346L374.426 380.154C370.813 382.269 365.218 382.511 362.036 380.666Z" fill="#084EA8"/>
<path d="M433.04 327.547V124.998L352.425 103.933L337.594 95.3676C334.182 93.4012 328.236 93.6437 324.299 95.9198L310.452 103.906H267.455L280.183 299.425C280.177 300.178 280.391 300.917 280.798 301.55C281.205 302.184 281.788 302.686 282.475 302.994L362.915 363.602C366.312 365.568 372.272 365.326 376.209 363.049L429.817 332.072C432.069 330.82 433.161 329.123 433.04 327.547Z" fill="#084EA8"/>
<path d="M331.416 94.0479C328.922 94.085 326.474 94.7275 324.284 95.9199L310.437 103.907H267.44V306.968C267.433 307.717 267.645 308.452 268.05 309.084C268.455 309.715 269.034 310.215 269.718 310.523L362.899 363.588C364.797 364.577 366.924 365.042 369.061 364.935L370.032 160.581L331.416 94.0479Z" fill="#C2E7FF"/>
<path d="M363.748 364.006C367.188 365.251 370.963 365.208 374.373 363.885V158.143H363.748V364.006Z" fill="#39BDE5"/>
<path d="M362.9 160.581L269.693 107.516C266.295 105.55 266.713 102.129 270.65 99.8392L324.285 68.9296C328.222 66.6534 334.168 66.411 337.579 68.3774L430.747 121.442C434.158 123.409 433.727 126.83 429.803 129.119L376.208 160.029C372.258 162.305 366.298 162.547 362.9 160.581Z" fill="#C2E7FF"/>
<path d="M429.801 125.362L376.193 156.339C372.256 158.615 366.296 158.857 362.899 156.891L269.691 103.812C269.02 103.44 268.44 102.925 267.992 102.304C266.832 104.19 267.358 106.223 269.691 107.584L362.872 160.648C366.269 162.615 372.229 162.372 376.166 160.096L429.774 129.187C432.822 127.422 433.752 124.958 432.471 123.018C431.786 124.005 430.87 124.81 429.801 125.362V125.362Z" fill="#E9F0F4"/>
<path d="M365.526 139.072L303.504 103.152C301.913 102.237 302.155 100.634 303.962 99.5698L329.014 85.1049C329.959 84.5781 331.015 84.2793 332.096 84.2326C333.178 84.1858 334.255 84.3923 335.243 84.8355L397.265 120.755C398.856 121.685 398.613 123.287 396.82 124.351L371.755 138.83C370.808 139.353 369.751 139.648 368.669 139.69C367.587 139.732 366.511 139.521 365.526 139.072V139.072Z" fill="#084EA8"/>
<path d="M332.032 104.768L328.445 102.694C328.216 102.573 328.243 102.344 328.445 102.196L331.924 100.203C332.057 100.133 332.205 100.097 332.355 100.097C332.505 100.097 332.654 100.133 332.787 100.203L336.373 102.277C336.602 102.398 336.575 102.627 336.373 102.775L332.895 104.768C332.76 104.835 332.613 104.869 332.463 104.869C332.313 104.869 332.166 104.835 332.032 104.768V104.768Z" fill="#C2E7FF"/>
<path d="M344.046 111.664L340.446 109.59C340.23 109.469 340.257 109.24 340.513 109.092L343.978 107.099C344.113 107.033 344.26 106.999 344.41 106.999C344.559 106.999 344.707 107.033 344.841 107.099L348.441 109.2C348.657 109.321 348.63 109.55 348.441 109.698L344.976 111.691C344.831 111.764 344.67 111.799 344.508 111.795C344.345 111.79 344.187 111.745 344.046 111.664V111.664Z" fill="#C2E7FF"/>
<path d="M356.061 118.627L352.461 116.553C352.246 116.432 352.273 116.203 352.529 116.055L355.98 113.994C356.115 113.929 356.262 113.895 356.412 113.895C356.561 113.895 356.709 113.929 356.843 113.994L360.443 116.068C360.659 116.19 360.632 116.419 360.443 116.567L356.978 118.56C356.844 118.65 356.689 118.703 356.529 118.715C356.368 118.727 356.207 118.696 356.061 118.627V118.627Z" fill="#C2E7FF"/>
<path d="M368.114 125.456L364.527 123.381C364.298 123.26 364.325 123.031 364.527 122.883L368.006 120.89C368.14 120.823 368.288 120.789 368.437 120.789C368.587 120.789 368.735 120.823 368.869 120.89L372.455 122.964C372.684 123.099 372.644 123.314 372.455 123.462L368.977 125.469C368.842 125.537 368.694 125.571 368.543 125.568C368.393 125.566 368.246 125.527 368.114 125.456V125.456Z" fill="#C2E7FF"/>
<path d="M303.488 103.152H303.569C303.69 103.072 303.798 102.977 303.946 102.896L329.011 88.472C329.957 87.9463 331.014 87.6493 332.095 87.6048C333.177 87.5604 334.254 87.7697 335.24 88.2161L397.195 124.096C398.664 123.045 398.732 121.604 397.262 120.755L335.24 84.8355C334.253 84.3923 333.175 84.1858 332.094 84.2326C331.012 84.2793 329.957 84.5781 329.011 85.1049L303.933 99.5698C302.045 100.634 301.897 102.237 303.488 103.152Z" fill="#084EA8"/>
<path d="M352.595 200.703L283.751 160.998C282.658 160.215 281.764 159.187 281.141 157.997C280.519 156.806 280.184 155.486 280.164 154.143V141.523C280.164 138.83 281.769 137.658 283.751 138.83L352.595 178.534C353.689 179.317 354.585 180.344 355.21 181.535C355.835 182.725 356.172 184.045 356.195 185.389V197.996C356.195 200.636 354.631 201.848 352.595 200.703Z" fill="white"/>
<path d="M347.392 189.565L344.155 187.706C343.918 187.535 343.723 187.31 343.587 187.051C343.452 186.791 343.378 186.504 343.373 186.211V182.763C343.373 182.184 343.724 181.915 344.155 182.171L347.392 184.029C347.63 184.201 347.824 184.425 347.96 184.684C348.096 184.944 348.169 185.231 348.175 185.524V188.972C348.175 189.551 347.891 189.821 347.392 189.565Z" fill="#084EA8"/>
<path d="M336.578 183.275L333.341 181.416C333.104 181.244 332.91 181.02 332.774 180.76C332.639 180.501 332.565 180.214 332.559 179.921V176.541C332.559 175.975 332.909 175.706 333.341 175.948L336.578 177.82C336.817 177.99 337.013 178.214 337.149 178.474C337.285 178.734 337.357 179.022 337.36 179.315V182.763C337.36 183.275 337.01 183.585 336.578 183.275Z" fill="#084EA8"/>
<path d="M352.595 246.226L283.751 206.521C282.658 205.738 281.764 204.71 281.141 203.519C280.519 202.329 280.184 201.009 280.164 199.666V187.06C280.164 184.366 281.769 183.208 283.751 184.366L352.595 224.07C353.689 224.853 354.585 225.88 355.21 227.071C355.835 228.261 356.172 229.582 356.195 230.926V243.532C356.195 246.158 354.631 247.37 352.595 246.226Z" fill="white"/>
<path d="M347.392 235.088L344.155 233.229C343.918 233.057 343.725 232.832 343.589 232.573C343.453 232.314 343.379 232.027 343.373 231.734V228.273C343.373 227.707 343.724 227.438 344.155 227.68L347.392 229.552C347.632 229.722 347.827 229.946 347.963 230.206C348.099 230.466 348.172 230.754 348.175 231.047V234.455C348.175 235.074 347.891 235.343 347.392 235.088Z" fill="#084EA8"/>
<path d="M336.578 228.852L333.341 226.98C333.102 226.81 332.906 226.586 332.77 226.326C332.634 226.066 332.562 225.778 332.559 225.485V222.037C332.559 221.458 332.909 221.202 333.341 221.444L336.578 223.316C336.817 223.486 337.013 223.71 337.149 223.97C337.285 224.23 337.357 224.518 337.36 224.811V228.259C337.36 228.838 337.01 229.067 336.578 228.852Z" fill="#C2E7FF"/>
<path d="M352.595 291.749L283.751 252.044C282.658 251.261 281.764 250.233 281.141 249.042C280.519 247.852 280.184 246.532 280.164 245.189V232.582C280.164 229.889 281.769 228.731 283.751 229.889L352.595 269.593C353.689 270.376 354.585 271.403 355.21 272.594C355.835 273.784 356.172 275.104 356.195 276.449V289.041C356.195 291.681 354.631 292.893 352.595 291.749Z" fill="white"/>
<path d="M347.392 280.61L344.155 278.738C343.916 278.568 343.721 278.344 343.585 278.084C343.449 277.825 343.376 277.536 343.373 277.243V273.795C343.373 273.216 343.724 272.96 344.155 273.203L347.392 275.075C347.632 275.245 347.827 275.469 347.963 275.729C348.099 275.988 348.172 276.277 348.175 276.57V280.018C348.175 280.597 347.891 280.866 347.392 280.61Z" fill="#C2E7FF"/>
<path d="M336.578 274.374L333.341 272.502C333.102 272.332 332.906 272.108 332.77 271.849C332.634 271.589 332.562 271.3 332.559 271.007V267.559C332.559 266.98 332.909 266.711 333.341 266.967L336.578 268.839C336.817 269.009 337.013 269.233 337.149 269.493C337.285 269.753 337.357 270.041 337.36 270.334V273.782C337.36 274.361 337.01 274.617 336.578 274.374Z" fill="#084EA8"/>
<path d="M352.595 337.271L283.751 297.567C282.658 296.784 281.764 295.756 281.141 294.565C280.519 293.374 280.184 292.055 280.164 290.711V278.105C280.164 275.412 281.769 274.253 283.751 275.412L352.595 315.116C353.689 315.898 354.585 316.926 355.21 318.116C355.835 319.307 356.172 320.627 356.195 321.971V334.564C356.195 337.204 354.631 338.416 352.595 337.271Z" fill="white"/>
<path d="M347.392 326.133L344.155 324.261C343.916 324.091 343.721 323.867 343.585 323.607C343.449 323.347 343.376 323.059 343.373 322.766V319.304C343.373 318.725 343.724 318.469 344.155 318.712L347.392 320.584C347.632 320.754 347.827 320.978 347.963 321.238C348.099 321.498 348.172 321.786 348.175 322.079V325.527C348.175 326.119 347.891 326.375 347.392 326.133Z" fill="#C2E7FF"/>
<path d="M336.578 319.897L333.341 318.025C333.102 317.855 332.906 317.631 332.77 317.371C332.634 317.112 332.562 316.823 332.559 316.53V313.082C332.559 312.503 332.909 312.234 333.341 312.49L336.578 314.348C336.815 314.52 337.009 314.745 337.144 315.004C337.28 315.264 337.354 315.551 337.36 315.843V319.305C337.36 319.87 337.01 320.14 336.578 319.897Z" fill="#C2E7FF"/>
<path d="M386.655 200.703L421.926 180.501C423.02 179.715 423.914 178.685 424.537 177.492C425.16 176.299 425.494 174.977 425.513 173.632V161.039C425.513 158.345 423.908 157.174 421.926 158.345L386.655 178.548C385.56 179.33 384.665 180.358 384.039 181.548C383.414 182.739 383.077 184.059 383.055 185.403V198.009C383.055 200.636 384.673 201.848 386.655 200.703Z" fill="#084EA8"/>
<path d="M386.655 246.226L421.926 226.023C423.019 225.24 423.912 224.212 424.535 223.022C425.158 221.831 425.493 220.511 425.513 219.168V206.575C425.513 203.882 423.908 202.71 421.926 203.882L386.655 224.084C385.56 224.866 384.665 225.894 384.039 227.085C383.414 228.275 383.077 229.595 383.055 230.939V243.546C383.055 246.159 384.673 247.371 386.655 246.226Z" fill="#084EA8"/>
<path d="M386.655 291.749L421.926 271.546C423.019 270.763 423.912 269.735 424.535 268.544C425.158 267.354 425.493 266.034 425.513 264.691V252.098C425.513 249.404 423.908 248.233 421.926 249.404L386.655 269.607C385.56 270.389 384.665 271.417 384.039 272.607C383.414 273.798 383.077 275.118 383.055 276.462V289.055C383.055 291.681 384.673 292.893 386.655 291.749Z" fill="#084EA8"/>
<path d="M386.655 337.271L421.926 317.069C423.019 316.286 423.912 315.258 424.535 314.067C425.158 312.876 425.493 311.557 425.513 310.213V297.607C425.513 294.913 423.908 293.755 421.926 294.913L386.655 315.116C385.56 315.898 384.665 316.926 384.039 318.116C383.414 319.307 383.077 320.627 383.055 321.971V334.564C383.055 337.204 384.673 338.416 386.655 337.271Z" fill="#084EA8"/>
<path d="M397.264 187.019L400.501 185.161C400.738 184.988 400.931 184.764 401.067 184.505C401.203 184.245 401.277 183.958 401.283 183.666V180.204C401.283 179.639 400.932 179.369 400.501 179.612L397.264 181.484C397.024 181.654 396.829 181.878 396.693 182.138C396.557 182.397 396.485 182.686 396.481 182.979V186.427C396.427 187.006 396.832 187.316 397.264 187.019Z" fill="white"/>
<path d="M408.077 180.783L411.314 178.911C411.553 178.741 411.749 178.517 411.885 178.258C412.021 177.998 412.093 177.709 412.097 177.416V173.968C412.097 173.389 411.746 173.133 411.314 173.376L408.077 175.248C407.838 175.418 407.642 175.642 407.506 175.902C407.37 176.162 407.298 176.45 407.295 176.743V180.191C407.295 180.77 407.646 181.026 408.077 180.783Z" fill="white"/>
<path d="M397.264 232.192L400.501 230.333C400.738 230.161 400.931 229.937 401.067 229.677C401.203 229.418 401.277 229.131 401.283 228.838V225.377C401.283 224.811 400.932 224.542 400.501 224.784L397.264 226.656C397.024 226.826 396.829 227.05 396.693 227.31C396.557 227.57 396.485 227.858 396.481 228.151V231.599C396.427 232.178 396.832 232.448 397.264 232.192Z" fill="white"/>
<path d="M408.077 225.956L411.314 224.084C411.553 223.914 411.749 223.69 411.885 223.43C412.021 223.17 412.093 222.882 412.097 222.589V219.141C412.097 218.562 411.746 218.306 411.314 218.548L408.077 220.421C407.838 220.59 407.642 220.814 407.506 221.074C407.37 221.334 407.298 221.622 407.295 221.915V225.363C407.295 225.943 407.646 226.198 408.077 225.956Z" fill="white"/>
<path d="M397.268 278.132L400.478 276.206C400.717 276.036 400.912 275.812 401.048 275.552C401.184 275.292 401.257 275.004 401.26 274.711V271.263C401.26 270.684 400.909 270.428 400.478 270.671L397.241 272.543C397.001 272.713 396.806 272.937 396.67 273.196C396.534 273.456 396.461 273.745 396.458 274.038V277.553C396.431 278.119 396.836 278.374 397.268 278.132Z" fill="white"/>
<path d="M408.077 271.896L411.314 270.024C411.553 269.854 411.749 269.63 411.885 269.37C412.021 269.111 412.093 268.822 412.097 268.529V265.081C412.097 264.502 411.746 264.233 411.314 264.489L408.077 266.347C407.84 266.519 407.646 266.744 407.511 267.003C407.375 267.263 407.301 267.55 407.295 267.842V271.304C407.295 271.883 407.646 272.166 408.077 271.896Z" fill="white"/>
<path d="M397.266 323.345L400.503 321.473C400.742 321.303 400.938 321.079 401.074 320.819C401.21 320.559 401.282 320.271 401.285 319.978V316.611C401.285 316.032 400.935 315.776 400.503 316.018L397.266 317.89C397.027 318.046 396.828 318.255 396.683 318.5C396.538 318.746 396.451 319.021 396.43 319.305V322.753C396.43 323.345 396.834 323.655 397.266 323.345Z" fill="white"/>
<path d="M408.08 317.163L411.263 315.264C411.503 315.094 411.698 314.87 411.834 314.61C411.97 314.35 412.043 314.062 412.046 313.769V310.321C412.046 309.742 411.695 309.473 411.263 309.729L408.026 311.601C407.787 311.771 407.592 311.995 407.456 312.254C407.32 312.514 407.247 312.803 407.244 313.096V316.611C407.298 317.15 407.649 317.406 408.08 317.163Z" fill="white"/>
<path d="M291.423 412.747C279.288 419.751 259.617 419.751 247.482 412.747C235.347 405.744 235.347 394.404 247.482 387.414C259.617 380.424 279.288 380.41 291.423 387.414C303.558 394.417 303.558 405.757 291.423 412.747Z" fill="#084EA8"/>
<path d="M283.754 389.191C282.85 388.673 281.908 388.223 280.936 387.845V387.845L275.543 385.434L275.947 386.376C271.743 385.564 267.427 385.518 263.206 386.242L263.462 385.191L257.071 388.02C256.256 388.369 255.46 388.761 254.685 389.191C246.662 393.824 246.662 401.313 254.685 405.946C262.707 410.579 275.718 410.579 283.741 405.946C291.763 401.313 291.79 393.824 283.754 389.191Z" fill="#39BDE5"/>
<path d="M276.041 393.555C273.931 394.625 271.598 395.182 269.232 395.182C266.866 395.182 264.533 394.625 262.423 393.555C258.661 391.387 258.661 387.871 262.423 385.703C264.533 384.634 266.866 384.076 269.232 384.076C271.598 384.076 273.931 384.634 276.041 385.703C279.802 387.871 279.802 391.387 276.041 393.555Z" fill="#39BDE5"/>
<path d="M269.231 391.131C268.363 391.131 267.529 390.786 266.915 390.172C266.3 389.558 265.955 388.726 265.955 387.858V346.524H272.508V387.858C272.508 388.726 272.163 389.558 271.548 390.172C270.934 390.786 270.1 391.131 269.231 391.131Z" fill="#39BDE5"/>
<path d="M271.539 348.032C270.804 348.398 269.994 348.588 269.173 348.588C268.352 348.588 267.542 348.398 266.806 348.032C266.533 347.928 266.298 347.744 266.132 347.503C265.966 347.263 265.877 346.978 265.877 346.685C265.877 346.393 265.966 346.108 266.132 345.868C266.298 345.627 266.533 345.443 266.806 345.339C267.54 344.967 268.35 344.774 269.173 344.774C269.995 344.774 270.806 344.967 271.539 345.339C271.807 345.448 272.036 345.634 272.198 345.874C272.359 346.114 272.445 346.396 272.445 346.685C272.445 346.975 272.359 347.257 272.198 347.497C272.036 347.737 271.807 347.923 271.539 348.032Z" fill="#39BDE5"/>
<path d="M269.234 347.952C268.519 347.952 267.833 347.668 267.327 347.163C266.821 346.657 266.537 345.972 266.537 345.258V306.442H271.849V345.298C271.839 345.992 271.562 346.655 271.074 347.149C270.587 347.643 269.928 347.931 269.234 347.952V347.952Z" fill="#39BDE5"/>
<path d="M307.443 326.806V325.284L309.587 324.975L312.001 323.17C312.238 323.024 312.509 322.941 312.787 322.929C313.066 322.917 313.343 322.977 313.592 323.103L315.358 324.14L317.124 323.884V325.419C317.104 325.526 317.056 325.626 316.985 325.709C316.914 325.792 316.823 325.854 316.72 325.891L311.097 328.382C310.867 328.488 310.616 328.543 310.362 328.543C310.109 328.543 309.858 328.488 309.628 328.382L307.767 327.305C307.676 327.265 307.598 327.202 307.541 327.121C307.484 327.04 307.45 326.945 307.443 326.847V326.806Z" fill="#39BDE5"/>
<path d="M307.619 324.867L311.947 321.635C312.189 321.495 312.463 321.422 312.743 321.422C313.022 321.422 313.296 321.495 313.538 321.635L316.761 323.493C317.219 323.749 317.165 324.18 316.666 324.409L311.044 326.901C310.813 327.007 310.563 327.062 310.309 327.062C310.055 327.062 309.804 327.007 309.574 326.901L307.713 325.823C307.309 325.486 307.269 325.123 307.619 324.867Z" fill="#C2E7FF"/>
<path d="M300.311 332.207C300.917 332.218 301.515 332.074 302.05 331.79L308.792 327.897C308.971 327.794 309.101 327.623 309.154 327.424C309.207 327.224 309.179 327.012 309.075 326.833C308.971 326.655 308.801 326.525 308.601 326.472C308.401 326.419 308.189 326.447 308.01 326.551L301.268 330.429C300.969 330.569 300.642 330.641 300.311 330.641C299.98 330.641 299.654 330.569 299.354 330.429L288.176 323.951C288.088 323.885 287.986 323.838 287.877 323.814C287.769 323.79 287.657 323.789 287.548 323.812C287.44 323.834 287.337 323.88 287.248 323.945C287.158 324.01 287.083 324.093 287.028 324.19C286.973 324.286 286.94 324.393 286.929 324.503C286.919 324.613 286.932 324.725 286.968 324.829C287.004 324.934 287.062 325.03 287.137 325.111C287.213 325.192 287.305 325.255 287.408 325.298L298.585 331.763C299.11 332.064 299.706 332.218 300.311 332.207Z" fill="#39BDE5"/>
<path d="M235.631 317.998L246.431 311.722L240.377 308.988L235.199 312.665L235.631 317.998Z" fill="url(#paint0_radial_357_12074)"/>
<path d="M305.001 308.691C304.368 308.359 303.76 307.981 303.181 307.56L280.166 290.711C276.013 287.668 271.725 286.873 268.422 288.556C268.328 288.556 268.26 288.664 268.179 288.705L236.359 307.183L239.218 308.139L250.355 313.176L265.496 323.951L277.442 330.295L277.995 330.402C280.772 328.059 283.9 326.052 285.613 322.631C288.566 317.459 296.804 315.978 301.658 311.776C302.143 312.085 302.628 312.382 303.114 312.638C304.006 311.465 304.649 310.122 305.001 308.691Z" fill="#084EA8"/>
<path d="M315.089 301.082C314.6 301.073 314.123 301.235 313.741 301.54V301.54L282.636 319.52L283.768 324.167L284.941 323.614C283.161 326.389 280.424 328.207 277.957 330.349L281.463 331.089L311.934 313.392L312.352 313.203C312.765 312.993 313.158 312.745 313.525 312.463C315.844 310.671 317.152 307.56 317.152 303.668V303.304C317.163 303.023 317.118 302.742 317.02 302.478C316.922 302.214 316.773 301.972 316.582 301.766C316.39 301.56 316.16 301.393 315.904 301.276C315.648 301.158 315.371 301.092 315.089 301.082V301.082Z" fill="#C2E7FF"/>
<path d="M272.492 287.695C274.662 287.834 276.762 288.515 278.6 289.674C276.762 288.515 274.662 287.834 272.492 287.695V287.695Z" fill="#E4E7E9"/>
<path d="M286.664 320.975V320.651C286.688 320.357 286.65 320.06 286.553 319.781C286.457 319.502 286.303 319.246 286.102 319.029C285.901 318.812 285.658 318.638 285.387 318.52C285.116 318.401 284.823 318.34 284.527 318.34C284.232 318.34 283.939 318.401 283.668 318.52C283.397 318.638 283.153 318.812 282.953 319.029C282.752 319.246 282.598 319.502 282.502 319.781C282.405 320.06 282.367 320.357 282.39 320.651V321.015C282.39 323.87 281.474 325.958 279.896 326.766C278.103 327.668 275.379 327.008 272.615 324.975L249.586 308.126C246.054 305.54 242.427 304.597 239.38 305.432L258.391 294.415L236.359 307.183L239.218 308.139L250.355 313.176L265.496 323.951L277.442 330.295L277.995 330.402C280.772 328.059 283.9 326.052 285.613 322.631C285.914 322.12 286.262 321.638 286.651 321.19C286.651 321.19 286.664 321.015 286.664 320.975Z" fill="#C2E7FF"/>
<path d="M277.439 332.086C274.513 331.95 271.705 330.894 269.416 329.069L246.401 312.22C243.704 310.2 240.913 309.527 239.12 310.442C237.543 311.237 236.626 313.338 236.626 316.193C236.583 316.73 236.339 317.231 235.943 317.597C235.547 317.962 235.028 318.165 234.489 318.165C233.949 318.165 233.43 317.962 233.034 317.597C232.638 317.231 232.394 316.73 232.352 316.193C232.352 311.668 234.118 308.18 237.192 306.631C240.495 304.947 244.783 305.742 248.936 308.772L271.951 325.621C274.648 327.655 277.439 328.315 279.232 327.412C280.809 326.618 281.726 324.517 281.726 321.661V321.298C281.703 321.003 281.741 320.707 281.837 320.428C281.934 320.148 282.088 319.892 282.289 319.675C282.489 319.458 282.733 319.285 283.004 319.166C283.275 319.048 283.568 318.987 283.863 318.987C284.159 318.987 284.452 319.048 284.723 319.166C284.994 319.285 285.237 319.458 285.438 319.675C285.639 319.892 285.792 320.148 285.889 320.428C285.986 320.707 286.024 321.003 286 321.298V321.661C286 326.187 284.234 329.662 281.16 331.224C280.006 331.804 278.73 332.099 277.439 332.086Z" fill="#39BDE5"/>
<path d="M259.351 369.757C259.351 369.757 255.009 367.575 252.353 370.821C249.697 374.067 245.881 381.757 245.774 386.983C245.666 392.208 249.818 391.818 252.394 390.592C254.969 389.366 262.236 378.727 262.681 376.639C262.852 375.694 262.831 374.725 262.62 373.788C262.409 372.851 262.013 371.966 261.454 371.184C260.753 370.592 259.351 369.757 259.351 369.757Z" fill="#C2E7FF"/>
<path d="M260.253 368.706L260.455 373.205C260.479 373.672 260.373 374.136 260.149 374.547C259.926 374.958 259.593 375.3 259.188 375.535C258.167 376.09 256.984 376.271 255.844 376.046C252.581 375.521 252.285 374.592 252.055 370.107C251.826 365.622 260.253 368.706 260.253 368.706Z" fill="#39BDE5"/>
<path d="M243.48 361.123C243.48 361.123 239.152 358.942 236.482 362.201C233.813 365.46 230.01 373.124 229.902 378.363C229.795 383.602 233.947 383.198 236.523 381.972C239.098 380.747 246.379 370.107 246.81 368.033C246.98 367.088 246.96 366.118 246.749 365.181C246.538 364.245 246.142 363.359 245.583 362.578C244.882 361.972 243.48 361.123 243.48 361.123Z" fill="#C2E7FF"/>
<path d="M244.421 360.086L244.623 364.571C244.648 365.039 244.543 365.504 244.319 365.915C244.096 366.327 243.762 366.668 243.356 366.901C242.337 367.462 241.154 367.648 240.012 367.427C236.749 366.901 236.453 365.972 236.223 361.487C235.994 357.002 244.421 360.086 244.421 360.086Z" fill="#39BDE5"/>
<path d="M283.172 277.714C281.891 256.866 260.561 280.785 260.561 280.785L245.905 295.062L232.759 309.486C231.492 310.879 230.544 312.53 229.981 314.326C229.417 316.121 229.252 318.018 229.497 319.884L234.809 360.288C234.952 361.254 235.441 362.136 236.184 362.77C236.928 363.403 237.876 363.747 238.854 363.736C239.514 363.731 240.172 363.672 240.822 363.561C242.091 363.425 243.257 362.803 244.077 361.826C244.896 360.849 245.305 359.594 245.218 358.322L244.247 320.503L271.847 303.883C271.847 303.883 284.386 298.577 283.172 277.714Z" fill="#C2E7FF"/>
<path d="M298.973 285.634C297.692 264.785 276.362 288.705 276.362 288.705L261.773 302.994L248.627 317.419C247.359 318.811 246.411 320.462 245.847 322.258C245.284 324.054 245.119 325.951 245.364 327.816L250.677 368.221C250.82 369.187 251.309 370.068 252.052 370.702C252.796 371.336 253.744 371.68 254.722 371.669C255.381 371.663 256.04 371.605 256.69 371.494C257.957 371.354 259.122 370.732 259.941 369.756C260.76 368.78 261.17 367.526 261.086 366.255L260.115 328.436L287.715 311.816C287.715 311.816 300.254 306.523 298.973 285.634Z" fill="#C2E7FF"/>
<path d="M286.356 218.723C302.536 225.458 302.199 234.966 302.199 234.966C302.199 234.966 299.044 269.984 300.122 293.338C300.567 303.116 248.145 303.856 255.965 277.782C265.188 247.047 261.723 222.171 266.037 218.414C270.352 214.656 282.176 216.946 286.356 218.723Z" fill="#084EA8"/>
<path d="M291.543 227.168C292.388 223.891 289.46 220.305 285.004 219.158C280.547 218.012 276.25 219.74 275.405 223.017C274.56 226.295 277.488 229.881 281.944 231.027C286.401 232.174 290.698 230.446 291.543 227.168Z" fill="white"/>
<path d="M284.706 232.178C283.731 232.158 282.762 232.018 281.821 231.761C279.616 231.23 277.635 230.019 276.158 228.299C275.474 227.581 274.984 226.7 274.734 225.739C274.485 224.779 274.484 223.771 274.732 222.811C274.981 221.85 275.469 220.969 276.153 220.249C276.836 219.529 277.692 218.995 278.639 218.697C280.771 217.94 283.081 217.837 285.272 218.401C287.463 218.965 289.435 220.17 290.936 221.862C291.624 222.578 292.117 223.458 292.37 224.418C292.622 225.379 292.625 226.387 292.378 227.349C292.131 228.311 291.642 229.194 290.958 229.914C290.274 230.634 289.417 231.168 288.468 231.465C287.273 231.946 285.995 232.189 284.706 232.178V232.178ZM282.253 219.639C281.188 219.629 280.131 219.821 279.138 220.205C278.417 220.416 277.763 220.81 277.241 221.35C276.719 221.889 276.346 222.555 276.16 223.282C275.973 224.009 275.979 224.772 276.178 225.496C276.376 226.22 276.76 226.88 277.291 227.411C278.587 228.843 280.277 229.862 282.15 230.341C284.023 230.82 285.995 230.738 287.821 230.104C288.543 229.897 289.199 229.506 289.723 228.968C290.247 228.431 290.622 227.766 290.81 227.04C290.998 226.313 290.992 225.55 290.795 224.826C290.597 224.102 290.213 223.442 289.682 222.912C288.416 221.442 286.717 220.409 284.828 219.963C283.987 219.745 283.121 219.637 282.253 219.639V219.639Z" fill="#C2E7FF"/>
<path d="M279.882 217.996C279.968 219.919 279.919 221.845 279.733 223.761C279.652 225.363 285.288 226.872 286.744 225.417C288.201 223.963 287.621 222.441 287.971 216.973C288.322 211.504 279.882 217.996 279.882 217.996Z" fill="white"/>
<path d="M287.971 216.946C287.971 216.946 286.622 222.023 279.732 223.963L279.84 219.357L287.971 216.946Z" fill="#C2E7FF"/>
<path d="M292.312 204.07C292.926 206.45 292.821 208.959 292.008 211.28C291.196 213.6 289.713 215.628 287.747 217.106C285.781 218.585 283.42 219.448 280.963 219.587C278.506 219.725 276.063 219.133 273.943 217.885C271.823 216.637 270.12 214.789 269.052 212.575C267.983 210.361 267.595 207.879 267.938 205.445C268.28 203.011 269.337 200.733 270.976 198.898C272.615 197.064 274.761 195.757 277.143 195.141C280.34 194.318 283.733 194.796 286.577 196.47C289.421 198.145 291.483 200.878 292.312 204.07V204.07Z" fill="white"/>
<path d="M283.173 207.639C283.173 207.639 276.323 210.575 271.577 210.602C266.831 210.629 267.87 206.669 267.87 206.669L281.959 204.636L283.173 207.639Z" fill="#C2E7FF"/>
<path d="M270.106 208.407C270.106 208.407 276.079 205.875 281.311 206.939C282.573 207.186 283.708 207.868 284.52 208.865C284.755 209.196 285.09 209.441 285.477 209.565C286.407 209.767 287.918 205.915 289.724 205.834C291.531 205.754 292.731 207.02 291.261 209.39C289.792 211.76 290.277 214.4 290.951 214.777C291.625 215.154 298.866 209.632 292.488 197.026C286.111 184.42 269.931 191.221 267.423 193.767C267.423 193.767 264.727 196.083 262.61 194.023C262.569 193.969 260.156 212.057 270.106 208.407Z" fill="#084EA8"/>
<path d="M293.135 260.542V269.97C293.135 270.506 293.022 271.036 292.804 271.526C292.585 272.015 292.266 272.453 291.868 272.812L272.385 290.55L274.596 293.93L300.281 275.317C300.875 274.888 301.371 274.339 301.738 273.705C302.105 273.072 302.335 272.368 302.411 271.64L304.137 255.155L293.135 260.542Z" fill="#C2E7FF"/>
<path d="M300.83 230.239C300.83 230.239 306.736 239.101 308.92 262.428C308.92 262.428 298.835 265.687 293.118 263.775C287.401 261.862 300.83 230.239 300.83 230.239Z" fill="#084EA8"/>
<path d="M292.058 241.445C292.058 241.445 289.752 253.795 289.617 259.6C289.594 260.376 289.818 261.139 290.257 261.78C290.695 262.422 291.326 262.908 292.058 263.169V241.445Z" fill="#084EA8"/>
<path d="M287.019 302.846L282.718 302.281L254.97 286.28C254.418 286.033 253.817 285.917 253.213 285.943C252.609 285.969 252.019 286.135 251.491 286.429L231.833 297.755L229.23 297.419V300.005C229.237 300.197 229.297 300.383 229.404 300.543C229.511 300.702 229.661 300.829 229.837 300.907L261.28 319.049C261.829 319.296 262.428 319.411 263.03 319.386C263.631 319.36 264.219 319.194 264.745 318.901L286.169 306.564C286.408 306.469 286.614 306.309 286.765 306.101C286.915 305.894 287.003 305.648 287.019 305.392V305.392V302.846Z" fill="#084EA8"/>
<path d="M266.16 292.732L264.192 291.6H242.525L231.833 297.755L229.23 297.419V300.005C229.237 300.197 229.297 300.383 229.404 300.543C229.511 300.702 229.661 300.829 229.837 300.907L261.28 319.049C261.834 319.326 262.455 319.443 263.073 319.385L266.16 292.732Z" fill="#084EA8"/>
<path d="M230.39 297.567L229.23 297.419V300.004C229.237 300.197 229.297 300.383 229.404 300.543C229.511 300.702 229.662 300.829 229.837 300.907L230.39 301.23V297.567Z" fill="#394C8F"/>
<path d="M261.6 319.197C262.569 319.505 263.618 319.438 264.54 319.008V314.618H261.6V319.197Z" fill="#084EA8"/>
<path d="M261.279 316.463L229.837 298.334C228.947 297.809 229.055 296.92 230.08 296.328L251.491 283.977C252.02 283.685 252.61 283.52 253.214 283.497C253.818 283.474 254.419 283.592 254.969 283.843L286.412 301.971C287.302 302.483 287.194 303.385 286.169 303.978L264.745 316.328C264.217 316.617 263.629 316.78 263.028 316.803C262.426 316.827 261.828 316.71 261.279 316.463V316.463Z" fill="#C2E7FF"/>
<path d="M260.751 313.715L234.634 298.631C233.893 298.213 233.987 297.459 234.85 296.974L246.324 290.523C246.763 290.283 247.252 290.147 247.752 290.126C248.253 290.105 248.751 290.199 249.209 290.402L275.353 305.486C276.094 305.917 276 306.658 275.151 307.156L263.677 313.594C263.234 313.847 262.738 313.99 262.228 314.011C261.719 314.032 261.213 313.931 260.751 313.715V313.715Z" fill="#39BDE5"/>
<path d="M252.716 283.385L252.379 285.553C252.105 287.402 252.155 289.284 252.528 291.116L252.919 293.028C253.027 293.551 253.289 294.03 253.671 294.404C254.052 294.778 254.537 295.031 255.062 295.129C255.267 295.168 255.477 295.162 255.679 295.114C255.882 295.065 256.071 294.974 256.236 294.847C256.4 294.719 256.535 294.559 256.633 294.375C256.731 294.192 256.788 293.99 256.802 293.782L257.328 289.149C257.328 289.149 258.514 290.698 259.08 290.698C259.647 290.698 258.447 286.065 257.152 283.439C255.858 280.812 252.716 283.385 252.716 283.385Z" fill="#C2E7FF"/>
<path d="M263.364 248.933L259.993 255.667C259.211 257.249 258.753 258.97 258.645 260.731L257.189 283.546L252.753 283.439L250.731 257.849C250.663 257.061 250.704 256.268 250.852 255.492L253.144 242.495L263.364 248.933Z" fill="#C2E7FF"/>
<path d="M260.25 318.214L257.553 314.766L229.832 298.725C229.343 298.375 228.942 297.914 228.663 297.381C228.385 296.847 228.235 296.256 228.228 295.654V272.974L226.637 270.9L228.133 270.038C228.296 269.933 228.486 269.878 228.679 269.878C228.873 269.878 229.063 269.933 229.225 270.038L260.681 288.328C261.171 288.678 261.571 289.138 261.85 289.672C262.129 290.205 262.278 290.797 262.286 291.398V316.099C262.328 316.357 262.295 316.621 262.19 316.861C262.084 317.1 261.912 317.303 261.693 317.446L260.25 318.214Z" fill="#084EA8"/>
<path d="M241.035 305.203L239.067 304.058L228.28 285.297V272.974L226.689 270.9L228.186 270.038C228.349 269.933 228.539 269.878 228.732 269.878C228.926 269.878 229.115 269.933 229.278 270.038L260.68 288.328C261.196 288.655 261.607 289.122 261.867 289.674L241.035 305.203Z" fill="#084EA8"/>
<path d="M227.381 271.815L226.666 270.9L228.163 270.038C228.326 269.933 228.516 269.878 228.709 269.878C228.903 269.878 229.093 269.933 229.256 270.038L229.809 270.361L227.381 271.815Z" fill="#394C8F"/>
<path d="M260.968 288.476C261.757 289.16 262.241 290.129 262.317 291.169L259.255 292.947L257.771 290.388L260.968 288.476Z" fill="#084EA8"/>
<path d="M259.188 289.136L227.759 270.967C226.869 270.442 226.154 270.967 226.154 272.179V296.88C226.159 297.482 226.307 298.075 226.586 298.609C226.865 299.142 227.267 299.602 227.759 299.951L259.174 318.119C260.064 318.645 260.792 318.119 260.792 316.907V292.22C260.784 291.616 260.635 291.023 260.357 290.487C260.078 289.952 259.678 289.489 259.188 289.136V289.136Z" fill="#C2E7FF"/>
<path d="M274.636 293.93L274.124 294.967C273.547 296.166 272.64 297.175 271.508 297.877L268.34 299.803C267.859 300.09 267.309 300.241 266.749 300.241C266.189 300.241 265.639 300.09 265.158 299.803H265.05C264.82 299.648 264.628 299.444 264.487 299.206C264.345 298.967 264.259 298.701 264.233 298.425C264.207 298.149 264.243 297.871 264.337 297.611C264.432 297.351 264.583 297.115 264.78 296.92L268.043 293.567C268.043 293.567 266.21 294.914 265.697 294.402C265.185 293.89 267.477 291.964 269.135 291.897C270.323 291.757 271.448 291.291 272.385 290.55L274.636 293.93Z" fill="#C2E7FF"/>
<path d="M266.359 218.36C266.359 218.36 254.399 231.357 249.586 243.29C252.86 248.319 257.877 251.964 263.676 253.526C273.734 256.421 266.359 218.36 266.359 218.36Z" fill="#084EA8"/>
<path d="M261.429 252.758L263.371 234.064L258.799 251.573C259.626 252.004 260.503 252.399 261.429 252.758Z" fill="#084EA8"/>
<path d="M275.324 215.747L272.102 214.858C273.006 216.243 274.328 217.305 275.877 217.889C278.115 218.495 278.466 216.609 278.466 216.609L275.324 215.747Z" fill="#39BDE5"/>
<path d="M45.5894 416.465C59.3132 416.465 70.4386 410.049 70.4386 402.134C70.4386 394.22 59.3132 387.804 45.5894 387.804C31.8656 387.804 20.7402 394.22 20.7402 402.134C20.7402 410.049 31.8656 416.465 45.5894 416.465Z" fill="#084EA8"/>
<path d="M42.578 391.023C42.942 391.912 49.1173 399.427 55.2925 401.299C57.1057 401.948 59.0339 402.214 60.9553 402.08C61.2331 402.047 61.4995 401.951 61.735 401.8C61.9704 401.649 62.1687 401.446 62.3151 401.208C62.4615 400.97 62.5523 400.702 62.5807 400.424C62.609 400.146 62.5742 399.865 62.4789 399.602C60.3767 393.883 56.132 389.204 50.6408 386.552C40.1645 381.366 42.578 391.023 42.578 391.023Z" fill="#C2E7FF"/>
<path d="M40.5304 393.905C41.8802 397.129 42.8968 400.482 43.5641 403.912C44.009 406.7 42.4719 410.31 41.218 412.707C41.0343 413.059 40.7715 413.364 40.4502 413.597C40.129 413.831 39.758 413.987 39.3663 414.053C38.9745 414.12 38.5727 414.095 38.1922 413.981C37.8118 413.866 37.463 413.665 37.1731 413.394C34.3567 410.95 32.5658 407.536 32.1574 403.831C31.4428 396.141 32.1574 394.808 32.1574 394.808L40.5304 393.905Z" fill="#C2E7FF"/>
<path d="M25.654 301.001C25.1752 307.799 25.1752 314.622 25.654 321.419C26.4495 332.194 29.3349 382.309 29.8742 394.377C29.8742 394.377 29.6045 398.027 36.6831 397.219C43.7617 396.41 43.1954 392.37 43.1954 392.37C43.1954 392.37 53.1324 392.235 53.456 386.377C53.7796 380.518 63.6356 316.463 63.6356 293.446L25.654 301.001Z" fill="#084EA8"/>
<path d="M60.2188 250.94L65.9625 285.984L71.1669 285.89L70.695 253.782L60.2188 250.94Z" fill="white"/>
<path d="M57.8184 219.922C57.8184 219.922 65.5576 219.72 68.2542 230.899C70.9508 242.077 73.0541 256.004 70.7081 257.216C63.67 260.704 59.2206 256.623 59.2206 256.623L57.8184 219.922Z" fill="#084EA8"/>
<path d="M60.1337 220.394C58.8064 219.848 57.3331 219.767 55.954 220.165C49.3608 222.064 24.5656 229.323 20.4802 232.811C15.7612 236.852 27.5588 259.492 27.397 266.913C27.2352 274.334 26.3858 283.075 25.7251 291.156C25.0644 299.237 24.188 303.654 30.7947 307.089C37.4014 310.523 48.6866 310.671 57.1405 304.247C65.5943 297.823 64.0438 293.472 63.6932 288.745C63.3427 284.018 60.4708 263.896 60.7135 258.159C62.7937 256.513 64.5533 254.5 65.9044 252.219C68.1022 248.462 64.2056 241.552 62.5876 237.067C60.9697 232.582 63.5045 227.451 63.0056 223.788C62.8938 223.01 62.5652 222.279 62.0574 221.679C61.5496 221.079 60.8829 220.633 60.1337 220.394V220.394Z" fill="#084EA8"/>
<path d="M52.2042 228.124C52.73 232.165 48.9818 236.044 43.8313 236.69C38.6807 237.337 34.0965 234.576 33.5707 230.508C33.0449 226.441 36.7931 222.589 41.9436 221.929C47.0941 221.269 51.6784 224.043 52.2042 228.124Z" fill="#C2E7FF"/>
<path d="M43.5585 234.581C47.2367 234.11 49.9156 231.366 49.5419 228.452C49.1681 225.538 45.8833 223.557 42.205 224.027C38.5268 224.498 35.8479 227.242 36.2216 230.156C36.5954 233.071 39.8802 235.052 43.5585 234.581Z" fill="white"/>
<path d="M38.457 229.064L39.7488 220.282L46.4696 221.433L47.8877 229.86L38.457 229.064Z" fill="white"/>
<path d="M81.0094 218.885C81.0094 218.885 76.533 215.208 75.6162 217.067C74.6993 218.926 74.0117 226.926 74.0117 226.926L82.897 229.31L81.5487 221.229C81.5487 221.229 83.3689 219.707 81.0094 218.885Z" fill="white"/>
<path d="M39.9226 219.384C39.8417 219.801 39.7608 220.259 39.6934 220.73C40.5832 225.337 47.5 227.357 47.5 227.357L46.4753 221.229C46.4753 221.229 47.3113 220.515 47.0686 219.882C44.345 218.939 40.9068 218.171 39.9226 219.384Z" fill="#C2E7FF"/>
<path d="M59.7851 210.131C59.6312 212.748 58.7037 215.26 57.12 217.351C55.5364 219.441 53.3677 221.015 50.8882 221.874C48.4087 222.733 45.7299 222.839 43.1906 222.177C40.6513 221.515 38.3656 220.115 36.6225 218.156C34.8795 216.196 33.7574 213.764 33.3983 211.167C33.0391 208.57 33.459 205.925 34.6049 203.567C35.7507 201.209 37.571 199.243 39.8356 197.918C42.1001 196.593 44.7071 195.969 47.3268 196.124C49.066 196.225 50.7681 196.668 52.3358 197.427C53.9035 198.186 55.306 199.246 56.4631 200.547C57.6202 201.848 58.5092 203.364 59.0792 205.009C59.6492 206.653 59.8891 208.394 59.7851 210.131Z" fill="white"/>
<path d="M13.8457 265.458L15.3288 300.92L20.5198 301.459L23.904 269.526L13.8457 265.458Z" fill="white"/>
<path d="M30.9002 262.495C29.1879 254.913 25.7901 238.252 25.7901 238.252L24.334 254.899C26.0194 259.829 27.4486 264.327 27.3946 267.021C27.2868 271.384 26.9632 276.206 26.5722 281.068C26.5722 281.068 32.626 270.064 30.9002 262.495Z" fill="#084EA8"/>
<path d="M56.6619 232.084C56.6619 232.084 52.5092 233.673 50.1631 246.414C47.8171 259.155 45.9834 271.896 50.1766 273.513C54.3698 275.129 57.8619 276.381 59.0889 272.974C60.3158 269.566 61.0844 253.162 61.2462 247.263C61.408 241.364 61.6237 233.256 56.6619 232.084Z" fill="#084EA8"/>
<path d="M43.1973 392.37C44.1513 392.332 45.1019 392.233 46.0431 392.074V392.074L47.9854 314.092L43.1973 392.37Z" fill="#084EA8"/>
<path d="M35.6914 350.282L32.9948 346.686L3.87151 329.85C3.35921 329.48 2.94109 328.994 2.65072 328.433C2.36036 327.871 2.20585 327.25 2.19961 326.618V302.86L0.554688 300.691L2.11872 299.776C2.29672 299.678 2.49871 299.632 2.70146 299.644C2.9042 299.656 3.09946 299.725 3.26477 299.843L36.1768 318.887C36.6897 319.255 37.1094 319.738 37.402 320.297C37.6947 320.856 37.8523 321.475 37.8622 322.106V347.979C37.8906 348.238 37.848 348.501 37.7387 348.738C37.6295 348.975 37.4578 349.178 37.2419 349.325L35.6914 350.282Z" fill="#084EA8"/>
<path d="M15.6017 336.625L13.5388 335.467L2.2131 315.816V302.9L0.554688 300.691L2.11872 299.776C2.29672 299.678 2.49871 299.632 2.70146 299.644C2.9042 299.656 3.09946 299.725 3.26477 299.843L36.1768 318.887C36.7232 319.241 37.1544 319.746 37.4172 320.342L15.6017 336.625Z" fill="#084EA8"/>
<path d="M1.31994 301.648L0.578125 300.691L2.14269 299.776C2.32075 299.678 2.52281 299.632 2.72563 299.644C2.92845 299.656 3.12377 299.725 3.28914 299.843L3.8691 300.18L1.31994 301.648Z" fill="#084EA8"/>
<path d="M36.4729 319.103C37.269 319.81 37.7537 320.802 37.8217 321.864L34.6116 323.722L33.0605 321.028L36.4729 319.103Z" fill="#084EA8"/>
<path d="M34.6109 319.789L1.68537 300.759C0.755048 300.22 0 300.759 0 302.025V327.897C0.00988537 328.528 0.167468 329.148 0.460131 329.707C0.752794 330.266 1.17241 330.748 1.68537 331.116L34.5974 350.16C35.5277 350.699 36.2962 350.16 36.2962 348.814V322.954C36.2781 322.333 36.1165 321.724 35.8242 321.175C35.5319 320.626 35.1166 320.152 34.6109 319.789V319.789Z" fill="#C2E7FF"/>
<path d="M15.373 300.624C15.373 300.624 14.0247 308.907 14.2134 311.56C14.4022 314.214 15.8314 318.577 16.91 318.496C17.9887 318.416 16.91 307.83 18.8381 308.88C20.7662 309.931 20.9414 311.735 21.7909 311.102C22.6403 310.469 20.2943 301.432 20.928 297.513C21.5617 293.594 15.373 300.624 15.373 300.624Z" fill="white"/>
<path fill-rule="evenodd" clip-rule="evenodd" d="M57.0679 310.697L54.4389 309.184C55.0672 309.632 55.4675 310.149 55.7792 310.552C56.2018 311.098 56.4616 311.433 56.9059 311.102C56.9877 311.041 57.0398 310.902 57.0679 310.697ZM53.8092 308.821L53.7213 308.771C53.693 308.75 53.6803 308.767 53.6777 308.807C53.7197 308.805 53.7635 308.809 53.8092 308.821Z" fill="#084EA8"/>
<path d="M71.1647 285.89C71.1647 285.89 72.513 294.173 72.3377 296.826C72.1625 299.479 70.7063 303.843 69.6411 303.749C68.576 303.654 69.6411 293.095 67.7131 294.146C65.785 295.196 65.6097 297.001 64.6929 296.408C63.776 295.816 66.1895 286.725 65.5693 282.819C64.949 278.913 71.1647 285.89 71.1647 285.89Z" fill="white"/>
<path d="M51.6388 210.508C58.2859 212.865 59.5803 211.424 59.6477 211.356C59.7134 210.95 59.7584 210.541 59.7825 210.131C59.8492 208.704 59.6853 207.276 59.2971 205.902L42.0254 203.572C44.4007 206.855 47.7716 209.288 51.6388 210.508V210.508Z" fill="#C2E7FF"/>
<path d="M60.2554 196.932C58.6914 195.585 53.0286 188.945 42.8893 190.507C36.5523 191.491 31.2131 195.801 30.0266 205.659C29.6801 208.928 30.0493 212.232 31.1086 215.344C32.1679 218.456 33.892 221.3 36.1613 223.68C36.41 223.58 36.6492 223.459 36.8759 223.316C39.4242 221.646 39.6939 220.73 39.6939 220.717L40.2602 215.693C40.2608 215.35 40.1299 215.019 39.8943 214.768C39.6586 214.518 39.3361 214.367 38.9928 214.346C38.6189 214.304 38.2588 214.181 37.9375 213.986C37.6162 213.79 37.3413 213.527 37.1321 213.215C35.6759 211.302 36.3501 208.339 39.2624 208.232C39.7815 208.268 40.2969 208.122 40.7202 207.82C41.1434 207.518 41.448 207.077 41.5815 206.575C41.6255 206.416 41.702 206.268 41.8062 206.139C41.9104 206.011 42.0399 205.906 42.1868 205.83C42.3336 205.754 42.4946 205.709 42.6596 205.698C42.8246 205.688 42.99 205.711 43.1455 205.767C46.4488 206.966 54.6195 209.552 59.8779 208.057C66.6059 206.171 61.833 198.265 60.2554 196.932Z" fill="#084EA8"/>
<path d="M52.7078 216.488L56.7527 215.383C55.611 217.131 53.938 218.467 51.9797 219.195C49.1483 219.976 48.7168 217.579 48.7168 217.579L52.7078 216.488Z" fill="#39BDE5"/>
<defs>
<radialGradient id="paint0_radial_357_12074" cx="0" cy="0" r="1" gradientUnits="userSpaceOnUse" gradientTransform="translate(164.198 309.958) scale(66.6735 66.6006)">
<stop stop-color="#01C8EF"/>
<stop offset="0.09" stop-color="#03BEE9"/>
<stop offset="0.24" stop-color="#08A5D7"/>
<stop offset="0.43" stop-color="#107BBB"/>
<stop offset="0.45" stop-color="#1177B8"/>
<stop offset="1" stop-color="#112564"/>
</radialGradient>
</defs>
</svg>
