<svg width="880" height="880" viewBox="0 0 880 880" fill="none" xmlns="http://www.w3.org/2000/svg">
<path d="M263.344 542L59 660.889C135.08 791.585 277.077 879.722 439.673 879.722V643.316C364.417 643.316 298.775 602.68 263.344 542Z" fill="#084EA8"/>
<path d="M440 643.316V879.722C602.596 879.722 744.319 791.585 820.673 660.889L616.054 542C580.624 602.68 514.981 643.316 440 643.316Z" fill="#3169B1"/>
<path d="M820.344 219L616 337.889C633.578 368.092 643.74 402.962 643.74 440.304C643.74 477.645 633.578 512.516 616 542.719L820.344 661.608C858.246 596.534 879.944 521.027 879.944 440.578C879.944 359.58 858.246 284.073 820.344 219Z" fill="#39BDE5"/>
<path d="M616.054 337.447L820.398 218.558C744.319 87.8625 602.322 0 440 0V236.405C514.981 236.131 580.624 277.042 616.054 337.447Z" fill="#9AD1F5"/>
<path d="M439.673 236.131V0C277.077 0 135.354 88.1371 59 218.833L263.344 337.722C298.775 277.042 364.417 236.131 439.673 236.131Z" fill="#283D85"/>
<path d="M236.204 439.863C236.204 402.521 246.366 367.651 263.944 337.448L59.6003 218.559C21.6978 283.632 0 359.139 0 439.588C0 520.312 21.6978 595.819 59.6003 660.617L263.944 541.728C246.092 512.075 236.204 477.204 236.204 439.863Z" fill="#394C8F"/>
<path d="M440.549 0.000915527H439.176V236.406H440.549V0.000915527Z" fill="white"/>
<path d="M616.325 338.272L615.775 336.899L820.119 218.285L820.943 219.383L616.325 338.272Z" fill="white"/>
<path d="M820.119 661.441L615.775 542.827L616.325 541.728L820.943 660.343L820.119 661.441Z" fill="white"/>
<path d="M440.551 643.594H439.178V879.999H440.551V643.594Z" fill="white"/>
<path d="M263.298 541.766L58.8535 660.569L59.5438 661.756L263.988 542.953L263.298 541.766Z" fill="white"/>
<path d="M59.7386 218.146L59.0488 219.334L263.494 338.128L264.184 336.941L59.7386 218.146Z" fill="white"/>
<path d="M223.88 164.368C223.411 162 221.949 160.816 219.496 160.816C217.597 160.816 216.179 161.552 215.24 163.024C214.301 164.475 213.843 166.875 213.864 170.224C214.355 169.115 215.165 168.251 216.296 167.632C217.448 166.992 218.728 166.672 220.136 166.672C222.333 166.672 224.083 167.355 225.384 168.72C226.707 170.085 227.368 171.973 227.368 174.384C227.368 175.835 227.08 177.136 226.504 178.288C225.949 179.44 225.096 180.357 223.944 181.04C222.813 181.723 221.437 182.064 219.816 182.064C217.619 182.064 215.901 181.573 214.664 180.592C213.427 179.611 212.563 178.256 212.072 176.528C211.581 174.8 211.336 172.667 211.336 170.128C211.336 162.299 214.067 158.384 219.528 158.384C221.619 158.384 223.261 158.949 224.456 160.08C225.651 161.211 226.355 162.64 226.568 164.368H223.88ZM219.528 169.136C218.611 169.136 217.747 169.328 216.936 169.712C216.125 170.075 215.464 170.64 214.952 171.408C214.461 172.155 214.216 173.072 214.216 174.16C214.216 175.781 214.685 177.104 215.624 178.128C216.563 179.131 217.907 179.632 219.656 179.632C221.149 179.632 222.333 179.173 223.208 178.256C224.104 177.317 224.552 176.059 224.552 174.48C224.552 172.816 224.125 171.515 223.272 170.576C222.419 169.616 221.171 169.136 219.528 169.136ZM232.705 182.192C232.15 182.192 231.681 182 231.297 181.616C230.913 181.232 230.721 180.763 230.721 180.208C230.721 179.653 230.913 179.184 231.297 178.8C231.681 178.416 232.15 178.224 232.705 178.224C233.238 178.224 233.686 178.416 234.049 178.8C234.433 179.184 234.625 179.653 234.625 180.208C234.625 180.763 234.433 181.232 234.049 181.616C233.686 182 233.238 182.192 232.705 182.192ZM249.939 159.696V182H247.027V159.696H249.939ZM263.446 164.144C265.579 164.144 267.307 164.795 268.63 166.096C269.952 167.376 270.614 169.232 270.614 171.664V182H267.734V172.08C267.734 170.331 267.296 168.997 266.422 168.08C265.547 167.141 264.352 166.672 262.838 166.672C261.302 166.672 260.075 167.152 259.158 168.112C258.262 169.072 257.814 170.469 257.814 172.304V182H254.902V164.464H257.814V166.96C258.39 166.064 259.168 165.371 260.15 164.88C261.152 164.389 262.251 164.144 263.446 164.144ZM278.922 166.864V177.2C278.922 178.053 279.104 178.661 279.466 179.024C279.829 179.365 280.458 179.536 281.354 179.536H283.498V182H280.874C279.253 182 278.037 181.627 277.226 180.88C276.416 180.133 276.01 178.907 276.01 177.2V166.864H273.738V164.464H276.01V160.048H278.922V164.464H283.498V166.864H278.922ZM303.027 172.56C303.027 173.115 302.995 173.701 302.931 174.32H288.915C289.021 176.048 289.608 177.403 290.675 178.384C291.763 179.344 293.075 179.824 294.611 179.824C295.869 179.824 296.915 179.536 297.747 178.96C298.6 178.363 299.197 177.573 299.539 176.592H302.675C302.205 178.277 301.267 179.653 299.859 180.72C298.451 181.765 296.701 182.288 294.611 182.288C292.947 182.288 291.453 181.915 290.131 181.168C288.829 180.421 287.805 179.365 287.059 178C286.312 176.613 285.939 175.013 285.939 173.2C285.939 171.387 286.301 169.797 287.027 168.432C287.752 167.067 288.765 166.021 290.067 165.296C291.389 164.549 292.904 164.176 294.611 164.176C296.275 164.176 297.747 164.539 299.027 165.264C300.307 165.989 301.288 166.992 301.971 168.272C302.675 169.531 303.027 170.96 303.027 172.56ZM300.019 171.952C300.019 170.843 299.773 169.893 299.283 169.104C298.792 168.293 298.12 167.685 297.267 167.28C296.435 166.853 295.507 166.64 294.483 166.64C293.011 166.64 291.752 167.109 290.707 168.048C289.683 168.987 289.096 170.288 288.947 171.952H300.019ZM314.102 164.176C315.617 164.176 316.94 164.507 318.07 165.168C319.222 165.829 320.076 166.661 320.63 167.664V164.464H323.574V182.384C323.574 183.984 323.233 185.403 322.55 186.64C321.868 187.899 320.886 188.88 319.606 189.584C318.348 190.288 316.876 190.64 315.19 190.64C312.886 190.64 310.966 190.096 309.43 189.008C307.894 187.92 306.988 186.437 306.71 184.56H309.59C309.91 185.627 310.572 186.48 311.574 187.12C312.577 187.781 313.782 188.112 315.19 188.112C316.79 188.112 318.092 187.611 319.094 186.608C320.118 185.605 320.63 184.197 320.63 182.384V178.704C320.054 179.728 319.201 180.581 318.07 181.264C316.94 181.947 315.617 182.288 314.102 182.288C312.545 182.288 311.126 181.904 309.846 181.136C308.588 180.368 307.596 179.291 306.87 177.904C306.145 176.517 305.782 174.939 305.782 173.168C305.782 171.376 306.145 169.808 306.87 168.464C307.596 167.099 308.588 166.043 309.846 165.296C311.126 164.549 312.545 164.176 314.102 164.176ZM320.63 173.2C320.63 171.877 320.364 170.725 319.83 169.744C319.297 168.763 318.572 168.016 317.654 167.504C316.758 166.971 315.766 166.704 314.678 166.704C313.59 166.704 312.598 166.96 311.702 167.472C310.806 167.984 310.092 168.731 309.558 169.712C309.025 170.693 308.758 171.845 308.758 173.168C308.758 174.512 309.025 175.685 309.558 176.688C310.092 177.669 310.806 178.427 311.702 178.96C312.598 179.472 313.59 179.728 314.678 179.728C315.766 179.728 316.758 179.472 317.654 178.96C318.572 178.427 319.297 177.669 319.83 176.688C320.364 175.685 320.63 174.523 320.63 173.2ZM331.407 167.312C331.919 166.309 332.645 165.531 333.583 164.976C334.543 164.421 335.706 164.144 337.071 164.144V167.152H336.303C333.039 167.152 331.407 168.923 331.407 172.464V182H328.495V164.464H331.407V167.312ZM341.937 161.616C341.382 161.616 340.913 161.424 340.529 161.04C340.145 160.656 339.953 160.187 339.953 159.632C339.953 159.077 340.145 158.608 340.529 158.224C340.913 157.84 341.382 157.648 341.937 157.648C342.47 157.648 342.918 157.84 343.281 158.224C343.665 158.608 343.857 159.077 343.857 159.632C343.857 160.187 343.665 160.656 343.281 161.04C342.918 161.424 342.47 161.616 341.937 161.616ZM343.345 164.464V182H340.433V164.464H343.345ZM351.86 166.864V177.2C351.86 178.053 352.041 178.661 352.404 179.024C352.766 179.365 353.396 179.536 354.292 179.536H356.436V182H353.812C352.19 182 350.974 181.627 350.164 180.88C349.353 180.133 348.948 178.907 348.948 177.2V166.864H346.676V164.464H348.948V160.048H351.86V164.464H356.436V166.864H351.86ZM375.068 164.464L364.508 190.256H361.5L364.956 181.808L357.884 164.464H361.116L366.62 178.672L372.06 164.464H375.068Z" fill="white"/>
<path d="M511.581 161.52V158.864H517.597V182H514.653V161.52H511.581ZM524.007 182.192C523.452 182.192 522.983 182 522.599 181.616C522.215 181.232 522.023 180.763 522.023 180.208C522.023 179.653 522.215 179.184 522.599 178.8C522.983 178.416 523.452 178.224 524.007 178.224C524.54 178.224 524.988 178.416 525.351 178.8C525.735 179.184 525.927 179.653 525.927 180.208C525.927 180.763 525.735 181.232 525.351 181.616C524.988 182 524.54 182.192 524.007 182.192ZM554.192 159.696V162.064H548.112V182H545.2V162.064H539.088V159.696H554.192ZM573.777 172.56C573.777 173.115 573.745 173.701 573.681 174.32H559.665C559.771 176.048 560.358 177.403 561.425 178.384C562.513 179.344 563.825 179.824 565.361 179.824C566.619 179.824 567.665 179.536 568.497 178.96C569.35 178.363 569.947 177.573 570.289 176.592H573.425C572.955 178.277 572.017 179.653 570.609 180.72C569.201 181.765 567.451 182.288 565.361 182.288C563.697 182.288 562.203 181.915 560.881 181.168C559.579 180.421 558.555 179.365 557.809 178C557.062 176.613 556.689 175.013 556.689 173.2C556.689 171.387 557.051 169.797 557.777 168.432C558.502 167.067 559.515 166.021 560.817 165.296C562.139 164.549 563.654 164.176 565.361 164.176C567.025 164.176 568.497 164.539 569.777 165.264C571.057 165.989 572.038 166.992 572.721 168.272C573.425 169.531 573.777 170.96 573.777 172.56ZM570.769 171.952C570.769 170.843 570.523 169.893 570.033 169.104C569.542 168.293 568.87 167.685 568.017 167.28C567.185 166.853 566.257 166.64 565.233 166.64C563.761 166.64 562.502 167.109 561.457 168.048C560.433 168.987 559.846 170.288 559.697 171.952H570.769ZM576.532 173.168C576.532 171.376 576.895 169.808 577.62 168.464C578.346 167.099 579.338 166.043 580.596 165.296C581.876 164.549 583.295 164.176 584.852 164.176C586.388 164.176 587.722 164.507 588.852 165.168C589.983 165.829 590.826 166.661 591.38 167.664V164.464H594.324V182H591.38V178.736C590.804 179.76 589.94 180.613 588.788 181.296C587.658 181.957 586.335 182.288 584.82 182.288C583.263 182.288 581.855 181.904 580.596 181.136C579.338 180.368 578.346 179.291 577.62 177.904C576.895 176.517 576.532 174.939 576.532 173.168ZM591.38 173.2C591.38 171.877 591.114 170.725 590.58 169.744C590.047 168.763 589.322 168.016 588.404 167.504C587.508 166.971 586.516 166.704 585.428 166.704C584.34 166.704 583.348 166.96 582.452 167.472C581.556 167.984 580.842 168.731 580.308 169.712C579.775 170.693 579.508 171.845 579.508 173.168C579.508 174.512 579.775 175.685 580.308 176.688C580.842 177.669 581.556 178.427 582.452 178.96C583.348 179.472 584.34 179.728 585.428 179.728C586.516 179.728 587.508 179.472 588.404 178.96C589.322 178.427 590.047 177.669 590.58 176.688C591.114 175.685 591.38 174.523 591.38 173.2ZM620.333 164.144C621.699 164.144 622.915 164.432 623.981 165.008C625.048 165.563 625.891 166.405 626.509 167.536C627.128 168.667 627.437 170.043 627.437 171.664V182H624.557V172.08C624.557 170.331 624.12 168.997 623.245 168.08C622.392 167.141 621.229 166.672 619.757 166.672C618.243 166.672 617.037 167.163 616.141 168.144C615.245 169.104 614.797 170.501 614.797 172.336V182H611.917V172.08C611.917 170.331 611.48 168.997 610.605 168.08C609.752 167.141 608.589 166.672 607.117 166.672C605.603 166.672 604.397 167.163 603.501 168.144C602.605 169.104 602.157 170.501 602.157 172.336V182H599.245V164.464H602.157V166.992C602.733 166.075 603.501 165.371 604.461 164.88C605.443 164.389 606.52 164.144 607.693 164.144C609.165 164.144 610.467 164.475 611.597 165.136C612.728 165.797 613.571 166.768 614.125 168.048C614.616 166.811 615.427 165.851 616.557 165.168C617.688 164.485 618.947 164.144 620.333 164.144ZM655.574 164.464L650.102 182H647.094L642.87 168.08L638.646 182H635.638L630.134 164.464H633.11L637.142 179.184L641.494 164.464H644.47L648.726 179.216L652.694 164.464H655.574ZM666.112 182.288C664.469 182.288 662.976 181.915 661.632 181.168C660.309 180.421 659.264 179.365 658.496 178C657.749 176.613 657.376 175.013 657.376 173.2C657.376 171.408 657.76 169.829 658.528 168.464C659.317 167.077 660.384 166.021 661.728 165.296C663.072 164.549 664.576 164.176 666.24 164.176C667.904 164.176 669.408 164.549 670.752 165.296C672.096 166.021 673.152 167.067 673.92 168.432C674.709 169.797 675.104 171.387 675.104 173.2C675.104 175.013 674.699 176.613 673.888 178C673.099 179.365 672.021 180.421 670.656 181.168C669.291 181.915 667.776 182.288 666.112 182.288ZM666.112 179.728C667.157 179.728 668.139 179.483 669.056 178.992C669.973 178.501 670.709 177.765 671.264 176.784C671.84 175.803 672.128 174.608 672.128 173.2C672.128 171.792 671.851 170.597 671.296 169.616C670.741 168.635 670.016 167.909 669.12 167.44C668.224 166.949 667.253 166.704 666.208 166.704C665.141 166.704 664.16 166.949 663.264 167.44C662.389 167.909 661.685 168.635 661.152 169.616C660.619 170.597 660.352 171.792 660.352 173.2C660.352 174.629 660.608 175.835 661.12 176.816C661.653 177.797 662.357 178.533 663.232 179.024C664.107 179.493 665.067 179.728 666.112 179.728ZM681.845 167.312C682.357 166.309 683.082 165.531 684.021 164.976C684.981 164.421 686.143 164.144 687.509 164.144V167.152H686.741C683.477 167.152 681.845 168.923 681.845 172.464V182H678.933V164.464H681.845V167.312ZM700.662 182L693.782 174.256V182H690.87V158.32H693.782V172.24L700.534 164.464H704.598L696.342 173.2L704.63 182H700.662Z" fill="white"/>
<path d="M719.632 450.664C722.341 448.488 724.464 446.707 726 445.32C727.536 443.912 728.827 442.451 729.872 440.936C730.939 439.4 731.472 437.896 731.472 436.424C731.472 435.037 731.131 433.949 730.448 433.16C729.787 432.349 728.709 431.944 727.216 431.944C725.765 431.944 724.635 432.403 723.824 433.32C723.035 434.216 722.608 435.421 722.544 436.936H719.728C719.813 434.547 720.539 432.701 721.904 431.4C723.269 430.099 725.029 429.448 727.184 429.448C729.381 429.448 731.12 430.056 732.4 431.272C733.701 432.488 734.352 434.163 734.352 436.296C734.352 438.067 733.819 439.795 732.752 441.48C731.707 443.144 730.512 444.616 729.168 445.896C727.824 447.155 726.107 448.627 724.016 450.312H735.024V452.744H719.632V450.664ZM739.798 453.192C739.244 453.192 738.774 453 738.39 452.616C738.006 452.232 737.814 451.763 737.814 451.208C737.814 450.653 738.006 450.184 738.39 449.8C738.774 449.416 739.244 449.224 739.798 449.224C740.332 449.224 740.78 449.416 741.142 449.8C741.526 450.184 741.718 450.653 741.718 451.208C741.718 451.763 741.526 452.232 741.142 452.616C740.78 453 740.332 453.192 739.798 453.192ZM767.848 430.696V433.064H761.768V453H758.856V433.064H752.744V430.696H767.848ZM774.345 438.312C774.857 437.309 775.582 436.531 776.521 435.976C777.481 435.421 778.643 435.144 780.009 435.144V438.152H779.241C775.977 438.152 774.345 439.923 774.345 443.464V453H771.433V435.464H774.345V438.312ZM798.922 435.464V453H796.01V450.408C795.456 451.304 794.677 452.008 793.674 452.52C792.693 453.011 791.605 453.256 790.41 453.256C789.045 453.256 787.818 452.979 786.73 452.424C785.642 451.848 784.778 450.995 784.138 449.864C783.52 448.733 783.21 447.357 783.21 445.736V435.464H786.09V445.352C786.09 447.08 786.528 448.413 787.402 449.352C788.277 450.269 789.472 450.728 790.986 450.728C792.544 450.728 793.77 450.248 794.666 449.288C795.562 448.328 796.01 446.931 796.01 445.096V435.464H798.922ZM810.047 453.288C808.703 453.288 807.498 453.064 806.431 452.616C805.364 452.147 804.522 451.507 803.903 450.696C803.284 449.864 802.943 448.915 802.879 447.848H805.887C805.972 448.723 806.378 449.437 807.103 449.992C807.85 450.547 808.82 450.824 810.015 450.824C811.124 450.824 811.999 450.579 812.639 450.088C813.279 449.597 813.599 448.979 813.599 448.232C813.599 447.464 813.258 446.899 812.575 446.536C811.892 446.152 810.836 445.779 809.407 445.416C808.106 445.075 807.039 444.733 806.207 444.392C805.396 444.029 804.692 443.507 804.095 442.824C803.519 442.12 803.231 441.203 803.231 440.072C803.231 439.176 803.498 438.355 804.031 437.608C804.564 436.861 805.322 436.275 806.303 435.848C807.284 435.4 808.404 435.176 809.663 435.176C811.604 435.176 813.172 435.667 814.367 436.648C815.562 437.629 816.202 438.973 816.287 440.68H813.375C813.311 439.763 812.938 439.027 812.255 438.472C811.594 437.917 810.698 437.64 809.567 437.64C808.522 437.64 807.69 437.864 807.071 438.312C806.452 438.76 806.143 439.347 806.143 440.072C806.143 440.648 806.324 441.128 806.687 441.512C807.071 441.875 807.54 442.173 808.095 442.408C808.671 442.621 809.46 442.867 810.463 443.144C811.722 443.485 812.746 443.827 813.535 444.168C814.324 444.488 814.996 444.979 815.551 445.64C816.127 446.301 816.426 447.165 816.447 448.232C816.447 449.192 816.18 450.056 815.647 450.824C815.114 451.592 814.356 452.2 813.375 452.648C812.415 453.075 811.306 453.288 810.047 453.288ZM824.11 437.864V448.2C824.11 449.053 824.291 449.661 824.654 450.024C825.016 450.365 825.646 450.536 826.542 450.536H828.686V453H826.062C824.44 453 823.224 452.627 822.414 451.88C821.603 451.133 821.198 449.907 821.198 448.2V437.864H818.926V435.464H821.198V431.048H824.11V435.464H828.686V437.864H824.11Z" fill="white"/>
<path d="M506.92 706.688C507.069 704.725 507.827 703.189 509.192 702.08C510.557 700.971 512.328 700.416 514.504 700.416C515.955 700.416 517.203 700.683 518.248 701.216C519.315 701.728 520.115 702.432 520.648 703.328C521.203 704.224 521.48 705.237 521.48 706.368C521.48 707.691 521.096 708.832 520.328 709.792C519.581 710.752 518.6 711.371 517.384 711.648V711.808C518.771 712.149 519.869 712.821 520.68 713.824C521.491 714.827 521.896 716.139 521.896 717.76C521.896 718.976 521.619 720.075 521.064 721.056C520.509 722.016 519.677 722.773 518.568 723.328C517.459 723.883 516.125 724.16 514.568 724.16C512.307 724.16 510.451 723.573 509 722.4C507.549 721.205 506.739 719.52 506.568 717.344H509.384C509.533 718.624 510.056 719.669 510.952 720.48C511.848 721.291 513.043 721.696 514.536 721.696C516.029 721.696 517.16 721.312 517.928 720.544C518.717 719.755 519.112 718.741 519.112 717.504C519.112 715.904 518.579 714.752 517.512 714.048C516.445 713.344 514.835 712.992 512.68 712.992H511.944V710.56H512.712C514.675 710.539 516.157 710.219 517.16 709.6C518.163 708.96 518.664 707.979 518.664 706.656C518.664 705.525 518.291 704.619 517.544 703.936C516.819 703.253 515.773 702.912 514.408 702.912C513.085 702.912 512.019 703.253 511.208 703.936C510.397 704.619 509.917 705.536 509.768 706.688H506.92ZM527.236 724.192C526.681 724.192 526.212 724 525.828 723.616C525.444 723.232 525.252 722.763 525.252 722.208C525.252 721.653 525.444 721.184 525.828 720.8C526.212 720.416 526.681 720.224 527.236 720.224C527.769 720.224 528.217 720.416 528.58 720.8C528.964 721.184 529.156 721.653 529.156 722.208C529.156 722.763 528.964 723.232 528.58 723.616C528.217 724 527.769 724.192 527.236 724.192ZM544.47 701.696V724H541.558V701.696H544.47ZM557.977 706.144C560.11 706.144 561.838 706.795 563.161 708.096C564.483 709.376 565.145 711.232 565.145 713.664V724H562.265V714.08C562.265 712.331 561.827 710.997 560.953 710.08C560.078 709.141 558.883 708.672 557.369 708.672C555.833 708.672 554.606 709.152 553.689 710.112C552.793 711.072 552.345 712.469 552.345 714.304V724H549.433V706.464H552.345V708.96C552.921 708.064 553.699 707.371 554.681 706.88C555.683 706.389 556.782 706.144 557.977 706.144ZM578.446 706.144C580.579 706.144 582.307 706.795 583.63 708.096C584.952 709.376 585.614 711.232 585.614 713.664V724H582.734V714.08C582.734 712.331 582.296 710.997 581.422 710.08C580.547 709.141 579.352 708.672 577.838 708.672C576.302 708.672 575.075 709.152 574.158 710.112C573.262 711.072 572.814 712.469 572.814 714.304V724H569.902V706.464H572.814V708.96C573.39 708.064 574.168 707.371 575.15 706.88C576.152 706.389 577.251 706.144 578.446 706.144ZM598.018 724.288C596.376 724.288 594.882 723.915 593.538 723.168C592.216 722.421 591.17 721.365 590.402 720C589.656 718.613 589.282 717.013 589.282 715.2C589.282 713.408 589.666 711.829 590.434 710.464C591.224 709.077 592.29 708.021 593.634 707.296C594.978 706.549 596.482 706.176 598.146 706.176C599.81 706.176 601.314 706.549 602.658 707.296C604.002 708.021 605.058 709.067 605.826 710.432C606.616 711.797 607.01 713.387 607.01 715.2C607.01 717.013 606.605 718.613 605.794 720C605.005 721.365 603.928 722.421 602.562 723.168C601.197 723.915 599.682 724.288 598.018 724.288ZM598.018 721.728C599.064 721.728 600.045 721.483 600.962 720.992C601.88 720.501 602.616 719.765 603.17 718.784C603.746 717.803 604.034 716.608 604.034 715.2C604.034 713.792 603.757 712.597 603.202 711.616C602.648 710.635 601.922 709.909 601.026 709.44C600.13 708.949 599.16 708.704 598.114 708.704C597.048 708.704 596.066 708.949 595.17 709.44C594.296 709.909 593.592 710.635 593.058 711.616C592.525 712.597 592.258 713.792 592.258 715.2C592.258 716.629 592.514 717.835 593.026 718.816C593.56 719.797 594.264 720.533 595.138 721.024C596.013 721.493 596.973 721.728 598.018 721.728ZM617.367 721.312L622.807 706.464H625.911L619.031 724H615.639L608.759 706.464H611.895L617.367 721.312ZM627.689 715.168C627.689 713.376 628.051 711.808 628.777 710.464C629.502 709.099 630.494 708.043 631.753 707.296C633.033 706.549 634.451 706.176 636.009 706.176C637.545 706.176 638.878 706.507 640.009 707.168C641.139 707.829 641.982 708.661 642.537 709.664V706.464H645.481V724H642.537V720.736C641.961 721.76 641.097 722.613 639.945 723.296C638.814 723.957 637.491 724.288 635.977 724.288C634.419 724.288 633.011 723.904 631.753 723.136C630.494 722.368 629.502 721.291 628.777 719.904C628.051 718.517 627.689 716.939 627.689 715.168ZM642.537 715.2C642.537 713.877 642.27 712.725 641.737 711.744C641.203 710.763 640.478 710.016 639.561 709.504C638.665 708.971 637.673 708.704 636.585 708.704C635.497 708.704 634.505 708.96 633.609 709.472C632.713 709.984 631.998 710.731 631.465 711.712C630.931 712.693 630.665 713.845 630.665 715.168C630.665 716.512 630.931 717.685 631.465 718.688C631.998 719.669 632.713 720.427 633.609 720.96C634.505 721.472 635.497 721.728 636.585 721.728C637.673 721.728 638.665 721.472 639.561 720.96C640.478 720.427 641.203 719.669 641.737 718.688C642.27 717.685 642.537 716.523 642.537 715.2ZM653.954 708.864V719.2C653.954 720.053 654.135 720.661 654.498 721.024C654.86 721.365 655.49 721.536 656.385 721.536H658.53V724H655.906C654.284 724 653.068 723.627 652.258 722.88C651.447 722.133 651.042 720.907 651.042 719.2V708.864H648.77V706.464H651.042V702.048H653.954V706.464H658.53V708.864H653.954ZM663.562 703.616C663.007 703.616 662.538 703.424 662.154 703.04C661.77 702.656 661.578 702.187 661.578 701.632C661.578 701.077 661.77 700.608 662.154 700.224C662.538 699.84 663.007 699.648 663.562 699.648C664.095 699.648 664.543 699.84 664.906 700.224C665.29 700.608 665.482 701.077 665.482 701.632C665.482 702.187 665.29 702.656 664.906 703.04C664.543 703.424 664.095 703.616 663.562 703.616ZM664.97 706.464V724H662.058V706.464H664.97ZM677.581 724.288C675.938 724.288 674.445 723.915 673.101 723.168C671.778 722.421 670.733 721.365 669.965 720C669.218 718.613 668.845 717.013 668.845 715.2C668.845 713.408 669.229 711.829 669.997 710.464C670.786 709.077 671.853 708.021 673.197 707.296C674.541 706.549 676.045 706.176 677.709 706.176C679.373 706.176 680.877 706.549 682.221 707.296C683.565 708.021 684.621 709.067 685.389 710.432C686.178 711.797 686.573 713.387 686.573 715.2C686.573 717.013 686.167 718.613 685.357 720C684.567 721.365 683.49 722.421 682.125 723.168C680.759 723.915 679.245 724.288 677.581 724.288ZM677.581 721.728C678.626 721.728 679.607 721.483 680.525 720.992C681.442 720.501 682.178 719.765 682.733 718.784C683.309 717.803 683.597 716.608 683.597 715.2C683.597 713.792 683.319 712.597 682.765 711.616C682.21 710.635 681.485 709.909 680.589 709.44C679.693 708.949 678.722 708.704 677.677 708.704C676.61 708.704 675.629 708.949 674.733 709.44C673.858 709.909 673.154 710.635 672.621 711.616C672.087 712.597 671.821 713.792 671.821 715.2C671.821 716.629 672.077 717.835 672.589 718.816C673.122 719.797 673.826 720.533 674.701 721.024C675.575 721.493 676.535 721.728 677.581 721.728ZM698.946 706.144C701.079 706.144 702.807 706.795 704.13 708.096C705.452 709.376 706.114 711.232 706.114 713.664V724H703.234V714.08C703.234 712.331 702.796 710.997 701.922 710.08C701.047 709.141 699.852 708.672 698.338 708.672C696.802 708.672 695.575 709.152 694.658 710.112C693.762 711.072 693.314 712.469 693.314 714.304V724H690.402V706.464H693.314V708.96C693.89 708.064 694.668 707.371 695.65 706.88C696.652 706.389 697.751 706.144 698.946 706.144Z" fill="white"/>
<path d="M188.28 718.848V716.64L199.512 701.088H203V716.32H206.2V718.848H203V724H200.12V718.848H188.28ZM200.248 704.128L191.64 716.32H200.248V704.128ZM210.517 724.192C209.962 724.192 209.493 724 209.109 723.616C208.725 723.232 208.533 722.763 208.533 722.208C208.533 721.653 208.725 721.184 209.109 720.8C209.493 720.416 209.962 720.224 210.517 720.224C211.05 720.224 211.498 720.416 211.861 720.8C212.245 721.184 212.437 721.653 212.437 722.208C212.437 722.763 212.245 723.232 211.861 723.616C211.498 724 211.05 724.192 210.517 724.192ZM223.751 712.832C223.751 710.656 224.242 708.704 225.223 706.976C226.204 705.227 227.538 703.861 229.223 702.88C230.93 701.899 232.818 701.408 234.887 701.408C237.319 701.408 239.442 701.995 241.255 703.168C243.068 704.341 244.391 706.005 245.223 708.16H241.735C241.116 706.816 240.22 705.781 239.047 705.056C237.895 704.331 236.508 703.968 234.887 703.968C233.33 703.968 231.932 704.331 230.695 705.056C229.458 705.781 228.487 706.816 227.783 708.16C227.079 709.483 226.727 711.04 226.727 712.832C226.727 714.603 227.079 716.16 227.783 717.504C228.487 718.827 229.458 719.851 230.695 720.576C231.932 721.301 233.33 721.664 234.887 721.664C236.508 721.664 237.895 721.312 239.047 720.608C240.22 719.883 241.116 718.848 241.735 717.504H245.223C244.391 719.637 243.068 721.291 241.255 722.464C239.442 723.616 237.319 724.192 234.887 724.192C232.818 724.192 230.93 723.712 229.223 722.752C227.538 721.771 226.204 720.416 225.223 718.688C224.242 716.96 223.751 715.008 223.751 712.832ZM257.206 724.288C255.563 724.288 254.07 723.915 252.726 723.168C251.403 722.421 250.358 721.365 249.59 720C248.843 718.613 248.47 717.013 248.47 715.2C248.47 713.408 248.854 711.829 249.622 710.464C250.411 709.077 251.478 708.021 252.822 707.296C254.166 706.549 255.67 706.176 257.334 706.176C258.998 706.176 260.502 706.549 261.846 707.296C263.19 708.021 264.246 709.067 265.014 710.432C265.803 711.797 266.198 713.387 266.198 715.2C266.198 717.013 265.792 718.613 264.982 720C264.192 721.365 263.115 722.421 261.75 723.168C260.384 723.915 258.87 724.288 257.206 724.288ZM257.206 721.728C258.251 721.728 259.232 721.483 260.15 720.992C261.067 720.501 261.803 719.765 262.358 718.784C262.934 717.803 263.222 716.608 263.222 715.2C263.222 713.792 262.944 712.597 262.39 711.616C261.835 710.635 261.11 709.909 260.214 709.44C259.318 708.949 258.347 708.704 257.302 708.704C256.235 708.704 255.254 708.949 254.358 709.44C253.483 709.909 252.779 710.635 252.246 711.616C251.712 712.597 251.446 713.792 251.446 715.2C251.446 716.629 251.702 717.835 252.214 718.816C252.747 719.797 253.451 720.533 254.326 721.024C255.2 721.493 256.16 721.728 257.206 721.728ZM291.115 706.144C292.48 706.144 293.696 706.432 294.763 707.008C295.829 707.563 296.672 708.405 297.291 709.536C297.909 710.667 298.219 712.043 298.219 713.664V724H295.339V714.08C295.339 712.331 294.901 710.997 294.027 710.08C293.173 709.141 292.011 708.672 290.539 708.672C289.024 708.672 287.819 709.163 286.923 710.144C286.027 711.104 285.579 712.501 285.579 714.336V724H282.699V714.08C282.699 712.331 282.261 710.997 281.387 710.08C280.533 709.141 279.371 708.672 277.899 708.672C276.384 708.672 275.179 709.163 274.283 710.144C273.387 711.104 272.939 712.501 272.939 714.336V724H270.027V706.464H272.939V708.992C273.515 708.075 274.283 707.371 275.243 706.88C276.224 706.389 277.301 706.144 278.475 706.144C279.947 706.144 281.248 706.475 282.379 707.136C283.509 707.797 284.352 708.768 284.907 710.048C285.397 708.811 286.208 707.851 287.339 707.168C288.469 706.485 289.728 706.144 291.115 706.144ZM324.083 706.144C325.449 706.144 326.665 706.432 327.731 707.008C328.798 707.563 329.641 708.405 330.259 709.536C330.878 710.667 331.187 712.043 331.187 713.664V724H328.307V714.08C328.307 712.331 327.87 710.997 326.995 710.08C326.142 709.141 324.979 708.672 323.507 708.672C321.993 708.672 320.787 709.163 319.891 710.144C318.995 711.104 318.547 712.501 318.547 714.336V724H315.667V714.08C315.667 712.331 315.23 710.997 314.355 710.08C313.502 709.141 312.339 708.672 310.867 708.672C309.353 708.672 308.147 709.163 307.251 710.144C306.355 711.104 305.907 712.501 305.907 714.336V724H302.995V706.464H305.907V708.992C306.483 708.075 307.251 707.371 308.211 706.88C309.193 706.389 310.27 706.144 311.443 706.144C312.915 706.144 314.217 706.475 315.347 707.136C316.478 707.797 317.321 708.768 317.875 710.048C318.366 708.811 319.177 707.851 320.307 707.168C321.438 706.485 322.697 706.144 324.083 706.144ZM351.516 706.464V724H348.604V721.408C348.049 722.304 347.271 723.008 346.268 723.52C345.287 724.011 344.199 724.256 343.004 724.256C341.639 724.256 340.412 723.979 339.324 723.424C338.236 722.848 337.372 721.995 336.732 720.864C336.113 719.733 335.804 718.357 335.804 716.736V706.464H338.684V716.352C338.684 718.08 339.121 719.413 339.996 720.352C340.871 721.269 342.065 721.728 343.58 721.728C345.137 721.728 346.364 721.248 347.26 720.288C348.156 719.328 348.604 717.931 348.604 716.096V706.464H351.516ZM364.977 706.144C367.11 706.144 368.838 706.795 370.161 708.096C371.483 709.376 372.145 711.232 372.145 713.664V724H369.265V714.08C369.265 712.331 368.827 710.997 367.953 710.08C367.078 709.141 365.883 708.672 364.369 708.672C362.833 708.672 361.606 709.152 360.689 710.112C359.793 711.072 359.345 712.469 359.345 714.304V724H356.433V706.464H359.345V708.96C359.921 708.064 360.699 707.371 361.681 706.88C362.683 706.389 363.782 706.144 364.977 706.144ZM378.406 703.616C377.851 703.616 377.382 703.424 376.998 703.04C376.614 702.656 376.422 702.187 376.422 701.632C376.422 701.077 376.614 700.608 376.998 700.224C377.382 699.84 377.851 699.648 378.406 699.648C378.939 699.648 379.387 699.84 379.75 700.224C380.134 700.608 380.326 701.077 380.326 701.632C380.326 702.187 380.134 702.656 379.75 703.04C379.387 703.424 378.939 703.616 378.406 703.616ZM379.814 706.464V724H376.902V706.464H379.814ZM388.329 708.864V719.2C388.329 720.053 388.51 720.661 388.873 721.024C389.235 721.365 389.865 721.536 390.76 721.536H392.905V724H390.281C388.659 724 387.443 723.627 386.633 722.88C385.822 722.133 385.417 720.907 385.417 719.2V708.864H383.145V706.464H385.417V702.048H388.329V706.464H392.905V708.864H388.329ZM411.537 706.464L400.977 732.256H397.969L401.425 723.808L394.353 706.464H397.585L403.089 720.672L408.529 706.464H411.537Z" fill="white"/>
<path d="M74.736 425.392H63.504V432.688C63.9947 432.005 64.72 431.451 65.68 431.024C66.64 430.576 67.6747 430.352 68.784 430.352C70.5547 430.352 71.9947 430.725 73.104 431.472C74.2133 432.197 75.0027 433.147 75.472 434.32C75.9627 435.472 76.208 436.699 76.208 438C76.208 439.536 75.92 440.912 75.344 442.128C74.768 443.344 73.8827 444.304 72.688 445.008C71.5147 445.712 70.0533 446.064 68.304 446.064C66.064 446.064 64.2507 445.488 62.864 444.336C61.4773 443.184 60.6347 441.648 60.336 439.728H63.184C63.4613 440.944 64.048 441.893 64.944 442.576C65.84 443.259 66.9707 443.6 68.336 443.6C70.0213 443.6 71.2907 443.099 72.144 442.096C72.9973 441.072 73.424 439.728 73.424 438.064C73.424 436.4 72.9973 435.12 72.144 434.224C71.2907 433.307 70.032 432.848 68.368 432.848C67.2373 432.848 66.2453 433.125 65.392 433.68C64.56 434.213 63.952 434.949 63.568 435.888H60.816V422.832H74.736V425.392ZM81.4858 446.192C80.9311 446.192 80.4618 446 80.0778 445.616C79.6938 445.232 79.5018 444.763 79.5018 444.208C79.5018 443.653 79.6938 443.184 80.0778 442.8C80.4618 442.416 80.9311 442.224 81.4858 442.224C82.0191 442.224 82.4671 442.416 82.8298 442.8C83.2138 443.184 83.4058 443.653 83.4058 444.208C83.4058 444.763 83.2138 445.232 82.8298 445.616C82.4671 446 82.0191 446.192 81.4858 446.192ZM113.696 450.224L109.248 445.776C108.16 446.075 107.05 446.224 105.92 446.224C103.85 446.224 101.962 445.744 100.256 444.784C98.5491 443.803 97.1944 442.448 96.1918 440.72C95.2104 438.971 94.7198 437.008 94.7198 434.832C94.7198 432.656 95.2104 430.704 96.1918 428.976C97.1944 427.227 98.5491 425.872 100.256 424.912C101.962 423.931 103.85 423.44 105.92 423.44C108.01 423.44 109.909 423.931 111.616 424.912C113.322 425.872 114.666 427.216 115.648 428.944C116.629 430.672 117.12 432.635 117.12 434.832C117.12 436.965 116.65 438.885 115.712 440.592C114.773 442.299 113.482 443.643 111.84 444.624L117.472 450.224H113.696ZM97.6958 434.832C97.6958 436.603 98.0478 438.16 98.7518 439.504C99.4771 440.848 100.458 441.883 101.696 442.608C102.954 443.333 104.362 443.696 105.92 443.696C107.477 443.696 108.874 443.333 110.112 442.608C111.37 441.883 112.352 440.848 113.056 439.504C113.781 438.16 114.144 436.603 114.144 434.832C114.144 433.04 113.781 431.483 113.056 430.16C112.352 428.816 111.381 427.781 110.144 427.056C108.906 426.331 107.498 425.968 105.92 425.968C104.341 425.968 102.933 426.331 101.696 427.056C100.458 427.781 99.4771 428.816 98.7518 430.16C98.0478 431.483 97.6958 433.04 97.6958 434.832ZM136.579 428.464V446H133.667V443.408C133.112 444.304 132.333 445.008 131.331 445.52C130.349 446.011 129.261 446.256 128.067 446.256C126.701 446.256 125.475 445.979 124.387 445.424C123.299 444.848 122.435 443.995 121.795 442.864C121.176 441.733 120.867 440.357 120.867 438.736V428.464H123.747V438.352C123.747 440.08 124.184 441.413 125.059 442.352C125.933 443.269 127.128 443.728 128.643 443.728C130.2 443.728 131.427 443.248 132.323 442.288C133.219 441.328 133.667 439.931 133.667 438.096V428.464H136.579ZM140.407 437.168C140.407 435.376 140.77 433.808 141.495 432.464C142.221 431.099 143.213 430.043 144.471 429.296C145.751 428.549 147.17 428.176 148.727 428.176C150.263 428.176 151.597 428.507 152.727 429.168C153.858 429.829 154.701 430.661 155.255 431.664V428.464H158.199V446H155.255V442.736C154.679 443.76 153.815 444.613 152.663 445.296C151.533 445.957 150.21 446.288 148.695 446.288C147.138 446.288 145.73 445.904 144.471 445.136C143.213 444.368 142.221 443.291 141.495 441.904C140.77 440.517 140.407 438.939 140.407 437.168ZM155.255 437.2C155.255 435.877 154.989 434.725 154.455 433.744C153.922 432.763 153.197 432.016 152.279 431.504C151.383 430.971 150.391 430.704 149.303 430.704C148.215 430.704 147.223 430.96 146.327 431.472C145.431 431.984 144.717 432.731 144.183 433.712C143.65 434.693 143.383 435.845 143.383 437.168C143.383 438.512 143.65 439.685 144.183 440.688C144.717 441.669 145.431 442.427 146.327 442.96C147.223 443.472 148.215 443.728 149.303 443.728C150.391 443.728 151.383 443.472 152.279 442.96C153.197 442.427 153.922 441.669 154.455 440.688C154.989 439.685 155.255 438.523 155.255 437.2ZM166.032 422.32V446H163.12V422.32H166.032ZM172.499 425.616C171.945 425.616 171.475 425.424 171.091 425.04C170.707 424.656 170.515 424.187 170.515 423.632C170.515 423.077 170.707 422.608 171.091 422.224C171.475 421.84 171.945 421.648 172.499 421.648C173.033 421.648 173.481 421.84 173.843 422.224C174.227 422.608 174.419 423.077 174.419 423.632C174.419 424.187 174.227 424.656 173.843 425.04C173.481 425.424 173.033 425.616 172.499 425.616ZM173.907 428.464V446H170.995V428.464H173.907ZM182.422 430.864V441.2C182.422 442.053 182.604 442.661 182.966 443.024C183.329 443.365 183.958 443.536 184.854 443.536H186.998V446H184.374C182.753 446 181.537 445.627 180.726 444.88C179.916 444.133 179.51 442.907 179.51 441.2V430.864H177.238V428.464H179.51V424.048H182.422V428.464H186.998V430.864H182.422ZM205.631 428.464L195.071 454.256H192.062L195.519 445.808L188.447 428.464H191.679L197.183 442.672L202.623 428.464H205.631Z" fill="white"/>
</svg>
