<svg width="198" height="56" viewBox="0 0 198 56" fill="none" xmlns="http://www.w3.org/2000/svg">
<g clip-path="url(#clip0_212_11223)">
<path fill-rule="evenodd" clip-rule="evenodd" d="M185.412 37.6983L184.459 38.2789C179.854 41.0863 174.844 42.5917 170.294 42.5901C160.556 42.553 154.142 36.7912 154.115 28.4035C154.128 20.202 160.826 14.1305 170.049 14.1079C174.745 14.112 179 15.3242 184.056 18.0905L184.984 18.6011V11.1111L184.588 10.9558C178.886 8.70841 174.471 7.707 170.11 7.70947C163.368 7.707 157.517 9.93053 153.35 13.7035C149.182 17.4765 146.707 22.8044 146.71 28.9195C146.713 33.1804 148.475 38.1759 152.245 42.1392C156.007 46.1036 161.799 48.9942 169.745 48.9905H169.771C176.361 48.9905 180.932 47.5234 185.061 45.4938L185.412 45.3233V37.6983ZM137.753 55.8752H197.224V0H137.753V55.8752Z" fill="#3169B1"/>
<path fill-rule="evenodd" clip-rule="evenodd" d="M114.218 37.0456C114.235 31.9686 110.848 28.112 105.43 26.628C106.892 25.8831 108.049 24.9715 108.896 23.8581C110.03 22.3666 110.571 20.5376 110.565 18.4083C110.571 15.7899 109.54 13.1217 107.324 11.1255C105.108 9.12964 101.745 7.83259 97.1558 7.83506H84.4788V48.076H99.3565C104.665 48.076 108.391 46.6422 110.79 44.5142C113.19 42.3916 114.221 39.6101 114.218 37.0456V37.0456ZM68.8765 55.8756H128.348V0H68.8765V55.8752V55.8756Z" fill="#3169B1"/>
<path fill-rule="evenodd" clip-rule="evenodd" d="M45.3417 37.0456C45.3586 31.9686 41.9717 28.112 36.5535 26.628C38.0152 25.8831 39.1725 24.9715 40.0196 23.8581C41.1538 22.3666 41.6945 20.5376 41.6883 18.4083C41.6945 15.7899 40.663 13.1217 38.4474 11.1255C36.2319 9.12964 32.8689 7.83259 28.2793 7.83506H15.6024V48.076H30.4801C35.7881 48.076 39.5148 46.6422 41.9135 44.5142C44.3131 42.3916 45.345 39.6101 45.3417 37.0456V37.0456ZM0 55.8756H59.4716V0H0V55.8752V55.8756Z" fill="#3169B1"/>
<path fill-rule="evenodd" clip-rule="evenodd" d="M106.681 36.3168C106.675 37.6464 106.265 38.983 105.074 40.0272C103.884 41.0719 101.827 41.8649 98.4201 41.8649H91.5601V30.8823H98.1149C101.171 30.8823 103.34 31.5008 104.699 32.4676C106.056 33.4402 106.669 34.7171 106.681 36.3168Z" fill="#3169B1"/>
<path fill-rule="evenodd" clip-rule="evenodd" d="M37.8042 36.3168C37.7989 37.6464 37.3889 38.983 36.1974 40.0272C35.0079 41.0719 32.9499 41.8649 29.5436 41.8649H22.6836V30.8823H29.238C32.2949 30.8823 34.4643 31.5008 35.8229 32.4676C37.1794 33.4402 37.7927 34.7171 37.8042 36.3168" fill="#3169B1"/>
<path fill-rule="evenodd" clip-rule="evenodd" d="M101.123 22.9724C102.4 22.0512 103.016 20.7546 103.025 18.8036C103.019 17.4654 102.636 16.3195 101.672 15.4638C100.705 14.6082 99.0614 14 96.4119 14H91.5601V24.4074H94.8909C97.773 24.409 99.8392 23.8955 101.123 22.9719" fill="#3169B1"/>
<path fill-rule="evenodd" clip-rule="evenodd" d="M32.2463 22.9724C33.5232 22.0512 34.1393 20.7546 34.1488 18.8036C34.1426 17.4654 33.7599 16.3195 32.7952 15.4638C31.8281 14.6082 30.1849 14 27.5355 14H22.6836V24.4074H26.0144C28.8965 24.409 30.9628 23.8955 32.2463 22.9719" fill="#3169B1"/>
</g>
<defs>
<clipPath id="clip0_212_11223">
<rect width="197.556" height="56" fill="white"/>
</clipPath>
</defs>
</svg>
