<svg width="576" height="418" viewBox="0 0 576 418" fill="none" xmlns="http://www.w3.org/2000/svg">
<path d="M361.231 417.995C358.642 418.061 356.08 417.46 353.795 416.252L54.9185 244.161C54.0053 243.728 53.2264 243.059 52.6634 242.224C52.1005 241.39 51.7742 240.421 51.7188 239.419C51.7188 237.222 53.301 235.06 56.0964 233.474L256.888 118.531C261.899 115.655 269.529 115.358 273.907 117.869L572.783 289.977C573.699 290.404 574.482 291.068 575.049 291.9C575.615 292.731 575.944 293.7 576 294.702C576 296.899 574.401 299.06 571.623 300.664L370.813 415.624C367.875 417.21 364.577 418.026 361.231 417.995ZM354.691 414.874C358.594 417.106 365.486 416.81 370.04 414.212L570.867 299.235C571.794 298.839 572.603 298.214 573.219 297.421C573.834 296.628 574.235 295.692 574.383 294.702C574.319 293.991 574.065 293.309 573.648 292.727C573.231 292.145 572.666 291.683 572.01 291.389L273.133 119.281C269.23 117.049 262.339 117.346 257.785 119.961L56.9051 234.921C54.6372 236.211 53.3889 237.867 53.3889 239.454C53.4509 240.168 53.7056 240.852 54.1264 241.435C54.5471 242.018 55.1183 242.478 55.78 242.766L354.691 414.874Z" fill="#3169B1"/>
<path opacity="0.2" d="M73.5156 352.927L29.7172 327.685C28.9668 327.25 29.0581 326.501 29.9201 326.005L73.3026 301.006C73.7478 300.759 74.2446 300.62 74.7535 300.599C75.2624 300.577 75.7692 300.675 76.2333 300.885L120.032 326.127C120.782 326.552 120.691 327.311 119.819 327.807L76.4361 352.786C75.9944 353.036 75.5 353.179 74.9927 353.203C74.4855 353.228 73.9795 353.133 73.5156 352.927Z" fill="#084EA8"/>
<path d="M74.7528 365.872C74.0232 365.89 73.3009 365.722 72.6537 365.386L8.57365 328.494C8.28488 328.362 8.03779 328.154 7.85907 327.891C7.68035 327.629 7.57679 327.323 7.55957 327.007C7.59726 326.62 7.73608 326.25 7.96211 325.934C8.18814 325.618 8.49345 325.366 8.84746 325.205L72.3089 288.638C73.0299 288.232 73.8376 288.004 74.6648 287.972C75.492 287.94 76.3148 288.106 77.0649 288.456L141.145 325.377C141.434 325.509 141.682 325.717 141.861 325.979C142.04 326.242 142.143 326.548 142.159 326.865C142.124 327.251 141.988 327.621 141.763 327.938C141.539 328.254 141.235 328.506 140.881 328.667L77.3996 365.204C76.5901 365.651 75.6781 365.881 74.7528 365.872ZM73.1303 364.556C73.7333 364.82 74.389 364.941 75.0467 364.911C75.7044 364.882 76.3464 364.701 76.923 364.384L140.384 327.816C140.891 327.523 141.196 327.159 141.196 326.804C141.175 326.662 141.118 326.527 141.031 326.412C140.944 326.297 140.83 326.206 140.699 326.146L76.6187 289.255C76.0138 288.992 75.3565 288.871 74.6973 288.901C74.0381 288.93 73.3945 289.111 72.8159 289.427L9.3545 325.995C8.84746 326.288 8.55337 326.652 8.55337 327.007C8.57261 327.15 8.62844 327.285 8.71547 327.401C8.8025 327.516 8.91781 327.607 9.05027 327.665L73.1303 364.556Z" fill="#3169B1"/>
<path d="M120.528 309.022V300.591H106.767L76.2331 283C75.7683 282.793 75.2619 282.697 74.7534 282.718C74.245 282.739 73.7483 282.877 73.3024 283.122L42.8798 300.641H29.21V309.092C29.2227 309.244 29.2755 309.389 29.3627 309.513C29.45 309.638 29.5687 309.737 29.7069 309.801L73.5153 335.043C73.9767 335.254 74.4815 335.354 74.9889 335.335C75.4963 335.316 75.992 335.177 76.4359 334.931L119.818 309.932C120.003 309.851 120.165 309.726 120.289 309.567C120.413 309.407 120.495 309.22 120.528 309.022Z" fill="#F7FAFC"/>
<path d="M73.5156 326.613L29.7172 301.371C28.9668 300.945 29.0581 300.186 29.9201 299.69L73.3026 274.691C73.7478 274.444 74.2446 274.305 74.7535 274.284C75.2624 274.263 75.7692 274.361 76.2333 274.57L120.032 299.812C120.782 300.247 120.691 300.996 119.819 301.492L76.4361 326.471C75.9944 326.721 75.5 326.864 74.9927 326.889C74.4855 326.913 73.9795 326.819 73.5156 326.613Z" fill="#C2E7FF"/>
<path d="M73.6666 323.657L34.8373 301.279C34.1782 300.904 34.2593 300.267 35.03 299.791L73.4841 277.636C73.8757 277.415 74.3142 277.29 74.7637 277.271C75.2131 277.251 75.6608 277.338 76.07 277.525L114.899 299.902C115.569 300.277 115.487 300.915 114.717 301.39L76.2627 323.555C75.8677 323.773 75.4273 323.895 74.9767 323.912C74.526 323.93 74.0774 323.842 73.6666 323.657Z" fill="#084EA8"/>
<path d="M73.769 321.785L38.0935 301.229C37.4851 300.874 37.5662 300.217 38.2659 299.852L73.5966 279.499C73.9582 279.297 74.3622 279.183 74.7761 279.165C75.19 279.147 75.6023 279.227 75.9797 279.398L111.655 299.953C112.264 300.308 112.183 300.965 111.483 301.33L76.1521 321.683C75.7906 321.885 75.3866 321.999 74.9726 322.017C74.5587 322.035 74.1465 321.955 73.769 321.785Z" fill="#3169B1"/>
<path d="M74.0527 299.256L69.8848 296.847L72.1563 295.541L76.3343 297.94L74.0527 299.256Z" fill="white"/>
<path d="M81.8008 298.911L77.6329 301.32L75.3613 300.004L79.5292 297.595L81.8008 298.911Z" fill="white"/>
<path d="M73.1103 299.801L70.8286 301.107L68.5469 299.801L70.8286 298.486L73.1103 299.801Z" fill="white"/>
<path d="M80.9795 304.336L78.6978 305.651L72.1367 301.866L74.4083 300.55L80.9795 304.336Z" fill="white"/>
<path d="M77.1965 416.801C76.2957 416.799 75.4111 416.562 74.6309 416.113L0.75483 373.725C0.52531 373.593 0.334736 373.403 0.202242 373.174C0.0697487 372.944 0 372.684 0 372.42C0 372.155 0.0697487 371.895 0.202242 371.666C0.334736 371.437 0.52531 371.247 0.75483 371.114L42.4844 347.178L42.961 347.998L1.22131 371.944C1.1384 371.993 1.0696 372.063 1.02162 372.146C0.973633 372.229 0.948101 372.324 0.947506 372.42C0.947014 372.517 0.973194 372.613 1.02323 372.697C1.07326 372.781 1.14525 372.85 1.23145 372.896L75.1075 415.293C75.7436 415.656 76.4637 415.847 77.1965 415.847C77.9293 415.847 78.6494 415.656 79.2855 415.293L218.028 337.032L218.505 337.862L79.7622 416.113C78.9825 416.563 78.0975 416.801 77.1965 416.801Z" fill="#3169B1"/>
<path opacity="0.2" d="M349.048 395.61L88.3928 245.521C84.7711 243.463 85.2282 239.837 89.4125 237.449L264.536 137.186C268.703 134.797 275.085 134.536 278.601 136.593L539.291 286.682C542.913 288.757 542.456 292.383 538.289 294.772L363.165 395.035C358.981 397.423 352.652 397.685 349.048 395.61Z" fill="#084EA8"/>
<path d="M353.619 370.018L62.2673 202.233C58.2413 199.932 58.7512 195.887 63.3925 193.237L258.348 104.568C263.007 101.918 270.039 78.6609 274.065 80.9622L565.417 248.764C569.443 251.066 568.933 255.093 564.292 257.76L369.336 369.338C364.677 372.04 357.645 372.319 353.619 370.018Z" fill="url(#paint0_linear_106_10982)"/>
<path d="M575.156 236.106L506.679 231.678L273.485 97.1747C269.336 94.8037 262.092 95.1001 257.293 97.8372L106.536 184.153L52.5273 180.666V195.084C52.5742 195.943 52.8558 196.773 53.342 197.486C53.8282 198.198 54.5008 198.766 55.2876 199.129L354.164 371.22C358.313 373.608 365.556 373.312 370.356 370.557L571.165 255.597C572.198 255.144 573.098 254.44 573.783 253.55C574.469 252.66 574.917 251.614 575.086 250.507L575.156 236.106Z" fill="#F7FAFC"/>
<path d="M354.198 356.523L55.3213 184.432C51.1722 182.061 51.6996 177.912 56.4817 175.157L257.291 60.1451C262.091 57.3905 269.334 57.0941 273.483 59.4651L572.36 231.574C576.509 233.945 575.999 238.094 571.199 240.848L370.39 355.843C365.59 358.598 358.347 358.894 354.198 356.523Z" fill="#C2E7FF"/>
<path d="M339.188 59.7463L391.368 29.8644L339.188 0L287.008 29.8644L339.188 59.7463Z" fill="#C2E7FF"/>
<g opacity="0.67">
<path opacity="0.67" d="M339.189 190.693L383.405 165.379L339.189 140.065L294.973 165.379L339.189 190.693Z" fill="#084EA8"/>
</g>
<path d="M339.188 174.427L391.368 144.545L339.188 114.663L287.008 144.545L339.188 174.427Z" fill="white"/>
<path d="M287.008 29.8644V144.545L339.188 174.427V59.7463L287.008 29.8644Z" fill="#F7FAFC"/>
<path d="M391.367 29.8644V144.545L339.187 174.427V59.7463L391.367 29.8644Z" fill="#084EA8"/>
<g opacity="0.51">
<path opacity="0.51" d="M387.835 37.4831V140.553L342.723 166.373V63.3028L387.835 37.4831Z" fill="#3169B1"/>
</g>
<path d="M294.832 57.5671V60.6007L331.365 81.5215V78.4879L294.832 57.5671Z" fill="#084EA8"/>
<path d="M294.832 70.3985V73.4146L331.365 94.3354V91.3019L294.832 70.3985Z" fill="#084EA8"/>
<path d="M294.832 83.2125V86.246L331.365 107.149V104.116L294.832 83.2125Z" fill="#084EA8"/>
<path d="M294.832 96.0264V99.0599L331.365 119.963V116.93L294.832 96.0264Z" fill="#084EA8"/>
<path d="M294.832 108.841V111.874L331.365 132.777V129.761L294.832 108.841Z" fill="#084EA8"/>
<path d="M294.832 121.655V124.688L331.365 145.609V142.575L294.832 121.655Z" fill="#084EA8"/>
<path d="M339.189 49.251L377.058 27.5806L339.189 5.9101L301.337 27.5806L339.189 49.251Z" fill="#C2E7FF"/>
<path d="M301.337 27.5805V30.213L339.189 51.9009V49.251L301.337 27.5805Z" fill="#F7FAFC"/>
<path d="M377.056 27.5805V30.213L339.187 51.9009V49.251L377.056 27.5805Z" fill="url(#paint1_linear_106_10982)"/>
<path d="M353.869 27.9293L355.557 26.9704L355.416 26.1859L339.857 17.2074L337.694 18.236L338.099 18.8985L353.869 27.9293Z" fill="#084EA8"/>
<path d="M339.768 17.9395L338.098 18.8983L337.025 18.2707L339.768 16.7017L356.628 26.3427L355.556 26.9703L339.768 17.9395Z" fill="#3169B1"/>
<path d="M348.788 30.8234L350.458 29.8645L350.317 29.0974L334.776 20.1189L332.613 21.1301L333.018 21.7926L348.788 30.8234Z" fill="#084EA8"/>
<path d="M334.687 20.8337L333.017 21.7925L331.927 21.1823L334.687 19.6133L351.547 29.2543L350.457 29.8645L334.687 20.8337Z" fill="#3169B1"/>
<path d="M343.689 33.7347L345.377 32.7759L345.236 31.9913L329.677 23.0128L327.515 24.0414L327.919 24.7039L343.689 33.7347Z" fill="#084EA8"/>
<path d="M329.588 23.7451L327.918 24.704L326.846 24.0938L329.588 22.5073L346.448 32.1658L345.376 32.7759L329.588 23.7451Z" fill="#3169B1"/>
<path d="M338.608 36.6463L340.278 35.6874L340.138 34.9029L324.596 25.9244L322.434 26.953L322.838 27.6155L338.608 36.6463Z" fill="#084EA8"/>
<path d="M324.507 26.6565L322.837 27.6154L321.747 26.9878L324.507 25.4187L341.367 35.0597L340.277 35.6873L324.507 26.6565Z" fill="#3169B1"/>
<g opacity="0.51">
<path opacity="0.51" d="M391.367 126.431L339.187 95.1896V59.7463L391.367 29.8644V126.431Z" fill="#3169B1"/>
</g>
<path d="M341.263 64.9765C341.315 64.2763 341.529 63.5975 341.889 62.9927C342.249 62.388 342.744 61.8737 343.337 61.4897C343.548 61.3359 343.796 61.2417 344.056 61.2171C344.316 61.1926 344.578 61.2386 344.814 61.3502L346.273 62.2045H345.377C345.386 62.3496 345.386 62.4952 345.377 62.6403C345.324 63.3406 345.11 64.0194 344.75 64.6241C344.39 65.2288 343.895 65.7432 343.302 66.1271C343.164 66.2096 343.017 66.2741 342.863 66.3189L343.284 67.1034L341.843 66.2666C341.639 66.1223 341.478 65.9266 341.376 65.6998C341.274 65.473 341.235 65.2233 341.263 64.9765Z" fill="#F7FAFC"/>
<path d="M342.738 65.761C342.738 67.0686 343.67 67.609 344.813 66.9465C345.406 66.5626 345.901 66.0482 346.261 65.4435C346.621 64.8388 346.835 64.16 346.887 63.4597C346.887 62.1348 345.956 61.6118 344.813 62.2568C344.219 62.6435 343.723 63.1608 343.363 63.7686C343.003 64.3763 342.789 65.0581 342.738 65.761Z" fill="#3169B1"/>
<path d="M343.582 65.2556C343.582 66.0052 344.109 66.319 344.778 65.9355C345.124 65.7084 345.413 65.4042 345.621 65.0471C345.828 64.69 345.949 64.2897 345.973 63.8783C345.973 63.1286 345.428 62.8322 344.778 63.1983C344.43 63.4244 344.14 63.7284 343.933 64.0857C343.725 64.443 343.605 64.8438 343.582 65.2556Z" fill="#084EA8"/>
<path d="M385.021 38.2328C385.071 37.532 385.284 36.8521 385.644 36.247C386.004 35.6419 386.501 35.128 387.096 34.746C387.306 34.5923 387.555 34.498 387.815 34.4735C388.075 34.4489 388.337 34.4949 388.573 34.6066L390.049 35.4434H389.135C389.145 35.5944 389.145 35.7457 389.135 35.8967C389.086 36.5976 388.872 37.2774 388.512 37.8825C388.152 38.4876 387.655 39.0015 387.061 39.3835L386.621 39.5927L387.043 40.3772L385.601 39.5404C385.398 39.392 385.237 39.1931 385.135 38.9636C385.033 38.7341 384.994 38.4821 385.021 38.2328Z" fill="#F7FAFC"/>
<path d="M386.498 39.0871C386.498 40.4121 387.43 40.9351 388.573 40.29C389.176 39.8964 389.678 39.368 390.038 38.7474C390.398 38.1268 390.607 37.4311 390.647 36.7161C390.647 35.4085 389.715 34.8681 388.573 35.5306C387.969 35.9195 387.466 36.4443 387.106 37.0624C386.745 37.6804 386.537 38.3742 386.498 39.0871Z" fill="#3169B1"/>
<path d="M387.377 38.5813C387.377 39.3484 387.922 39.6448 388.572 39.2787C388.92 39.0526 389.21 38.7487 389.417 38.3913C389.625 38.034 389.745 37.6333 389.768 37.2215C389.768 36.4718 389.241 36.158 388.572 36.5416C388.226 36.7649 387.937 37.0659 387.73 37.4202C387.522 37.7745 387.401 38.1722 387.377 38.5813Z" fill="#084EA8"/>
<path d="M341.263 167.61C341.302 166.895 341.51 166.199 341.87 165.578C342.23 164.957 342.733 164.429 343.337 164.036C343.548 163.883 343.796 163.788 344.056 163.764C344.316 163.739 344.578 163.785 344.814 163.897L346.273 164.751H345.377C345.386 164.896 345.386 165.042 345.377 165.187C345.338 165.902 345.13 166.599 344.769 167.219C344.409 167.84 343.906 168.368 343.302 168.761C343.164 168.844 343.017 168.908 342.863 168.953L343.284 169.737L341.843 168.901C341.639 168.756 341.478 168.56 341.376 168.334C341.274 168.107 341.235 167.857 341.263 167.61Z" fill="#F7FAFC"/>
<path d="M342.738 168.465C342.738 169.772 343.67 170.313 344.813 169.65C345.406 169.266 345.901 168.752 346.261 168.147C346.621 167.543 346.835 166.864 346.887 166.163C346.887 164.856 345.956 164.333 344.813 164.978C344.221 165.363 343.726 165.878 343.366 166.482C343.007 167.087 342.792 167.765 342.738 168.465Z" fill="#3169B1"/>
<path d="M343.582 167.959C343.582 168.709 344.109 169.023 344.778 168.639C345.124 168.412 345.413 168.108 345.621 167.751C345.828 167.394 345.949 166.994 345.973 166.582C345.973 165.832 345.428 165.536 344.778 165.902C344.43 166.128 344.14 166.432 343.933 166.79C343.725 167.147 343.605 167.548 343.582 167.959Z" fill="#084EA8"/>
<path d="M385.021 140.936C385.071 140.236 385.284 139.556 385.644 138.951C386.004 138.345 386.501 137.832 387.096 137.45C387.306 137.296 387.555 137.202 387.815 137.177C388.075 137.152 388.337 137.198 388.573 137.31L390.049 138.147H389.135C389.145 138.298 389.145 138.449 389.135 138.6C389.086 139.301 388.872 139.981 388.512 140.586C388.152 141.191 387.655 141.705 387.061 142.087L386.621 142.296L387.043 143.081L385.601 142.244C385.398 142.096 385.237 141.897 385.135 141.667C385.033 141.438 384.994 141.186 385.021 140.936Z" fill="#F7FAFC"/>
<path d="M386.498 141.791C386.498 143.116 387.43 143.639 388.573 142.994C389.164 142.609 389.659 142.094 390.019 141.489C390.379 140.885 390.594 140.207 390.647 139.507C390.647 138.199 389.715 137.659 388.573 138.321C387.98 138.701 387.485 139.213 387.125 139.814C386.765 140.416 386.55 141.093 386.498 141.791Z" fill="#3169B1"/>
<path d="M387.377 141.285C387.377 142.052 387.922 142.349 388.572 141.982C388.92 141.756 389.21 141.452 389.417 141.095C389.625 140.738 389.745 140.337 389.768 139.925C389.768 139.176 389.241 138.862 388.572 139.245C388.226 139.469 387.937 139.77 387.73 140.124C387.522 140.478 387.401 140.876 387.377 141.285Z" fill="#084EA8"/>
<path d="M233.702 122.509L285.882 92.6269L233.702 62.7625L181.521 92.6269L233.702 122.509Z" fill="#C2E7FF"/>
<g opacity="0.67">
<path opacity="0.67" d="M233.702 253.455L277.919 228.141L233.702 202.827L189.486 228.141L233.702 253.455Z" fill="#084EA8"/>
</g>
<path d="M233.702 237.19L285.882 207.308L233.702 177.426L181.521 207.308L233.702 237.19Z" fill="white"/>
<path d="M181.521 92.627V207.308L233.702 237.19V122.509L181.521 92.627Z" fill="#F7FAFC"/>
<path d="M285.881 92.627V207.308L233.701 237.19V122.509L285.881 92.627Z" fill="#084EA8"/>
<g opacity="0.51">
<path opacity="0.51" d="M282.349 100.246V203.315L237.236 229.135V126.065L282.349 100.246Z" fill="#3169B1"/>
</g>
<path d="M189.346 120.33V123.363L225.879 144.284V141.25L189.346 120.33Z" fill="#084EA8"/>
<path d="M189.346 133.161V136.177L225.879 157.098V154.064L189.346 133.161Z" fill="#084EA8"/>
<path d="M189.346 145.975V149.008L225.879 169.912V166.878L189.346 145.975Z" fill="#084EA8"/>
<path d="M189.346 158.789V161.822L225.879 182.726V179.692L189.346 158.789Z" fill="#084EA8"/>
<path d="M189.346 171.603V174.636L225.879 195.54V192.524L189.346 171.603Z" fill="#084EA8"/>
<path d="M189.346 184.417V187.451L225.879 208.371V205.338L189.346 184.417Z" fill="#084EA8"/>
<path d="M233.703 112.014L271.573 90.3432L233.703 68.6727L195.852 90.3432L233.703 112.014Z" fill="#C2E7FF"/>
<path d="M195.852 90.343V92.9756L233.703 114.663V112.013L195.852 90.343Z" fill="#F7FAFC"/>
<path d="M271.571 90.343V92.9756L233.701 114.663V112.013L271.571 90.343Z" fill="url(#paint2_linear_106_10982)"/>
<path d="M248.383 90.6918L250.07 89.7329L249.93 88.9484L234.37 79.9698L232.208 80.9985L232.612 81.6609L248.383 90.6918Z" fill="#084EA8"/>
<path d="M234.284 80.702L232.613 81.6609L231.541 81.0333L234.284 79.4642L251.144 89.1052L250.071 89.7329L234.284 80.702Z" fill="#3169B1"/>
<path d="M243.302 93.5859L244.973 92.627L244.832 91.8599L229.29 82.8814L227.128 83.8926L227.532 84.5551L243.302 93.5859Z" fill="#084EA8"/>
<path d="M229.202 83.5962L227.531 84.555L226.441 83.9449L229.202 82.3758L246.062 92.0168L244.972 92.627L229.202 83.5962Z" fill="#3169B1"/>
<path d="M238.203 96.4972L239.891 95.5383L239.75 94.7538L224.191 85.7753L222.028 86.8039L222.433 87.4664L238.203 96.4972Z" fill="#084EA8"/>
<path d="M224.104 86.5077L222.434 87.4666L221.361 86.8564L224.104 85.2699L240.964 94.9283L239.892 95.5385L224.104 86.5077Z" fill="#3169B1"/>
<path d="M233.123 99.4089L234.793 98.45L234.652 97.6655L219.111 88.687L216.948 89.7156L217.353 90.3781L233.123 99.4089Z" fill="#084EA8"/>
<path d="M219.021 89.419L217.351 90.3778L216.261 89.7502L219.021 88.1812L235.881 97.8222L234.791 98.4498L219.021 89.419Z" fill="#3169B1"/>
<g opacity="0.51">
<path opacity="0.51" d="M285.881 189.194L233.701 157.952V122.509L285.881 92.627V189.194Z" fill="#3169B1"/>
</g>
<path d="M235.776 127.739C235.829 127.039 236.043 126.36 236.403 125.755C236.763 125.151 237.258 124.636 237.851 124.252C238.061 124.098 238.31 124.004 238.57 123.98C238.83 123.955 239.092 124.001 239.328 124.113L240.787 124.967H239.89C239.899 125.112 239.899 125.258 239.89 125.403C239.838 126.103 239.624 126.782 239.264 127.387C238.904 127.991 238.408 128.506 237.816 128.89C237.678 128.972 237.53 129.037 237.376 129.081L237.798 129.866L236.356 129.029C236.153 128.885 235.992 128.689 235.89 128.462C235.788 128.235 235.748 127.986 235.776 127.739Z" fill="#F7FAFC"/>
<path d="M237.254 128.524C237.254 129.831 238.186 130.372 239.328 129.709C239.921 129.325 240.417 128.811 240.777 128.206C241.136 127.601 241.351 126.922 241.403 126.222C241.403 124.897 240.471 124.374 239.328 125.019C238.734 125.406 238.238 125.923 237.878 126.531C237.519 127.139 237.305 127.821 237.254 128.524Z" fill="#3169B1"/>
<path d="M238.097 128.018C238.097 128.768 238.624 129.082 239.292 128.698C239.639 128.471 239.928 128.167 240.135 127.81C240.343 127.452 240.463 127.052 240.488 126.641C240.488 125.891 239.943 125.595 239.292 125.961C238.944 126.187 238.655 126.491 238.447 126.848C238.24 127.206 238.12 127.606 238.097 128.018Z" fill="#084EA8"/>
<path d="M279.536 100.995C279.585 100.294 279.799 99.6146 280.159 99.0095C280.519 98.4044 281.016 97.8906 281.61 97.5086C281.821 97.3548 282.069 97.2606 282.329 97.236C282.589 97.2114 282.851 97.2574 283.087 97.3691L284.564 98.2059H283.65C283.659 98.3569 283.659 98.5082 283.65 98.6592C283.6 99.3601 283.387 100.04 283.027 100.645C282.667 101.25 282.17 101.764 281.575 102.146L281.136 102.355L281.558 103.14L280.116 102.303C279.912 102.155 279.751 101.956 279.649 101.726C279.548 101.497 279.508 101.245 279.536 100.995Z" fill="#F7FAFC"/>
<path d="M281.013 101.85C281.013 103.175 281.944 103.698 283.087 103.052C283.69 102.659 284.192 102.13 284.553 101.51C284.913 100.889 285.121 100.194 285.162 99.4785C285.162 98.171 284.23 97.6305 283.087 98.293C282.483 98.6819 281.981 99.2068 281.62 99.8248C281.26 100.443 281.052 101.137 281.013 101.85Z" fill="#3169B1"/>
<path d="M281.891 101.344C281.891 102.111 282.436 102.408 283.086 102.041C283.434 101.815 283.723 101.511 283.931 101.154C284.139 100.797 284.259 100.396 284.282 99.9842C284.282 99.2345 283.754 98.9207 283.086 99.3043C282.74 99.5276 282.451 99.8285 282.243 100.183C282.036 100.537 281.915 100.935 281.891 101.344Z" fill="#084EA8"/>
<path d="M235.776 230.373C235.815 229.658 236.023 228.961 236.384 228.341C236.744 227.72 237.247 227.192 237.851 226.799C238.061 226.645 238.31 226.551 238.57 226.526C238.83 226.502 239.092 226.548 239.328 226.659L240.787 227.514H239.89C239.899 227.659 239.899 227.804 239.89 227.95C239.851 228.665 239.643 229.361 239.283 229.982C238.922 230.603 238.42 231.131 237.816 231.524C237.678 231.606 237.53 231.67 237.376 231.715L237.798 232.5L236.356 231.663C236.153 231.519 235.992 231.323 235.89 231.096C235.788 230.869 235.748 230.62 235.776 230.373Z" fill="#F7FAFC"/>
<path d="M237.254 231.227C237.254 232.535 238.186 233.075 239.328 232.413C239.921 232.029 240.417 231.515 240.777 230.91C241.136 230.305 241.351 229.626 241.403 228.926C241.403 227.619 240.471 227.096 239.328 227.741C238.737 228.126 238.242 228.64 237.882 229.245C237.522 229.849 237.308 230.527 237.254 231.227Z" fill="#3169B1"/>
<path d="M238.097 230.722C238.097 231.471 238.624 231.785 239.292 231.402C239.639 231.175 239.928 230.87 240.135 230.513C240.343 230.156 240.463 229.756 240.488 229.344C240.488 228.595 239.943 228.298 239.292 228.665C238.944 228.891 238.655 229.195 238.447 229.552C238.24 229.909 238.12 230.31 238.097 230.722Z" fill="#084EA8"/>
<path d="M279.536 203.699C279.585 202.998 279.799 202.318 280.159 201.713C280.519 201.108 281.016 200.594 281.61 200.212C281.821 200.058 282.069 199.964 282.329 199.94C282.589 199.915 282.851 199.961 283.087 200.073L284.564 200.909H283.65C283.659 201.06 283.659 201.212 283.65 201.363C283.6 202.064 283.387 202.743 283.027 203.349C282.667 203.954 282.17 204.468 281.575 204.85L281.136 205.059L281.558 205.843L280.116 205.006C279.912 204.858 279.751 204.659 279.649 204.43C279.548 204.2 279.508 203.948 279.536 203.699Z" fill="#F7FAFC"/>
<path d="M281.013 204.553C281.013 205.878 281.944 206.401 283.087 205.756C283.679 205.371 284.174 204.857 284.534 204.252C284.893 203.648 285.108 202.969 285.162 202.269C285.162 200.962 284.23 200.421 283.087 201.084C282.495 201.464 281.999 201.975 281.639 202.577C281.279 203.179 281.065 203.855 281.013 204.553Z" fill="#3169B1"/>
<path d="M281.891 204.048C281.891 204.815 282.436 205.111 283.086 204.745C283.434 204.519 283.723 204.215 283.931 203.858C284.139 203.5 284.259 203.1 284.282 202.688C284.282 201.938 283.754 201.624 283.086 202.008C282.74 202.231 282.451 202.532 282.243 202.886C282.036 203.241 281.915 203.639 281.891 204.048Z" fill="#084EA8"/>
<path d="M434.817 114.4L486.997 84.5182L434.817 54.6537L382.637 84.5182L434.817 114.4Z" fill="#C2E7FF"/>
<g opacity="0.67">
<path opacity="0.67" d="M434.817 245.347L479.033 220.033L434.817 194.718L390.601 220.033L434.817 245.347Z" fill="#084EA8"/>
</g>
<path d="M434.817 229.081L486.997 199.199L434.817 169.317L382.637 199.199L434.817 229.081Z" fill="white"/>
<path d="M382.637 84.5182V199.199L434.817 229.081V114.4L382.637 84.5182Z" fill="#F7FAFC"/>
<path d="M486.996 84.5182V199.199L434.815 229.081V114.4L486.996 84.5182Z" fill="#084EA8"/>
<g opacity="0.51">
<path opacity="0.51" d="M483.464 92.1368V195.207L438.352 221.026V117.957L483.464 92.1368Z" fill="#3169B1"/>
</g>
<path d="M390.46 112.221V115.254L426.993 136.175V133.142L390.46 112.221Z" fill="#084EA8"/>
<path d="M390.46 125.052V128.068L426.993 148.989V145.956L390.46 125.052Z" fill="#084EA8"/>
<path d="M390.46 137.866V140.9L426.993 161.803V158.77L390.46 137.866Z" fill="#084EA8"/>
<path d="M390.46 150.68V153.714L426.993 174.617V171.583L390.46 150.68Z" fill="#084EA8"/>
<path d="M390.46 163.494V166.528L426.993 187.431V184.415L390.46 163.494Z" fill="#084EA8"/>
<path d="M390.46 176.308V179.342L426.993 200.263V197.229L390.46 176.308Z" fill="#084EA8"/>
<path d="M434.817 103.905L472.686 82.2344L434.817 60.5639L396.965 82.2344L434.817 103.905Z" fill="#C2E7FF"/>
<path d="M396.965 82.2343V84.8668L434.817 106.555V103.905L396.965 82.2343Z" fill="#F7FAFC"/>
<path d="M472.685 82.2343V84.8668L434.815 106.555V103.905L472.685 82.2343Z" fill="url(#paint3_linear_106_10982)"/>
<path d="M449.498 82.5831L451.185 81.6242L451.045 80.8397L435.486 71.8611L433.323 72.8898L433.728 73.5522L449.498 82.5831Z" fill="#084EA8"/>
<path d="M435.397 72.5932L433.727 73.5521L432.654 72.9245L435.397 71.3554L452.257 80.9964L451.185 81.624L435.397 72.5932Z" fill="#3169B1"/>
<path d="M444.417 85.4772L446.087 84.5183L445.946 83.7512L430.405 74.7727L428.242 75.7839L428.647 76.4464L444.417 85.4772Z" fill="#084EA8"/>
<path d="M430.316 75.4874L428.646 76.4463L427.556 75.8361L430.316 74.267L447.176 83.908L446.086 84.5182L430.316 75.4874Z" fill="#3169B1"/>
<path d="M439.318 88.3885L441.006 87.4296L440.865 86.6451L425.306 77.6666L423.144 78.6952L423.548 79.3577L439.318 88.3885Z" fill="#084EA8"/>
<path d="M425.217 78.3989L423.547 79.3578L422.475 78.7476L425.217 77.1611L442.077 86.8195L441.005 87.4297L425.217 78.3989Z" fill="#3169B1"/>
<path d="M434.237 91.3L435.907 90.3412L435.767 89.5566L420.225 80.5781L418.062 81.6067L418.467 82.2692L434.237 91.3Z" fill="#084EA8"/>
<path d="M420.136 81.3103L418.466 82.2692L417.376 81.6416L420.136 80.0725L436.996 89.7135L435.906 90.3411L420.136 81.3103Z" fill="#3169B1"/>
<g opacity="0.51">
<path opacity="0.51" d="M486.996 181.085L434.815 149.843V114.4L486.996 84.5182V181.085Z" fill="#3169B1"/>
</g>
<path d="M436.892 119.63C436.944 118.93 437.158 118.251 437.518 117.646C437.878 117.042 438.373 116.527 438.966 116.143C439.176 115.99 439.425 115.895 439.685 115.871C439.945 115.846 440.207 115.892 440.443 116.004L441.902 116.858H441.006C441.015 117.003 441.015 117.149 441.006 117.294C440.953 117.994 440.739 118.673 440.379 119.278C440.019 119.883 439.524 120.397 438.931 120.781C438.793 120.863 438.646 120.928 438.491 120.973L438.913 121.757L437.472 120.92C437.268 120.776 437.107 120.58 437.005 120.354C436.903 120.127 436.864 119.877 436.892 119.63Z" fill="#F7FAFC"/>
<path d="M438.367 120.415C438.367 121.722 439.299 122.263 440.442 121.6C441.035 121.216 441.53 120.702 441.89 120.097C442.25 119.493 442.464 118.814 442.516 118.113C442.516 116.789 441.584 116.266 440.442 116.911C439.848 117.297 439.351 117.815 438.992 118.422C438.632 119.03 438.418 119.712 438.367 120.415Z" fill="#3169B1"/>
<path d="M439.211 119.909C439.211 120.659 439.738 120.973 440.406 120.589C440.753 120.362 441.042 120.058 441.25 119.701C441.457 119.344 441.578 118.944 441.602 118.532C441.602 117.782 441.057 117.486 440.406 117.852C440.059 118.078 439.769 118.382 439.562 118.74C439.354 119.097 439.234 119.498 439.211 119.909Z" fill="#084EA8"/>
<path d="M480.65 92.8865C480.7 92.1857 480.913 91.5058 481.273 90.9007C481.633 90.2956 482.13 89.7817 482.725 89.3997C482.935 89.2459 483.183 89.1517 483.444 89.1272C483.704 89.1026 483.966 89.1486 484.201 89.2603L485.678 90.0971H484.764C484.773 90.248 484.773 90.3994 484.764 90.5504C484.714 91.2512 484.501 91.9311 484.141 92.5362C483.781 93.1413 483.284 93.6552 482.689 94.0372L482.25 94.2464L482.672 95.0309L481.23 94.1941C481.026 94.0457 480.865 93.8468 480.764 93.6173C480.662 93.3878 480.623 93.1358 480.65 92.8865Z" fill="#F7FAFC"/>
<path d="M482.127 93.7408C482.127 95.0658 483.059 95.5888 484.201 94.9437C484.805 94.55 485.307 94.0217 485.667 93.4011C486.027 92.7804 486.236 92.0848 486.276 91.3698C486.276 90.0622 485.344 89.5218 484.201 90.1843C483.598 90.5732 483.095 91.098 482.735 91.7161C482.374 92.3341 482.166 93.0278 482.127 93.7408Z" fill="#3169B1"/>
<path d="M483.006 93.2351C483.006 94.0022 483.551 94.2986 484.201 93.9324C484.549 93.7064 484.839 93.4024 485.046 93.0451C485.254 92.6878 485.374 92.287 485.397 91.8752C485.397 91.1256 484.869 90.8118 484.201 91.1953C483.855 91.4186 483.566 91.7196 483.358 92.0739C483.151 92.4282 483.03 92.826 483.006 93.2351Z" fill="#084EA8"/>
<path d="M436.892 222.264C436.931 221.549 437.139 220.853 437.499 220.232C437.859 219.611 438.362 219.083 438.966 218.69C439.176 218.536 439.425 218.442 439.685 218.418C439.945 218.393 440.207 218.439 440.443 218.551L441.902 219.405H441.006C441.015 219.55 441.015 219.696 441.006 219.841C440.967 220.556 440.758 221.252 440.398 221.873C440.038 222.494 439.535 223.022 438.931 223.415C438.793 223.497 438.646 223.562 438.491 223.607L438.913 224.391L437.472 223.554C437.268 223.41 437.107 223.214 437.005 222.987C436.903 222.761 436.864 222.511 436.892 222.264Z" fill="#F7FAFC"/>
<path d="M438.367 223.119C438.367 224.426 439.299 224.967 440.442 224.304C441.035 223.92 441.53 223.406 441.89 222.801C442.25 222.196 442.464 221.517 442.516 220.817C442.516 219.51 441.584 218.987 440.442 219.632C439.85 220.017 439.355 220.531 438.995 221.136C438.636 221.74 438.421 222.419 438.367 223.119Z" fill="#3169B1"/>
<path d="M439.211 222.613C439.211 223.363 439.738 223.677 440.406 223.293C440.753 223.066 441.042 222.762 441.25 222.405C441.457 222.048 441.578 221.647 441.602 221.236C441.602 220.486 441.057 220.19 440.406 220.556C440.059 220.782 439.769 221.086 439.562 221.443C439.354 221.801 439.234 222.201 439.211 222.613Z" fill="#084EA8"/>
<path d="M480.65 195.59C480.7 194.889 480.913 194.209 481.273 193.604C481.633 192.999 482.13 192.485 482.725 192.103C482.935 191.95 483.183 191.855 483.444 191.831C483.704 191.806 483.966 191.852 484.201 191.964L485.678 192.801H484.764C484.773 192.952 484.773 193.103 484.764 193.254C484.714 193.955 484.501 194.635 484.141 195.24C483.781 195.845 483.284 196.359 482.689 196.741L482.25 196.95L482.672 197.735L481.23 196.898C481.026 196.749 480.865 196.55 480.764 196.321C480.662 196.091 480.623 195.839 480.65 195.59Z" fill="#F7FAFC"/>
<path d="M482.127 196.444C482.127 197.769 483.059 198.292 484.201 197.647C484.793 197.262 485.288 196.748 485.648 196.143C486.008 195.539 486.222 194.86 486.276 194.161C486.276 192.853 485.344 192.313 484.201 192.975C483.609 193.355 483.114 193.866 482.754 194.468C482.394 195.07 482.179 195.747 482.127 196.444Z" fill="#3169B1"/>
<path d="M483.006 195.939C483.006 196.706 483.551 197.002 484.201 196.636C484.549 196.41 484.839 196.106 485.046 195.749C485.254 195.392 485.374 194.991 485.397 194.579C485.397 193.829 484.869 193.516 484.201 193.899C483.855 194.122 483.566 194.423 483.358 194.778C483.151 195.132 483.03 195.53 483.006 195.939Z" fill="#084EA8"/>
<path d="M329.331 177.163L381.511 147.281L329.331 117.416L277.15 147.281L329.331 177.163Z" fill="#C2E7FF"/>
<g opacity="0.67">
<path opacity="0.67" d="M329.331 308.109L373.547 282.795L329.331 257.481L285.115 282.795L329.331 308.109Z" fill="#084EA8"/>
</g>
<path d="M329.331 291.843L381.511 261.962L329.331 232.08L277.15 261.962L329.331 291.843Z" fill="white"/>
<path d="M277.15 147.281V261.962L329.331 291.843V177.163L277.15 147.281Z" fill="#F7FAFC"/>
<path d="M381.51 147.281V261.962L329.33 291.843V177.163L381.51 147.281Z" fill="#084EA8"/>
<g opacity="0.51">
<path opacity="0.51" d="M377.978 154.899V257.969L332.865 283.789V180.719L377.978 154.899Z" fill="#3169B1"/>
</g>
<path d="M284.975 174.983V178.017L321.508 198.938V195.904L284.975 174.983Z" fill="#084EA8"/>
<path d="M284.975 187.815V190.831L321.508 211.752V208.718L284.975 187.815Z" fill="#084EA8"/>
<path d="M284.975 200.629V203.662L321.508 224.565V221.532L284.975 200.629Z" fill="#084EA8"/>
<path d="M284.975 213.443V216.476L321.508 237.38V234.346L284.975 213.443Z" fill="#084EA8"/>
<path d="M284.975 226.257V229.29L321.508 250.194V247.178L284.975 226.257Z" fill="#084EA8"/>
<path d="M284.975 239.071V242.104L321.508 263.025V259.992L284.975 239.071Z" fill="#084EA8"/>
<path d="M329.332 166.667L367.202 144.997L329.332 123.326L291.48 144.997L329.332 166.667Z" fill="#C2E7FF"/>
<path d="M291.48 144.997V147.629L329.332 169.317V166.667L291.48 144.997Z" fill="#F7FAFC"/>
<path d="M367.199 144.997V147.629L329.33 169.317V166.667L367.199 144.997Z" fill="url(#paint4_linear_106_10982)"/>
<path d="M344.011 145.346L345.699 144.387L345.559 143.602L329.999 134.624L327.837 135.652L328.241 136.315L344.011 145.346Z" fill="#084EA8"/>
<path d="M329.913 135.356L328.242 136.315L327.17 135.687L329.913 134.118L346.773 143.759L345.7 144.387L329.913 135.356Z" fill="#3169B1"/>
<path d="M338.93 148.24L340.601 147.281L340.46 146.514L324.918 137.535L322.756 138.546L323.16 139.209L338.93 148.24Z" fill="#084EA8"/>
<path d="M324.831 138.25L323.16 139.209L322.07 138.599L324.831 137.03L341.691 146.671L340.601 147.281L324.831 138.25Z" fill="#3169B1"/>
<path d="M333.832 151.151L335.519 150.192L335.379 149.408L319.82 140.429L317.657 141.458L318.062 142.12L333.832 151.151Z" fill="#084EA8"/>
<path d="M319.733 141.162L318.063 142.12L316.99 141.51L319.733 139.924L336.593 149.582L335.521 150.192L319.733 141.162Z" fill="#3169B1"/>
<path d="M328.752 154.063L330.422 153.104L330.281 152.319L314.74 143.341L312.577 144.369L312.982 145.032L328.752 154.063Z" fill="#084EA8"/>
<path d="M314.65 144.073L312.98 145.032L311.89 144.404L314.65 142.835L331.51 152.476L330.42 153.103L314.65 144.073Z" fill="#3169B1"/>
<g opacity="0.51">
<path opacity="0.51" d="M381.51 243.848L329.33 212.606V177.163L381.51 147.281V243.848Z" fill="#3169B1"/>
</g>
<path d="M331.405 182.393C331.458 181.693 331.672 181.014 332.032 180.409C332.391 179.804 332.887 179.29 333.48 178.906C333.69 178.752 333.939 178.658 334.199 178.633C334.459 178.609 334.721 178.655 334.957 178.766L336.416 179.621H335.519C335.528 179.766 335.528 179.911 335.519 180.057C335.467 180.757 335.253 181.436 334.893 182.04C334.533 182.645 334.037 183.159 333.445 183.543C333.307 183.626 333.159 183.69 333.005 183.735L333.427 184.52L331.985 183.683C331.782 183.539 331.62 183.343 331.518 183.116C331.416 182.889 331.377 182.64 331.405 182.393Z" fill="#F7FAFC"/>
<path d="M332.883 183.177C332.883 184.485 333.815 185.025 334.957 184.363C335.55 183.979 336.046 183.464 336.405 182.86C336.765 182.255 336.98 181.576 337.032 180.876C337.032 179.551 336.1 179.028 334.957 179.673C334.363 180.06 333.867 180.577 333.507 181.185C333.147 181.793 332.934 182.474 332.883 183.177Z" fill="#3169B1"/>
<path d="M333.725 182.672C333.725 183.421 334.252 183.735 334.92 183.352C335.267 183.125 335.556 182.82 335.763 182.463C335.971 182.106 336.091 181.706 336.116 181.295C336.116 180.545 335.571 180.248 334.92 180.615C334.572 180.841 334.283 181.145 334.075 181.502C333.868 181.859 333.747 182.26 333.725 182.672Z" fill="#084EA8"/>
<path d="M375.165 155.649C375.214 154.948 375.428 154.268 375.788 153.663C376.148 153.058 376.645 152.544 377.239 152.162C377.45 152.009 377.698 151.914 377.958 151.89C378.218 151.865 378.48 151.911 378.716 152.023L380.193 152.86H379.279C379.288 153.011 379.288 153.162 379.279 153.313C379.229 154.014 379.016 154.694 378.656 155.299C378.296 155.904 377.799 156.418 377.204 156.8L376.765 157.009L377.187 157.793L375.745 156.957C375.541 156.808 375.38 156.609 375.278 156.38C375.176 156.15 375.137 155.898 375.165 155.649Z" fill="#F7FAFC"/>
<path d="M376.642 156.503C376.642 157.828 377.573 158.351 378.716 157.706C379.319 157.313 379.821 156.784 380.181 156.164C380.542 155.543 380.75 154.847 380.791 154.132C380.791 152.825 379.859 152.284 378.716 152.947C378.112 153.336 377.61 153.861 377.249 154.479C376.889 155.097 376.68 155.79 376.642 156.503Z" fill="#3169B1"/>
<path d="M377.52 155.998C377.52 156.765 378.065 157.061 378.715 156.695C379.063 156.469 379.352 156.165 379.56 155.808C379.768 155.45 379.888 155.05 379.911 154.638C379.911 153.888 379.383 153.574 378.715 153.958C378.369 154.181 378.08 154.482 377.872 154.837C377.664 155.191 377.544 155.589 377.52 155.998Z" fill="#084EA8"/>
<path d="M331.405 285.027C331.444 284.311 331.652 283.615 332.013 282.994C332.373 282.373 332.876 281.845 333.48 281.453C333.69 281.299 333.939 281.205 334.199 281.18C334.459 281.156 334.721 281.202 334.957 281.313L336.416 282.167H335.519C335.528 282.313 335.528 282.458 335.519 282.603C335.48 283.319 335.272 284.015 334.912 284.636C334.551 285.256 334.049 285.785 333.445 286.177C333.307 286.26 333.159 286.324 333.005 286.369L333.427 287.154L331.985 286.317C331.782 286.172 331.62 285.977 331.518 285.75C331.416 285.523 331.377 285.273 331.405 285.027Z" fill="#F7FAFC"/>
<path d="M332.883 285.881C332.883 287.189 333.815 287.729 334.957 287.067C335.55 286.683 336.046 286.168 336.405 285.564C336.765 284.959 336.98 284.28 337.032 283.58C337.032 282.272 336.1 281.749 334.957 282.394C334.365 282.779 333.871 283.294 333.511 283.898C333.151 284.503 332.936 285.181 332.883 285.881Z" fill="#3169B1"/>
<path d="M333.725 285.376C333.725 286.125 334.252 286.439 334.92 286.055C335.267 285.828 335.556 285.524 335.763 285.167C335.971 284.81 336.091 284.41 336.116 283.998C336.116 283.249 335.571 282.952 334.92 283.318C334.572 283.544 334.283 283.848 334.075 284.206C333.868 284.563 333.747 284.964 333.725 285.376Z" fill="#084EA8"/>
<path d="M375.165 258.353C375.214 257.652 375.428 256.972 375.788 256.367C376.148 255.762 376.645 255.248 377.239 254.866C377.45 254.712 377.698 254.618 377.958 254.593C378.218 254.569 378.48 254.615 378.716 254.726L380.193 255.563H379.279C379.288 255.714 379.288 255.866 379.279 256.016C379.229 256.717 379.016 257.397 378.656 258.002C378.296 258.607 377.799 259.121 377.204 259.503L376.765 259.712L377.187 260.497L375.745 259.66C375.541 259.512 375.38 259.313 375.278 259.083C375.176 258.854 375.137 258.602 375.165 258.353Z" fill="#F7FAFC"/>
<path d="M376.642 259.207C376.642 260.532 377.573 261.055 378.716 260.41C379.308 260.025 379.803 259.51 380.163 258.906C380.522 258.301 380.737 257.623 380.791 256.923C380.791 255.615 379.859 255.075 378.716 255.737C378.124 256.118 377.628 256.629 377.268 257.231C376.908 257.833 376.694 258.509 376.642 259.207Z" fill="#3169B1"/>
<path d="M377.52 258.701C377.52 259.468 378.065 259.765 378.715 259.399C379.063 259.173 379.352 258.869 379.56 258.511C379.768 258.154 379.888 257.753 379.911 257.342C379.911 256.592 379.383 256.278 378.715 256.662C378.369 256.885 378.08 257.186 377.872 257.54C377.664 257.895 377.544 258.292 377.52 258.701Z" fill="#084EA8"/>
<defs>
<linearGradient id="paint0_linear_106_10982" x1="130.809" y1="137.666" x2="281.939" y2="402.849" gradientUnits="userSpaceOnUse">
<stop stop-color="#C0D6FF"/>
<stop offset="0.3" stop-color="#C5DBFF"/>
<stop offset="0.65" stop-color="#D3E9FF"/>
<stop offset="1" stop-color="#E9FFFF"/>
</linearGradient>
<linearGradient id="paint1_linear_106_10982" x1="175580" y1="1463.46" x2="175580" y2="1124.19" gradientUnits="userSpaceOnUse">
<stop stop-color="#5778FF"/>
<stop offset="0.18" stop-color="#5C7DFF"/>
<stop offset="0.39" stop-color="#6A8AFF"/>
<stop offset="0.61" stop-color="#82A0FF"/>
<stop offset="0.85" stop-color="#A3BEFF"/>
<stop offset="1" stop-color="#BCD5FF"/>
</linearGradient>
<linearGradient id="paint2_linear_106_10982" x1="175475" y1="1526.22" x2="175475" y2="1186.95" gradientUnits="userSpaceOnUse">
<stop stop-color="#5778FF"/>
<stop offset="0.18" stop-color="#5C7DFF"/>
<stop offset="0.39" stop-color="#6A8AFF"/>
<stop offset="0.61" stop-color="#82A0FF"/>
<stop offset="0.85" stop-color="#A3BEFF"/>
<stop offset="1" stop-color="#BCD5FF"/>
</linearGradient>
<linearGradient id="paint3_linear_106_10982" x1="175676" y1="1518.11" x2="175676" y2="1178.84" gradientUnits="userSpaceOnUse">
<stop stop-color="#5778FF"/>
<stop offset="0.18" stop-color="#5C7DFF"/>
<stop offset="0.39" stop-color="#6A8AFF"/>
<stop offset="0.61" stop-color="#82A0FF"/>
<stop offset="0.85" stop-color="#A3BEFF"/>
<stop offset="1" stop-color="#BCD5FF"/>
</linearGradient>
<linearGradient id="paint4_linear_106_10982" x1="175570" y1="1580.87" x2="175570" y2="1241.6" gradientUnits="userSpaceOnUse">
<stop stop-color="#5778FF"/>
<stop offset="0.18" stop-color="#5C7DFF"/>
<stop offset="0.39" stop-color="#6A8AFF"/>
<stop offset="0.61" stop-color="#82A0FF"/>
<stop offset="0.85" stop-color="#A3BEFF"/>
<stop offset="1" stop-color="#BCD5FF"/>
</linearGradient>
</defs>
</svg>
