<svg width="59" height="52" viewBox="0 0 59 52" fill="none" xmlns="http://www.w3.org/2000/svg">
<path d="M24.0518 29.7066C28.5376 21.8218 16.969 14.9347 12.2211 22.6563L0.938665 41.7031C-3.31822 49.5305 8.01239 56.215 12.7573 48.7474L24.0518 29.7066Z" fill="#394C8F"/>
<path d="M52.2169 38.1839L30.1462 38.1658C21.2679 38.4893 21.3372 51.6709 30.1462 51.9611L52.2169 51.9793C61.2609 51.8372 61.2609 38.3381 52.2169 38.1839Z" fill="#39BDE5"/>
<path d="M23.6422 10.4057L34.8975 29.4526C39.6424 37.1711 51.217 30.2901 46.7282 22.4022L35.6928 3.7484C35.1151 2.62084 34.239 1.67476 33.1607 1.01398C32.0824 0.3532 30.8436 0.00324618 29.5801 0.00251932C24.3833 -0.1426 20.9218 6.01286 23.6482 10.3967L23.6422 10.4057Z" fill="#3169B1"/>
</svg>
