<svg width="515" height="418" viewBox="0 0 515 418" fill="none" xmlns="http://www.w3.org/2000/svg">
<path d="M343.659 417.997C341.983 418.016 340.331 417.603 338.86 416.798L118.763 289.309C118.173 289.042 117.661 288.624 117.28 288.099C116.899 287.573 116.66 286.957 116.588 286.31C116.622 285.801 116.795 285.311 117.088 284.894C117.38 284.477 117.782 284.148 118.248 283.944L249.586 207.871C250.933 207.257 252.405 206.967 253.885 207.025C255.364 207.083 256.809 207.487 258.105 208.205L478.201 335.693C478.792 335.96 479.303 336.378 479.685 336.903C480.066 337.429 480.304 338.046 480.377 338.692C480.343 339.201 480.17 339.691 479.877 340.108C479.584 340.526 479.182 340.854 478.716 341.058L347.379 417.147C346.23 417.74 344.95 418.032 343.659 417.997ZM119.145 288.659L339.242 416.148C340.417 416.811 341.731 417.188 343.078 417.248C344.425 417.309 345.767 417.052 346.997 416.498L478.434 340.408C478.763 340.26 479.047 340.028 479.26 339.736C479.472 339.444 479.606 339.101 479.646 338.742C479.569 338.228 479.362 337.742 479.045 337.331C478.728 336.92 478.312 336.597 477.836 336.393L257.656 208.854C256.48 208.194 255.165 207.82 253.818 207.762C252.471 207.704 251.13 207.964 249.901 208.521L118.547 284.594C118.219 284.742 117.934 284.974 117.721 285.266C117.509 285.558 117.376 285.901 117.335 286.26C117.412 286.774 117.619 287.26 117.936 287.671C118.253 288.082 118.669 288.405 119.145 288.61V288.659Z" fill="#3169B1"/>
<path d="M19.1302 293.561L18.8977 293.145C24.3445 290.079 29.1602 283.315 30.854 276.301L52.4419 186.932C53.7408 181.482 56.5978 176.531 60.6619 172.688L57.3407 162.508C56.2779 159.176 54.1191 157.51 51.0802 157.709C45.0522 157.926 36.5665 165.573 34.0092 176.153L12.4213 265.521C10.7607 272.652 5.7789 279.55 0.215879 282.682L0 282.249C5.46339 279.183 10.2625 272.419 11.9564 265.405L33.5442 176.053C36.2012 165.09 44.7533 157.46 51.0802 157.21C52.6256 157.146 54.1448 157.625 55.3756 158.565C56.6064 159.505 57.4717 160.846 57.8223 162.358L61.1435 172.354C63.5568 169.987 66.6899 168.497 70.0443 168.122C71.5724 168.087 73.0659 168.581 74.2729 169.522C75.4799 170.463 76.3266 171.793 76.6701 173.287L79.8751 183.167L80.3401 182.901C85.9883 179.182 90.0916 173.525 91.8813 166.99C94.7873 156.477 102.957 149.479 108.77 148.979C110.157 148.835 111.554 149.144 112.751 149.862C113.948 150.58 114.882 151.667 115.412 152.961L120.228 163.174C122.314 161.384 124.866 160.228 127.584 159.842C128.985 159.678 130.4 159.979 131.615 160.698C132.829 161.417 133.775 162.515 134.31 163.824L136.502 168.472L138.843 167.123C144.356 164.007 149.239 156.96 150.783 149.962L172.371 53.4297C174.795 42.6002 183.48 34.603 189.774 34.1865C191.293 34.0617 192.807 34.4727 194.057 35.3487C195.306 36.2247 196.211 37.5107 196.616 38.9848L200.302 49.0979C202.588 46.9283 205.49 45.5251 208.605 45.0826C210.139 44.9794 211.66 45.4128 212.911 46.309C214.161 47.2052 215.063 48.5088 215.463 49.9975L246.699 135.634L260.815 127.453L280.194 138.633L262.143 149.096C260.969 149.893 259.636 150.425 258.237 150.655C256.838 150.885 255.406 150.808 254.039 150.429C253.086 150.053 252.228 149.47 251.527 148.72C250.827 147.971 250.301 147.075 249.987 146.097L246.434 136.35L243.245 138.2C242.075 138.998 240.745 139.53 239.348 139.76C237.952 139.99 236.522 139.913 235.158 139.533C234.201 139.164 233.339 138.583 232.637 137.833C231.935 137.083 231.412 136.183 231.106 135.201L200.036 49.9975C195.882 53.8906 192.989 58.9464 191.733 64.5091L170.146 161.042C168.548 168.225 164.208 174.493 158.056 178.502L152.908 181.484C151.773 182.249 150.492 182.771 149.146 183.017C147.801 183.264 146.419 183.23 145.087 182.917C144.201 182.623 143.386 182.144 142.697 181.513C142.007 180.881 141.458 180.111 141.085 179.252L136.369 169.255L134.011 170.622C132.875 171.386 131.594 171.908 130.249 172.155C128.903 172.401 127.521 172.367 126.189 172.054C125.293 171.749 124.473 171.255 123.783 170.606C123.093 169.956 122.549 169.166 122.187 168.289L120.128 163.891C115.829 167.575 112.738 172.476 111.261 177.952C109.438 184.616 105.251 190.381 99.4868 194.163L94.9866 196.762C93.8025 197.579 92.4511 198.12 91.0317 198.345C89.6122 198.57 88.1606 198.473 86.7832 198.062C85.7946 197.653 84.9133 197.021 84.2077 196.215C83.5021 195.408 82.9912 194.45 82.7147 193.414L79.6094 183.834L76.1055 185.866C74.9214 186.683 73.5701 187.224 72.1506 187.449C70.7311 187.673 69.2795 187.577 67.9021 187.166C66.914 186.761 66.0327 186.132 65.3269 185.328C64.6212 184.525 64.1101 183.568 63.8336 182.534L60.8113 173.287C56.9149 177.037 54.1618 181.822 52.8737 187.082L31.2858 276.451C29.6086 283.548 24.6932 290.446 19.1302 293.561ZM80.0245 183.6L83.1631 193.28C83.4198 194.248 83.8947 195.143 84.5512 195.897C85.2077 196.651 86.0282 197.244 86.9493 197.629C88.2602 198.007 89.6382 198.089 90.9847 197.871C92.3312 197.652 93.6127 197.137 94.7375 196.362L99.2211 193.763C104.9 190.059 109.033 184.4 110.845 177.852C112.368 172.251 115.553 167.248 119.979 163.507L115.13 153.194C114.639 151.971 113.759 150.943 112.627 150.272C111.496 149.6 110.175 149.321 108.869 149.479C103.173 149.962 95.2689 156.826 92.4293 167.089C90.5992 173.75 86.4061 179.509 80.639 183.284L80.0245 183.6ZM61.2099 172.887L64.282 182.384C64.5403 183.346 65.0142 184.237 65.6674 184.987C66.3207 185.738 67.1361 186.329 68.0516 186.716C69.3625 187.094 70.7406 187.177 72.087 186.958C73.4335 186.739 74.715 186.224 75.8398 185.45L79.4433 183.367L76.1221 173.371C75.8196 171.954 75.0227 170.692 73.8749 169.812C72.7271 168.932 71.3038 168.493 69.8616 168.572C66.5811 169.01 63.5381 170.528 61.2099 172.887ZM136.784 168.955L141.517 178.952C141.869 179.738 142.383 180.441 143.023 181.015C143.664 181.589 144.418 182.021 145.236 182.284C146.503 182.572 147.816 182.596 149.092 182.355C150.369 182.114 151.583 181.614 152.659 180.885L157.807 177.919C163.254 174.753 168.12 167.706 169.664 160.775L191.252 64.2425C192.553 58.5079 195.572 53.3102 199.904 49.3478L196.151 39.0681C195.794 37.6862 194.957 36.4774 193.791 35.659C192.625 34.8405 191.207 34.4661 189.791 34.603C183.663 35.0028 175.21 42.8501 172.836 53.463L151.248 149.996C149.675 157.22 145.333 163.534 139.159 167.573L136.784 168.955ZM120.51 163.607L122.636 168.122C122.986 168.907 123.497 169.609 124.135 170.182C124.773 170.756 125.524 171.19 126.339 171.455C127.607 171.745 128.922 171.772 130.201 171.534C131.48 171.296 132.698 170.799 133.778 170.072L136.17 168.756L133.961 164.057C133.475 162.834 132.598 161.808 131.468 161.138C130.338 160.469 129.019 160.195 127.717 160.359C125.058 160.738 122.559 161.864 120.51 163.607ZM246.866 136.017L250.452 145.847C250.722 146.775 251.201 147.629 251.851 148.343C252.502 149.056 253.307 149.61 254.205 149.962C255.504 150.323 256.865 150.393 258.193 150.168C259.522 149.944 260.785 149.43 261.894 148.663L279.231 138.666L260.815 128.053L246.866 136.017ZM200.369 49.6143L231.555 134.968C231.844 135.881 232.332 136.718 232.984 137.419C233.636 138.119 234.436 138.665 235.324 139.016C236.624 139.367 237.983 139.433 239.31 139.209C240.637 138.985 241.9 138.476 243.013 137.717L246.334 135.817L214.998 50.0975C214.644 48.7139 213.809 47.5031 212.642 46.6841C211.475 45.8651 210.055 45.4921 208.638 45.6324C205.555 46.064 202.686 47.457 200.435 49.6143H200.369Z" fill="#39BDE5"/>
<path d="M19.1302 293.561L18.8977 293.145C24.3445 290.079 29.1602 283.315 30.854 276.301L52.4419 186.932C53.7408 181.482 56.5978 176.531 60.6619 172.688L57.3407 162.508C56.2779 159.176 54.1191 157.51 51.0802 157.709C45.0522 157.926 36.5665 165.573 34.0092 176.153L12.4213 265.521C10.7607 272.652 5.7789 279.55 0.215879 282.682L0 282.249C5.46339 279.183 10.2625 272.419 11.9564 265.405L33.5442 176.053C36.2012 165.09 44.7533 157.46 51.0802 157.21C52.6256 157.146 54.1448 157.625 55.3756 158.565C56.6064 159.505 57.4717 160.846 57.8223 162.358L61.1435 172.354C63.5568 169.987 66.6899 168.497 70.0443 168.122C71.5724 168.087 73.0659 168.581 74.2729 169.522C75.4799 170.463 76.3266 171.793 76.6701 173.287L79.8751 183.167L80.3401 182.901C85.9883 179.182 90.0916 173.525 91.8813 166.99C94.7873 156.477 102.957 149.479 108.77 148.979C110.157 148.835 111.554 149.144 112.751 149.862C113.948 150.58 114.882 151.667 115.412 152.961L120.228 163.174C122.314 161.384 124.866 160.228 127.584 159.842C128.985 159.678 130.4 159.979 131.615 160.698C132.829 161.417 133.775 162.515 134.31 163.824L136.502 168.472L138.843 167.123C144.356 164.007 149.239 156.96 150.783 149.962L172.371 53.4297C174.795 42.6002 183.48 34.603 189.774 34.1865C191.293 34.0617 192.807 34.4727 194.057 35.3487C195.306 36.2247 196.211 37.5107 196.616 38.9848L200.302 49.0979C202.588 46.9283 205.49 45.5251 208.605 45.0826C210.139 44.9794 211.66 45.4128 212.911 46.309C214.161 47.2052 215.063 48.5088 215.463 49.9975L246.699 135.634L260.815 127.453L280.194 138.633L262.143 149.096C260.969 149.893 259.636 150.425 258.237 150.655C256.838 150.885 255.406 150.808 254.039 150.429C253.086 150.053 252.228 149.47 251.527 148.72C250.827 147.971 250.301 147.075 249.987 146.097L246.434 136.35L243.245 138.2C242.075 138.998 240.745 139.53 239.348 139.76C237.952 139.99 236.522 139.913 235.158 139.533C234.201 139.164 233.339 138.583 232.637 137.833C231.935 137.083 231.412 136.183 231.106 135.201L200.036 49.9975C195.882 53.8906 192.989 58.9464 191.733 64.5091L170.146 161.042C168.548 168.225 164.208 174.493 158.056 178.502L152.908 181.484C151.773 182.249 150.492 182.771 149.146 183.017C147.801 183.264 146.419 183.23 145.087 182.917C144.201 182.623 143.386 182.144 142.697 181.513C142.007 180.881 141.458 180.111 141.085 179.252L136.369 169.255L134.011 170.622C132.875 171.386 131.594 171.908 130.249 172.155C128.903 172.401 127.521 172.367 126.189 172.054C125.293 171.749 124.473 171.255 123.783 170.606C123.093 169.956 122.549 169.166 122.187 168.289L120.128 163.891C115.829 167.575 112.738 172.476 111.261 177.952C109.438 184.616 105.251 190.381 99.4868 194.163L94.9866 196.762C93.8025 197.579 92.4511 198.12 91.0317 198.345C89.6122 198.57 88.1606 198.473 86.7832 198.062C85.7946 197.653 84.9133 197.021 84.2077 196.215C83.5021 195.408 82.9912 194.45 82.7147 193.414L79.6094 183.834L76.1055 185.866C74.9214 186.683 73.5701 187.224 72.1506 187.449C70.7311 187.673 69.2795 187.577 67.9021 187.166C66.914 186.761 66.0327 186.132 65.3269 185.328C64.6212 184.525 64.1101 183.568 63.8336 182.534L60.8113 173.287C56.9149 177.037 54.1618 181.822 52.8737 187.082L31.2858 276.451C29.6086 283.548 24.6932 290.446 19.1302 293.561ZM80.0245 183.6L83.1631 193.28C83.4198 194.248 83.8947 195.143 84.5512 195.897C85.2077 196.651 86.0282 197.244 86.9493 197.629C88.2602 198.007 89.6382 198.089 90.9847 197.871C92.3312 197.652 93.6127 197.137 94.7375 196.362L99.2211 193.763C104.9 190.059 109.033 184.4 110.845 177.852C112.368 172.251 115.553 167.248 119.979 163.507L115.13 153.194C114.639 151.971 113.759 150.943 112.627 150.272C111.496 149.6 110.175 149.321 108.869 149.479C103.173 149.962 95.2689 156.826 92.4293 167.089C90.5992 173.75 86.4061 179.509 80.639 183.284L80.0245 183.6ZM61.2099 172.887L64.282 182.384C64.5403 183.346 65.0142 184.237 65.6674 184.987C66.3207 185.738 67.1361 186.329 68.0516 186.716C69.3625 187.094 70.7406 187.177 72.087 186.958C73.4335 186.739 74.715 186.224 75.8398 185.45L79.4433 183.367L76.1221 173.371C75.8196 171.954 75.0227 170.692 73.8749 169.812C72.7271 168.932 71.3038 168.493 69.8616 168.572C66.5811 169.01 63.5381 170.528 61.2099 172.887ZM136.784 168.955L141.517 178.952C141.869 179.738 142.383 180.441 143.023 181.015C143.664 181.589 144.418 182.021 145.236 182.284C146.503 182.572 147.816 182.596 149.092 182.355C150.369 182.114 151.583 181.614 152.659 180.885L157.807 177.919C163.254 174.753 168.12 167.706 169.664 160.775L191.252 64.2425C192.553 58.5079 195.572 53.3102 199.904 49.3478L196.151 39.0681C195.794 37.6862 194.957 36.4774 193.791 35.659C192.625 34.8405 191.207 34.4661 189.791 34.603C183.663 35.0028 175.21 42.8501 172.836 53.463L151.248 149.996C149.675 157.22 145.333 163.534 139.159 167.573L136.784 168.955ZM120.51 163.607L122.636 168.122C122.986 168.907 123.497 169.609 124.135 170.182C124.773 170.756 125.524 171.19 126.339 171.455C127.607 171.745 128.922 171.772 130.201 171.534C131.48 171.296 132.698 170.799 133.778 170.072L136.17 168.756L133.961 164.057C133.475 162.834 132.598 161.808 131.468 161.138C130.338 160.469 129.019 160.195 127.717 160.359C125.058 160.738 122.559 161.864 120.51 163.607ZM246.866 136.017L250.452 145.847C250.722 146.775 251.201 147.629 251.851 148.343C252.502 149.056 253.307 149.61 254.205 149.962C255.504 150.323 256.865 150.393 258.193 150.168C259.522 149.944 260.785 149.43 261.894 148.663L279.231 138.666L260.815 128.053L246.866 136.017ZM200.369 49.6143L231.555 134.968C231.844 135.881 232.332 136.718 232.984 137.419C233.636 138.119 234.436 138.665 235.324 139.016C236.624 139.367 237.983 139.433 239.31 139.209C240.637 138.985 241.9 138.476 243.013 137.717L246.334 135.817L214.998 50.0975C214.644 48.7139 213.809 47.5031 212.642 46.6841C211.475 45.8651 210.055 45.4921 208.638 45.6324C205.555 46.064 202.686 47.457 200.435 49.6143H200.369Z" fill="#39BDE5"/>
<path d="M260.817 127.653L243.132 137.9C237.818 140.982 233.168 139.832 231.325 135.034L196.352 39.1179C192.35 28.1551 176.027 38.0683 172.572 53.5295L150.985 150.062C149.389 157.17 145.094 163.375 139.012 167.356L133.864 170.338C128.882 173.237 124.349 172.404 122.372 168.222L115.248 153.061C110.831 143.681 96.1016 152.528 92.0996 167.006C90.3076 173.603 86.1733 179.316 80.4753 183.067L75.9751 185.666C70.5283 188.815 65.7125 187.516 64.0685 182.451L57.5756 162.458C53.9056 151.162 37.5321 160.575 33.7791 176.136L12.1912 265.505C10.5306 272.519 5.54883 279.416 0.118652 282.499L260.817 127.653Z" fill="#F7FAFC"/>
<path d="M279.712 138.3L262.01 148.563C256.696 151.628 251.963 150.479 250.22 145.68L215.231 49.7309C211.229 38.7681 194.905 48.6812 191.451 64.1591L169.863 160.692C168.252 167.798 163.953 173.998 157.873 177.986L152.775 180.968C147.794 183.85 143.244 183.017 141.284 178.835L134.177 163.691C129.759 154.294 115.03 163.157 110.928 177.619C109.148 184.222 105.011 189.938 99.3039 193.68L94.8203 196.279C89.3735 199.445 84.5412 198.145 82.8972 193.064L76.3876 173.037C72.7343 161.741 56.3441 171.155 52.5911 186.716L31.0033 276.084C29.3427 283.115 24.3608 289.996 18.9307 293.078L279.712 138.3Z" fill="#39BDE5"/>
<path d="M258.154 168.785L285.986 3.17703L283.744 2.22737L287.065 0.294717C287.469 0.0736641 287.928 -0.0265573 288.387 0.00592351C288.846 0.0384043 289.287 0.202226 289.656 0.477985L512.044 129.299C512.992 129.894 513.764 130.734 514.278 131.73C514.792 132.727 515.03 133.843 514.967 134.964L486.886 301.888C486.853 302.243 486.729 302.584 486.525 302.876C486.321 303.168 486.045 303.402 485.723 303.554L482.402 305.454L481.837 302.371H482.02L261.044 174.45C260.105 173.847 259.343 173.005 258.836 172.009C258.328 171.014 258.093 169.901 258.154 168.785Z" fill="#084EA8"/>
<path d="M510.816 133.814L514.47 132.148C514.906 133.018 515.079 133.997 514.968 134.964L486.887 301.888C486.855 302.243 486.73 302.584 486.526 302.876C486.323 303.168 486.046 303.402 485.725 303.554L482.404 305.453L481.839 302.371H482.022L470.846 295.89L510.816 133.814Z" fill="#3169B1"/>
<path d="M257.579 176.449L479.934 305.254C481.594 306.253 483.122 305.67 483.421 303.887L511.452 136.963C511.513 135.847 511.278 134.734 510.77 133.739C510.263 132.744 509.501 131.901 508.562 131.298L286.207 2.49396C284.547 1.49432 283.019 2.07744 282.72 3.86015L254.673 170.784C254.611 171.903 254.848 173.017 255.359 174.013C255.87 175.008 256.636 175.849 257.579 176.449Z" fill="white"/>
<path d="M285.459 5.60956L508.86 134.947L480.646 302.305L257.395 173.034L285.459 5.60956Z" fill="#3169B1"/>
<path d="M117.786 255.488L129.925 261.836L251.598 191.361C252.854 190.787 254.227 190.518 255.606 190.575C256.985 190.633 258.331 191.016 259.535 191.694L469.403 313.317C471.412 312.201 480.578 307.769 480.578 307.769L476.128 314.9C475.894 315.497 475.451 315.989 474.883 316.283L346.734 390.523C345.478 391.098 344.104 391.366 342.725 391.309C341.346 391.251 340 390.868 338.796 390.19L124.013 265.834C123.206 265.424 122.571 264.739 122.22 263.902L117.786 255.488Z" fill="#3169B1"/>
<path d="M119.745 257.487L339.842 384.975C341.077 385.666 342.456 386.058 343.869 386.119C345.282 386.179 346.689 385.908 347.979 385.325L479.316 309.235C481.408 308.036 481.143 305.903 478.735 304.52L258.555 177.032C257.321 176.339 255.94 175.947 254.526 175.889C253.113 175.832 251.705 176.109 250.418 176.699L119.081 252.772C116.989 253.988 117.254 256.088 119.745 257.487Z" fill="#F7FAFC"/>
<path d="M119.741 256.587L339.838 384.076C341.073 384.769 342.453 385.16 343.867 385.218C345.28 385.276 346.688 384.999 347.975 384.409L479.229 308.236C479.541 308.078 479.819 307.86 480.047 307.594C480.275 307.328 480.449 307.02 480.558 306.686C480.66 307.197 480.584 307.728 480.342 308.19C480.1 308.651 479.707 309.014 479.229 309.219L347.892 385.309C346.602 385.891 345.195 386.163 343.782 386.102C342.369 386.041 340.99 385.65 339.755 384.959L119.741 257.487C118.18 256.587 117.533 255.388 117.832 254.322C117.98 254.809 118.226 255.262 118.555 255.651C118.883 256.041 119.287 256.359 119.741 256.587Z" fill="white"/>
<path d="M220.915 243.375L213.923 239.327C213.359 238.994 213.425 238.427 214.073 238.061L222.376 233.279C222.708 233.092 223.08 232.985 223.46 232.968C223.841 232.951 224.22 233.023 224.568 233.179L231.559 237.228C232.107 237.561 232.041 238.127 231.393 238.494L223.09 243.275C222.761 243.462 222.392 243.569 222.014 243.586C221.636 243.604 221.26 243.531 220.915 243.375Z" fill="#084EA8"/>
<path d="M231.692 249.623L224.717 245.575C224.153 245.241 224.219 244.675 224.867 244.309L233.17 239.527C233.509 239.351 233.885 239.26 234.266 239.26C234.647 239.26 235.023 239.351 235.362 239.527L242.336 243.559C242.901 243.892 242.835 244.458 242.187 244.842L233.884 249.607C233.545 249.781 233.171 249.873 232.79 249.876C232.409 249.879 232.033 249.792 231.692 249.623Z" fill="#084EA8"/>
<path d="M242.485 255.871L235.494 251.822C234.946 251.489 235.012 250.923 235.66 250.556L243.963 245.775C244.3 245.603 244.672 245.514 245.05 245.514C245.428 245.514 245.801 245.603 246.138 245.775L253.129 249.823C253.694 250.14 253.627 250.706 252.98 251.089L244.677 255.854C244.338 256.028 243.963 256.121 243.583 256.123C243.202 256.126 242.826 256.04 242.485 255.871Z" fill="#084EA8"/>
<path d="M257.416 250.706L250.425 246.591C249.861 246.275 249.944 245.708 250.591 245.325L257.499 241.31C257.833 241.125 258.205 241.021 258.585 241.007C258.966 240.993 259.345 241.068 259.691 241.226L266.682 245.275C267.247 245.591 267.181 246.158 266.533 246.541L259.608 250.556C259.28 250.751 258.911 250.867 258.53 250.893C258.149 250.919 257.768 250.855 257.416 250.706Z" fill="#084EA8"/>
<path d="M268.212 256.954L261.221 252.906C260.657 252.589 260.723 252.022 261.371 251.639L268.296 247.624C268.63 247.443 269.002 247.342 269.382 247.327C269.762 247.313 270.14 247.386 270.488 247.541L277.512 251.589C278.076 251.906 277.993 252.489 277.346 252.856L270.421 256.871C270.086 257.061 269.711 257.167 269.327 257.182C268.943 257.196 268.561 257.118 268.212 256.954Z" fill="#084EA8"/>
<path d="M278.981 263.252L272.007 259.203C271.442 258.887 271.508 258.32 272.156 257.937L279.081 253.939C279.413 253.751 279.784 253.645 280.165 253.628C280.545 253.61 280.925 253.682 281.273 253.839L288.264 257.887C288.812 258.22 288.745 258.787 288.098 259.153L281.173 263.169C280.839 263.353 280.468 263.457 280.087 263.471C279.706 263.486 279.328 263.411 278.981 263.252Z" fill="#084EA8"/>
<path d="M289.78 269.466L282.789 265.418C282.241 265.084 282.307 264.518 282.955 264.135L289.879 260.136C290.212 259.949 290.583 259.843 290.963 259.825C291.344 259.808 291.724 259.88 292.071 260.036L299.046 264.085C299.61 264.418 299.544 264.985 298.896 265.351L291.972 269.366C291.639 269.553 291.268 269.66 290.888 269.677C290.507 269.695 290.127 269.622 289.78 269.466Z" fill="#084EA8"/>
<path d="M300.575 275.714L293.583 271.666C293.019 271.332 293.102 270.766 293.749 270.399L300.674 266.384C301.003 266.197 301.372 266.091 301.75 266.073C302.128 266.056 302.505 266.128 302.85 266.284L309.841 270.333C310.405 270.666 310.339 271.232 309.691 271.599L302.767 275.614C302.434 275.801 302.063 275.908 301.682 275.925C301.302 275.943 300.922 275.87 300.575 275.714Z" fill="#084EA8"/>
<path d="M311.367 281.962L304.376 277.913C303.811 277.58 303.877 277.014 304.525 276.647L311.45 272.632C311.79 272.46 312.165 272.371 312.546 272.371C312.926 272.371 313.302 272.46 313.642 272.632L320.683 276.58C321.247 276.897 321.164 277.463 320.517 277.847L313.609 281.845C313.272 282.043 312.892 282.157 312.502 282.177C312.112 282.198 311.723 282.124 311.367 281.962Z" fill="#084EA8"/>
<path d="M322.161 288.243L315.17 284.195C314.605 283.878 314.671 283.295 315.319 282.928L322.244 278.913C322.584 278.742 322.959 278.652 323.34 278.652C323.72 278.652 324.096 278.742 324.436 278.913L331.427 282.962C331.975 283.278 331.908 283.845 331.261 284.228L324.336 288.226C324 288.4 323.628 288.492 323.25 288.495C322.872 288.498 322.499 288.412 322.161 288.243Z" fill="#084EA8"/>
<path d="M332.941 294.458L325.966 290.409C325.402 290.092 325.468 289.526 326.116 289.143L333.041 285.128C333.381 284.956 333.756 284.867 334.137 284.867C334.517 284.867 334.893 284.956 335.233 285.128L342.207 289.176C342.772 289.493 342.705 290.059 342.058 290.442L335.133 294.458C334.793 294.629 334.418 294.718 334.037 294.718C333.656 294.718 333.281 294.629 332.941 294.458Z" fill="#084EA8"/>
<path d="M343.735 300.705L336.744 296.657C336.196 296.34 336.262 295.774 336.91 295.391L343.834 291.392C344.164 291.205 344.532 291.099 344.91 291.081C345.288 291.064 345.665 291.136 346.01 291.292L353.001 295.341C353.566 295.657 353.499 296.24 352.851 296.607L345.927 300.622C345.593 300.807 345.221 300.91 344.841 300.925C344.46 300.939 344.081 300.864 343.735 300.705Z" fill="#084EA8"/>
<path d="M354.526 306.953L347.535 302.905C346.97 302.588 347.053 302.021 347.701 301.638L354.609 297.64C354.941 297.453 355.312 297.346 355.693 297.329C356.074 297.311 356.453 297.384 356.801 297.54L363.858 301.572C364.423 301.905 364.356 302.471 363.709 302.838L356.784 306.853C356.444 307.051 356.06 307.164 355.667 307.181C355.274 307.199 354.882 307.12 354.526 306.953Z" fill="#084EA8"/>
<path d="M273.303 247.741L266.329 243.709C265.764 243.375 265.831 242.809 266.478 242.426L273.403 238.427C273.735 238.24 274.106 238.134 274.487 238.116C274.868 238.099 275.247 238.171 275.595 238.327L282.569 242.376C283.134 242.709 283.068 243.275 282.42 243.642L275.495 247.657C275.163 247.846 274.791 247.951 274.409 247.966C274.028 247.98 273.649 247.903 273.303 247.741Z" fill="#084EA8"/>
<path d="M262.364 241.41L255.373 237.361C254.808 237.028 254.875 236.461 255.522 236.095L262.447 232.08C262.786 231.904 263.162 231.813 263.543 231.813C263.924 231.813 264.3 231.904 264.639 232.08L271.63 236.112C272.195 236.445 272.128 237.011 271.464 237.394L264.556 241.393C264.217 241.567 263.842 241.659 263.462 241.662C263.081 241.665 262.705 241.578 262.364 241.41Z" fill="#084EA8"/>
<path d="M251.388 235.045L236.343 226.332C235.778 226.015 235.845 225.448 236.509 225.065L243.417 221.05C243.757 220.879 244.132 220.789 244.513 220.789C244.894 220.789 245.269 220.879 245.609 221.05L260.654 229.764C261.219 230.097 261.152 230.663 260.505 231.03L253.58 234.928C253.249 235.118 252.878 235.228 252.498 235.248C252.117 235.268 251.737 235.199 251.388 235.045Z" fill="#084EA8"/>
<path d="M259.055 227.331L246.849 220.25C246.285 219.917 246.351 219.351 246.999 218.984L253.923 214.936C254.257 214.751 254.629 214.647 255.01 214.633C255.39 214.618 255.769 214.694 256.115 214.852L268.321 221.916C268.886 222.25 268.819 222.816 268.171 223.183L261.247 227.198C260.917 227.39 260.547 227.503 260.167 227.526C259.786 227.549 259.405 227.482 259.055 227.331Z" fill="#084EA8"/>
<path d="M284.153 254.005L277.112 249.923C276.564 249.59 276.63 249.024 277.278 248.657L284.203 244.642C284.532 244.455 284.9 244.348 285.278 244.331C285.656 244.314 286.033 244.386 286.378 244.542L293.369 248.59C293.934 248.924 293.867 249.49 293.22 249.857L286.295 253.872C285.972 254.056 285.61 254.164 285.239 254.187C284.868 254.21 284.496 254.148 284.153 254.005Z" fill="#084EA8"/>
<path d="M294.898 260.253L287.907 256.204C287.342 255.871 287.425 255.305 288.073 254.938L294.981 250.923C295.321 250.752 295.696 250.662 296.077 250.662C296.457 250.662 296.833 250.752 297.173 250.923L304.164 254.955C304.729 255.288 304.662 255.855 304.015 256.238L297.09 260.236C296.751 260.41 296.376 260.503 295.996 260.505C295.615 260.508 295.239 260.422 294.898 260.253Z" fill="#084EA8"/>
<path d="M305.74 266.584L298.749 262.536C298.184 262.202 298.251 261.636 298.898 261.269L305.823 257.254C306.163 257.083 306.538 256.993 306.919 256.993C307.299 256.993 307.675 257.083 308.015 257.254L315.006 261.303C315.571 261.619 315.488 262.186 314.84 262.569L307.915 266.567C307.579 266.741 307.207 266.833 306.83 266.836C306.452 266.839 306.078 266.753 305.74 266.584Z" fill="#084EA8"/>
<path d="M316.461 272.749L309.486 268.7C308.921 268.383 308.988 267.817 309.635 267.434L316.56 263.419C316.9 263.247 317.276 263.158 317.656 263.158C318.037 263.158 318.412 263.247 318.752 263.419L325.743 267.467C326.291 267.784 326.225 268.35 325.577 268.733L318.653 272.749C318.312 272.92 317.937 273.009 317.557 273.009C317.176 273.009 316.801 272.92 316.461 272.749Z" fill="#084EA8"/>
<path d="M327.329 278.996L320.272 274.914C319.724 274.598 319.79 274.031 320.438 273.648L327.363 269.633C327.704 269.465 328.079 269.378 328.459 269.378C328.839 269.378 329.214 269.465 329.555 269.633L336.529 273.682C337.094 273.998 337.027 274.581 336.38 274.948L329.455 278.963C329.126 279.129 328.764 279.218 328.396 279.224C328.028 279.23 327.663 279.152 327.329 278.996Z" fill="#084EA8"/>
<path d="M338.053 285.244L331.062 281.195C330.497 280.879 330.58 280.312 331.228 279.929L338.153 275.931C338.482 275.744 338.851 275.637 339.228 275.62C339.606 275.602 339.983 275.675 340.328 275.831L347.253 279.913C347.817 280.246 347.751 280.812 347.103 281.179L340.179 285.194C339.851 285.363 339.49 285.455 339.122 285.463C338.753 285.472 338.388 285.397 338.053 285.244Z" fill="#084EA8"/>
<path d="M348.909 291.575L341.918 287.543C341.353 287.21 341.419 286.644 342.067 286.26L348.992 282.262C349.324 282.075 349.695 281.968 350.076 281.951C350.457 281.933 350.836 282.006 351.184 282.162L358.175 286.21C358.74 286.544 358.657 287.11 358.009 287.477L351.101 291.492C350.769 291.68 350.396 291.786 350.015 291.801C349.634 291.815 349.254 291.738 348.909 291.575Z" fill="#084EA8"/>
<path d="M359.623 297.756L352.648 293.708C352.084 293.375 352.15 292.808 352.798 292.442L359.722 288.426C360.055 288.239 360.426 288.133 360.806 288.115C361.187 288.098 361.566 288.17 361.914 288.326L368.905 292.375C369.453 292.708 369.387 293.275 368.739 293.641L361.815 297.656C361.482 297.843 361.111 297.95 360.73 297.967C360.35 297.985 359.97 297.912 359.623 297.756Z" fill="#084EA8"/>
<path d="M370.503 304.004L363.528 299.956C362.963 299.622 363.03 299.056 363.677 298.689L370.602 294.674C370.936 294.49 371.308 294.386 371.688 294.372C372.069 294.357 372.448 294.432 372.794 294.591L379.769 298.639C380.333 298.956 380.267 299.522 379.619 299.906L372.695 303.904C372.362 304.091 371.991 304.198 371.61 304.215C371.23 304.233 370.85 304.16 370.503 304.004Z" fill="#084EA8"/>
<path d="M389.602 315.117L374.358 306.287C373.81 305.953 373.876 305.387 374.524 305.02L381.449 301.005C381.781 300.818 382.152 300.711 382.533 300.694C382.913 300.677 383.293 300.749 383.641 300.905L398.885 309.735C399.433 310.069 399.367 310.635 398.719 311.018L391.794 315.017C391.462 315.204 391.091 315.31 390.71 315.328C390.329 315.345 389.95 315.273 389.602 315.117Z" fill="#084EA8"/>
<path d="M410.607 302.938L397.754 295.49C397.189 295.157 397.255 294.591 397.903 294.224L404.828 290.209C405.161 290.024 405.533 289.921 405.914 289.906C406.295 289.892 406.673 289.967 407.02 290.126L419.889 297.573C420.437 297.906 420.371 298.473 419.723 298.839L412.799 302.854C412.465 303.039 412.093 303.143 411.713 303.157C411.332 303.171 410.953 303.096 410.607 302.938Z" fill="#084EA8"/>
<path d="M302.994 252.772L296.003 248.724C295.439 248.407 295.522 247.841 296.169 247.458L303.094 243.442C303.426 243.262 303.795 243.16 304.172 243.146C304.549 243.131 304.925 243.204 305.269 243.359L312.261 247.408C312.825 247.724 312.759 248.307 312.111 248.674L305.186 252.689C304.853 252.874 304.481 252.977 304.1 252.992C303.72 253.006 303.341 252.931 302.994 252.772Z" fill="#084EA8"/>
<path d="M291.936 246.374L284.945 242.326C284.38 241.993 284.463 241.426 285.111 241.06L292.035 237.044C292.365 236.856 292.734 236.75 293.113 236.736C293.492 236.721 293.868 236.799 294.211 236.961L301.202 240.993C301.767 241.326 301.7 241.893 301.053 242.276L294.128 246.275C293.796 246.462 293.424 246.568 293.044 246.586C292.663 246.603 292.284 246.531 291.936 246.374Z" fill="#084EA8"/>
<path d="M280.827 239.927L273.835 235.878C273.287 235.562 273.354 234.995 274.001 234.612L280.926 230.613C281.255 230.426 281.624 230.32 282.002 230.303C282.38 230.285 282.757 230.357 283.102 230.513L290.093 234.562C290.657 234.879 290.591 235.462 289.943 235.828L283.068 239.927C282.722 240.106 282.337 240.2 281.947 240.2C281.557 240.2 281.173 240.106 280.827 239.927Z" fill="#084EA8"/>
<path d="M269.823 233.562L262.831 229.514C262.283 229.181 262.35 228.614 262.998 228.248L269.922 224.232C270.256 224.048 270.628 223.944 271.008 223.93C271.389 223.915 271.768 223.99 272.114 224.149L279.172 228.264C279.736 228.597 279.67 229.164 279.022 229.547L272.098 233.546C271.748 233.734 271.359 233.833 270.962 233.836C270.566 233.839 270.175 233.745 269.823 233.562Z" fill="#084EA8"/>
<path d="M313.793 259.02L306.801 254.922C306.237 254.605 306.303 254.039 306.951 253.655L313.876 249.657C314.208 249.47 314.579 249.363 314.96 249.346C315.34 249.328 315.72 249.401 316.068 249.557L323.059 253.605C323.623 253.939 323.54 254.505 322.893 254.872L315.985 258.887C315.655 259.079 315.285 259.192 314.904 259.215C314.524 259.238 314.143 259.171 313.793 259.02Z" fill="#084EA8"/>
<path d="M324.565 265.268L317.59 261.236C317.026 260.903 317.092 260.336 317.74 259.953L324.665 255.954C324.997 255.767 325.368 255.661 325.749 255.643C326.129 255.626 326.509 255.698 326.857 255.854L333.848 259.903C334.396 260.236 334.329 260.803 333.682 261.169L326.757 265.184C326.425 265.373 326.052 265.479 325.671 265.493C325.29 265.508 324.911 265.43 324.565 265.268Z" fill="#084EA8"/>
<path d="M335.358 271.582L328.383 267.534C327.819 267.2 327.885 266.634 328.533 266.267L335.458 262.252C335.79 262.065 336.161 261.958 336.542 261.941C336.922 261.924 337.302 261.996 337.65 262.152L344.624 266.201C345.189 266.534 345.122 267.1 344.475 267.467L337.55 271.482C337.218 271.669 336.846 271.776 336.466 271.793C336.085 271.811 335.706 271.738 335.358 271.582Z" fill="#084EA8"/>
<path d="M346.158 277.78L339.166 273.732C338.618 273.398 338.685 272.832 339.332 272.465L346.257 268.45C346.588 268.266 346.957 268.162 347.335 268.148C347.713 268.133 348.089 268.208 348.433 268.367L355.424 272.415C355.988 272.732 355.922 273.298 355.274 273.682L348.35 277.68C348.017 277.867 347.646 277.974 347.265 277.991C346.885 278.009 346.505 277.936 346.158 277.78Z" fill="#084EA8"/>
<path d="M356.947 284.028L349.955 279.913C349.391 279.596 349.474 279.013 350.122 278.647L357.03 274.631C357.363 274.447 357.735 274.343 358.116 274.329C358.496 274.314 358.875 274.389 359.222 274.548L366.213 278.597C366.777 278.913 366.711 279.48 366.063 279.863L359.139 283.861C358.812 284.059 358.443 284.177 358.062 284.206C357.682 284.235 357.299 284.174 356.947 284.028Z" fill="#084EA8"/>
<path d="M367.742 290.276L360.751 286.227C360.186 285.911 360.252 285.344 360.9 284.961L367.825 280.946C368.158 280.761 368.53 280.658 368.911 280.643C369.292 280.629 369.67 280.704 370.017 280.862L377.008 284.911C377.573 285.228 377.49 285.794 376.842 286.177L369.917 290.192C369.587 290.377 369.217 290.48 368.839 290.495C368.461 290.509 368.085 290.434 367.742 290.276Z" fill="#084EA8"/>
<path d="M378.523 296.573L371.549 292.525C370.984 292.208 371.05 291.642 371.698 291.259L378.623 287.26C378.955 287.073 379.326 286.966 379.707 286.949C380.087 286.932 380.467 287.004 380.815 287.16L387.806 291.209C388.354 291.525 388.287 292.108 387.64 292.475L380.715 296.49C380.381 296.675 380.009 296.778 379.629 296.793C379.248 296.807 378.87 296.732 378.523 296.573Z" fill="#084EA8"/>
<path d="M389.313 302.771L382.322 298.722C381.774 298.406 381.84 297.839 382.488 297.456L389.413 293.458C389.745 293.271 390.116 293.164 390.497 293.147C390.877 293.129 391.257 293.202 391.605 293.358L398.579 297.406C399.144 297.74 399.077 298.306 398.43 298.673L391.505 302.688C391.171 302.872 390.799 302.976 390.419 302.99C390.038 303.005 389.659 302.93 389.313 302.771Z" fill="#084EA8"/>
<path d="M400.11 309.036L393.119 304.987C392.554 304.654 392.637 304.087 393.285 303.721L400.209 299.706C400.539 299.519 400.907 299.412 401.285 299.395C401.663 299.377 402.04 299.45 402.385 299.606L409.376 303.654C409.94 303.987 409.874 304.554 409.226 304.92L402.302 308.936C401.969 309.123 401.598 309.229 401.218 309.247C400.837 309.264 400.457 309.192 400.11 309.036Z" fill="#084EA8"/>
<path d="M297.313 237.311L290.322 233.262C289.758 232.946 289.824 232.379 290.488 231.996L297.397 227.998C297.729 227.811 298.1 227.704 298.481 227.687C298.861 227.669 299.241 227.742 299.589 227.898L306.58 231.946C307.144 232.28 307.078 232.846 306.414 233.213L299.505 237.228C299.172 237.412 298.8 237.516 298.419 237.53C298.039 237.545 297.66 237.47 297.313 237.311Z" fill="#084EA8"/>
<path d="M286.575 231.097L279.583 227.048C279.035 226.731 279.102 226.165 279.75 225.782L286.674 221.767C287.014 221.595 287.39 221.506 287.77 221.506C288.151 221.506 288.526 221.595 288.866 221.767L295.841 225.815C296.405 226.132 296.339 226.698 295.691 227.081L288.767 231.097C288.426 231.268 288.051 231.357 287.671 231.357C287.29 231.357 286.915 231.268 286.575 231.097Z" fill="#084EA8"/>
<path d="M275.847 224.932L268.856 220.883C268.292 220.55 268.358 219.984 269.006 219.617L275.93 215.602C276.263 215.414 276.635 215.308 277.016 215.293C277.398 215.279 277.777 215.356 278.122 215.519L285.113 219.551C285.678 219.884 285.595 220.45 284.947 220.833L278.039 224.832C277.707 225.019 277.336 225.126 276.955 225.143C276.574 225.16 276.195 225.088 275.847 224.932Z" fill="#084EA8"/>
<path d="M265.104 218.651L258.113 214.619C257.565 214.286 257.631 213.719 258.279 213.336L265.204 209.338C265.536 209.151 265.907 209.044 266.288 209.027C266.668 209.009 267.048 209.082 267.396 209.238L274.37 213.286C274.935 213.619 274.868 214.186 274.221 214.552L267.296 218.568C266.964 218.756 266.591 218.862 266.21 218.876C265.829 218.891 265.449 218.814 265.104 218.651Z" fill="#084EA8"/>
<path d="M276.149 212.27L269.207 208.271C268.643 207.938 268.726 207.372 269.373 207.005L271.665 205.672C272.001 205.497 272.374 205.406 272.753 205.406C273.131 205.406 273.505 205.497 273.84 205.672L280.832 209.704C281.396 210.037 281.33 210.604 280.682 210.987L278.391 212.303C278.041 212.478 277.656 212.566 277.266 212.56C276.876 212.554 276.493 212.455 276.149 212.27Z" fill="#084EA8"/>
<path d="M290.157 220.384L283.166 216.335C282.601 216.002 282.668 215.435 283.315 215.069L285.607 213.736C285.94 213.552 286.312 213.448 286.693 213.433C287.074 213.419 287.452 213.494 287.799 213.653L294.79 217.701C295.355 218.018 295.271 218.584 294.624 218.968L292.349 220.284C292.017 220.471 291.645 220.577 291.265 220.595C290.884 220.612 290.505 220.54 290.157 220.384Z" fill="#084EA8"/>
<path d="M300.851 226.598L293.86 222.566C293.295 222.233 293.362 221.667 294.009 221.283L296.301 219.967C296.633 219.78 297.005 219.674 297.385 219.656C297.766 219.639 298.145 219.711 298.493 219.867L305.484 223.916C306.032 224.249 305.966 224.815 305.318 225.182L303.027 226.515C302.697 226.703 302.328 226.809 301.949 226.824C301.57 226.838 301.194 226.761 300.851 226.598Z" fill="#084EA8"/>
<path d="M311.532 232.763L304.557 228.714C303.993 228.398 304.059 227.831 304.707 227.448L306.998 226.132C307.331 225.945 307.702 225.838 308.083 225.821C308.463 225.803 308.843 225.876 309.19 226.032L316.182 230.08C316.73 230.414 316.663 230.98 316.015 231.347L313.724 232.679C313.39 232.864 313.018 232.968 312.638 232.982C312.257 232.996 311.878 232.921 311.532 232.763Z" fill="#084EA8"/>
<path d="M322.226 238.96L315.252 234.912C314.687 234.579 314.753 234.012 315.401 233.646L317.693 232.313C318.026 232.128 318.398 232.025 318.779 232.01C319.159 231.996 319.538 232.071 319.885 232.229L326.859 236.278C327.424 236.595 327.357 237.161 326.71 237.544L324.418 238.86C324.086 239.048 323.715 239.154 323.334 239.171C322.953 239.189 322.574 239.117 322.226 238.96Z" fill="#084EA8"/>
<path d="M381.927 273.532L374.936 269.483C374.371 269.166 374.454 268.6 375.102 268.217L377.377 266.901C377.709 266.713 378.081 266.607 378.461 266.59C378.842 266.572 379.221 266.644 379.569 266.801L386.56 270.849C387.125 271.182 387.042 271.749 386.394 272.115L384.119 273.448C383.785 273.633 383.414 273.736 383.033 273.751C382.652 273.765 382.274 273.69 381.927 273.532Z" fill="#084EA8"/>
<path d="M392.62 279.729L385.629 275.681C385.064 275.364 385.13 274.781 385.778 274.414L388.07 273.082C388.403 272.897 388.775 272.794 389.156 272.779C389.536 272.765 389.915 272.84 390.262 272.998L397.253 277.047C397.817 277.363 397.734 277.93 397.087 278.313L394.795 279.629C394.466 279.816 394.097 279.923 393.719 279.94C393.341 279.957 392.965 279.885 392.62 279.729Z" fill="#084EA8"/>
<path d="M403.315 285.927L396.324 281.879C395.759 281.545 395.826 280.979 396.473 280.612L398.765 279.28C399.099 279.095 399.471 278.991 399.851 278.977C400.232 278.963 400.61 279.038 400.957 279.196L407.948 283.245C408.496 283.561 408.43 284.128 407.782 284.511L405.49 285.827C405.161 286.014 404.793 286.121 404.415 286.138C404.037 286.155 403.66 286.083 403.315 285.927Z" fill="#084EA8"/>
<path d="M413.985 292.108L407.01 288.06C406.446 287.743 406.512 287.177 407.16 286.793L409.452 285.477C409.784 285.29 410.155 285.184 410.536 285.166C410.916 285.149 411.296 285.221 411.643 285.377L418.618 289.426C419.183 289.759 419.116 290.326 418.469 290.692L416.177 292.025C415.843 292.209 415.471 292.313 415.091 292.328C414.71 292.342 414.331 292.267 413.985 292.108Z" fill="#084EA8"/>
<path d="M308.112 243.559L301.121 239.527C300.556 239.194 300.623 238.627 301.27 238.244L308.195 234.245C308.527 234.058 308.898 233.952 309.279 233.934C309.66 233.917 310.039 233.989 310.387 234.146L317.361 238.261C317.926 238.594 317.843 239.16 317.195 239.527L310.271 243.542C309.937 243.713 309.568 243.804 309.193 243.807C308.818 243.81 308.448 243.725 308.112 243.559Z" fill="#084EA8"/>
<path d="M318.886 249.823L311.912 245.775C311.347 245.441 311.414 244.875 312.061 244.508L318.986 240.493C319.318 240.306 319.689 240.2 320.07 240.182C320.451 240.165 320.83 240.237 321.178 240.393L328.169 244.442C328.717 244.775 328.651 245.342 328.003 245.708L321.078 249.723C320.746 249.91 320.375 250.017 319.994 250.034C319.614 250.052 319.234 249.979 318.886 249.823Z" fill="#084EA8"/>
<path d="M329.683 256.071L322.692 252.022C322.144 251.689 322.21 251.123 322.858 250.756L329.783 246.741C330.115 246.553 330.487 246.447 330.869 246.432C331.25 246.418 331.629 246.495 331.975 246.658L338.949 250.69C339.514 251.023 339.447 251.589 338.8 251.973L331.875 255.971C331.543 256.158 331.171 256.265 330.791 256.282C330.41 256.299 330.031 256.227 329.683 256.071Z" fill="#084EA8"/>
<path d="M340.48 262.319L333.489 258.254C332.924 257.92 333.007 257.354 333.655 256.987L340.579 252.972C340.91 252.788 341.279 252.684 341.657 252.67C342.035 252.655 342.411 252.73 342.755 252.889L349.746 256.937C350.311 257.254 350.244 257.82 349.597 258.204L342.672 262.202C342.341 262.392 341.97 262.501 341.59 262.522C341.209 262.542 340.829 262.472 340.48 262.319Z" fill="#084EA8"/>
<path d="M351.27 268.567L344.279 264.518C343.714 264.201 343.781 263.635 344.428 263.252L351.353 259.237C351.687 259.052 352.059 258.948 352.439 258.934C352.82 258.92 353.199 258.995 353.545 259.153L360.536 263.252C361.101 263.568 361.018 264.135 360.37 264.518L353.445 268.533C353.111 268.71 352.74 268.805 352.362 268.811C351.984 268.816 351.61 268.733 351.27 268.567Z" fill="#084EA8"/>
<path d="M362.046 274.814L355.072 270.766C354.507 270.449 354.574 269.883 355.221 269.5L362.146 265.484C362.48 265.3 362.852 265.196 363.232 265.182C363.613 265.167 363.992 265.242 364.338 265.401L371.329 269.45C371.877 269.766 371.811 270.333 371.163 270.716L364.238 274.731C363.905 274.915 363.533 275.019 363.152 275.034C362.772 275.048 362.393 274.973 362.046 274.814Z" fill="#084EA8"/>
<path d="M372.843 281.062L365.852 277.014C365.304 276.697 365.37 276.131 366.018 275.747L372.943 271.749C373.275 271.562 373.646 271.455 374.027 271.438C374.408 271.421 374.787 271.493 375.135 271.649L382.109 275.698C382.674 276.031 382.607 276.597 381.96 276.964L375.035 280.979C374.702 281.163 374.33 281.267 373.949 281.282C373.568 281.296 373.19 281.221 372.843 281.062Z" fill="#084EA8"/>
<path d="M383.634 287.31L376.643 283.245C376.078 282.911 376.161 282.345 376.809 281.962L383.734 277.963C384.063 277.776 384.432 277.67 384.81 277.652C385.187 277.635 385.564 277.707 385.909 277.863L392.9 281.912C393.465 282.245 393.398 282.812 392.751 283.178L385.826 287.193C385.497 287.387 385.126 287.499 384.744 287.519C384.363 287.539 383.982 287.468 383.634 287.31Z" fill="#084EA8"/>
<path d="M394.425 293.574L387.434 289.526C386.869 289.193 386.935 288.626 387.6 288.26L394.508 284.244C394.84 284.057 395.211 283.951 395.592 283.933C395.973 283.916 396.352 283.988 396.7 284.144L403.708 288.243C404.272 288.576 404.189 289.143 403.542 289.509L396.633 293.524C396.295 293.706 395.919 293.806 395.535 293.815C395.151 293.823 394.771 293.741 394.425 293.574Z" fill="#084EA8"/>
<path d="M246.42 244.342L225.845 232.413C225.281 232.096 225.347 231.53 225.995 231.147L232.92 227.148C233.252 226.961 233.623 226.854 234.004 226.837C234.384 226.82 234.764 226.892 235.112 227.048L255.686 238.96C256.251 239.294 256.168 239.86 255.52 240.243L248.596 244.242C248.266 244.429 247.898 244.535 247.52 244.553C247.142 244.57 246.765 244.498 246.42 244.342Z" fill="#084EA8"/>
<path d="M378.97 321.131L358.395 309.202C357.83 308.886 357.913 308.319 358.561 307.936L365.486 303.921C365.823 303.75 366.195 303.66 366.573 303.66C366.951 303.66 367.324 303.75 367.661 303.921L388.253 315.833C388.801 316.166 388.734 316.733 388.087 317.099L381.162 321.115C380.823 321.289 380.448 321.381 380.068 321.384C379.687 321.387 379.311 321.3 378.97 321.131Z" fill="#084EA8"/>
<path d="M335.829 309.902L328.838 305.853C328.274 305.537 328.357 304.954 329.004 304.587L337.307 299.806C337.641 299.621 338.013 299.517 338.393 299.503C338.774 299.489 339.153 299.564 339.499 299.722L346.49 303.771C347.038 304.087 346.972 304.654 346.324 305.037L338.021 309.802C337.689 309.989 337.318 310.096 336.937 310.113C336.557 310.13 336.177 310.058 335.829 309.902Z" fill="#084EA8"/>
<path d="M257.464 264.551L246.288 258.07C245.724 257.754 245.807 257.187 246.455 256.804L254.758 252.022C255.098 251.851 255.473 251.762 255.854 251.762C256.234 251.762 256.609 251.851 256.95 252.022L268.125 258.487C268.69 258.82 268.624 259.386 267.976 259.753L259.673 264.535C259.332 264.711 258.954 264.805 258.571 264.808C258.187 264.811 257.808 264.723 257.464 264.551Z" fill="#084EA8"/>
<path d="M325.436 303.904L314.26 297.44C313.696 297.106 313.762 296.54 314.41 296.173L322.713 291.392C323.053 291.22 323.428 291.131 323.809 291.131C324.189 291.131 324.565 291.22 324.905 291.392L336.081 297.856C336.629 298.189 336.562 298.756 335.915 299.122L327.612 303.904C327.275 304.077 326.902 304.167 326.524 304.167C326.146 304.167 325.773 304.077 325.436 303.904Z" fill="#084EA8"/>
<path d="M273.041 273.565L261.865 267.084C261.3 266.767 261.367 266.201 262.014 265.818L270.317 261.053C270.65 260.866 271.021 260.759 271.402 260.742C271.782 260.724 272.162 260.797 272.509 260.953L283.685 267.434C284.233 267.75 284.167 268.317 283.519 268.7L275.216 273.465C274.887 273.652 274.518 273.758 274.14 273.776C273.762 273.793 273.386 273.721 273.041 273.565Z" fill="#084EA8"/>
<path d="M272.522 261.003L321.112 289.143C321.245 289.186 321.36 289.271 321.442 289.385C321.524 289.499 321.569 289.635 321.569 289.776C321.569 289.916 321.524 290.053 321.442 290.167C321.36 290.28 321.245 290.365 321.112 290.409L312.692 295.274C312.356 295.446 311.983 295.536 311.605 295.536C311.227 295.536 310.854 295.446 310.517 295.274L261.928 267.134L272.522 261.003Z" fill="#084EA8"/>
<path d="M365.984 321.265L373.772 325.78C374.221 326.046 374.171 326.513 373.64 326.813L370.318 328.762C370.048 328.918 369.744 329.007 369.432 329.022C369.12 329.036 368.809 328.976 368.525 328.845L360.737 324.33C360.272 324.064 360.338 323.597 360.87 323.297L364.191 321.348C364.461 321.192 364.765 321.103 365.077 321.088C365.389 321.074 365.7 321.134 365.984 321.265Z" fill="#084EA8"/>
<path d="M355.104 314.9L362.876 319.399C363.341 319.665 363.291 320.132 362.759 320.448L359.438 322.398C359.167 322.554 358.863 322.643 358.551 322.657C358.239 322.672 357.929 322.611 357.645 322.481L349.873 317.966C349.408 317.699 349.474 317.233 349.989 316.933L353.31 314.967C353.584 314.817 353.888 314.733 354.199 314.721C354.511 314.71 354.82 314.771 355.104 314.9Z" fill="#084EA8"/>
<path d="M344.311 308.719L352.1 313.218C352.548 313.484 352.498 313.951 351.967 314.267L348.646 316.217C348.367 316.356 348.06 316.428 347.749 316.428C347.438 316.428 347.131 316.356 346.852 316.217L339.064 311.718C338.599 311.452 338.665 310.985 339.197 310.669L342.518 308.719C342.796 308.58 343.103 308.507 343.415 308.507C343.726 308.507 344.033 308.58 344.311 308.719Z" fill="#084EA8"/>
<path d="M361.052 311.568L368.84 316.067C369.305 316.333 369.239 316.8 368.707 317.116L365.386 319.066C365.108 319.205 364.801 319.277 364.489 319.277C364.178 319.277 363.871 319.205 363.593 319.066L355.821 314.567C355.356 314.301 355.406 313.834 355.937 313.518L359.258 311.568C359.537 311.429 359.844 311.356 360.155 311.356C360.466 311.356 360.773 311.429 361.052 311.568Z" fill="#084EA8"/>
<path d="M471.129 143.078C470.546 143.065 469.974 142.904 469.469 142.611C468.655 142.123 468.004 141.403 467.599 140.543C467.194 139.682 467.053 138.72 467.194 137.78C467.276 137.415 467.441 137.074 467.678 136.785C467.914 136.495 468.215 136.265 468.555 136.114C468.979 135.953 469.434 135.894 469.885 135.943C470.335 135.993 470.767 136.148 471.146 136.397C471.965 136.881 472.62 137.6 473.029 138.461C473.437 139.322 473.579 140.286 473.438 141.228C473.352 141.594 473.183 141.935 472.943 142.224C472.704 142.513 472.402 142.742 472.059 142.894C471.765 143.019 471.449 143.081 471.129 143.078ZM469.552 136.63C469.323 136.624 469.096 136.67 468.888 136.763C468.647 136.877 468.437 137.046 468.275 137.258C468.113 137.469 468.004 137.717 467.958 137.98C467.841 138.765 467.962 139.568 468.305 140.284C468.649 141 469.199 141.596 469.884 141.995C470.163 142.178 470.481 142.294 470.812 142.335C471.143 142.375 471.479 142.339 471.794 142.228C472.04 142.115 472.254 141.944 472.419 141.729C472.584 141.514 472.694 141.262 472.74 140.995C472.849 140.212 472.724 139.415 472.381 138.703C472.038 137.991 471.493 137.397 470.814 136.997C470.433 136.765 469.997 136.639 469.552 136.63Z" fill="#39BDE5"/>
<path d="M480.095 148.292C479.51 148.292 478.935 148.131 478.435 147.826C477.618 147.341 476.964 146.621 476.559 145.76C476.153 144.899 476.014 143.935 476.16 142.994C476.239 142.628 476.404 142.286 476.64 141.997C476.877 141.707 477.179 141.478 477.521 141.328C477.943 141.161 478.398 141.097 478.849 141.144C479.3 141.19 479.733 141.345 480.112 141.595C480.93 142.079 481.586 142.798 481.994 143.659C482.403 144.52 482.545 145.484 482.404 146.426C482.313 146.79 482.142 147.128 481.904 147.417C481.665 147.705 481.365 147.936 481.025 148.092C480.73 148.215 480.415 148.283 480.095 148.292ZM478.435 141.745C478.207 141.746 477.981 141.791 477.77 141.878C477.53 141.991 477.32 142.161 477.158 142.372C476.996 142.584 476.887 142.832 476.841 143.094C476.724 143.88 476.845 144.683 477.188 145.399C477.532 146.115 478.082 146.711 478.767 147.109C479.046 147.293 479.363 147.409 479.695 147.449C480.026 147.49 480.362 147.453 480.677 147.343C480.92 147.232 481.134 147.063 481.299 146.851C481.463 146.639 481.575 146.391 481.623 146.126C481.733 145.341 481.609 144.541 481.266 143.826C480.923 143.112 480.377 142.515 479.697 142.111C479.315 141.88 478.88 141.754 478.435 141.745Z" fill="#39BDE5"/>
<path d="M490.895 151.358C490.821 151.714 490.657 152.046 490.419 152.321C490.181 152.595 489.877 152.805 489.536 152.928C489.195 153.052 488.828 153.086 488.47 153.027C488.112 152.968 487.775 152.818 487.491 152.591C486.744 152.147 486.146 151.49 485.774 150.703C485.401 149.917 485.27 149.037 485.398 148.176C485.472 147.82 485.636 147.488 485.874 147.213C486.112 146.939 486.416 146.729 486.757 146.606C487.099 146.482 487.466 146.448 487.824 146.507C488.182 146.566 488.519 146.716 488.803 146.943C489.549 147.387 490.147 148.044 490.519 148.831C490.892 149.617 491.023 150.497 490.895 151.358Z" fill="#39BDE5"/>
<path d="M320.312 52.8761L315.546 50.1104L315.911 47.9112L320.677 50.6602L320.312 52.8761Z" fill="#39BDE5"/>
<path d="M327.219 56.8748L322.47 54.1257L322.835 51.9099L327.584 54.6589L327.219 56.8748Z" fill="#39BDE5"/>
<path d="M313.45 48.8941L303.021 42.8629L303.387 40.647L313.832 46.6949L313.45 48.8941Z" fill="#39BDE5"/>
<path d="M314.768 90.5463L306.813 85.9479L307.129 84.0986L315.083 88.7136L314.768 90.5463Z" fill="#39BDE5"/>
<path d="M321.576 94.4948L317.591 92.179L317.89 90.3297L321.875 92.6455L321.576 94.4948Z" fill="#39BDE5"/>
<path d="M316.393 96.2441L313.006 94.2782L313.321 92.4288L316.709 94.3948L316.393 96.2441Z" fill="#39BDE5"/>
<path d="M322.085 99.5429L318.1 97.2271L318.399 95.3777L322.384 97.6936L322.085 99.5429Z" fill="#39BDE5"/>
<path d="M327.936 107.674L312.276 98.6102L312.592 96.7608L328.235 105.824L327.936 107.674Z" fill="#39BDE5"/>
<path d="M314.365 143.927L298.722 134.864L299.021 133.014L314.663 142.078L314.365 143.927Z" fill="#39BDE5"/>
<path d="M320.379 147.41L316.41 145.11L316.709 143.261L320.695 145.56L320.379 147.41Z" fill="#39BDE5"/>
<path d="M314.95 104.908L311.562 102.942L311.861 101.093L315.266 103.059L314.95 104.908Z" fill="#39BDE5"/>
<path d="M320.635 108.207L316.666 105.891L316.965 104.041L320.95 106.357L320.635 108.207Z" fill="#39BDE5"/>
<path d="M319.435 112.255L310.833 107.274L311.149 105.424L319.75 110.406L319.435 112.255Z" fill="#39BDE5"/>
<path d="M325.191 115.587L321.206 113.288L321.522 111.439L325.507 113.738L325.191 115.587Z" fill="#39BDE5"/>
<path d="M330.993 118.936L327.008 116.637L327.323 114.787L331.292 117.103L330.993 118.936Z" fill="#39BDE5"/>
<path d="M340.321 124.351L332.782 119.986L333.098 118.136L340.637 122.502L340.321 124.351Z" fill="#39BDE5"/>
<path d="M334.364 130.399L330.379 128.099L330.694 126.25L334.68 128.549L334.364 130.399Z" fill="#39BDE5"/>
<path d="M343.711 135.814L336.172 131.448L336.471 129.599L344.01 133.964L343.711 135.814Z" fill="#39BDE5"/>
<path d="M313.37 118.236L309.385 115.937L309.7 114.088L313.669 116.387L313.37 118.236Z" fill="#39BDE5"/>
<path d="M319.168 121.585L315.183 119.286L315.482 117.437L319.467 119.752L319.168 121.585Z" fill="#39BDE5"/>
<path d="M328.498 127L320.959 122.635L321.275 120.785L328.814 125.15L328.498 127Z" fill="#39BDE5"/>
<path d="M340.734 129.349L336.749 127.033L337.065 125.184L341.05 127.5L340.734 129.349Z" fill="#39BDE5"/>
<path d="M346.538 132.698L342.553 130.382L342.852 128.549L346.837 130.848L346.538 132.698Z" fill="#39BDE5"/>
<path d="M355.865 138.113L348.343 133.748L348.642 131.898L356.181 136.263L355.865 138.113Z" fill="#39BDE5"/>
<path d="M326.609 151.025L322.641 148.709L322.94 146.876L326.925 149.175L326.609 151.025Z" fill="#39BDE5"/>
<path d="M335.957 156.439L328.418 152.074L328.733 150.225L336.273 154.59L335.957 156.439Z" fill="#39BDE5"/>
<path d="M311.929 126.9L307.943 124.601L308.259 122.752L312.228 125.051L311.929 126.9Z" fill="#39BDE5"/>
<path d="M321.257 132.315L313.734 127.95L314.033 126.1L321.572 130.465L321.257 132.315Z" fill="#39BDE5"/>
<path d="M330.956 158.289L326.971 155.973L327.27 154.124L331.255 156.439L330.956 158.289Z" fill="#39BDE5"/>
<path d="M340.283 163.704L332.761 159.339L333.06 157.489L340.599 161.854L340.283 163.704Z" fill="#39BDE5"/>
<path d="M339.84 114.571L335.854 112.272L336.153 110.422L340.139 112.722L339.84 114.571Z" fill="#39BDE5"/>
<path d="M333.814 111.089L329.828 108.773L330.144 106.924L334.129 109.24L333.814 111.089Z" fill="#39BDE5"/>
<path d="M349.172 119.986L341.633 115.621L341.948 113.771L349.487 118.136L349.172 119.986Z" fill="#39BDE5"/>
<path d="M313.703 113.688L310.116 111.605L310.415 109.756L314.019 111.839L313.703 113.688Z" fill="#39BDE5"/>
<path d="M324.362 119.852L315.627 114.788L315.926 112.955L324.661 118.003L324.362 119.852Z" fill="#39BDE5"/>
<path d="M335.008 126.034L326.273 120.969L326.589 119.119L335.324 124.184L335.008 126.034Z" fill="#39BDE5"/>
<path d="M354.703 123.185L351.116 121.102L351.432 119.253L355.019 121.335L354.703 123.185Z" fill="#39BDE5"/>
<path d="M365.369 129.366L356.634 124.301L356.949 122.451L365.684 127.516L365.369 129.366Z" fill="#39BDE5"/>
<path d="M376.011 135.53L367.293 130.465L367.592 128.616L376.327 133.681L376.011 135.53Z" fill="#39BDE5"/>
<path d="M317.478 125.367L308.743 120.302L309.059 118.453L317.793 123.518L317.478 125.367Z" fill="#39BDE5"/>
<path d="M322.074 128.033L319.4 126.484L319.699 124.634L322.389 126.184L322.074 128.033Z" fill="#39BDE5"/>
<path d="M326.69 130.699L324.017 129.149L324.316 127.3L327.006 128.849L326.69 130.699Z" fill="#39BDE5"/>
<path d="M335.224 135.647L328.615 131.815L328.931 129.982L335.523 133.798L335.224 135.647Z" fill="#39BDE5"/>
<path d="M344.778 126.933L342.104 125.384L342.42 123.534L345.094 125.084L344.778 126.933Z" fill="#39BDE5"/>
<path d="M353.311 131.882L346.719 128.05L347.018 126.2L353.627 130.032L353.311 131.882Z" fill="#39BDE5"/>
<path d="M355.098 132.914L348.506 129.082L348.805 127.25L355.414 131.065L355.098 132.914Z" fill="#39BDE5"/>
<path d="M319.982 156.673L311.38 151.691L311.679 149.842L320.281 154.823L319.982 156.673Z" fill="#39BDE5"/>
<path d="M325.725 160.005L321.756 157.706L322.055 155.856L326.04 158.172L325.725 160.005Z" fill="#39BDE5"/>
<path d="M331.521 163.37L327.535 161.055L327.851 159.205L331.836 161.521L331.521 163.37Z" fill="#39BDE5"/>
<path d="M340.867 168.785L333.328 164.403L333.627 162.571L341.166 166.936L340.867 168.785Z" fill="#39BDE5"/>
<path d="M346.834 172.234L342.865 169.935L343.164 168.085L347.15 170.385L346.834 172.234Z" fill="#39BDE5"/>
<path d="M356.181 177.649L348.642 173.283L348.957 171.434L356.48 175.799L356.181 177.649Z" fill="#39BDE5"/>
<path d="M327.524 170.551L323.538 168.235L323.854 166.403L327.839 168.702L327.524 170.551Z" fill="#39BDE5"/>
<path d="M336.865 175.966L329.326 171.601L329.642 169.751L337.164 174.117L336.865 175.966Z" fill="#39BDE5"/>
<path d="M306.727 158.505L302.741 156.189L303.057 154.357L307.026 156.656L306.727 158.505Z" fill="#39BDE5"/>
<path d="M312.509 161.854L308.54 159.555L308.839 157.706L312.824 160.005L312.509 161.854Z" fill="#39BDE5"/>
<path d="M321.856 167.269L314.316 162.904L314.632 161.055L322.171 165.42L321.856 167.269Z" fill="#39BDE5"/>
<path d="M314.232 158.106L310.646 156.023L310.961 154.174L314.548 156.256L314.232 158.106Z" fill="#39BDE5"/>
<path d="M324.895 164.27L316.16 159.222L316.476 157.372L325.21 162.421L324.895 164.27Z" fill="#39BDE5"/>
<path d="M335.561 170.451L326.826 165.386L327.125 163.537L335.86 168.602L335.561 170.451Z" fill="#39BDE5"/>
<path d="M303.79 161.554L295.056 156.489L295.371 154.64L304.089 159.705L303.79 161.554Z" fill="#39BDE5"/>
<path d="M308.388 164.22L305.715 162.671L306.014 160.821L308.704 162.371L308.388 164.22Z" fill="#39BDE5"/>
<path d="M313.005 166.886L310.314 165.337L310.63 163.487L313.304 165.037L313.005 166.886Z" fill="#39BDE5"/>
<path d="M321.527 171.834L314.935 168.002L315.25 166.153L321.843 169.985L321.527 171.834Z" fill="#39BDE5"/>
<path d="M323.318 172.867L316.726 169.052L317.041 167.203L323.634 171.018L323.318 172.867Z" fill="#39BDE5"/>
<path d="M307.722 144.827L305.032 143.278L305.348 141.428L308.021 142.978L307.722 144.827Z" fill="#39BDE5"/>
<path d="M316.241 149.775L309.648 145.943L309.964 144.094L316.557 147.926L316.241 149.775Z" fill="#39BDE5"/>
<path d="M324.96 154.823L318.367 150.991L318.666 149.142L325.275 152.974L324.96 154.823Z" fill="#39BDE5"/>
<path d="M358.537 183.763L354.552 181.464L354.867 179.615L358.853 181.914L358.537 183.763Z" fill="#39BDE5"/>
<path d="M367.892 189.178L360.353 184.813L360.651 182.964L368.191 187.329L367.892 189.178Z" fill="#39BDE5"/>
<path d="M343.842 175.25L337.232 171.434L337.548 169.585L344.141 173.4L343.842 175.25Z" fill="#39BDE5"/>
<path d="M352.55 180.298L345.957 176.483L346.273 174.633L352.865 178.448L352.55 180.298Z" fill="#39BDE5"/>
<path d="M303.059 126.517L300.369 124.967L300.685 123.118L303.358 124.667L303.059 126.517Z" fill="#39BDE5"/>
<path d="M311.578 131.448L304.985 127.633L305.301 125.784L311.893 129.599L311.578 131.448Z" fill="#39BDE5"/>
<path d="M320.298 136.496L313.705 132.681L314.004 130.832L320.613 134.647L320.298 136.496Z" fill="#39BDE5"/>
<path d="M451.948 203.823C451.298 203.81 450.662 203.626 450.105 203.289L396.766 172.4C395.632 171.628 394.736 170.552 394.181 169.294C393.627 168.037 393.435 166.648 393.628 165.286L397.065 144.96C397.121 144.348 397.327 143.759 397.666 143.247C398.006 142.735 398.467 142.316 399.008 142.028C399.504 141.814 400.045 141.726 400.583 141.769C401.121 141.813 401.641 141.987 402.097 142.278L455.435 173.167C456.568 173.94 457.463 175.017 458.017 176.274C458.572 177.531 458.765 178.919 458.574 180.281L455.186 200.607C455.122 201.221 454.91 201.81 454.569 202.324C454.227 202.837 453.767 203.26 453.227 203.556C452.827 203.744 452.389 203.835 451.948 203.823ZM400.237 142.411C399.921 142.408 399.609 142.476 399.323 142.611C398.896 142.857 398.533 143.201 398.265 143.615C397.996 144.029 397.83 144.502 397.779 144.993L394.375 165.403C394.199 166.615 394.365 167.853 394.856 168.975C395.346 170.097 396.14 171.059 397.148 171.751L450.47 202.64C450.819 202.872 451.22 203.015 451.637 203.056C452.054 203.096 452.474 203.033 452.861 202.873C453.29 202.629 453.655 202.286 453.924 201.871C454.192 201.456 454.358 200.983 454.406 200.49L457.81 180.081C457.986 178.868 457.819 177.631 457.329 176.509C456.839 175.387 456.045 174.425 455.037 173.733L401.715 142.844C401.267 142.575 400.758 142.426 400.237 142.411Z" fill="#39BDE5"/>
<path d="M446.086 238.91C445.436 238.897 444.8 238.714 444.243 238.377L390.904 207.472C389.77 206.703 388.874 205.63 388.319 204.375C387.764 203.12 387.572 201.733 387.766 200.374L391.187 179.948C391.246 179.337 391.455 178.75 391.794 178.239C392.132 177.727 392.591 177.307 393.13 177.016C393.627 176.805 394.169 176.719 394.707 176.765C395.245 176.812 395.764 176.989 396.218 177.282L449.54 208.171C450.679 208.94 451.579 210.015 452.137 211.273C452.695 212.532 452.889 213.922 452.695 215.285L449.275 235.695C449.208 236.306 448.994 236.892 448.653 237.402C448.312 237.913 447.853 238.333 447.315 238.627C446.932 238.813 446.512 238.91 446.086 238.91ZM444.608 237.727C444.957 237.961 445.359 238.104 445.776 238.142C446.194 238.179 446.615 238.112 447 237.944C447.43 237.703 447.796 237.36 448.065 236.944C448.334 236.529 448.499 236.055 448.544 235.562L451.948 215.152C452.123 213.942 451.956 212.707 451.465 211.588C450.975 210.469 450.181 209.51 449.175 208.821L395.853 177.932C395.504 177.7 395.103 177.557 394.686 177.516C394.269 177.475 393.849 177.538 393.462 177.699C393.029 177.938 392.662 178.28 392.392 178.696C392.123 179.112 391.96 179.587 391.917 180.081L388.513 200.491C388.336 201.701 388.503 202.936 388.993 204.056C389.484 205.176 390.278 206.134 391.286 206.822L444.608 237.727Z" fill="#39BDE5"/>
<path opacity="0.5" d="M401.571 170.201C402.518 170.751 403.348 170.534 403.664 169.685L409.874 152.641C410.588 150.691 413.494 152.457 414.109 155.206L417.945 172.367C418.232 173.626 418.994 174.725 420.07 175.433L420.984 175.966C421.864 176.482 422.644 176.332 423.026 175.583L424.288 172.9C425.069 171.234 427.693 172.8 428.407 175.366C428.727 176.543 429.465 177.563 430.482 178.232L431.28 178.682C432.243 179.248 433.106 179.015 433.388 178.115L434.551 174.55C435.199 172.55 438.105 174.216 438.785 176.982L442.605 192.877C442.912 194.123 443.685 195.202 444.764 195.892L401.571 170.201Z" fill="#39BDE5"/>
<path d="M438.005 230.83C436.84 230.089 436.007 228.925 435.68 227.581L431.844 211.687C431.714 210.978 431.39 210.32 430.909 209.784C430.429 209.249 429.809 208.858 429.121 208.654C428.938 208.654 428.761 208.717 428.619 208.832C428.476 208.948 428.378 209.108 428.34 209.288L427.178 212.853C427.108 213.081 426.99 213.291 426.833 213.469C426.675 213.647 426.481 213.789 426.264 213.886C425.972 213.973 425.664 213.994 425.363 213.948C425.062 213.902 424.774 213.79 424.521 213.619L423.724 213.17C422.62 212.458 421.82 211.359 421.482 210.087C421.339 209.414 421.019 208.791 420.554 208.284C420.09 207.777 419.498 207.405 418.841 207.205C418.677 207.176 418.508 207.208 418.365 207.293C418.222 207.379 418.114 207.513 418.061 207.671L416.799 210.354C416.712 210.548 416.586 210.723 416.429 210.866C416.272 211.009 416.087 211.119 415.886 211.187C415.604 211.256 415.312 211.266 415.026 211.217C414.741 211.169 414.468 211.062 414.225 210.904L413.312 210.371C412.727 209.995 412.222 209.508 411.826 208.936C411.43 208.364 411.15 207.719 411.003 207.038L407.167 189.944C407.051 189.227 406.735 188.558 406.256 188.013C405.777 187.468 405.155 187.069 404.461 186.862C404.281 186.837 404.098 186.882 403.95 186.987C403.802 187.093 403.7 187.25 403.664 187.429L397.453 204.473C397.375 204.693 397.252 204.894 397.092 205.063C396.932 205.233 396.738 205.366 396.523 205.456C396.243 205.528 395.951 205.541 395.665 205.496C395.379 205.45 395.106 205.345 394.862 205.189L395.228 204.539C395.385 204.65 395.565 204.726 395.754 204.76C395.943 204.795 396.137 204.787 396.324 204.739C396.438 204.698 396.54 204.63 396.621 204.54C396.702 204.45 396.76 204.341 396.789 204.223L403.016 187.179C403.108 186.848 403.313 186.559 403.595 186.364C403.877 186.169 404.219 186.08 404.56 186.112C405.406 186.34 406.168 186.806 406.757 187.456C407.346 188.106 407.736 188.912 407.881 189.778L411.717 206.938C411.985 208.095 412.679 209.107 413.66 209.771L414.59 210.304C414.741 210.409 414.912 210.482 415.091 210.519C415.271 210.557 415.457 210.557 415.636 210.52C415.741 210.487 415.837 210.431 415.917 210.356C415.997 210.281 416.06 210.189 416.101 210.087L417.364 207.388C417.492 207.098 417.709 206.855 417.984 206.697C418.258 206.538 418.576 206.471 418.891 206.505C419.711 206.706 420.457 207.135 421.044 207.742C421.632 208.349 422.037 209.11 422.212 209.937C422.506 211.016 423.186 211.947 424.122 212.553L424.919 213.02C425.075 213.135 425.254 213.213 425.444 213.247C425.634 213.282 425.829 213.273 426.015 213.22C426.131 213.17 426.235 213.094 426.318 212.999C426.401 212.904 426.462 212.792 426.497 212.67L427.643 209.104C427.735 208.77 427.934 208.476 428.211 208.268C428.487 208.06 428.825 207.95 429.17 207.955C430.03 208.156 430.813 208.606 431.421 209.248C432.029 209.891 432.436 210.698 432.591 211.57L436.427 227.448C436.704 228.591 437.405 229.586 438.387 230.23L438.005 230.83Z" fill="#39BDE5"/>
<path d="M416.615 124.967C415.791 124.951 414.984 124.722 414.274 124.301L372.576 100.143C371.274 99.3101 370.265 98.0895 369.691 96.6522C369.116 95.2149 369.004 93.6331 369.371 92.1289C369.53 91.4538 369.842 90.8246 370.283 90.2901C370.723 89.7555 371.281 89.3301 371.912 89.0466C372.532 88.8108 373.198 88.7227 373.858 88.7892C374.518 88.8557 375.153 89.075 375.715 89.4298L417.412 113.588C418.72 114.423 419.733 115.649 420.309 117.093C420.884 118.537 420.992 120.126 420.617 121.635C420.465 122.309 420.157 122.937 419.719 123.469C419.28 124.002 418.724 124.423 418.093 124.701C417.623 124.886 417.121 124.977 416.615 124.967ZM373.439 89.5131C373.03 89.5163 372.625 89.5953 372.244 89.7464C371.717 89.9841 371.253 90.341 370.887 90.789C370.521 91.2371 370.264 91.7641 370.135 92.3288C369.813 93.6744 369.917 95.0871 370.432 96.3709C370.946 97.6547 371.847 98.7458 373.008 99.4929L414.706 123.651C415.169 123.949 415.696 124.135 416.244 124.192C416.792 124.25 417.345 124.179 417.861 123.984C418.383 123.743 418.844 123.385 419.207 122.938C419.569 122.49 419.825 121.964 419.953 121.402C420.252 120.057 420.128 118.653 419.599 117.382C419.069 116.111 418.161 115.036 416.997 114.304L375.349 90.1462C374.759 89.7835 374.082 89.5878 373.39 89.5798L373.439 89.5131Z" fill="#39BDE5"/>
</svg>
