<svg width="424" height="420" viewBox="0 0 424 420" fill="none" xmlns="http://www.w3.org/2000/svg">
<path opacity="0.8" d="M321.193 271.978L194.595 345.062L68.0117 271.978L194.595 198.955L321.193 271.978Z" fill="#C2E7FF"/>
<path opacity="0.1" d="M321.438 265.22L221.651 322.827L121.879 265.22L221.666 207.627L321.438 265.22Z" fill="#39BDE5"/>
<path d="M403.375 397.567V390.839L401.521 389.791C400.99 392.98 397.253 395.061 394.124 395.501L372.857 407.955L363.561 411.312L333.879 396.002L334.563 395.608C332.026 394.423 330.659 391.72 329.292 389.244L327.302 390.429L326.102 390.763V397.673C326.175 398.458 326.456 399.208 326.915 399.849C327.374 400.489 327.995 400.996 328.714 401.318L358.457 418.48C360.414 419.469 362.576 419.984 364.768 419.984C366.961 419.984 369.123 419.469 371.08 418.48L400.823 401.318C401.532 401 402.145 400.502 402.601 399.873C403.056 399.244 403.339 398.506 403.42 397.734V397.567H403.375Z" fill="white"/>
<path d="M394.124 395.501L372.858 407.954L364.762 410.886V419.998C366.963 420.039 369.138 419.516 371.081 418.479L400.823 401.318C401.532 401 402.145 400.502 402.601 399.873C403.057 399.244 403.34 398.506 403.421 397.734V397.567V390.839L401.719 389.882H401.552C400.914 393.01 397.223 395.076 394.124 395.501Z" fill="#C2E7FF"/>
<path opacity="0.3" d="M358.41 411.584L328.668 394.407C325.189 392.402 325.189 389.137 328.668 387.132L358.41 369.955C360.367 368.966 362.529 368.451 364.722 368.451C366.914 368.451 369.076 368.966 371.033 369.955L400.761 387.132C404.254 389.137 404.254 392.402 400.761 394.407L371.033 411.584C369.076 412.573 366.914 413.089 364.722 413.089C362.529 413.089 360.367 412.573 358.41 411.584V411.584Z" fill="url(#paint0_linear_305_11449)"/>
<path d="M358.41 411.584L328.668 394.407C325.189 392.402 325.189 389.137 328.668 387.132L358.41 369.955C360.367 368.966 362.529 368.451 364.722 368.451C366.914 368.451 369.076 368.966 371.033 369.955L400.761 387.132C404.254 389.137 404.254 392.402 400.761 394.407L371.033 411.584C369.076 412.573 366.914 413.089 364.722 413.089C362.529 413.089 360.367 412.573 358.41 411.584V411.584Z" fill="#C2E7FF"/>
<path d="M364.713 389.942C362.761 389.981 360.832 389.521 359.108 388.605L329.38 371.443C328.676 371.199 328.065 370.742 327.633 370.135C327.201 369.528 326.969 368.802 326.969 368.056C326.969 367.311 327.201 366.585 327.633 365.978C328.065 365.371 328.676 364.913 329.38 364.67L359.108 347.508C360.844 346.625 362.765 346.164 364.713 346.164C366.661 346.164 368.582 346.625 370.318 347.508L400.061 364.67C400.758 364.92 401.361 365.38 401.787 365.986C402.213 366.593 402.442 367.316 402.442 368.056C402.442 368.797 402.213 369.52 401.787 370.126C401.361 370.732 400.758 371.192 400.061 371.443L370.318 388.605C368.595 389.524 366.665 389.984 364.713 389.942ZM359.381 388.15C361.03 388.981 362.851 389.415 364.698 389.415C366.544 389.415 368.365 388.981 370.014 388.15L399.757 370.988C400.4 370.813 400.969 370.431 401.374 369.901C401.779 369.372 401.998 368.723 401.998 368.056C401.998 367.39 401.779 366.741 401.374 366.212C400.969 365.682 400.4 365.3 399.757 365.125L370.014 347.963C368.365 347.132 366.544 346.698 364.698 346.698C362.851 346.698 361.03 347.132 359.381 347.963L329.638 365.125C328.995 365.3 328.427 365.682 328.022 366.212C327.617 366.741 327.397 367.39 327.397 368.056C327.397 368.723 327.617 369.372 328.022 369.901C328.427 370.431 328.995 370.813 329.638 370.988L359.381 388.15Z" fill="white"/>
<path opacity="0.4" d="M403.375 361.465V351.289L401.521 350.257C400.99 353.431 397.253 355.527 394.124 355.967L372.857 368.421L363.561 371.777L333.879 356.468L334.563 356.073C332.026 354.889 330.659 352.17 329.292 349.695L327.302 350.895L326.102 351.229V361.571C326.175 362.356 326.456 363.107 326.915 363.747C327.374 364.387 327.995 364.894 328.714 365.216L358.457 382.378C360.412 383.374 362.574 383.894 364.768 383.894C366.962 383.894 369.125 383.374 371.08 382.378L400.823 365.216C401.529 364.9 402.141 364.404 402.597 363.778C403.053 363.152 403.337 362.417 403.42 361.647V361.465H403.375Z" fill="#39BDE5"/>
<path d="M403.373 352.428V345.685L401.52 344.652C400.988 347.827 397.252 349.922 394.122 350.363L372.856 362.817L363.56 366.173L333.832 350.834L334.516 350.439C331.979 349.254 330.612 346.536 329.245 344.06L327.255 345.26L326.055 345.594V352.504C326.139 353.286 326.424 354.032 326.881 354.67C327.339 355.309 327.955 355.819 328.667 356.149L358.41 373.311C360.367 374.3 362.529 374.816 364.722 374.816C366.914 374.816 369.076 374.3 371.033 373.311L400.776 356.149C401.478 355.822 402.085 355.321 402.539 354.694C402.994 354.067 403.281 353.334 403.373 352.565V352.352V352.428Z" fill="#3169B1"/>
<path d="M394.132 350.363L372.866 362.816L364.77 365.732V374.844C366.971 374.885 369.146 374.362 371.089 373.325L400.831 356.164C401.533 355.837 402.14 355.336 402.594 354.709C403.049 354.081 403.336 353.349 403.428 352.58V352.352V345.609L401.727 344.667H401.56C400.922 347.872 397.231 349.922 394.132 350.363Z" fill="#3169B1"/>
<path d="M358.41 366.492L328.668 349.314C325.189 347.31 325.189 344.029 328.668 342.024L358.41 324.862C360.367 323.873 362.529 323.358 364.722 323.358C366.914 323.358 369.076 323.873 371.033 324.862L400.761 342.024C404.254 344.029 404.254 347.31 400.761 349.314L371.018 366.476C369.064 367.465 366.906 367.982 364.716 367.985C362.526 367.987 360.366 367.476 358.41 366.492V366.492Z" fill="#39BDE5"/>
<path d="M400.777 349.315L371.034 366.477C369.077 367.466 366.915 367.981 364.723 367.981C362.53 367.981 360.368 367.466 358.411 366.477L328.669 349.315C328.022 349.012 327.454 348.563 327.009 348.005C326.564 347.446 326.253 346.793 326.101 346.095C326.065 346.952 326.291 347.8 326.75 348.525C327.209 349.249 327.878 349.817 328.669 350.15L358.411 367.312C360.366 368.308 362.529 368.828 364.723 368.828C366.917 368.828 369.08 368.308 371.034 367.312L400.777 350.15C401.569 349.818 402.239 349.252 402.698 348.526C403.157 347.801 403.383 346.953 403.344 346.095C403.189 346.792 402.877 347.444 402.433 348.002C401.988 348.56 401.421 349.009 400.777 349.315V349.315Z" fill="white"/>
<path d="M77.3224 388.636V381.893L75.454 380.86C74.9376 384.034 71.1856 386.13 68.0564 386.571L46.79 399.024L37.4935 402.381L7.78133 387.072L8.46489 386.677C5.92812 385.492 4.56099 382.728 3.19387 380.298L1.18875 381.498L0.00390625 381.832V388.803C0.076135 389.588 0.356284 390.339 0.815512 390.98C1.27474 391.621 1.89645 392.128 2.61663 392.448L32.344 409.61C34.3039 410.598 36.4682 411.113 38.6632 411.113C40.8581 411.113 43.0224 410.598 44.9823 409.61L74.7097 392.448C75.4226 392.117 76.0378 391.608 76.4956 390.969C76.9535 390.331 77.2383 389.584 77.3224 388.803V388.621V388.636Z" fill="white"/>
<path d="M68.0657 386.57L46.7995 399.024L38.7031 401.94V411.052C40.9043 411.091 43.0791 410.568 45.0222 409.533L74.7493 392.372C75.4464 392.044 76.049 391.544 76.5006 390.92C76.9522 390.296 77.2381 389.568 77.3317 388.803V388.621V381.878L75.6304 380.936H75.4481C74.8708 384.08 71.1645 386.13 68.0657 386.57Z" fill="#C2E7FF"/>
<path opacity="0.3" d="M32.3441 402.699L2.61674 385.537C-0.861831 383.533 -0.861831 380.252 2.61674 378.247L32.3441 361.085C34.304 360.097 36.4684 359.583 38.6633 359.583C40.8582 359.583 43.0225 360.097 44.9824 361.085L74.7098 378.247C78.1884 380.252 78.1884 383.533 74.7098 385.537L44.9824 402.699C43.0225 403.687 40.8582 404.202 38.6633 404.202C36.4684 404.202 34.304 403.687 32.3441 402.699V402.699Z" fill="url(#paint1_linear_305_11449)"/>
<path d="M32.3441 402.699L2.61674 385.537C-0.861831 383.533 -0.861831 380.252 2.61674 378.247L32.3441 361.085C34.304 360.097 36.4684 359.583 38.6633 359.583C40.8582 359.583 43.0225 360.097 44.9824 361.085L74.7098 378.247C78.1884 380.252 78.1884 383.533 74.7098 385.537L44.9824 402.699C43.0225 403.687 40.8582 404.202 38.6633 404.202C36.4684 404.202 34.304 403.687 32.3441 402.699V402.699Z" fill="#C2E7FF"/>
<path d="M38.666 377.731C36.714 377.772 34.784 377.312 33.0608 376.394L3.33339 359.232C2.6292 358.988 2.01853 358.531 1.58633 357.924C1.15413 357.317 0.921875 356.59 0.921875 355.845C0.921875 355.1 1.15413 354.374 1.58633 353.767C2.01853 353.16 2.6292 352.702 3.33339 352.459L33.0608 335.297C34.7973 334.414 36.7178 333.953 38.666 333.953C40.6141 333.953 42.5347 334.414 44.2712 335.297L73.9986 352.459C74.7028 352.702 75.3134 353.16 75.7456 353.767C76.1778 354.374 76.4101 355.1 76.4101 355.845C76.4101 356.59 76.1778 357.317 75.7456 357.924C75.3134 358.531 74.7028 358.988 73.9986 359.232L44.2712 376.394C42.548 377.312 40.618 377.772 38.666 377.731V377.731ZM38.666 334.476C36.8042 334.44 34.9639 334.879 33.319 335.752L3.59162 352.914C2.94803 353.089 2.37988 353.471 1.97482 354.001C1.56976 354.53 1.3503 355.179 1.3503 355.845C1.3503 356.512 1.56976 357.16 1.97482 357.69C2.37988 358.22 2.94803 358.602 3.59162 358.777L33.319 375.938C34.9689 376.767 36.7895 377.198 38.6356 377.198C40.4817 377.198 42.3024 376.767 43.9522 375.938L73.6796 358.777C74.3232 358.602 74.8913 358.22 75.2964 357.69C75.7015 357.16 75.9209 356.512 75.9209 355.845C75.9209 355.179 75.7015 354.53 75.2964 354.001C74.8913 353.471 74.3232 353.089 73.6796 352.914L44.0585 335.752C42.4001 334.872 40.5432 334.432 38.666 334.476V334.476Z" fill="white"/>
<path opacity="0.4" d="M77.3224 349.315V339.139L75.454 338.106C74.9376 341.281 71.1856 343.376 68.0564 343.817L46.79 356.271L37.4935 359.627L7.78133 344.242L8.46489 343.847C5.92812 342.663 4.56099 339.959 3.19387 337.484L1.18875 338.683L0.00390625 339.018V349.315C0.0745819 350.1 0.354124 350.852 0.813539 351.493C1.27295 352.134 1.89551 352.64 2.61663 352.96L32.344 370.122C34.3014 371.118 36.4667 371.637 38.6632 371.637C40.8596 371.637 43.0249 371.118 44.9823 370.122L74.7097 352.96C75.4198 352.642 76.0344 352.144 76.4927 351.515C76.9509 350.886 77.237 350.149 77.3224 349.375V349.315Z" fill="#39BDE5"/>
<path d="M77.3224 340.202V333.474L75.454 332.441C74.9376 335.616 71.1856 337.712 68.0564 338.137L46.79 350.606L37.4935 353.962L7.78133 338.684L8.46489 338.289C5.92812 337.104 4.56099 334.401 3.19387 331.925L1.18875 333.125L0.00390625 333.459V340.354C0.0745819 341.14 0.354124 341.892 0.813539 342.533C1.27295 343.173 1.89551 343.68 2.61663 343.999L32.344 361.161C34.3014 362.157 36.4667 362.677 38.6632 362.677C40.8596 362.677 43.0249 362.157 44.9823 361.161L74.7097 343.999C75.4177 343.682 76.031 343.187 76.4891 342.561C76.9473 341.935 77.2345 341.201 77.3224 340.43V340.202Z" fill="#3169B1"/>
<path d="M68.0539 338.136L46.7878 350.605L38.6914 353.521V362.633C40.8934 362.679 43.0701 362.156 45.0105 361.114L74.7376 343.953C75.4456 343.636 76.0589 343.14 76.517 342.515C76.9751 341.889 77.2623 341.154 77.3503 340.384V340.202V333.474L75.649 332.517H75.4667C74.8591 335.646 71.1527 337.711 68.0539 338.136Z" fill="#3169B1"/>
<path d="M32.3441 354.281L2.61674 337.164C-0.861831 335.144 -0.861831 331.879 2.61674 329.874L32.3441 312.712C34.3015 311.716 36.4668 311.197 38.6633 311.197C40.8597 311.197 43.025 311.716 44.9824 312.712L74.7098 329.874C78.1884 331.879 78.1884 335.144 74.7098 337.164L44.9824 354.326C43.019 355.307 40.8528 355.814 38.6579 355.806C36.4629 355.798 34.3005 355.276 32.3441 354.281V354.281Z" fill="#39BDE5"/>
<path d="M38.6603 351.167C36.8982 351.2 35.1569 350.781 33.6018 349.952L10.36 336.542C9.72538 336.315 9.1763 335.898 8.78806 335.348C8.39981 334.797 8.19141 334.14 8.19141 333.466C8.19141 332.792 8.39981 332.135 8.78806 331.585C9.1763 331.034 9.72538 330.617 10.36 330.391L33.6018 316.995C35.1676 316.194 36.9014 315.776 38.6603 315.776C40.4193 315.776 42.153 316.194 43.7188 316.995L66.9606 330.391C67.5555 330.663 68.0681 331.087 68.4468 331.62C68.8255 332.153 69.0569 332.777 69.1177 333.428C69.0599 334.08 68.8297 334.705 68.4506 335.239C68.0716 335.773 67.5573 336.196 66.9606 336.466L43.7188 349.876C42.1708 350.732 40.4292 351.176 38.6603 351.167V351.167ZM33.8601 349.497C35.3482 350.249 36.9926 350.642 38.6603 350.642C40.3281 350.642 41.9724 350.249 43.4606 349.497L66.6872 336.086C67.2435 335.909 67.7291 335.56 68.0737 335.089C68.4183 334.618 68.604 334.05 68.604 333.466C68.604 332.883 68.4183 332.314 68.0737 331.843C67.7291 331.372 67.2435 331.023 66.6872 330.846L43.4606 317.42C41.9724 316.668 40.3281 316.276 38.6603 316.276C36.9926 316.276 35.3482 316.668 33.8601 317.42L10.6335 330.846C10.0772 331.023 9.59159 331.372 9.24698 331.843C8.90237 332.314 8.71662 332.883 8.71662 333.466C8.71662 334.05 8.90237 334.618 9.24698 335.089C9.59159 335.56 10.0772 335.909 10.6335 336.086L33.8601 349.497Z" fill="#5351AF"/>
<path d="M74.7096 337.165L44.9822 354.327C43.0223 355.315 40.858 355.829 38.663 355.829C36.4681 355.829 34.3038 355.315 32.3439 354.327L2.61649 337.165C1.95571 336.859 1.37543 336.403 0.921852 335.833C0.46827 335.264 0.153902 334.596 0.00376318 333.884C-0.0326035 334.745 0.195315 335.596 0.656919 336.324C1.11852 337.051 1.79171 337.62 2.58611 337.954L32.3135 355.116C34.2734 356.104 36.4377 356.619 38.6326 356.619C40.8276 356.619 42.9919 356.104 44.9518 355.116L74.6792 337.954C75.4736 337.62 76.1468 337.051 76.6084 336.324C77.07 335.596 77.2979 334.745 77.2615 333.884C77.1156 334.59 76.8096 335.252 76.3672 335.821C75.9247 336.39 75.3576 336.849 74.7096 337.165Z" fill="white"/>
<path d="M423.894 196.935V190.192L422.025 189.159C421.509 192.349 417.757 194.429 414.628 194.87L393.361 207.323L384.065 210.68L354.383 195.371L355.066 194.976C352.53 193.791 351.163 191.088 349.795 188.612L347.79 189.797L346.605 190.131V197.042C346.676 197.827 346.956 198.579 347.415 199.22C347.875 199.861 348.497 200.367 349.218 200.687L378.946 217.848C380.905 218.837 383.07 219.351 385.265 219.351C387.46 219.351 389.624 218.837 391.584 217.848L421.311 200.687C422.021 200.368 422.636 199.87 423.094 199.242C423.553 198.613 423.839 197.875 423.924 197.102V196.935H423.894Z" fill="white"/>
<path d="M414.704 194.869L393.438 207.323L385.342 210.254V219.366C387.543 219.405 389.718 218.882 391.661 217.847L421.388 200.686C422.098 200.368 422.713 199.87 423.171 199.241C423.629 198.613 423.915 197.875 424.001 197.102V196.935V190.192L422.299 189.25H422.117C421.434 192.379 417.742 194.399 414.704 194.869Z" fill="#C2E7FF"/>
<path opacity="0.3" d="M378.916 211.014L349.189 193.837C345.71 191.832 345.71 188.566 349.189 186.546L378.916 169.385C380.876 168.397 383.041 167.882 385.236 167.882C387.43 167.882 389.595 168.397 391.555 169.385L421.282 186.562C424.761 188.566 424.761 191.832 421.282 193.837L391.555 211.014C389.595 212.002 387.43 212.516 385.236 212.516C383.041 212.516 380.876 212.002 378.916 211.014V211.014Z" fill="url(#paint2_linear_305_11449)"/>
<path d="M378.916 211.014L349.189 193.837C345.71 191.832 345.71 188.566 349.189 186.546L378.916 169.385C380.876 168.397 383.041 167.882 385.236 167.882C387.43 167.882 389.595 168.397 391.555 169.385L421.282 186.562C424.761 188.566 424.761 191.832 421.282 193.837L391.555 211.014C389.595 212.002 387.43 212.516 385.236 212.516C383.041 212.516 380.876 212.002 378.916 211.014V211.014Z" fill="#C2E7FF"/>
<path d="M385.238 189.371C383.286 189.412 381.356 188.952 379.633 188.034L349.906 170.872C349.201 170.628 348.591 170.171 348.159 169.564C347.726 168.957 347.494 168.231 347.494 167.485C347.494 166.74 347.726 166.014 348.159 165.407C348.591 164.8 349.201 164.343 349.906 164.099L379.633 146.937C381.37 146.054 383.29 145.594 385.238 145.594C387.186 145.594 389.107 146.054 390.843 146.937L420.571 164.099C421.275 164.343 421.886 164.8 422.318 165.407C422.75 166.014 422.982 166.74 422.982 167.485C422.982 168.231 422.75 168.957 422.318 169.564C421.886 170.171 421.275 170.628 420.571 170.872L390.843 188.034C389.12 188.952 387.19 189.412 385.238 189.371V189.371ZM379.891 187.579C381.541 188.407 383.362 188.838 385.208 188.838C387.054 188.838 388.875 188.407 390.524 187.579L420.252 170.417C420.895 170.242 421.464 169.86 421.869 169.33C422.274 168.801 422.493 168.152 422.493 167.485C422.493 166.819 422.274 166.17 421.869 165.641C421.464 165.111 420.895 164.729 420.252 164.554L390.585 147.316C388.933 146.495 387.114 146.068 385.269 146.068C383.424 146.068 381.604 146.495 379.952 147.316L350.225 164.494C349.581 164.668 349.013 165.05 348.608 165.58C348.203 166.11 347.983 166.758 347.983 167.425C347.983 168.092 348.203 168.74 348.608 169.27C349.013 169.799 349.581 170.181 350.225 170.356L379.891 187.579Z" fill="white"/>
<path opacity="0.4" d="M423.894 160.894V150.719L422.025 149.686C421.509 152.86 417.757 154.956 414.628 155.381L393.361 167.85L384.065 171.207L354.383 155.882L355.066 155.487C352.53 154.303 351.163 151.599 349.795 149.124L347.79 150.324L346.605 150.658V160.985C346.676 161.771 346.956 162.523 347.415 163.164C347.875 163.805 348.497 164.311 349.218 164.63L378.946 181.792C380.903 182.789 383.068 183.308 385.265 183.308C387.461 183.308 389.626 182.789 391.584 181.792L421.311 164.63C422.021 164.312 422.636 163.814 423.094 163.186C423.553 162.557 423.839 161.819 423.924 161.046V160.879L423.894 160.894Z" fill="#39BDE5"/>
<path d="M423.895 151.873V145.114L422.026 144.081C421.51 147.316 417.743 149.351 414.705 149.777L393.438 162.246L384.035 165.541L354.354 150.354L355.037 149.959C352.5 148.774 351.133 146.071 349.766 143.595L347.761 144.795L346.576 145.114V152.024C346.647 152.81 346.926 153.562 347.386 154.203C347.845 154.844 348.468 155.35 349.189 155.669L378.916 172.831C380.874 173.828 383.039 174.347 385.235 174.347C387.432 174.347 389.597 173.828 391.555 172.831L421.282 155.669C421.99 155.353 422.603 154.857 423.061 154.231C423.52 153.605 423.807 152.871 423.895 152.1V151.873Z" fill="#3169B1"/>
<path d="M414.704 149.777L393.438 162.245L385.342 165.161V174.273C387.544 174.319 389.72 173.796 391.661 172.754L421.388 155.593C422.096 155.276 422.709 154.781 423.167 154.155C423.626 153.529 423.913 152.795 424.001 152.024V151.872V145.114L422.299 144.157H422.117C421.434 147.316 417.742 149.351 414.704 149.777Z" fill="#3169B1"/>
<path d="M378.916 165.921L349.189 148.835C345.71 146.815 345.71 143.549 349.189 141.545L378.916 124.383C380.874 123.387 383.039 122.867 385.236 122.867C387.432 122.867 389.597 123.387 391.555 124.383L421.282 141.545C424.761 143.549 424.761 146.815 421.282 148.835L391.555 165.997C389.589 166.973 387.421 167.475 385.227 167.461C383.032 167.448 380.87 166.921 378.916 165.921V165.921Z" fill="#39BDE5"/>
<path d="M385.232 162.807C383.47 162.84 381.729 162.422 380.174 161.592L356.978 148.182C356.368 147.941 355.845 147.523 355.476 146.981C355.107 146.44 354.91 145.799 354.91 145.144C354.91 144.489 355.107 143.849 355.476 143.307C355.845 142.765 356.368 142.347 356.978 142.107L380.219 128.696C381.787 127.902 383.52 127.488 385.278 127.488C387.036 127.488 388.768 127.902 390.336 128.696L413.578 142.107C414.188 142.347 414.711 142.765 415.08 143.307C415.449 143.849 415.646 144.489 415.646 145.144C415.646 145.799 415.449 146.44 415.08 146.981C414.711 147.523 414.188 147.941 413.578 148.182L390.336 161.592C388.769 162.431 387.01 162.85 385.232 162.807V162.807ZM385.232 127.876C383.562 127.843 381.91 128.235 380.432 129.015L357.205 142.426C356.649 142.602 356.164 142.952 355.819 143.423C355.474 143.894 355.289 144.462 355.289 145.046C355.289 145.629 355.474 146.198 355.819 146.669C356.164 147.14 356.649 147.489 357.205 147.665L380.432 161.076C381.92 161.829 383.565 162.221 385.232 162.221C386.9 162.221 388.544 161.829 390.033 161.076L413.274 147.665C413.831 147.489 414.316 147.14 414.661 146.669C415.006 146.198 415.191 145.629 415.191 145.046C415.191 144.462 415.006 143.894 414.661 143.423C414.316 142.952 413.831 142.602 413.274 142.426L390.033 129.091C388.556 128.306 386.904 127.909 385.232 127.937V127.876Z" fill="white"/>
<path d="M421.281 148.835L391.553 165.997C389.593 166.985 387.429 167.5 385.234 167.5C383.039 167.5 380.875 166.985 378.915 165.997L349.188 148.835C348.539 148.528 347.969 148.077 347.522 147.517C347.074 146.956 346.761 146.3 346.605 145.6C346.569 146.461 346.797 147.312 347.258 148.04C347.72 148.768 348.393 149.337 349.188 149.67L378.915 166.832C380.875 167.82 383.039 168.335 385.234 168.335C387.429 168.335 389.593 167.82 391.553 166.832L421.281 149.67C422.075 149.337 422.748 148.768 423.21 148.04C423.672 147.312 423.899 146.461 423.863 145.6C423.71 146.301 423.397 146.958 422.949 147.519C422.501 148.08 421.931 148.53 421.281 148.835Z" fill="white"/>
<path d="M336.28 279.451L326.239 277.932L152.353 177.692C151.327 177.127 150.184 176.808 149.014 176.758C147.844 176.707 146.678 176.929 145.608 177.404L42.0387 237.122L35.6738 236.196V244.656C35.7366 245.126 35.919 245.573 36.2035 245.953C36.4881 246.333 36.8653 246.634 37.2992 246.827L219.586 352.049C220.61 352.628 221.755 352.957 222.93 353.009C224.104 353.062 225.275 352.837 226.346 352.353L335.111 289.566C335.445 289.418 335.731 289.178 335.935 288.874C336.139 288.571 336.254 288.215 336.265 287.85V287.85L336.28 279.451Z" fill="#3169B1"/>
<path d="M37.3152 238.444L219.602 343.665C220.628 344.23 221.771 344.55 222.941 344.6C224.111 344.65 225.277 344.429 226.347 343.954L335.112 281.152C336.843 280.165 336.631 278.418 334.641 277.264L152.354 172.042C151.33 171.471 150.186 171.148 149.014 171.101C147.842 171.053 146.676 171.282 145.609 171.769L36.8291 234.54C35.1126 235.543 35.3253 237.274 37.3152 238.444Z" fill="#C2E7FF"/>
<path d="M53.1689 240.494L216.103 334.537C217.023 335.058 218.054 335.352 219.11 335.397C220.166 335.442 221.218 335.236 222.179 334.795L319.399 278.676C320.918 277.78 320.751 276.216 318.974 275.198L155.918 181.14C154.997 180.622 153.965 180.33 152.909 180.287C151.853 180.245 150.802 180.454 149.842 180.897L52.622 237.092C51.1182 237.912 51.3157 239.461 53.1689 240.494Z" fill="#C2E7FF"/>
<path d="M335.104 280.225L226.339 343.012C225.273 343.499 224.106 343.727 222.935 343.68C221.763 343.632 220.619 343.31 219.595 342.739L37.3078 237.517C36.5997 237.147 36.0572 236.523 35.7888 235.771C35.5153 236.667 36.047 237.669 37.3078 238.428L219.595 343.65C220.621 344.215 221.763 344.534 222.933 344.585C224.103 344.635 225.269 344.414 226.339 343.938L335.104 281.137C335.511 280.968 335.845 280.66 336.046 280.267C336.246 279.875 336.3 279.424 336.198 278.995C336.001 279.528 335.61 279.967 335.104 280.225V280.225Z" fill="white"/>
<path d="M152.022 139.221L175.066 2.53054L173.182 1.75596L175.962 0.237171C176.297 0.058644 176.676 -0.0218015 177.055 0.00506193C177.434 0.0319254 177.797 0.16501 178.104 0.389049L362.259 106.704C363.037 107.202 363.669 107.897 364.091 108.719C364.512 109.541 364.709 110.46 364.659 111.382L341.463 249.075C341.439 249.375 341.337 249.664 341.166 249.911C340.996 250.159 340.763 250.358 340.491 250.488V250.488L337.772 252.006L337.301 249.47H337.453L154.422 143.899C153.643 143.402 153.01 142.707 152.588 141.885C152.166 141.063 151.971 140.144 152.022 139.221V139.221Z" fill="#C2E7FF"/>
<path d="M361.27 110.364L364.308 109.028C364.659 109.732 364.796 110.524 364.703 111.306L341.461 249.075C341.437 249.375 341.335 249.663 341.164 249.911C340.993 250.159 340.76 250.358 340.489 250.487V250.487L337.77 252.006L337.299 249.47H337.451L328.199 244.124L361.27 110.364Z" fill="#3169B1"/>
<path d="M151.518 145.555L335.688 251.87C337.101 252.691 338.316 252.205 338.575 250.731L361.801 112.962C361.85 112.04 361.654 111.121 361.232 110.299C360.811 109.478 360.179 108.782 359.401 108.284L175.246 1.96928C173.833 1.14914 172.602 1.61996 172.359 3.09318L149.133 140.878C149.082 141.798 149.276 142.716 149.695 143.538C150.114 144.359 150.743 145.055 151.518 145.555V145.555Z" fill="#3169B1"/>
<path d="M35.7617 210.787L45.8027 216.026L146.592 157.857C147.634 157.386 148.771 157.165 149.913 157.213C151.056 157.26 152.171 157.575 153.17 158.13L326.965 258.461C328.636 257.535 336.216 253.905 336.216 253.905L332.54 259.874C332.343 260.365 331.976 260.769 331.507 261.013L225.371 322.281C224.321 322.756 223.174 322.976 222.023 322.923C220.872 322.87 219.749 322.546 218.748 321.977L40.9265 219.322C40.2619 219.004 39.726 218.468 39.4075 217.803V217.803L35.7617 210.787Z" fill="#3169B1"/>
<path d="M37.3152 212.442L219.602 317.664C220.626 318.235 221.77 318.558 222.942 318.605C224.114 318.653 225.28 318.424 226.347 317.937L335.112 255.15C336.843 254.148 336.631 252.401 334.641 251.262L152.354 146.041C151.327 145.474 150.182 145.157 149.01 145.115C147.839 145.073 146.673 145.307 145.609 145.798L36.8291 208.539C35.1126 209.587 35.3253 211.288 37.3152 212.442Z" fill="url(#paint3_linear_305_11449)"/>
<path d="M37.3152 212.442L219.602 317.664C220.626 318.235 221.77 318.558 222.942 318.605C224.114 318.653 225.28 318.424 226.347 317.937L335.112 255.15C336.843 254.148 336.631 252.401 334.641 251.262L152.354 146.041C151.327 145.474 150.182 145.157 149.01 145.115C147.839 145.073 146.673 145.307 145.609 145.798L36.8291 208.539C35.1126 209.587 35.3253 211.288 37.3152 212.442Z" fill="#1E2949"/>
<path d="M37.3152 212.442L219.602 317.664C220.626 318.235 221.77 318.558 222.942 318.605C224.114 318.653 225.28 318.424 226.347 317.937L335.112 255.15C336.843 254.148 336.631 252.401 334.641 251.262L152.354 146.041C151.327 145.474 150.182 145.157 149.01 145.115C147.839 145.073 146.673 145.307 145.609 145.798L36.8291 208.539C35.1126 209.587 35.3253 211.288 37.3152 212.442Z" fill="#3169B1"/>
<path opacity="0.51" d="M174.613 4.55054L359.634 111.306L336.271 249.424L151.371 142.745L174.613 4.55054Z" fill="#3169B1"/>
<path d="M37.3152 208.569L219.602 313.791C220.626 314.362 221.77 314.685 222.942 314.732C224.114 314.78 225.28 314.551 226.347 314.064L335.112 251.278C336.843 250.275 336.631 248.529 334.641 247.389L152.354 142.168C151.331 141.594 150.187 141.269 149.016 141.219C147.844 141.169 146.677 141.395 145.609 141.879L36.8291 204.666C35.1126 205.668 35.3253 207.415 37.3152 208.569Z" fill="#3169B1"/>
<g style="mix-blend-mode:lighten" opacity="0.8">
<path d="M223.41 304.705C222.003 304.712 220.618 304.362 219.384 303.687L37.097 198.466C36.5894 198.237 36.1501 197.88 35.8225 197.43C35.4949 196.98 35.2902 196.452 35.2285 195.899C35.2533 195.462 35.3945 195.041 35.6377 194.677C35.8808 194.314 36.2168 194.023 36.6109 193.833L145.391 131.047C146.521 130.516 147.761 130.264 149.009 130.311C150.256 130.359 151.474 130.705 152.561 131.32L334.848 236.542C335.357 236.772 335.798 237.131 336.126 237.584C336.453 238.037 336.657 238.568 336.716 239.123C336.689 239.557 336.546 239.976 336.303 240.336C336.06 240.697 335.726 240.986 335.334 241.174L226.554 303.915C225.59 304.441 224.508 304.713 223.41 304.705ZM37.5223 197.721L219.809 302.943C220.768 303.479 221.838 303.784 222.935 303.834C224.032 303.884 225.125 303.678 226.129 303.231L334.893 240.43C335.154 240.316 335.38 240.135 335.548 239.906C335.716 239.676 335.82 239.406 335.85 239.123C335.788 238.721 335.624 238.341 335.374 238.02C335.124 237.698 334.797 237.446 334.422 237.286L152.135 132.064C151.179 131.53 150.11 131.227 149.016 131.179C147.921 131.132 146.83 131.341 145.831 131.791L37.0362 194.562C36.7772 194.681 36.5538 194.865 36.3885 195.097C36.2233 195.329 36.1218 195.6 36.0944 195.884C36.0944 196.506 36.6109 197.175 37.5223 197.706V197.721Z" fill="white"/>
</g>
<path d="M37.3133 211.622L219.6 316.843C220.624 317.415 221.768 317.737 222.94 317.785C224.112 317.832 225.278 317.603 226.345 317.117L335.11 254.33C335.371 254.203 335.604 254.025 335.794 253.805C335.985 253.586 336.129 253.331 336.219 253.054C336.302 253.478 336.237 253.917 336.035 254.299C335.834 254.68 335.507 254.981 335.11 255.15L226.345 317.937C225.278 318.424 224.112 318.652 222.94 318.605C221.768 318.557 220.624 318.235 219.6 317.664L37.3133 212.442C36.0221 211.683 35.4904 210.695 35.7943 209.814C36.0451 210.592 36.5903 211.241 37.3133 211.622V211.622Z" fill="white"/>
<path d="M328.414 118.003C327.937 117.998 327.471 117.867 327.062 117.623C326.384 117.223 325.842 116.628 325.507 115.916C325.171 115.204 325.056 114.407 325.178 113.63C325.236 113.319 325.369 113.026 325.565 112.778C325.76 112.529 326.014 112.332 326.302 112.202C326.651 112.066 327.028 112.015 327.401 112.055C327.774 112.095 328.131 112.223 328.444 112.43C329.12 112.829 329.662 113.421 330 114.13C330.339 114.838 330.458 115.632 330.343 116.409C330.279 116.722 330.143 117.015 329.945 117.266C329.747 117.516 329.493 117.717 329.203 117.851C328.953 117.955 328.684 118.007 328.414 118.003V118.003ZM327.107 112.658C326.915 112.655 326.724 112.691 326.545 112.764C326.35 112.867 326.179 113.011 326.046 113.187C325.912 113.363 325.818 113.566 325.771 113.781C325.684 114.429 325.789 115.087 326.072 115.676C326.355 116.264 326.805 116.756 327.365 117.092C327.597 117.248 327.863 117.345 328.141 117.377C328.418 117.409 328.699 117.373 328.96 117.274C329.162 117.184 329.339 117.046 329.474 116.871C329.609 116.696 329.699 116.49 329.735 116.272V116.272C329.831 115.622 329.728 114.959 329.441 114.368C329.154 113.778 328.695 113.287 328.125 112.961C327.816 112.777 327.467 112.673 327.107 112.658V112.658Z" fill="#39BDE5"/>
<path d="M335.72 122.256C335.244 122.251 334.777 122.12 334.368 121.876C333.693 121.476 333.153 120.884 332.818 120.175C332.482 119.466 332.366 118.673 332.485 117.897C332.543 117.585 332.676 117.29 332.871 117.039C333.067 116.788 333.32 116.588 333.609 116.455C333.958 116.321 334.335 116.272 334.707 116.311C335.079 116.351 335.437 116.478 335.75 116.683C336.427 117.082 336.969 117.674 337.307 118.382C337.645 119.091 337.764 119.885 337.649 120.661C337.557 121.1 337.313 121.493 336.96 121.771C336.608 122.048 336.169 122.193 335.72 122.18V122.256ZM334.474 116.941C334.287 116.936 334.1 116.973 333.928 117.047C333.725 117.141 333.549 117.282 333.414 117.46C333.279 117.637 333.189 117.845 333.153 118.065C333.053 118.705 333.143 119.36 333.413 119.949C333.684 120.537 334.121 121.034 334.672 121.375C334.905 121.527 335.171 121.623 335.448 121.655C335.725 121.686 336.005 121.653 336.267 121.557C336.469 121.467 336.645 121.329 336.78 121.154C336.916 120.979 337.005 120.773 337.041 120.555C337.146 119.915 337.057 119.258 336.787 118.668C336.516 118.079 336.076 117.583 335.523 117.244C335.206 117.053 334.844 116.948 334.474 116.941V116.941Z" fill="#39BDE5"/>
<path d="M344.834 124.853C344.771 125.147 344.633 125.419 344.435 125.645C344.237 125.87 343.984 126.041 343.701 126.142C343.418 126.242 343.114 126.269 342.818 126.219C342.521 126.168 342.243 126.043 342.009 125.855C341.387 125.492 340.89 124.95 340.581 124.3C340.272 123.65 340.166 122.922 340.277 122.211C340.336 121.916 340.47 121.642 340.666 121.414C340.861 121.186 341.113 121.013 341.395 120.91C341.678 120.808 341.982 120.78 342.278 120.83C342.575 120.879 342.853 121.005 343.087 121.193C343.71 121.56 344.208 122.105 344.519 122.757C344.831 123.409 344.94 124.139 344.834 124.853V124.853Z" fill="#39BDE5"/>
<path d="M203.484 43.5512L199.551 41.274L199.854 39.4674L203.802 41.7295L203.484 43.5512Z" fill="#39BDE5"/>
<path d="M209.214 46.8623L205.281 44.5851L205.585 42.7633L209.533 45.0405L209.214 46.8623Z" fill="#39BDE5"/>
<path d="M197.816 40.2866L189.174 35.2904L189.478 33.4681L198.12 38.4643L197.816 40.2866Z" fill="#39BDE5"/>
<path d="M193.199 260.435C216.79 260.435 235.915 249.392 235.915 235.77C235.915 222.148 216.79 211.105 193.199 211.105C169.609 211.105 150.484 222.148 150.484 235.77C150.484 249.392 169.609 260.435 193.199 260.435Z" fill="#3169B1"/>
<path d="M227.859 65.8621C228.199 65.5411 228.437 65.1264 228.542 64.6704C228.647 64.2144 228.615 63.7375 228.449 63.2999C228.283 62.8623 227.991 62.4837 227.611 62.2117C227.23 61.9398 226.777 61.7868 226.309 61.7719C225.841 61.7571 225.379 61.8812 224.982 62.1285C224.585 62.3758 224.27 62.7353 224.076 63.1615C223.883 63.5877 223.821 64.0616 223.897 64.5233C223.973 64.985 224.184 65.4139 224.503 65.7558C224.935 66.2125 225.531 66.4799 226.159 66.4998C226.788 66.5197 227.399 66.2905 227.859 65.8621V65.8621Z" fill="#39BDE5"/>
<path opacity="0.4" d="M223.599 43.7485C223.942 43.4284 224.182 43.0139 224.288 42.5574C224.395 42.1009 224.364 41.6229 224.199 41.1841C224.034 40.7452 223.742 40.3652 223.361 40.0923C222.98 39.8193 222.526 39.6656 222.057 39.6507C221.589 39.6358 221.126 39.7603 220.728 40.0085C220.33 40.2567 220.015 40.6174 219.822 41.0448C219.63 41.4723 219.568 41.9473 219.646 42.4097C219.724 42.8721 219.937 43.301 220.258 43.6422C220.688 44.0979 221.281 44.3649 221.907 44.3848C222.533 44.4047 223.141 44.1759 223.599 43.7485V43.7485Z" fill="#39BDE5"/>
<path d="M123.43 174.562C121.227 181.883 109.394 196.113 102.057 193.911C94.7203 191.709 94.7051 173.909 96.9229 166.574C97.9804 163.06 100.391 160.109 103.624 158.372C106.857 156.635 110.649 156.253 114.164 157.31C117.679 158.367 120.63 160.777 122.367 164.01C124.105 167.243 124.487 171.033 123.43 174.547V174.562Z" fill="url(#paint4_radial_305_11449)"/>
<g style="mix-blend-mode:lighten">
<g style="mix-blend-mode:lighten">
<path d="M123.428 174.562C121.225 181.883 109.392 196.113 102.055 193.911C94.7183 191.709 94.7031 173.909 96.9209 166.574C97.9784 163.06 100.389 160.109 103.622 158.372C106.856 156.635 110.647 156.253 114.162 157.31C117.677 158.367 120.628 160.777 122.365 164.01C124.103 167.243 124.485 171.033 123.428 174.547V174.562Z" fill="white"/>
</g>
</g>
<path d="M109.381 157.401C111.478 157.34 113.56 157.769 115.462 158.655C117.363 159.541 119.031 160.859 120.332 162.504C122.55 165.662 121.229 168.578 117.386 168.836C115.274 168.92 113.173 168.503 111.253 167.619C109.334 166.735 107.651 165.409 106.343 163.749C104.171 160.59 105.493 157.751 109.381 157.401Z" fill="#1E2949"/>
<g style="mix-blend-mode:lighten">
<path d="M109.381 157.401C111.478 157.34 113.56 157.769 115.462 158.655C117.363 159.541 119.031 160.859 120.332 162.504C122.55 165.662 121.229 168.578 117.386 168.836C115.274 168.92 113.173 168.503 111.253 167.619C109.334 166.735 107.651 165.409 106.343 163.749C104.171 160.59 105.493 157.751 109.381 157.401Z" fill="#3169B1"/>
</g>
<path d="M105.328 160.985C106.171 160.336 107.196 159.965 108.259 159.922C110.361 159.845 112.451 160.266 114.36 161.15C116.268 162.034 117.941 163.356 119.241 165.009C119.854 165.809 120.223 166.769 120.304 167.773C121.701 166.604 121.823 164.63 120.304 162.504C119.006 160.863 117.343 159.547 115.447 158.662C113.551 157.776 111.475 157.344 109.383 157.401C106.68 157.644 105.221 159.072 105.328 160.985Z" fill="#39BDE5"/>
<path d="M163.671 131.526C165.35 120.133 157.473 109.537 146.077 107.858C134.682 106.18 124.083 114.055 122.405 125.449C120.726 136.842 128.603 147.438 139.999 149.117C151.394 150.795 161.993 142.92 163.671 131.526Z" fill="url(#paint5_radial_305_11449)"/>
<g style="mix-blend-mode:lighten">
<g style="mix-blend-mode:lighten">
<path d="M152.06 147.271C162.437 142.272 166.806 129.804 161.82 119.423C156.833 109.042 144.378 104.679 134.002 109.678C123.625 114.677 119.255 127.145 124.242 137.526C129.229 147.906 141.683 152.27 152.06 147.271Z" fill="#C2E7FF"/>
</g>
</g>
<path d="M247.049 166.362C247.049 206.838 222.941 239.643 193.198 239.643C163.455 239.643 139.348 206.838 139.348 166.362C139.348 125.886 163.455 113.751 193.198 113.751C222.941 113.751 247.049 125.886 247.049 166.362Z" fill="url(#paint6_radial_305_11449)"/>
<g style="mix-blend-mode:lighten">
<g style="mix-blend-mode:lighten">
<path d="M247.049 166.362C247.049 206.838 222.941 239.643 193.198 239.643C163.455 239.643 139.348 206.838 139.348 166.362C139.348 125.886 163.455 113.751 193.198 113.751C222.941 113.751 247.049 125.886 247.049 166.362Z" fill="white"/>
</g>
</g>
<path d="M193.196 156.732C213.49 156.732 229.942 147.233 229.942 135.515C229.942 123.797 213.49 114.298 193.196 114.298C172.903 114.298 156.451 123.797 156.451 135.515C156.451 147.233 172.903 156.732 193.196 156.732Z" fill="#1E2949"/>
<g style="mix-blend-mode:lighten">
<path d="M193.196 156.732C213.49 156.732 229.942 147.233 229.942 135.515C229.942 123.797 213.49 114.298 193.196 114.298C172.903 114.298 156.451 123.797 156.451 135.515C156.451 147.233 172.903 156.732 193.196 156.732Z" fill="#3169B1"/>
</g>
<path d="M167.208 126.159C181.563 117.882 204.835 117.882 219.19 126.159C225.114 129.592 228.577 133.89 229.61 138.309C231.129 131.976 227.605 125.339 219.19 120.479C204.835 112.202 181.563 112.202 167.208 120.479C158.793 125.339 155.314 131.976 156.788 138.309C157.821 133.89 161.284 129.592 167.208 126.159Z" fill="#39BDE5"/>
<path d="M172.624 72.4143C178.676 61.9325 178.677 50.6033 172.625 47.1099C166.573 43.6164 156.76 49.2815 150.707 59.7633C144.655 70.245 144.654 81.5742 150.706 85.0677C156.758 88.5612 166.571 82.8961 172.624 72.4143Z" fill="#BCBEFF"/>
<path d="M195.342 139.783C225.67 139.783 250.256 115.202 250.256 84.879C250.256 54.5563 225.67 29.9749 195.342 29.9749C165.014 29.9749 140.428 54.5563 140.428 84.879C140.428 115.202 165.014 139.783 195.342 139.783Z" fill="url(#paint7_radial_305_11449)"/>
<g style="mix-blend-mode:lighten">
<g style="mix-blend-mode:lighten">
<path d="M195.342 139.783C225.67 139.783 250.256 115.202 250.256 84.879C250.256 54.5563 225.67 29.9749 195.342 29.9749C165.014 29.9749 140.428 54.5563 140.428 84.879C140.428 115.202 165.014 139.783 195.342 139.783Z" fill="white"/>
</g>
</g>
<path d="M178.207 110.864C176.795 121.646 168.653 125.048 159.979 118.457C151.305 111.866 145.457 97.7421 146.855 86.9441C148.252 76.1462 156.409 72.7443 165.083 79.3506C173.756 85.957 179.605 100.096 178.207 110.864Z" fill="#1E2949"/>
<g style="mix-blend-mode:lighten">
<path d="M178.207 110.864C176.795 121.646 168.653 125.048 159.979 118.457C151.305 111.866 145.457 97.7421 146.855 86.9441C148.252 76.1462 156.409 72.7443 165.083 79.3506C173.756 85.957 179.605 100.096 178.207 110.864Z" fill="#3169B1"/>
</g>
<path d="M171.045 101.538C170.543 105.457 167.581 106.702 164.437 104.287C162.795 102.89 161.507 101.124 160.678 99.1336C159.849 97.1434 159.502 94.9854 159.667 92.8358C160.168 88.9174 163.13 87.672 166.275 90.0868C167.917 91.4842 169.205 93.2502 170.034 95.2404C170.863 97.2306 171.209 99.3886 171.045 101.538V101.538Z" fill="#39BDE5"/>
<path d="M164.158 116.938C155.5 110.317 149.621 96.2083 151.034 85.4103C151.596 81.0061 153.297 77.8168 155.682 76.0703C151.125 76.4955 147.737 80.3379 146.872 86.9898C145.474 97.7877 151.353 111.896 159.996 118.503C165.13 122.421 170.067 122.831 173.545 120.264C170.109 120.375 166.757 119.188 164.158 116.938Z" fill="#39BDE5"/>
<path d="M160.74 118.108C152.097 111.501 146.218 97.3775 147.616 86.5796C148.269 81.5831 150.365 78.1812 153.297 76.6169C149.985 77.9838 147.585 81.5223 146.872 86.9441C145.474 97.742 151.353 111.851 159.996 118.457C164.644 122.011 169.11 122.664 172.528 120.857C169.247 122.208 165.054 121.403 160.74 118.108Z" fill="#C2E7FF"/>
<path d="M258.145 200.349C269.215 197.167 275.609 185.615 272.427 174.547C269.244 163.48 257.69 157.087 246.62 160.269C235.55 163.451 229.156 175.003 232.339 186.071C235.521 197.139 247.075 203.531 258.145 200.349Z" fill="url(#paint8_radial_305_11449)"/>
<g style="mix-blend-mode:lighten">
<g style="mix-blend-mode:lighten">
<path d="M258.118 200.345C269.187 197.158 275.584 185.602 272.406 174.533C269.228 163.463 257.679 157.073 246.61 160.26C235.541 163.447 229.145 175.003 232.323 186.073C235.501 197.142 247.05 203.532 258.118 200.345Z" fill="#C2E7FF"/>
</g>
</g>
<path d="M272.415 180.73C272.245 183.929 271.321 187.042 269.719 189.816C268.116 192.59 265.88 194.946 263.194 196.692C258.105 199.638 253.988 197.254 253.988 191.376C254.159 188.179 255.081 185.068 256.681 182.294C258.28 179.52 260.512 177.163 263.194 175.414C268.298 172.422 272.415 174.807 272.415 180.73Z" fill="#1E2949"/>
<g style="mix-blend-mode:lighten">
<path d="M272.415 180.73C272.245 183.929 271.321 187.042 269.719 189.816C268.116 192.59 265.88 194.946 263.194 196.692C258.105 199.638 253.988 197.254 253.988 191.376C254.159 188.179 255.081 185.068 256.681 182.294C258.28 179.52 260.512 177.163 263.194 175.414C268.298 172.422 272.415 174.807 272.415 180.73Z" fill="#3169B1"/>
</g>
<path d="M267.523 174.123C268.389 175.481 268.818 177.071 268.753 178.679C268.579 181.879 267.653 184.993 266.051 187.769C264.449 190.544 262.216 192.904 259.532 194.657C258.234 195.471 256.735 195.907 255.203 195.917C256.798 198.195 259.76 198.621 263.193 196.646C265.874 194.905 268.106 192.556 269.708 189.791C271.31 187.025 272.237 183.921 272.414 180.73C272.414 176.614 270.394 174.229 267.523 174.123Z" fill="#39BDE5"/>
<path d="M241.684 104.971L221.785 116.453V93.49L241.684 82.0087V104.971Z" fill="#3169B1"/>
<path opacity="0.8" d="M238.722 83.7096V103.362L221.785 113.142V116.453L241.684 104.971V82.0087L238.722 83.7096Z" fill="#3169B1"/>
<path d="M225.579 99.7614L223.803 100.778V98.7295L225.579 97.6976V99.7614Z" fill="#39BDE5"/>
<path d="M229.362 94.9318L227.586 95.9636V93.9151L229.362 92.8832V94.9318Z" fill="#39BDE5"/>
<path d="M233.147 95.3874L231.371 96.4193V94.3707L233.147 93.3389V95.3874Z" fill="#39BDE5"/>
<path d="M233.147 100.779L231.371 101.811V99.7623L233.147 98.7305V100.779Z" fill="#39BDE5"/>
<path d="M230.87 104.94L229.094 105.957V103.909L230.87 102.877V104.94Z" fill="#39BDE5"/>
<path d="M237.049 98.5312L235.273 99.5631V97.4994L237.049 96.4827V98.5312Z" fill="#39BDE5"/>
<path d="M257.704 98.9125L259.892 95.1461L257.704 93.8856L237.82 105.367V128.33L239.993 129.59L242.165 125.824L257.704 116.848V98.9125Z" fill="#39BDE5"/>
<path d="M259.895 118.109L239.996 129.59V106.627L259.895 95.1461V118.109Z" fill="url(#paint9_linear_305_11449)"/>
<g style="mix-blend-mode:lighten">
<path d="M259.895 118.109L239.996 129.59V106.627L259.895 95.1461V118.109Z" fill="#C2E7FF"/>
</g>
<path d="M266.705 238.822C264.488 246.142 252.655 260.373 245.333 258.171C238.011 255.968 237.981 238.169 240.183 230.834C241.322 227.415 243.748 224.574 246.947 222.914C250.146 221.254 253.866 220.906 257.317 221.944C260.769 222.981 263.68 225.323 265.433 228.472C267.186 231.62 267.642 235.328 266.705 238.807V238.822Z" fill="url(#paint10_radial_305_11449)"/>
<g style="mix-blend-mode:lighten">
<g style="mix-blend-mode:lighten">
<path d="M266.705 238.822C264.488 246.142 252.655 260.373 245.333 258.171C238.011 255.968 237.981 238.169 240.183 230.834C241.322 227.415 243.748 224.574 246.947 222.914C250.146 221.254 253.866 220.906 257.317 221.944C260.769 222.981 263.68 225.323 265.433 228.472C267.186 231.62 267.642 235.328 266.705 238.807V238.822Z" fill="white"/>
</g>
</g>
<path d="M252.604 221.737C254.706 221.667 256.796 222.092 258.703 222.979C260.611 223.865 262.284 225.188 263.586 226.84C265.803 229.998 264.482 232.838 260.639 233.187C258.536 233.257 256.447 232.832 254.539 231.946C252.632 231.059 250.959 229.737 249.657 228.085C247.44 224.85 248.746 222.01 252.604 221.737Z" fill="#1E2949"/>
<g style="mix-blend-mode:lighten">
<path d="M252.604 221.737C254.706 221.667 256.796 222.092 258.703 222.979C260.611 223.865 262.284 225.188 263.586 226.84C265.803 229.998 264.482 232.838 260.639 233.187C258.536 233.257 256.447 232.832 254.539 231.946C252.632 231.059 250.959 229.737 249.657 228.085C247.44 224.85 248.746 222.01 252.604 221.737Z" fill="#3169B1"/>
</g>
<path d="M248.574 225.245C249.421 224.602 250.444 224.232 251.506 224.182C253.613 224.112 255.706 224.543 257.615 225.437C259.524 226.332 261.194 227.666 262.487 229.33C263.098 230.132 263.472 231.09 263.566 232.094C264.963 230.925 265.085 228.95 263.566 226.824C262.264 225.172 260.592 223.85 258.684 222.963C256.776 222.077 254.687 221.652 252.584 221.722C249.926 221.904 248.483 223.347 248.574 225.245Z" fill="#39BDE5"/>
<path d="M200.779 67.5458L87.351 2.54178C86.6586 2.03789 85.8382 1.73928 84.9838 1.68018C84.1294 1.62108 83.2757 1.80389 82.5204 2.20764V2.20764L75.5176 6.23243L80.0748 9.54338V13.2492L77.462 14.3276L77.5987 152.719L85.2851 160.116L111.595 175.213L192.105 220.047H195.523C195.675 220.047 195.873 219.637 196.055 219.09L199.503 221.08L198.409 226.335L205.534 222.234C207.053 221.353 208.101 219.288 208.101 216.326V81.4427C208.101 76.0966 204.789 69.8544 200.779 67.5458ZM197.65 212.347L88.384 149.743C87.8783 149.38 87.4649 148.904 87.1773 148.353C86.8897 147.802 86.7358 147.19 86.7282 146.568V13.477L109.909 28.3763L193.989 77.9647L196.465 81.7921L197.832 142.088L197.65 212.347Z" fill="#39BDE5"/>
<path d="M205.756 73.0582L194.879 79.3308L196.474 81.8064L197.841 142.102L197.659 212.361L195.638 211.207C195.638 213.379 198.388 224.086 198.388 226.395L204.176 223.054L205.513 222.294C207.032 221.413 208.08 219.348 208.08 216.386V81.4419C207.999 78.4999 207.201 75.6221 205.756 73.0582Z" fill="#3169B1"/>
<path d="M193.443 71.7656L80.0302 6.77673C75.9439 4.45299 72.7539 6.91342 72.7539 12.3051V147.158C72.7539 152.504 76.0047 158.731 80.0302 161.055L193.443 226.059C197.469 228.368 200.719 225.907 200.719 220.546V85.6625C200.719 80.3164 197.469 74.0893 193.443 71.7656ZM194.081 216.521C194.081 217.751 193.337 218.313 192.41 217.782L81.0632 153.993C80.5555 153.631 80.1399 153.156 79.8496 152.605C79.5594 152.053 79.4027 151.441 79.3922 150.818V16.2995C79.3922 15.0693 80.1365 14.5074 81.0632 15.0389L192.41 78.828C192.918 79.1893 193.333 79.6648 193.624 80.2162C193.914 80.7675 194.071 81.3793 194.081 82.0022V216.521Z" fill="url(#paint11_linear_305_11449)"/>
<path d="M193.443 71.7656L80.0302 6.77673C75.9439 4.45299 72.7539 6.91342 72.7539 12.3051V147.158C72.7539 152.504 76.0047 158.731 80.0302 161.055L193.443 226.059C197.469 228.368 200.719 225.907 200.719 220.546V85.6625C200.719 80.3164 197.469 74.0893 193.443 71.7656ZM194.081 216.521C194.081 217.751 193.337 218.313 192.41 217.782L81.0632 153.993C80.5555 153.631 80.1399 153.156 79.8496 152.605C79.5594 152.053 79.4027 151.441 79.3922 150.818V16.2995C79.3922 15.0693 80.1365 14.5074 81.0632 15.0389L192.41 78.828C192.918 79.1893 193.333 79.6648 193.624 80.2162C193.914 80.7675 194.071 81.3793 194.081 82.0022V216.521Z" fill="#3169B1"/>
<path d="M88.3913 149.741C87.8856 149.378 87.4722 148.902 87.1846 148.351C86.8969 147.8 86.7431 147.188 86.7355 146.566V18.3807L81.0694 15.0394C80.1428 14.5078 79.3984 15.0394 79.3984 16.3V150.804C79.409 151.427 79.5657 152.038 79.8559 152.59C80.1461 153.141 80.5618 153.617 81.0694 153.978L192.416 217.767C193.343 218.299 194.087 217.767 194.087 216.506V210.264L88.3913 149.741Z" fill="#3169B1"/>
<path opacity="0.2" d="M194.087 216.522C194.087 217.752 193.343 218.314 192.416 217.782L81.0694 153.993C80.5618 153.632 80.1461 153.156 79.8559 152.605C79.5657 152.054 79.409 151.442 79.3984 150.819V16.3C79.3984 15.0698 80.1428 14.5078 81.0694 15.0394L192.416 78.8284C192.924 79.1898 193.34 79.6653 193.63 80.2166C193.92 80.768 194.077 81.3797 194.087 82.0027V216.522Z" fill="#3169B1"/>
<path d="M113.757 75.0775L102.912 68.8207V66.0872L113.757 72.344V75.0775Z" fill="#084EA8"/>
<path d="M122.999 80.4081L117.576 77.2798V74.5464L122.999 77.6747V80.4081Z" fill="#084EA8"/>
<path d="M116.952 83.3091L112.334 80.6363V77.918L116.952 80.5756V83.3091Z" fill="#084EA8"/>
<path d="M124.676 87.7742L119.254 84.6459V81.9125L124.676 85.0408V87.7742Z" fill="#084EA8"/>
<path d="M133.616 99.317L112.334 87.0302V84.3116L133.616 96.5984V99.317Z" fill="#084EA8"/>
<path d="M116.952 96.0965L112.334 93.4237V90.7053L116.952 93.3629V96.0965Z" fill="#084EA8"/>
<path d="M124.676 100.562L119.254 97.4335V94.7001L124.676 97.8284V100.562Z" fill="#084EA8"/>
<path d="M124.03 106.575L112.334 99.8175V97.0991L124.03 103.857V106.575Z" fill="#084EA8"/>
<path d="M131.864 111.101L126.441 107.973V105.239L131.864 108.368V111.101Z" fill="#084EA8"/>
<path d="M139.731 115.642L134.324 112.514V109.795L139.731 112.924V115.642Z" fill="#084EA8"/>
<path d="M152.45 122.977L142.197 117.055V114.336L152.45 120.244V122.977Z" fill="#084EA8"/>
<path d="M146.302 132.213L140.895 129.1V126.366L146.302 129.495V132.213Z" fill="#084EA8"/>
<path d="M159.011 139.549L148.758 133.641V130.908L159.011 136.83V139.549Z" fill="#084EA8"/>
<path d="M117.756 115.733L112.334 112.605V109.886L117.756 113.015V115.733Z" fill="#084EA8"/>
<path d="M125.62 120.275L120.197 117.162V114.428L125.62 117.557V120.275Z" fill="#084EA8"/>
<path d="M138.328 127.611L128.09 121.704V118.97L138.328 124.893V127.611Z" fill="#084EA8"/>
<path d="M154.001 130.269L148.578 127.141V124.407L154.001 127.536V130.269Z" fill="#084EA8"/>
<path d="M161.872 134.81L156.449 131.682V128.964L161.872 132.077V134.81Z" fill="#084EA8"/>
<path d="M174.565 142.146L164.312 136.223V133.505L174.565 139.412V142.146Z" fill="#084EA8"/>
<path d="M117.754 128.523L112.332 125.394V122.676L117.754 125.804V128.523Z" fill="#084EA8"/>
<path d="M130.454 135.858L120.201 129.935V127.217L130.454 133.14V135.858Z" fill="#084EA8"/>
<path d="M149.808 108.671L144.4 105.543V102.809L149.808 105.938V108.671Z" fill="#084EA8"/>
<path d="M141.616 103.933L136.193 100.82V98.0862L141.616 101.214V103.933Z" fill="#084EA8"/>
<path d="M162.509 116.008L152.271 110.085V107.367L162.509 113.275V116.008Z" fill="#084EA8"/>
<path d="M117.225 109.036L112.334 106.211V103.493L117.225 106.317V109.036Z" fill="#084EA8"/>
<path d="M131.708 117.404L119.83 110.54V107.822L131.708 114.671V117.404Z" fill="#084EA8"/>
<path d="M146.202 125.772L134.324 118.907V116.189L146.202 123.038V125.772Z" fill="#084EA8"/>
<path d="M170.039 120.352L165.148 117.527V114.794L170.039 117.618V120.352Z" fill="#084EA8"/>
<path d="M124.316 125.924L112.438 119.059V116.341L124.316 123.19V125.924Z" fill="#084EA8"/>
<path d="M130.571 129.542L126.926 127.431V124.697L130.571 126.808V129.542Z" fill="#084EA8"/>
<path d="M136.849 133.156L133.203 131.061V128.327L136.849 130.438V133.156Z" fill="#084EA8"/>
<path d="M148.453 139.852L139.477 134.674V131.956L148.453 137.134V139.852Z" fill="#084EA8"/>
<path d="M150.883 141.266L141.906 136.088V133.354L150.883 138.533V141.266Z" fill="#084EA8"/>
<path d="M158.495 126.473L154.85 124.362V121.643L158.495 123.754V126.473Z" fill="#084EA8"/>
<path d="M170.098 133.17L161.121 127.991V125.258L170.098 130.436V133.17Z" fill="#084EA8"/>
<path d="M106.665 128.523L103.02 126.427V123.693L106.665 125.804V128.523Z" fill="#084EA8"/>
<path d="M118.27 135.221L109.293 130.043V127.309L118.27 132.503V135.221Z" fill="#084EA8"/>
<path d="M130.122 142.07L121.16 136.876V134.158L130.122 139.336V142.07Z" fill="#084EA8"/>
<defs>
<linearGradient id="paint0_linear_305_11449" x1="326.055" y1="390.838" x2="403.373" y2="390.838" gradientUnits="userSpaceOnUse">
<stop stop-color="#E9E9FD"/>
<stop offset="0.36" stop-color="#D3D2F9"/>
<stop offset="0.71" stop-color="#C5C4F7"/>
<stop offset="1" stop-color="#C0BFF6"/>
</linearGradient>
<linearGradient id="paint1_linear_305_11449" x1="0.0078125" y1="11623.7" x2="3935.13" y2="11623.7" gradientUnits="userSpaceOnUse">
<stop stop-color="#E9E9FD"/>
<stop offset="0.36" stop-color="#D3D2F9"/>
<stop offset="0.71" stop-color="#C5C4F7"/>
<stop offset="1" stop-color="#C0BFF6"/>
</linearGradient>
<linearGradient id="paint2_linear_305_11449" x1="17985.1" y1="5802.1" x2="21920.2" y2="5802.1" gradientUnits="userSpaceOnUse">
<stop stop-color="#E9E9FD"/>
<stop offset="0.36" stop-color="#D3D2F9"/>
<stop offset="0.71" stop-color="#C5C4F7"/>
<stop offset="1" stop-color="#C0BFF6"/>
</linearGradient>
<linearGradient id="paint3_linear_305_11449" x1="1586.84" y1="26805.3" x2="61078.3" y2="26805.3" gradientUnits="userSpaceOnUse">
<stop stop-color="#C0BFF6"/>
<stop offset="0.29" stop-color="#C5C4F7"/>
<stop offset="0.64" stop-color="#D3D2F9"/>
<stop offset="1" stop-color="#E9E9FD"/>
</linearGradient>
<radialGradient id="paint4_radial_305_11449" cx="0" cy="0" r="1" gradientUnits="userSpaceOnUse" gradientTransform="translate(-13345.1 -11667.7) rotate(16.7567) scale(734.841 968.724)">
<stop stop-color="#C0BFF6"/>
<stop offset="1" stop-color="#393091"/>
</radialGradient>
<radialGradient id="paint5_radial_305_11449" cx="0" cy="0" r="1" gradientUnits="userSpaceOnUse" gradientTransform="translate(-7924.02 -14170.4) rotate(11.2404) scale(3309.37 3308.73)">
<stop stop-color="#C0BFF6"/>
<stop offset="1" stop-color="#393091"/>
</radialGradient>
<radialGradient id="paint6_radial_305_11449" cx="0" cy="0" r="1" gradientUnits="userSpaceOnUse" gradientTransform="translate(63272.4 27681.2) scale(6576.91 10447.5)">
<stop stop-color="#C0BFF6"/>
<stop offset="1" stop-color="#393091"/>
</radialGradient>
<radialGradient id="paint7_radial_305_11449" cx="0" cy="0" r="1" gradientUnits="userSpaceOnUse" gradientTransform="translate(16740.9 5689.49) scale(6710.49 6709.28)">
<stop stop-color="#C0BFF6"/>
<stop offset="1" stop-color="#393091"/>
</radialGradient>
<radialGradient id="paint8_radial_305_11449" cx="0" cy="0" r="1" gradientUnits="userSpaceOnUse" gradientTransform="translate(-7219.9 -11230.4) rotate(11.2898) scale(1196.83 1196.61)">
<stop stop-color="#C0BFF6"/>
<stop offset="1" stop-color="#393091"/>
</radialGradient>
<linearGradient id="paint9_linear_305_11449" x1="3486.13" y1="2683.62" x2="2542.66" y2="2748.6" gradientUnits="userSpaceOnUse">
<stop stop-color="#BCBEFF"/>
<stop offset="0.15" stop-color="#A3A7F5"/>
<stop offset="0.39" stop-color="#8289E8"/>
<stop offset="0.61" stop-color="#6A73DF"/>
<stop offset="0.82" stop-color="#5C66D9"/>
<stop offset="1" stop-color="#5761D7"/>
</linearGradient>
<radialGradient id="paint10_radial_305_11449" cx="0" cy="0" r="1" gradientUnits="userSpaceOnUse" gradientTransform="translate(-10552.1 -10160.9) rotate(16.7567) scale(731.983 959.04)">
<stop stop-color="#C0BFF6"/>
<stop offset="1" stop-color="#393091"/>
</radialGradient>
<linearGradient id="paint11_linear_305_11449" x1="7609.92" y1="16704.3" x2="18389.7" y2="16704.3" gradientUnits="userSpaceOnUse">
<stop stop-color="#BCBEFF"/>
<stop offset="0.17" stop-color="#B6B8FC"/>
<stop offset="0.4" stop-color="#A4A8F5"/>
<stop offset="0.66" stop-color="#868DEA"/>
<stop offset="0.96" stop-color="#5E67DA"/>
<stop offset="1" stop-color="#5761D7"/>
</linearGradient>
</defs>
</svg>
