<svg width="120" height="120" viewBox="0 0 120 120" fill="none" xmlns="http://www.w3.org/2000/svg">
<rect width="120" height="120" rx="8" fill="#3169B1"/>
<path d="M56.4998 78.4333V41.5666C56.4998 38.0666 55.0065 36.6666 51.2965 36.6666H41.8698C38.1598 36.6666 36.6665 38.0666 36.6665 41.5666V78.4333C36.6665 81.9333 38.1598 83.3333 41.8698 83.3333H51.2965C55.0065 83.3333 56.4998 81.9333 56.4998 78.4333Z" stroke="white" stroke-width="4" stroke-linecap="round" stroke-linejoin="round"/>
<path d="M83.3333 62.1V41.5666C83.3333 38.0666 81.84 36.6666 78.13 36.6666H68.7033C64.9933 36.6666 63.5 38.0666 63.5 41.5666V62.1C63.5 65.6 64.9933 67 68.7033 67H78.13C81.84 67 83.3333 65.6 83.3333 62.1Z" stroke="white" stroke-width="4" stroke-linecap="round" stroke-linejoin="round"/>
</svg>
