<svg width="580" height="560" viewBox="0 0 580 560" fill="none" xmlns="http://www.w3.org/2000/svg">
<path opacity="0.5" d="M324.66 420.189L208.346 353.933C204.084 351.48 204.626 347.187 209.538 344.355L276.462 305.77C281.374 302.92 288.796 302.614 293.058 305.067L409.371 371.323C413.633 373.776 413.109 378.069 408.179 380.901L341.346 419.504C336.343 422.336 328.921 422.642 324.66 420.189Z" fill="#3169B1"/>
<path d="M419.749 349.027V77.7087L311.779 49.5324L291.914 38.0599C287.364 35.4443 279.382 35.7689 274.109 38.7994L255.563 49.4963H197.957L214.932 311.344C214.92 312.351 215.205 313.339 215.751 314.186C216.297 315.033 217.079 315.7 218.002 316.107L325.738 397.28C330.306 399.914 338.27 399.571 343.543 396.541L415.343 355.052C418.449 353.41 419.912 351.138 419.749 349.027Z" fill="#3169B1"/>
<path d="M283.644 36.3099C280.305 36.3534 277.026 37.2078 274.091 38.7993L255.545 49.4961H197.957V321.464C197.946 322.471 198.231 323.459 198.777 324.305C199.322 325.152 200.105 325.82 201.027 326.226L325.81 397.316C328.348 398.648 331.2 399.272 334.063 399.12L335.363 125.439L283.644 36.3099Z" fill="#C2E7FF"/>
<path d="M326.896 397.876C331.505 399.536 336.558 399.478 341.126 397.713V122.138H326.896V397.876Z" fill="#39BDE5"/>
<path d="M325.811 125.403L201.029 54.2586C196.46 51.6249 197.038 47.0431 202.293 43.9946L274.092 2.50585C279.366 -0.524629 287.347 -0.849324 291.898 1.76627L416.699 72.8563C421.25 75.49 420.69 80.0718 415.417 83.1203L343.617 124.609C338.344 127.712 330.38 128.036 325.811 125.403Z" fill="#F7FAFC"/>
<path d="M415.378 78.2134L343.578 119.702C338.305 122.733 330.341 123.075 325.773 120.442L201.026 49.2975C200.104 48.8051 199.302 48.1152 198.678 47.2772C197.179 49.7846 197.884 52.4543 201.026 54.2582L325.809 125.33C330.377 127.964 338.341 127.639 343.614 124.609L415.414 83.1199C419.495 80.7568 420.741 77.4558 419.026 74.8763C418.107 76.2746 416.853 77.4217 415.378 78.2134V78.2134Z" fill="#F7FAFC"/>
<path d="M329.331 96.5949L246.263 48.504C244.114 47.2593 244.457 45.1127 246.859 43.6877L280.447 24.3143C281.714 23.6101 283.129 23.2124 284.578 23.1529C286.027 23.0933 287.469 23.3737 288.79 23.9715L371.858 72.0804C374.007 73.3071 373.664 75.4536 371.262 76.8787L337.728 96.2521C336.455 96.9692 335.031 97.3742 333.571 97.4338C332.111 97.4934 330.658 97.2059 329.331 96.5949Z" fill="#3169B1"/>
<path d="M284.492 50.6509L279.67 47.873C279.381 47.7106 279.417 47.422 279.67 47.2236L284.329 44.5358C284.509 44.4468 284.707 44.4005 284.907 44.4005C285.108 44.4005 285.305 44.4468 285.485 44.5358L290.288 47.3138C290.595 47.4942 290.559 47.7828 290.288 47.9812L285.629 50.6509C285.454 50.7441 285.259 50.7928 285.061 50.7928C284.862 50.7928 284.667 50.7441 284.492 50.6509V50.6509Z" fill="#C2E7FF"/>
<path d="M300.565 59.9044L295.762 57.1265C295.455 56.9461 295.491 56.6575 295.762 56.4591L300.421 53.7713C300.597 53.6825 300.792 53.6362 300.99 53.6362C301.187 53.6362 301.382 53.6825 301.559 53.7713L306.38 56.5492C306.669 56.7296 306.633 57.0182 306.29 57.2167L301.649 59.9044C301.479 59.9822 301.294 60.0225 301.107 60.0225C300.92 60.0225 300.735 59.9822 300.565 59.9044V59.9044Z" fill="#C2E7FF"/>
<path d="M316.656 69.1407L311.835 66.3627C311.546 66.1823 311.582 65.8937 311.925 65.6953L316.566 63.0075C316.744 62.9143 316.943 62.8656 317.144 62.8656C317.345 62.8656 317.544 62.9143 317.722 63.0075L322.543 65.7855C322.832 65.9478 322.796 66.2365 322.453 66.4349L317.866 69.0866C317.684 69.1915 317.478 69.2512 317.268 69.2606C317.057 69.27 316.848 69.2289 316.656 69.1407V69.1407Z" fill="#C2E7FF"/>
<path d="M332.724 78.3762L327.92 75.5983C327.613 75.4179 327.668 75.1293 327.92 74.9309L332.652 72.2972C332.83 72.204 333.028 72.1553 333.23 72.1553C333.431 72.1553 333.629 72.204 333.807 72.2972L338.611 75.0752C338.918 75.2375 338.882 75.5442 338.611 75.7246L333.952 78.4123C333.76 78.5079 333.548 78.5546 333.333 78.5483C333.119 78.542 332.91 78.4829 332.724 78.3762V78.3762Z" fill="#C2E7FF"/>
<path d="M246.269 48.5045H246.359C246.518 48.3762 246.687 48.2616 246.865 48.1618L280.453 28.7883C281.719 28.0827 283.133 27.6826 284.582 27.62C286.03 27.5573 287.474 27.8339 288.796 28.4276L371.774 76.4824C373.742 75.0754 373.851 73.1633 371.864 72.0268L288.796 23.9179C287.475 23.3201 286.033 23.0397 284.584 23.0993C283.135 23.1588 281.72 23.5565 280.453 24.2607L246.865 43.6341C244.391 45.1133 244.12 47.2599 246.269 48.5045Z" fill="#3169B1"/>
<path d="M312.018 179.158L219.812 125.98C218.336 124.939 217.125 123.565 216.278 121.97C215.431 120.375 214.971 118.603 214.937 116.798V99.9141C214.937 96.3064 217.085 94.7551 219.74 96.3064L311.946 149.484C313.415 150.529 314.617 151.905 315.454 153.5C316.292 155.095 316.742 156.865 316.767 158.666V175.532C316.84 179.067 314.691 180.691 312.018 179.158Z" fill="white"/>
<path d="M305.044 164.294L300.708 161.787C300.388 161.559 300.126 161.259 299.944 160.911C299.762 160.563 299.665 160.177 299.661 159.784V155.112C299.661 154.337 300.13 153.994 300.708 154.319L305.044 156.826C305.364 157.054 305.626 157.354 305.808 157.702C305.99 158.05 306.087 158.436 306.092 158.828V163.446C306.092 164.294 305.622 164.565 305.044 164.294Z" fill="#394C8F"/>
<path d="M290.562 155.888L286.227 153.471C285.907 153.243 285.645 152.943 285.463 152.595C285.28 152.247 285.183 151.861 285.179 151.469V146.761C285.179 145.985 285.649 145.624 286.227 145.967L290.562 148.456C290.88 148.687 291.139 148.988 291.321 149.335C291.503 149.682 291.602 150.067 291.61 150.459V155.094C291.61 155.87 291.141 156.213 290.562 155.888Z" fill="#394C8F"/>
<path d="M312.018 240.056L219.812 186.95C218.334 185.906 217.123 184.53 216.276 182.932C215.429 181.333 214.97 179.559 214.937 177.751V160.885C214.937 157.277 217.085 155.708 219.74 157.277L311.946 210.455C313.416 211.502 314.619 212.881 315.456 214.479C316.294 216.078 316.743 217.85 316.767 219.654V236.448C316.84 240.056 314.691 241.661 312.018 240.056Z" fill="white"/>
<path d="M305.044 225.21L300.708 222.703C300.388 222.475 300.126 222.175 299.944 221.827C299.762 221.479 299.665 221.093 299.661 220.701V216.083C299.661 215.307 300.13 214.946 300.708 215.289L305.044 217.779C305.361 218.009 305.621 218.31 305.803 218.657C305.984 219.004 306.083 219.389 306.092 219.781V224.417C306.092 225.192 305.622 225.625 305.044 225.21Z" fill="#394C8F"/>
<path d="M290.562 216.84L286.227 214.351C285.909 214.121 285.648 213.821 285.466 213.473C285.285 213.126 285.186 212.741 285.179 212.348V207.731C285.179 206.955 285.649 206.594 286.227 206.937L290.562 209.426C290.881 209.656 291.141 209.956 291.323 210.304C291.505 210.651 291.603 211.036 291.61 211.428V216.064C291.61 216.822 291.141 217.183 290.562 216.84Z" fill="#C2E7FF"/>
<path d="M312.018 301.081L219.812 247.903C218.336 246.862 217.125 245.488 216.278 243.893C215.431 242.298 214.971 240.526 214.937 238.721V221.855C214.937 218.247 217.085 216.678 219.74 218.247L311.946 271.425C313.415 272.47 314.617 273.846 315.454 275.441C316.292 277.036 316.742 278.806 316.767 280.607V297.491C316.84 300.99 314.691 302.614 312.018 301.081Z" fill="white"/>
<path d="M305.044 286.163L300.708 283.673C300.39 283.444 300.13 283.143 299.948 282.796C299.766 282.448 299.668 282.063 299.661 281.671V277.053C299.661 276.278 300.13 275.917 300.708 276.26L305.044 278.749C305.362 278.979 305.623 279.279 305.804 279.627C305.986 279.974 306.085 280.359 306.092 280.751V285.387C306.092 286.145 305.622 286.506 305.044 286.163Z" fill="#C2E7FF"/>
<path d="M290.562 277.811L286.227 275.322C285.91 275.091 285.65 274.79 285.468 274.443C285.286 274.096 285.188 273.711 285.179 273.319V268.683C285.179 267.926 285.649 267.565 286.227 267.89L290.562 270.397C290.881 270.627 291.141 270.927 291.323 271.275C291.505 271.622 291.603 272.007 291.61 272.399V277.017C291.61 277.793 291.141 278.154 290.562 277.811Z" fill="#394C8F"/>
<path d="M312.018 362.051L219.812 308.873C218.336 307.832 217.125 306.459 216.278 304.864C215.431 303.269 214.971 301.497 214.937 299.692V282.826C214.937 279.218 217.085 277.649 219.74 279.218L311.946 332.396C313.415 333.441 314.617 334.816 315.454 336.411C316.292 338.007 316.742 339.776 316.767 341.577V358.462C316.84 361.961 314.691 363.585 312.018 362.051Z" fill="white"/>
<path d="M305.044 347.133L300.708 344.68C300.39 344.45 300.13 344.15 299.948 343.802C299.766 343.455 299.668 343.07 299.661 342.678V338.006C299.661 337.248 300.13 336.887 300.708 337.23L305.044 339.719C305.362 339.949 305.623 340.249 305.804 340.597C305.986 340.945 306.085 341.33 306.092 341.722V346.34C306.092 347.115 305.622 347.476 305.044 347.133Z" fill="#C2E7FF"/>
<path d="M290.562 338.781L286.227 336.292C285.91 336.061 285.65 335.76 285.468 335.413C285.286 335.066 285.188 334.681 285.179 334.29V329.654C285.179 328.878 285.649 328.535 286.227 328.86L290.562 331.367C290.883 331.595 291.145 331.895 291.327 332.243C291.509 332.591 291.606 332.977 291.61 333.37V337.987C291.61 338.763 291.141 339.124 290.562 338.781Z" fill="#C2E7FF"/>
<path d="M357.593 179.158L404.833 152.1C406.297 151.051 407.493 149.674 408.328 148.08C409.162 146.485 409.61 144.717 409.637 142.918V126.07C409.637 122.463 407.488 120.911 404.833 122.463L357.593 149.466C356.129 150.515 354.932 151.892 354.098 153.487C353.264 155.081 352.816 156.849 352.789 158.648V175.514C352.825 179.068 354.974 180.691 357.593 179.158Z" fill="#3169B1"/>
<path d="M357.593 240.056L404.833 212.998C406.297 211.949 407.493 210.572 408.328 208.977C409.162 207.383 409.61 205.615 409.637 203.816V186.932C409.637 183.324 407.488 181.773 404.833 183.324L357.593 210.382C356.128 211.434 354.93 212.814 354.096 214.412C353.262 216.009 352.814 217.78 352.789 219.582V236.448C352.825 240.056 354.974 241.661 357.593 240.056Z" fill="#3169B1"/>
<path d="M357.593 301.08L404.833 274.023C406.298 272.971 407.496 271.591 408.33 269.993C409.164 268.395 409.612 266.625 409.637 264.823V247.957C409.637 244.349 407.488 242.798 404.833 244.349L357.593 271.407C356.129 272.456 354.932 273.833 354.098 275.427C353.264 277.022 352.816 278.79 352.789 280.589V297.473C352.825 300.99 354.974 302.614 357.593 301.08Z" fill="#3169B1"/>
<path d="M357.593 362.051L404.833 334.993C406.298 333.941 407.496 332.561 408.33 330.964C409.164 329.366 409.612 327.595 409.637 325.793V308.927C409.637 305.32 407.488 303.75 404.833 305.32L357.593 332.377C356.129 333.426 354.932 334.803 354.098 336.398C353.264 337.992 352.816 339.76 352.789 341.559V358.443C352.825 361.961 354.974 363.584 357.593 362.051Z" fill="#394C8F"/>
<path d="M371.844 160.831L376.179 158.323C376.5 158.096 376.761 157.796 376.944 157.448C377.126 157.1 377.223 156.714 377.227 156.321V151.667C377.227 150.891 376.757 150.531 376.179 150.873L371.844 153.471C371.526 153.701 371.267 154.002 371.085 154.349C370.903 154.697 370.804 155.081 370.796 155.473V160.109C370.796 160.795 371.266 161.155 371.844 160.831Z" fill="white"/>
<path d="M386.329 152.461L390.665 149.972C390.983 149.742 391.244 149.442 391.426 149.094C391.607 148.746 391.706 148.361 391.713 147.969V143.351C391.713 142.576 391.243 142.215 390.665 142.558L386.329 145.047C386.011 145.277 385.751 145.577 385.569 145.925C385.387 146.272 385.289 146.657 385.282 147.049V151.667C385.282 152.443 385.751 152.804 386.329 152.461Z" fill="white"/>
<path d="M371.844 221.332L376.179 218.825C376.5 218.597 376.761 218.297 376.944 217.949C377.126 217.601 377.223 217.215 377.227 216.822V212.204C377.227 211.429 376.757 211.068 376.179 211.411L371.844 213.9C371.526 214.131 371.267 214.431 371.085 214.779C370.903 215.126 370.804 215.511 370.796 215.902V220.538C370.796 221.296 371.266 221.657 371.844 221.332Z" fill="white"/>
<path d="M386.329 212.998L390.665 210.509C390.983 210.279 391.244 209.979 391.426 209.631C391.607 209.284 391.706 208.899 391.713 208.507V203.889C391.713 203.113 391.243 202.752 390.665 203.095L386.329 205.584C386.011 205.814 385.751 206.114 385.569 206.462C385.387 206.81 385.289 207.195 385.282 207.587V212.205C385.282 212.998 385.751 213.305 386.329 212.998Z" fill="white"/>
<path d="M371.844 282.844L376.179 280.355C376.497 280.125 376.758 279.824 376.94 279.477C377.122 279.129 377.22 278.744 377.227 278.352V273.734C377.227 272.959 376.757 272.598 376.179 272.941L371.844 275.43C371.525 275.66 371.265 275.96 371.083 276.308C370.901 276.655 370.803 277.04 370.796 277.432V282.05C370.796 282.826 371.266 283.187 371.844 282.844Z" fill="white"/>
<path d="M386.329 274.492L390.665 272.002C390.982 271.772 391.242 271.471 391.424 271.124C391.605 270.776 391.704 270.392 391.713 270V265.31C391.713 264.552 391.243 264.192 390.665 264.516L386.329 267.024C386.009 267.251 385.747 267.551 385.565 267.899C385.383 268.247 385.286 268.633 385.282 269.026V273.644C385.282 274.474 385.751 274.834 386.329 274.492Z" fill="white"/>
<path d="M371.844 343.471L376.179 340.982C376.497 340.752 376.758 340.452 376.94 340.104C377.122 339.757 377.22 339.372 377.227 338.98V334.362C377.227 333.586 376.757 333.225 376.179 333.568L371.844 336.058C371.525 336.287 371.265 336.588 371.083 336.935C370.901 337.283 370.803 337.668 370.796 338.06V342.696C370.796 343.453 371.266 343.814 371.844 343.471Z" fill="white"/>
<path d="M386.329 335.119L390.665 332.63C390.982 332.399 391.242 332.099 391.424 331.751C391.605 331.404 391.704 331.02 391.713 330.628V325.992C391.713 325.234 391.243 324.873 390.665 325.198L386.329 327.705C386.011 327.935 385.751 328.236 385.569 328.583C385.387 328.931 385.289 329.316 385.282 329.708V334.326C385.282 335.101 385.751 335.462 386.329 335.119Z" fill="white"/>
<path d="M210.977 487.798L94.6634 421.542C90.4017 419.089 90.9434 414.814 95.8553 411.982L162.779 373.379C167.691 370.547 175.131 370.241 179.375 372.694L295.707 438.95C299.95 441.403 299.427 445.678 294.515 448.51L227.573 487.185C222.661 489.945 215.239 490.251 210.977 487.798Z" fill="#3169B1"/>
<path d="M306.071 416.636V145.371L198.118 117.141L178.254 105.686C173.704 103.053 165.722 103.377 160.449 106.426L141.867 117.123H84.2788L101.344 378.953C101.326 379.959 101.607 380.947 102.15 381.795C102.692 382.642 103.474 383.31 104.396 383.715L212.132 464.889C216.7 467.522 224.664 467.18 229.937 464.149L301.737 422.66C304.771 421.019 306.234 418.746 306.071 416.636Z" fill="#3169B1"/>
<path d="M169.966 103.919C166.624 103.96 163.343 104.821 160.413 106.426L141.867 117.123H84.279V389.073C84.271 390.081 84.557 391.07 85.1021 391.919C85.6473 392.768 86.4279 393.44 87.3489 393.853L212.132 464.925C214.679 466.251 217.534 466.873 220.403 466.729L221.685 193.03L169.966 103.919Z" fill="#C2E7FF"/>
<path d="M213.27 465.538C217.884 467.198 222.943 467.14 227.518 465.376V189.764H213.27V465.538Z" fill="#39BDE5"/>
<path d="M212.131 193.029L87.3476 121.939C82.7789 119.306 83.3568 114.724 88.6298 111.675L160.412 70.2767C165.685 67.2282 173.666 66.9035 178.217 69.5371L303.018 140.609C307.569 143.243 307.009 147.825 301.736 150.873L229.936 192.362C224.663 195.32 216.736 195.663 212.131 193.029Z" fill="#F7FAFC"/>
<path d="M301.736 145.84L229.936 187.329C224.663 190.378 216.699 190.702 212.13 188.069L87.3475 116.997C86.4465 116.503 85.6687 115.812 85.0722 114.976C83.5011 117.502 84.2054 120.226 87.3475 122.029L212.13 193.119C216.699 195.753 224.663 195.41 229.936 192.38L301.736 150.891C305.835 148.528 307.153 145.227 305.348 142.648C304.42 143.988 303.18 145.083 301.736 145.84V145.84Z" fill="#F7FAFC"/>
<path d="M215.652 164.294L132.583 116.185C130.434 114.959 130.778 112.794 133.179 111.369L166.768 91.9957C168.041 91.2654 169.468 90.847 170.934 90.7749C172.4 90.7028 173.863 90.979 175.201 91.5808L258.269 139.69C260.418 140.916 260.075 143.081 257.673 144.488L223.958 163.879C222.7 164.584 221.295 164.988 219.854 165.06C218.413 165.132 216.975 164.87 215.652 164.294V164.294Z" fill="#3169B1"/>
<path d="M170.817 118.277L165.996 115.59C165.707 115.409 165.743 115.121 165.996 114.922L170.637 112.234C170.815 112.141 171.013 112.092 171.215 112.092C171.416 112.092 171.614 112.141 171.793 112.234L176.596 114.994C176.903 115.175 176.867 115.463 176.596 115.662L171.955 118.223C171.783 118.32 171.59 118.376 171.393 118.385C171.195 118.395 170.998 118.358 170.817 118.277Z" fill="#C2E7FF"/>
<path d="M186.887 127.513L182.083 124.735C181.776 124.555 181.812 124.266 182.083 124.068L186.742 121.38C186.92 121.287 187.119 121.238 187.32 121.238C187.521 121.238 187.72 121.287 187.898 121.38L192.701 124.158C193.008 124.32 192.954 124.627 192.701 124.807L188.042 127.495C187.864 127.587 187.667 127.636 187.467 127.639C187.266 127.642 187.068 127.599 186.887 127.513V127.513Z" fill="#C2E7FF"/>
<path d="M202.973 136.749L198.151 133.971C197.862 133.791 197.898 133.502 198.242 133.304L202.883 130.616C203.062 130.527 203.26 130.481 203.46 130.481C203.661 130.481 203.859 130.527 204.038 130.616L208.86 133.394C209.149 133.556 209.113 133.863 208.86 134.061L204.092 136.695C203.921 136.786 203.732 136.838 203.539 136.847C203.345 136.856 203.152 136.823 202.973 136.749V136.749Z" fill="#C2E7FF"/>
<path d="M219.073 145.985L214.252 143.207C213.963 143.044 213.999 142.738 214.252 142.539L218.893 139.869C219.071 139.776 219.269 139.728 219.471 139.728C219.672 139.728 219.87 139.776 220.048 139.869L224.942 142.647C225.249 142.81 225.213 143.116 224.942 143.315L220.283 145.985C220.098 146.086 219.89 146.139 219.678 146.139C219.467 146.139 219.259 146.086 219.073 145.985V145.985Z" fill="#C2E7FF"/>
<path d="M132.586 116.113H132.676C132.838 116.005 132.983 115.878 133.182 115.77L166.77 96.3966C168.051 95.6821 169.485 95.2832 170.952 95.233C172.418 95.1828 173.876 95.4828 175.203 96.108L258.272 144.145C260.24 142.738 260.348 140.826 258.272 139.689L175.203 91.5803C173.882 90.9825 172.44 90.7021 170.991 90.7616C169.542 90.8211 168.127 91.2189 166.86 91.923L133.182 111.296C130.708 112.722 130.437 114.886 132.586 116.113Z" fill="#3169B1"/>
<path d="M198.359 246.766L106.154 193.589C104.685 192.544 103.483 191.168 102.645 189.573C101.808 187.978 101.358 186.208 101.332 184.407V167.523C101.332 163.915 103.481 162.364 106.154 163.915L198.359 217.093C199.823 218.142 201.02 219.519 201.854 221.113C202.688 222.708 203.136 224.476 203.163 226.275V243.159C203.163 246.676 201.014 248.3 198.359 246.766Z" fill="white"/>
<path d="M191.458 231.848L187.122 229.359C186.808 229.139 186.547 228.852 186.359 228.518C186.172 228.183 186.062 227.811 186.039 227.429V222.793C186.039 222.017 186.508 221.674 187.086 221.999L191.422 224.507C191.742 224.734 192.004 225.034 192.186 225.382C192.368 225.73 192.465 226.116 192.47 226.509V231.036C192.415 231.83 191.946 232.191 191.458 231.848Z" fill="#3169B1"/>
<path d="M176.884 223.496L172.548 220.989C172.228 220.761 171.966 220.461 171.784 220.113C171.602 219.765 171.505 219.379 171.5 218.987V214.369C171.5 213.593 171.97 213.251 172.548 213.575L176.884 216.083C177.204 216.31 177.466 216.61 177.648 216.958C177.83 217.306 177.927 217.692 177.931 218.085V222.703C177.931 223.478 177.462 223.821 176.884 223.496Z" fill="#3169B1"/>
<path d="M198.359 307.737L106.154 254.487C104.706 253.458 103.518 252.109 102.681 250.544C101.845 248.979 101.383 247.241 101.332 245.468V228.584C101.332 224.976 103.481 223.425 106.154 224.976L198.359 278.154C199.823 279.203 201.02 280.58 201.854 282.174C202.688 283.769 203.136 285.536 203.163 287.335V304.201C203.163 307.647 201.014 309.27 198.359 307.737Z" fill="white"/>
<path d="M191.457 292.819L187.121 290.311C186.801 290.084 186.539 289.784 186.357 289.436C186.175 289.088 186.078 288.702 186.074 288.309V283.691C186.074 282.916 186.543 282.573 187.121 282.897L191.457 285.405C191.777 285.632 192.039 285.932 192.221 286.28C192.403 286.628 192.501 287.015 192.505 287.407V292.025C192.414 292.801 191.945 293.143 191.457 292.819Z" fill="#3169B1"/>
<path d="M176.884 284.467L172.548 281.96C172.228 281.732 171.966 281.432 171.784 281.084C171.602 280.736 171.505 280.35 171.5 279.957V275.339C171.5 274.564 171.97 274.203 172.548 274.546L176.884 277.035C177.201 277.266 177.461 277.566 177.642 277.914C177.824 278.261 177.923 278.646 177.931 279.037V283.673C177.931 284.449 177.462 284.792 176.884 284.467Z" fill="#C2E7FF"/>
<path d="M198.359 368.708L106.154 315.53C104.683 314.482 103.481 313.103 102.643 311.505C101.805 309.907 101.356 308.134 101.332 306.33V289.464C101.332 285.856 103.481 284.305 106.154 285.856L198.359 339.034C199.824 340.086 201.022 341.466 201.856 343.063C202.69 344.661 203.138 346.432 203.163 348.234V365.1C203.163 368.599 201.014 370.241 198.359 368.708Z" fill="white"/>
<path d="M191.457 353.789L187.121 351.282C186.801 351.054 186.539 350.754 186.357 350.406C186.175 350.058 186.078 349.672 186.074 349.28V344.68C186.074 343.904 186.543 343.543 187.121 343.886L191.457 346.375C191.774 346.606 192.034 346.907 192.216 347.254C192.397 347.601 192.496 347.986 192.505 348.378V353.014C192.414 353.699 191.945 354.114 191.457 353.789Z" fill="#C2E7FF"/>
<path d="M176.884 345.419L172.548 342.876C172.23 342.646 171.969 342.346 171.788 341.998C171.606 341.651 171.507 341.266 171.5 340.874V336.256C171.5 335.48 171.97 335.119 172.548 335.462L176.884 337.951C177.202 338.181 177.462 338.482 177.644 338.829C177.826 339.177 177.924 339.562 177.931 339.954V344.68C177.931 345.401 177.462 345.762 176.884 345.419Z" fill="#3169B1"/>
<path d="M198.359 429.659L106.154 376.482C104.685 375.437 103.483 374.061 102.645 372.466C101.808 370.871 101.358 369.101 101.332 367.3V350.434C101.332 346.826 103.481 345.257 106.154 346.826L198.359 400.004C199.824 401.056 201.022 402.436 201.856 404.033C202.69 405.631 203.138 407.402 203.163 409.204V426.07C203.163 429.569 201.014 431.265 198.359 429.659Z" fill="white"/>
<path d="M191.457 414.76L187.121 412.252C186.803 412.023 186.543 411.722 186.361 411.375C186.179 411.027 186.081 410.642 186.074 410.25V405.632C186.074 404.857 186.543 404.496 187.121 404.838L191.457 407.328C191.775 407.557 192.036 407.858 192.218 408.205C192.399 408.553 192.498 408.938 192.505 409.33V413.966C192.414 414.724 191.945 415.03 191.457 414.76Z" fill="#C2E7FF"/>
<path d="M176.884 406.39L172.548 403.9C172.23 403.671 171.969 403.37 171.788 403.023C171.606 402.675 171.507 402.29 171.5 401.898V397.262C171.5 396.505 171.97 396.144 172.548 396.487L176.884 398.976C177.202 399.205 177.462 399.506 177.644 399.853C177.826 400.201 177.924 400.586 177.931 400.978V405.596C177.931 406.372 177.462 406.732 176.884 406.39Z" fill="#C2E7FF"/>
<path d="M243.957 246.766L291.198 219.708C292.664 218.661 293.863 217.284 294.7 215.69C295.538 214.095 295.989 212.327 296.019 210.527V193.697C296.019 190.089 293.852 188.52 291.198 190.089L243.957 217.147C242.494 218.196 241.297 219.573 240.463 221.167C239.629 222.762 239.18 224.53 239.154 226.329V243.213C239.154 246.676 241.303 248.3 243.957 246.766Z" fill="#3169B1"/>
<path d="M243.957 307.737L291.198 280.679C292.664 279.631 293.863 278.255 294.7 276.66C295.538 275.066 295.989 273.298 296.019 271.497V254.613C296.019 251.005 293.852 249.454 291.198 251.005L243.957 278.063C242.494 279.112 241.297 280.489 240.463 282.084C239.629 283.678 239.18 285.446 239.154 287.245V304.111C239.154 307.647 241.303 309.27 243.957 307.737Z" fill="#3169B1"/>
<path d="M243.957 368.707L291.198 341.649C292.664 340.601 293.863 339.225 294.7 337.631C295.538 336.036 295.989 334.268 296.019 332.468V315.584C296.019 311.976 293.852 310.425 291.198 311.976L243.957 339.034C242.492 340.085 241.295 341.466 240.461 343.063C239.626 344.661 239.179 346.432 239.154 348.234V365.1C239.154 368.599 241.303 370.241 243.957 368.707Z" fill="#3169B1"/>
<path d="M243.957 429.66L291.198 402.602C292.664 401.554 293.863 400.178 294.7 398.583C295.538 396.989 295.989 395.22 296.019 393.42V376.536C296.019 372.928 293.852 371.377 291.198 372.928L243.957 399.986C242.492 401.038 241.295 402.418 240.461 404.016C239.626 405.613 239.179 407.384 239.154 409.186V426.052C239.154 429.569 241.303 431.265 243.957 429.66Z" fill="#3169B1"/>
<path d="M258.165 228.439L262.5 225.932C262.821 225.704 263.083 225.404 263.265 225.056C263.447 224.708 263.544 224.322 263.548 223.93V219.312C263.548 218.536 263.078 218.194 262.5 218.518L258.165 221.026C257.845 221.253 257.583 221.553 257.4 221.901C257.218 222.249 257.121 222.635 257.117 223.028V227.646C257.117 228.421 257.587 228.764 258.165 228.439Z" fill="white"/>
<path d="M272.72 220.087L277.055 217.58C277.376 217.352 277.637 217.052 277.82 216.704C278.002 216.356 278.099 215.97 278.103 215.577V210.959C278.103 210.184 277.633 209.823 277.055 210.166L272.72 212.655C272.402 212.886 272.143 213.186 271.961 213.534C271.779 213.881 271.68 214.266 271.672 214.657V219.293C271.6 220.051 272.069 220.412 272.72 220.087Z" fill="white"/>
<path d="M258.165 288.941L262.5 286.434C262.821 286.206 263.083 285.906 263.265 285.558C263.447 285.21 263.544 284.824 263.548 284.431V279.741C263.548 278.966 263.078 278.623 262.5 278.948L258.165 281.455C257.845 281.682 257.583 281.983 257.4 282.33C257.218 282.678 257.121 283.065 257.117 283.457V288.075C257.117 288.923 257.587 289.266 258.165 288.941Z" fill="white"/>
<path d="M272.72 280.589L277.055 278.081C277.376 277.854 277.637 277.554 277.82 277.206C278.002 276.858 278.099 276.472 278.103 276.079V271.461C278.103 270.685 277.633 270.325 277.055 270.667L272.72 273.157C272.402 273.387 272.143 273.688 271.961 274.035C271.779 274.383 271.68 274.767 271.672 275.159V279.741C271.6 280.552 272.069 280.913 272.72 280.589Z" fill="white"/>
<path d="M258.165 350.47L262.5 347.963C262.821 347.735 263.083 347.435 263.265 347.087C263.447 346.739 263.544 346.353 263.548 345.96V341.342C263.548 340.567 263.078 340.206 262.5 340.549L258.165 343.038C257.848 343.269 257.588 343.569 257.406 343.917C257.224 344.264 257.126 344.648 257.117 345.04V349.676C257.117 350.434 257.587 350.795 258.165 350.47Z" fill="white"/>
<path d="M272.72 342.1L277.055 339.611C277.373 339.381 277.634 339.081 277.816 338.733C277.998 338.386 278.096 338.001 278.103 337.609V332.991C278.103 332.215 277.633 331.854 277.055 332.197L272.72 334.686C272.401 334.916 272.141 335.217 271.959 335.564C271.777 335.912 271.679 336.297 271.672 336.689V341.307C271.6 342.082 272.069 342.443 272.72 342.1Z" fill="white"/>
<path d="M258.165 411.098L262.5 408.59C262.821 408.363 263.083 408.063 263.265 407.715C263.447 407.367 263.544 406.981 263.548 406.588V401.97C263.548 401.195 263.078 400.834 262.5 401.177L258.165 403.666C257.848 403.897 257.588 404.197 257.406 404.545C257.224 404.892 257.126 405.276 257.117 405.668V410.304C257.117 411.08 257.587 411.423 258.165 411.098Z" fill="white"/>
<path d="M272.72 402.728L277.055 400.239C277.373 400.009 277.634 399.709 277.816 399.361C277.998 399.014 278.096 398.629 278.103 398.237V393.619C278.103 392.843 277.633 392.482 277.055 392.825L272.72 395.314C272.401 395.544 272.141 395.844 271.959 396.192C271.777 396.539 271.679 396.924 271.672 397.317V401.952C271.6 402.71 272.069 403.071 272.72 402.728Z" fill="white"/>
<path d="M484.887 509.841L368.555 443.585C364.311 441.132 364.835 436.857 369.747 434.025L436.689 395.422C441.601 392.59 449.023 392.283 453.285 394.737L569.598 460.992C573.86 463.446 573.318 467.739 568.406 470.571L501.482 509.155C496.643 511.987 489.148 512.312 484.887 509.841Z" fill="#3169B1"/>
<path d="M579.987 438.697V167.415L472.016 139.202L452.152 127.73C447.583 125.096 439.619 125.421 434.346 128.469L415.8 139.166H358.212L375.259 401.032C375.251 402.041 375.537 403.03 376.083 403.879C376.628 404.728 377.408 405.4 378.329 405.813L486.065 486.986C490.616 489.62 498.598 489.295 503.871 486.247L575.671 444.758C578.686 443.08 580.149 440.808 579.987 438.697Z" fill="#3169B1"/>
<path d="M443.878 125.962C440.537 126.012 437.259 126.872 434.325 128.47L415.779 139.166H358.191V411.134C358.183 412.138 358.467 413.123 359.009 413.968C359.551 414.814 360.327 415.484 361.243 415.896L486.044 486.968C488.585 488.292 491.434 488.915 494.297 488.772L495.597 215.073L443.878 125.962Z" fill="#C2E7FF"/>
<path d="M487.183 487.527C491.789 489.195 496.845 489.138 501.413 487.365V211.808H487.183V487.527Z" fill="#39BDE5"/>
<path d="M486.047 215.073L361.209 144.001C356.659 141.367 357.219 136.785 362.492 133.719L434.328 92.32C439.601 89.2715 447.564 88.9468 452.133 91.5805L576.916 162.652C581.485 165.286 580.907 169.868 575.652 172.934L503.87 214.333C498.579 217.382 490.597 217.706 486.047 215.073Z" fill="#F7FAFC"/>
<path d="M575.651 167.902L503.851 209.39C498.578 212.439 490.596 212.764 486.046 210.13L361.208 139.04C360.311 138.542 359.534 137.852 358.933 137.02C357.38 139.545 358.084 142.269 361.208 144.091L486.009 215.163C490.56 217.796 498.542 217.472 503.815 214.423L575.615 173.025C579.696 170.662 580.942 167.361 579.227 164.763C578.309 166.085 577.082 167.163 575.651 167.902V167.902Z" fill="#F7FAFC"/>
<path d="M489.564 186.265L406.495 138.156C404.364 136.93 404.689 134.783 407.109 133.358L440.662 113.985C441.928 113.279 443.342 112.879 444.79 112.816C446.239 112.754 447.682 113.03 449.005 113.624L532.073 161.733C534.204 162.977 533.879 165.124 531.477 166.549L497.907 185.94C496.638 186.642 495.222 187.036 493.774 187.093C492.325 187.149 490.883 186.866 489.564 186.265V186.265Z" fill="#3169B1"/>
<path d="M444.704 140.321L439.9 137.543C439.593 137.38 439.629 137.074 439.9 136.875L444.559 134.205C444.737 134.112 444.936 134.063 445.137 134.063C445.338 134.063 445.536 134.112 445.715 134.205L450.518 136.983C450.825 137.146 450.789 137.452 450.518 137.651L445.859 140.321C445.68 140.41 445.482 140.456 445.281 140.456C445.081 140.456 444.883 140.41 444.704 140.321V140.321Z" fill="#C2E7FF"/>
<path d="M460.795 149.556L455.973 146.779C455.684 146.616 455.72 146.309 456.063 146.111L460.704 143.441C460.884 143.354 461.082 143.308 461.282 143.308C461.482 143.308 461.68 143.354 461.86 143.441L466.682 146.255C466.971 146.418 466.934 146.724 466.682 146.923L462.041 149.593C461.846 149.69 461.631 149.737 461.413 149.731C461.196 149.725 460.983 149.665 460.795 149.556V149.556Z" fill="#C2E7FF"/>
<path d="M476.886 158.882L472.064 156.104C471.775 155.942 471.812 155.635 472.155 155.437L476.778 152.677C476.958 152.589 477.155 152.544 477.355 152.544C477.556 152.544 477.753 152.589 477.933 152.677L482.755 155.455C483.044 155.617 483.008 155.924 482.755 156.122L478.114 158.792C477.935 158.912 477.727 158.984 477.512 158.999C477.297 159.015 477.081 158.975 476.886 158.882V158.882Z" fill="#C2E7FF"/>
<path d="M493.029 168.028L488.226 165.25C487.919 165.087 487.955 164.781 488.226 164.582L492.885 161.913C493.064 161.824 493.262 161.777 493.463 161.777C493.663 161.777 493.861 161.824 494.04 161.913L498.844 164.691C499.151 164.871 499.097 165.16 498.844 165.358L494.185 168.046C494.005 168.136 493.806 168.182 493.605 168.179C493.404 168.176 493.206 168.124 493.029 168.028V168.028Z" fill="#C2E7FF"/>
<path d="M406.474 138.156H406.582C406.745 138.048 406.889 137.922 407.088 137.814L440.658 118.494C441.926 117.79 443.34 117.392 444.789 117.333C446.238 117.273 447.681 117.554 449.001 118.151L531.979 166.206C533.948 164.799 534.038 162.869 532.07 161.733L449.001 113.624C447.679 113.03 446.236 112.754 444.787 112.816C443.339 112.879 441.925 113.279 440.658 113.985L407.07 133.358C404.542 134.783 404.343 136.93 406.474 138.156Z" fill="#3169B1"/>
<path d="M472.245 268.81L380.039 215.632C378.575 214.583 377.379 213.206 376.544 211.612C375.71 210.017 375.262 208.249 375.235 206.45V189.548C375.235 185.94 377.384 184.371 380.039 185.94L472.245 239.118C473.71 240.166 474.91 241.542 475.747 243.137C476.585 244.731 477.036 246.5 477.066 248.3V265.184C477.066 268.72 474.971 270.343 472.245 268.81Z" fill="white"/>
<path d="M465.278 253.892L460.942 251.402C460.624 251.173 460.364 250.872 460.182 250.525C460 250.177 459.902 249.792 459.895 249.4V244.782C459.895 244.006 460.364 243.646 460.942 243.988L465.278 246.478C465.596 246.707 465.856 247.008 466.038 247.355C466.22 247.703 466.319 248.088 466.326 248.48V253.098C466.326 253.874 465.946 254.234 465.278 253.892Z" fill="#3169B1"/>
<path d="M450.792 245.468L446.456 242.978C446.139 242.748 445.879 242.447 445.698 242.1C445.516 241.752 445.417 241.368 445.409 240.976V236.448C445.409 235.691 445.878 235.33 446.456 235.655L450.792 238.162C451.112 238.39 451.374 238.69 451.556 239.038C451.738 239.386 451.836 239.772 451.84 240.164V244.782C451.84 245.468 451.37 245.883 450.792 245.468Z" fill="#3169B1"/>
<path d="M472.245 329.78L380.039 276.602C378.575 275.553 377.379 274.176 376.544 272.582C375.71 270.987 375.262 269.219 375.235 267.42V250.536C375.235 246.928 377.384 245.377 380.039 246.928L472.245 300.106C473.71 301.154 474.91 302.53 475.747 304.125C476.585 305.719 477.036 307.488 477.066 309.288V326.172C477.066 329.69 474.971 331.313 472.245 329.78Z" fill="white"/>
<path d="M465.278 314.862L460.942 312.373C460.625 312.142 460.365 311.842 460.184 311.494C460.002 311.147 459.903 310.762 459.895 310.371V305.735C459.895 304.977 460.364 304.616 460.942 304.941L465.278 307.448C465.598 307.676 465.86 307.976 466.042 308.324C466.224 308.672 466.321 309.058 466.326 309.451V314.014C466.326 314.844 465.946 315.205 465.278 314.862Z" fill="#3169B1"/>
<path d="M450.792 306.51L446.456 304.003C446.136 303.775 445.874 303.475 445.692 303.127C445.51 302.779 445.413 302.393 445.409 302.001V297.383C445.409 296.607 445.878 296.264 446.456 296.589L450.792 299.096C451.112 299.324 451.374 299.624 451.556 299.972C451.738 300.32 451.836 300.706 451.84 301.099V305.717C451.84 306.492 451.37 306.799 450.792 306.51Z" fill="#C2E7FF"/>
<path d="M472.245 390.75L380.039 337.572C378.575 336.524 377.379 335.147 376.544 333.552C375.71 331.958 375.262 330.19 375.235 328.391V311.507C375.235 307.899 377.384 306.348 380.039 307.899L472.245 361.077C473.71 362.125 474.91 363.501 475.747 365.096C476.585 366.69 477.036 368.458 477.066 370.258V387.124C477.066 390.66 474.971 392.284 472.245 390.75Z" fill="white"/>
<path d="M465.278 375.832L460.942 373.325C460.622 373.097 460.36 372.797 460.178 372.449C459.996 372.101 459.899 371.715 459.895 371.323V366.705C459.895 365.929 460.364 365.586 460.942 365.911L465.278 368.419C465.598 368.646 465.86 368.946 466.042 369.294C466.224 369.642 466.321 370.028 466.326 370.421V375.039C466.326 375.814 465.946 376.175 465.278 375.832Z" fill="#C2E7FF"/>
<path d="M450.792 367.481L446.456 364.973C446.136 364.746 445.874 364.446 445.692 364.098C445.51 363.75 445.413 363.364 445.409 362.971V358.353C445.409 357.578 445.878 357.217 446.456 357.56L450.792 360.067C451.112 360.295 451.374 360.595 451.556 360.943C451.738 361.291 451.836 361.677 451.84 362.069V366.687C451.84 367.463 451.37 367.805 450.792 367.481Z" fill="#3169B1"/>
<path d="M472.245 451.721L380.039 398.543C378.575 397.494 377.379 396.117 376.544 394.523C375.71 392.928 375.262 391.16 375.235 389.361V372.477C375.235 368.869 377.384 367.318 380.039 368.869L472.245 422.047C473.71 423.095 474.91 424.471 475.747 426.066C476.585 427.66 477.036 429.429 477.066 431.229V448.095C477.066 451.631 474.971 453.254 472.245 451.721Z" fill="white"/>
<path d="M465.278 436.803L460.942 434.296C460.622 434.068 460.36 433.768 460.178 433.42C459.996 433.072 459.899 432.686 459.895 432.293V427.657C459.895 426.882 460.364 426.539 460.942 426.864L465.278 429.371C465.598 429.599 465.86 429.899 466.042 430.247C466.224 430.595 466.321 430.981 466.326 431.373V435.991C466.326 436.785 465.946 437.128 465.278 436.803Z" fill="#C2E7FF"/>
<path d="M450.792 428.451L446.456 425.944C446.136 425.716 445.874 425.416 445.692 425.068C445.51 424.72 445.413 424.334 445.409 423.941V419.323C445.409 418.548 445.878 418.187 446.456 418.53L450.792 421.019C451.109 421.25 451.369 421.55 451.551 421.898C451.732 422.245 451.831 422.629 451.84 423.021V427.657C451.84 428.415 451.37 428.776 450.792 428.451Z" fill="#C2E7FF"/>
<path d="M517.862 268.81L565.102 241.752C566.567 240.7 567.765 239.32 568.599 237.722C569.433 236.125 569.881 234.354 569.906 232.552V215.686C569.906 212.078 567.757 210.509 565.102 212.078L517.862 239.136C516.396 240.184 515.196 241.56 514.359 243.155C513.522 244.749 513.07 246.518 513.04 248.318V265.202C513.04 268.719 515.207 270.343 517.862 268.81Z" fill="#3169B1"/>
<path d="M517.862 329.78L565.102 302.722C566.566 301.673 567.762 300.296 568.597 298.702C569.431 297.107 569.879 295.339 569.906 293.54V276.674C569.906 273.067 567.757 271.497 565.102 273.067L517.862 300.125C516.396 301.172 515.196 302.549 514.359 304.143C513.522 305.738 513.07 307.506 513.04 309.306V326.19C513.04 329.69 515.207 331.313 517.862 329.78Z" fill="#3169B1"/>
<path d="M517.862 390.751L565.102 363.693C566.566 362.644 567.762 361.267 568.597 359.672C569.431 358.078 569.879 356.31 569.906 354.511V337.645C569.906 334.037 567.757 332.468 565.102 334.037L517.862 361.095C516.396 362.143 515.196 363.519 514.359 365.114C513.522 366.708 513.07 368.477 513.04 370.277V387.143C513.04 390.66 515.207 392.284 517.862 390.751Z" fill="#3169B1"/>
<path d="M517.862 451.721L565.102 424.663C566.566 423.614 567.762 422.237 568.597 420.643C569.431 419.048 569.879 417.28 569.906 415.481V398.597C569.906 394.99 567.757 393.438 565.102 394.99L517.862 422.047C516.396 423.095 515.196 424.472 514.359 426.066C513.522 427.661 513.07 429.429 513.04 431.229V448.095C513.04 451.631 515.207 453.254 517.862 451.721Z" fill="#3169B1"/>
<path d="M532.071 250.482L536.406 247.993C536.724 247.762 536.983 247.462 537.165 247.114C537.347 246.767 537.446 246.383 537.454 245.991V241.355C537.454 240.597 536.984 240.236 536.406 240.561L532.071 243.069C531.75 243.296 531.488 243.596 531.306 243.944C531.124 244.292 531.027 244.678 531.023 245.071V249.689C530.951 250.464 531.493 250.879 532.071 250.482Z" fill="white"/>
<path d="M546.555 242.13L550.89 239.623C551.21 239.396 551.472 239.095 551.654 238.747C551.837 238.399 551.934 238.013 551.938 237.621V233.003C551.938 232.227 551.468 231.885 550.89 232.209L546.555 234.717C546.234 234.944 545.972 235.244 545.79 235.592C545.608 235.94 545.511 236.326 545.507 236.719V241.337C545.507 242.112 545.977 242.455 546.555 242.13Z" fill="white"/>
<path d="M532.071 310.984L536.406 308.494C536.724 308.264 536.983 307.963 537.165 307.616C537.347 307.268 537.446 306.884 537.454 306.492V301.856C537.454 301.098 536.984 300.738 536.406 301.062L532.071 303.57C531.75 303.797 531.488 304.097 531.306 304.445C531.124 304.793 531.027 305.179 531.023 305.572V310.19C530.951 310.966 531.493 311.326 532.071 310.984Z" fill="white"/>
<path d="M546.555 302.632L550.89 300.124C551.21 299.897 551.472 299.597 551.654 299.249C551.837 298.901 551.934 298.515 551.938 298.122V293.504C551.938 292.729 551.468 292.386 550.89 292.71L546.555 295.218C546.234 295.445 545.972 295.745 545.79 296.093C545.608 296.441 545.511 296.827 545.507 297.22V301.838C545.507 302.614 545.977 302.956 546.555 302.632Z" fill="white"/>
<path d="M532.076 372.513L536.375 369.934C536.696 369.706 536.958 369.406 537.14 369.058C537.322 368.71 537.419 368.324 537.423 367.932V363.314C537.423 362.538 536.953 362.195 536.375 362.52L532.04 365.027C531.719 365.255 531.457 365.555 531.275 365.903C531.093 366.251 530.996 366.637 530.992 367.03V371.738C530.956 372.495 531.498 372.838 532.076 372.513Z" fill="white"/>
<path d="M546.555 364.162L550.89 361.654C551.21 361.427 551.472 361.127 551.654 360.779C551.837 360.431 551.934 360.045 551.938 359.652V355.034C551.938 354.259 551.468 353.898 550.89 354.241L546.555 356.73C546.237 356.96 545.978 357.261 545.796 357.609C545.614 357.956 545.515 358.34 545.507 358.732V363.368C545.507 364.144 545.977 364.523 546.555 364.162Z" fill="white"/>
<path d="M532.076 433.069L536.411 430.562C536.731 430.334 536.993 430.034 537.175 429.686C537.358 429.338 537.455 428.952 537.459 428.559V424.05C537.459 423.274 536.989 422.931 536.411 423.256L532.076 425.763C531.756 425.972 531.489 426.252 531.295 426.58C531.101 426.908 530.984 427.277 530.956 427.657V432.275C530.956 433.069 531.497 433.484 532.076 433.069Z" fill="white"/>
<path d="M546.557 424.789L550.82 422.246C551.141 422.018 551.403 421.718 551.585 421.37C551.767 421.022 551.864 420.636 551.868 420.244V415.626C551.868 414.85 551.398 414.489 550.82 414.832L546.485 417.339C546.164 417.567 545.902 417.867 545.72 418.215C545.538 418.563 545.441 418.949 545.437 419.342V424.05C545.509 424.771 545.979 425.114 546.557 424.789Z" fill="white"/>
<path d="M390.314 552.809C374.062 562.189 347.715 562.189 331.462 552.809C315.21 543.429 315.21 528.24 331.462 518.878C347.715 509.516 374.062 509.498 390.314 518.878C406.567 528.258 406.567 543.447 390.314 552.809Z" fill="#3169B1"/>
<path d="M380.043 521.26C378.831 520.565 377.57 519.962 376.268 519.456V519.456L369.045 516.227L369.587 517.49C363.956 516.402 358.174 516.341 352.522 517.309L352.865 515.902L344.305 519.69C343.214 520.159 342.147 520.683 341.109 521.26C330.364 527.465 330.364 537.494 341.109 543.7C351.854 549.905 369.28 549.905 380.025 543.7C390.769 537.494 390.805 527.465 380.043 521.26Z" fill="#39BDE5"/>
<path d="M369.711 527.104C366.885 528.537 363.761 529.283 360.592 529.283C357.423 529.283 354.299 528.537 351.473 527.104C346.434 524.2 346.434 519.492 351.473 516.588C354.299 515.155 357.423 514.409 360.592 514.409C363.761 514.409 366.885 515.155 369.711 516.588C374.75 519.492 374.75 524.2 369.711 527.104Z" fill="#39BDE5"/>
<path d="M360.594 523.857C359.43 523.857 358.314 523.395 357.491 522.573C356.668 521.751 356.206 520.636 356.206 519.474V464.114H364.982V519.474C364.982 520.636 364.52 521.751 363.697 522.573C362.874 523.395 361.758 523.857 360.594 523.857Z" fill="#39BDE5"/>
<path d="M363.683 466.134C362.699 466.623 361.614 466.878 360.514 466.878C359.414 466.878 358.33 466.623 357.345 466.134C356.979 465.994 356.664 465.747 356.441 465.425C356.219 465.103 356.1 464.721 356.1 464.33C356.1 463.939 356.219 463.556 356.441 463.234C356.664 462.912 356.979 462.665 357.345 462.526C358.327 462.028 359.413 461.769 360.514 461.769C361.615 461.769 362.701 462.028 363.683 462.526C364.042 462.672 364.349 462.922 364.565 463.243C364.782 463.564 364.897 463.943 364.897 464.33C364.897 464.717 364.782 465.095 364.565 465.417C364.349 465.738 364.042 465.987 363.683 466.134Z" fill="#39BDE5"/>
<path d="M360.596 466.025C359.638 466.025 358.719 465.645 358.042 464.969C357.364 464.292 356.984 463.374 356.984 462.418V410.43H364.099V462.472C364.085 463.401 363.714 464.289 363.061 464.951C362.408 465.613 361.525 465.998 360.596 466.025V466.025Z" fill="#39BDE5"/>
<path d="M411.77 437.705V435.667L414.641 435.252L417.874 432.835C418.192 432.639 418.554 432.528 418.927 432.512C419.3 432.496 419.671 432.576 420.005 432.744L422.37 434.133L424.736 433.791V435.847C424.709 435.991 424.645 436.125 424.55 436.235C424.455 436.346 424.332 436.43 424.194 436.478L416.664 439.816C416.355 439.958 416.019 440.032 415.68 440.032C415.34 440.032 415.004 439.958 414.695 439.816L412.203 438.372C412.082 438.32 411.977 438.235 411.901 438.127C411.824 438.018 411.779 437.891 411.77 437.759V437.705Z" fill="#39BDE5"/>
<path d="M412.006 435.107L417.802 430.778C418.126 430.591 418.494 430.493 418.868 430.493C419.242 430.493 419.609 430.591 419.933 430.778L424.249 433.267C424.863 433.61 424.791 434.187 424.123 434.494L416.592 437.831C416.284 437.973 415.948 438.047 415.608 438.047C415.268 438.047 414.933 437.973 414.624 437.831L412.132 436.388C411.59 435.937 411.536 435.45 412.006 435.107Z" fill="#F7FAFC"/>
<path d="M402.217 444.938C403.028 444.952 403.83 444.76 404.546 444.379L413.576 439.166C413.815 439.027 413.99 438.799 414.061 438.532C414.132 438.265 414.094 437.98 413.955 437.741C413.816 437.502 413.588 437.327 413.32 437.256C413.053 437.185 412.768 437.223 412.528 437.362L403.499 442.557C403.098 442.744 402.66 442.841 402.217 442.841C401.774 442.841 401.336 442.744 400.935 442.557L385.964 433.881C385.846 433.792 385.709 433.729 385.564 433.697C385.419 433.665 385.269 433.664 385.124 433.694C384.978 433.724 384.841 433.785 384.721 433.872C384.601 433.96 384.501 434.071 384.427 434.2C384.353 434.329 384.308 434.472 384.294 434.62C384.28 434.768 384.298 434.917 384.346 435.057C384.394 435.197 384.471 435.326 384.573 435.434C384.675 435.542 384.798 435.628 384.935 435.685L399.905 444.343C400.608 444.747 401.407 444.952 402.217 444.938Z" fill="#39BDE5"/>
<path d="M315.591 425.907L330.056 417.501L321.948 413.84L315.013 418.764L315.591 425.907Z" fill="url(#paint0_radial_416_12095)"/>
<path d="M408.501 413.443C407.653 412.997 406.838 412.49 406.063 411.927L375.237 389.361C369.675 385.284 363.933 384.22 359.509 386.475C359.382 386.475 359.292 386.619 359.184 386.673L316.566 411.422L320.394 412.703L335.31 419.449L355.59 433.88L371.59 442.376L372.33 442.521C376.05 439.382 380.24 436.694 382.533 432.113C386.488 425.186 397.521 423.201 404.022 417.573C404.672 417.988 405.323 418.385 405.973 418.728C407.168 417.157 408.029 415.358 408.501 413.443Z" fill="#3169B1"/>
<path d="M422.011 403.251C421.356 403.24 420.718 403.457 420.206 403.864V403.864L378.545 427.946L380.062 434.169L381.633 433.43C379.249 437.146 375.583 439.581 372.279 442.449L376.974 443.441L417.786 419.738L418.346 419.486C418.899 419.204 419.425 418.872 419.917 418.494C423.023 416.095 424.774 411.928 424.774 406.715V406.228C424.789 405.851 424.729 405.475 424.598 405.121C424.467 404.768 424.267 404.444 424.011 404.167C423.754 403.891 423.445 403.668 423.102 403.51C422.759 403.353 422.389 403.265 422.011 403.251V403.251Z" fill="#F7FAFC"/>
<path d="M364.962 385.321C367.868 385.507 370.68 386.419 373.142 387.972C370.68 386.419 367.868 385.507 364.962 385.321V385.321Z" fill="#E4E7E9"/>
<path d="M383.942 429.894V429.461C383.973 429.067 383.922 428.67 383.793 428.296C383.663 427.922 383.457 427.579 383.188 427.288C382.92 426.997 382.593 426.765 382.23 426.606C381.867 426.448 381.476 426.366 381.079 426.366C380.683 426.366 380.291 426.448 379.928 426.606C379.565 426.765 379.239 426.997 378.97 427.288C378.701 427.579 378.496 427.922 378.366 428.296C378.236 428.67 378.186 429.067 378.217 429.461V429.948C378.217 433.772 376.989 436.568 374.876 437.651C372.474 438.859 368.827 437.975 365.125 435.252L334.281 412.685C329.55 409.222 324.692 407.959 320.611 409.078L346.073 394.322L316.566 411.423L320.394 412.703L335.31 419.45L355.59 433.881L371.59 442.377L372.33 442.521C376.05 439.382 380.24 436.695 382.533 432.113C382.937 431.429 383.402 430.783 383.923 430.183C383.923 430.183 383.942 429.948 383.942 429.894Z" fill="#C2E7FF"/>
<path d="M371.586 444.776C367.668 444.594 363.907 443.18 360.842 440.735L330.016 418.169C326.404 415.463 322.666 414.561 320.265 415.788C318.152 416.852 316.924 419.666 316.924 423.49C316.866 424.209 316.54 424.88 316.01 425.37C315.479 425.859 314.784 426.131 314.061 426.131C313.339 426.131 312.644 425.859 312.113 425.37C311.583 424.88 311.256 424.209 311.199 423.49C311.199 417.429 313.565 412.757 317.682 410.683C322.106 408.428 327.849 409.492 333.411 413.551L364.237 436.117C367.848 438.841 371.586 439.725 373.988 438.516C376.101 437.452 377.329 434.638 377.329 430.814V430.327C377.297 429.932 377.348 429.536 377.478 429.162C377.607 428.788 377.813 428.444 378.082 428.154C378.351 427.863 378.677 427.631 379.04 427.472C379.403 427.313 379.795 427.232 380.191 427.232C380.587 427.232 380.979 427.313 381.342 427.472C381.705 427.631 382.031 427.863 382.3 428.154C382.569 428.444 382.775 428.788 382.904 429.162C383.034 429.536 383.085 429.932 383.053 430.327V430.814C383.053 436.875 380.688 441.529 376.57 443.621C375.025 444.398 373.316 444.794 371.586 444.776Z" fill="#39BDE5"/>
<path d="M347.358 495.23C347.358 495.23 341.544 492.308 337.986 496.655C334.429 501.002 329.318 511.302 329.174 518.301C329.029 525.3 334.591 524.777 338.04 523.136C341.489 521.494 351.223 507.244 351.819 504.448C352.047 503.182 352.019 501.884 351.737 500.629C351.455 499.374 350.924 498.189 350.175 497.142C349.236 496.348 347.358 495.23 347.358 495.23Z" fill="#F7FAFC"/>
<path d="M348.567 493.823L348.838 499.848C348.869 500.474 348.728 501.096 348.428 501.646C348.129 502.197 347.683 502.654 347.141 502.968C345.774 503.712 344.189 503.955 342.662 503.654C338.292 502.95 337.895 501.706 337.588 495.699C337.281 489.692 348.567 493.823 348.567 493.823Z" fill="#39BDE5"/>
<path d="M326.102 483.667C326.102 483.667 320.305 480.745 316.73 485.11C313.154 489.476 308.062 499.74 307.917 506.757C307.773 513.774 313.335 513.233 316.784 511.591C320.233 509.95 329.985 495.699 330.562 492.921C330.791 491.655 330.763 490.357 330.481 489.102C330.198 487.848 329.667 486.662 328.919 485.615C327.98 484.804 326.102 483.667 326.102 483.667Z" fill="#F7FAFC"/>
<path d="M327.364 482.278L327.634 488.285C327.668 488.911 327.527 489.534 327.227 490.085C326.928 490.636 326.481 491.093 325.937 491.406C324.573 492.158 322.988 492.407 321.458 492.109C317.088 491.406 316.691 490.161 316.384 484.154C316.077 478.148 327.364 482.278 327.364 482.278Z" fill="#39BDE5"/>
<path d="M379.265 371.954C377.549 344.031 348.981 376.067 348.981 376.067L329.352 395.188L311.745 414.507C310.048 416.372 308.778 418.584 308.023 420.989C307.268 423.394 307.047 425.934 307.375 428.433L314.49 482.549C314.682 483.843 315.336 485.023 316.332 485.872C317.328 486.721 318.598 487.181 319.907 487.167C320.791 487.159 321.672 487.081 322.544 486.932C324.243 486.75 325.805 485.917 326.903 484.609C328 483.3 328.548 481.618 328.431 479.915L327.13 429.263L364.096 407.003C364.096 407.003 380.89 399.896 379.265 371.954Z" fill="#C2E7FF"/>
<path d="M400.428 382.561C398.712 354.637 370.144 386.674 370.144 386.674L350.605 405.812L332.998 425.132C331.3 426.996 330.029 429.208 329.275 431.613C328.52 434.018 328.299 436.559 328.628 439.058L335.743 493.173C335.935 494.467 336.589 495.648 337.585 496.496C338.581 497.345 339.851 497.805 341.16 497.791C342.044 497.784 342.926 497.705 343.797 497.557C345.494 497.37 347.054 496.536 348.151 495.229C349.247 493.921 349.797 492.242 349.684 490.54L348.384 439.887L385.349 417.628C385.349 417.628 402.143 410.539 400.428 382.561Z" fill="#C2E7FF"/>
<path d="M383.527 292.945C405.197 301.965 404.746 314.7 404.746 314.7C404.746 314.7 400.52 361.6 401.965 392.879C402.561 405.975 332.35 406.967 342.824 372.044C355.176 330.88 350.535 297.563 356.313 292.53C362.092 287.498 377.929 290.564 383.527 292.945Z" fill="#3169B1"/>
<path d="M390.475 304.256C391.607 299.866 387.686 295.063 381.717 293.527C375.748 291.992 369.992 294.306 368.86 298.696C367.729 303.086 371.65 307.889 377.619 309.424C383.588 310.959 389.344 308.645 390.475 304.256Z" fill="white"/>
<path d="M381.32 310.966C380.014 310.939 378.716 310.751 377.455 310.407C374.502 309.696 371.848 308.074 369.871 305.771C368.954 304.808 368.298 303.628 367.964 302.342C367.63 301.056 367.629 299.706 367.962 298.419C368.294 297.133 368.949 295.952 369.864 294.988C370.779 294.024 371.925 293.309 373.194 292.909C376.049 291.896 379.143 291.758 382.077 292.514C385.012 293.269 387.653 294.883 389.663 297.148C390.585 298.108 391.246 299.286 391.584 300.573C391.922 301.859 391.926 303.21 391.595 304.498C391.264 305.786 390.609 306.968 389.693 307.933C388.776 308.897 387.629 309.612 386.358 310.01C384.758 310.655 383.046 310.98 381.32 310.966V310.966ZM378.033 294.172C376.607 294.158 375.192 294.416 373.862 294.929C372.896 295.211 372.02 295.74 371.321 296.462C370.622 297.185 370.122 298.077 369.873 299.051C369.623 300.025 369.632 301.046 369.897 302.016C370.163 302.985 370.677 303.869 371.388 304.58C373.124 306.498 375.388 307.864 377.896 308.505C380.404 309.147 383.046 309.036 385.491 308.188C386.459 307.911 387.337 307.387 388.039 306.667C388.741 305.947 389.242 305.056 389.494 304.083C389.746 303.11 389.739 302.088 389.474 301.119C389.209 300.149 388.695 299.266 387.983 298.555C386.288 296.586 384.013 295.203 381.482 294.605C380.356 294.314 379.197 294.168 378.033 294.172V294.172Z" fill="#C2E7FF"/>
<path d="M374.858 291.971C374.974 294.546 374.908 297.126 374.659 299.692C374.551 301.838 382.099 303.859 384.05 301.911C386 299.962 385.223 297.924 385.693 290.6C386.163 283.277 374.858 291.971 374.858 291.971Z" fill="white"/>
<path d="M385.692 290.564C385.692 290.564 383.886 297.365 374.658 299.962L374.803 293.793L385.692 290.564Z" fill="#C2E7FF"/>
<path d="M391.506 273.319C392.329 276.507 392.187 279.867 391.099 282.975C390.011 286.083 388.025 288.798 385.392 290.779C382.758 292.759 379.597 293.915 376.306 294.101C373.015 294.287 369.743 293.493 366.903 291.822C364.064 290.15 361.784 287.675 360.353 284.709C358.921 281.744 358.402 278.421 358.861 275.16C359.319 271.9 360.735 268.849 362.93 266.392C365.125 263.936 367.999 262.184 371.19 261.359C375.471 260.257 380.016 260.898 383.825 263.14C387.634 265.383 390.396 269.043 391.506 273.319V273.319Z" fill="white"/>
<path d="M379.267 278.099C379.267 278.099 370.093 282.031 363.736 282.067C357.38 282.104 358.77 276.8 358.77 276.8L377.641 274.076L379.267 278.099Z" fill="#C2E7FF"/>
<path d="M361.764 279.127C361.764 279.127 369.764 275.736 376.771 277.161C378.461 277.493 379.982 278.405 381.069 279.741C381.383 280.184 381.833 280.513 382.351 280.679C383.597 280.949 385.619 275.79 388.039 275.682C390.459 275.574 392.066 277.269 390.098 280.444C388.13 283.619 388.78 287.155 389.683 287.66C390.585 288.165 400.283 280.769 391.741 263.885C383.2 247.001 361.53 256.11 358.171 259.52C358.171 259.52 354.559 262.622 351.724 259.862C351.67 259.79 348.437 284.016 361.764 279.127Z" fill="#3169B1"/>
<path d="M392.609 348.955V361.582C392.608 362.3 392.457 363.01 392.165 363.665C391.872 364.321 391.445 364.908 390.911 365.388L364.817 389.145L367.778 393.673L402.18 368.743C402.975 368.169 403.64 367.433 404.131 366.585C404.623 365.736 404.93 364.794 405.033 363.819L407.344 341.74L392.609 348.955Z" fill="#C2E7FF"/>
<path d="M402.915 308.368C402.915 308.368 410.825 320.237 413.75 351.48C413.75 351.48 400.242 355.846 392.586 353.284C384.929 350.723 402.915 308.368 402.915 308.368Z" fill="#3169B1"/>
<path d="M391.165 323.376C391.165 323.376 388.076 339.918 387.895 347.692C387.865 348.732 388.165 349.754 388.752 350.613C389.34 351.471 390.184 352.122 391.165 352.472V323.376Z" fill="#3169B1"/>
<path d="M384.416 405.614L378.655 404.857L341.491 383.427C340.753 383.095 339.947 382.941 339.138 382.975C338.33 383.01 337.54 383.232 336.832 383.625L310.503 398.796L307.018 398.345V401.808C307.026 402.065 307.107 402.315 307.25 402.529C307.394 402.743 307.595 402.912 307.831 403.017L349.943 427.315C350.678 427.646 351.481 427.801 352.287 427.766C353.093 427.732 353.879 427.509 354.584 427.116L383.278 410.593C383.598 410.467 383.875 410.252 384.076 409.974C384.278 409.696 384.396 409.366 384.416 409.024V409.024V405.614Z" fill="#3169B1"/>
<path d="M356.48 392.067L353.843 390.552H324.824L310.503 398.796L307.018 398.345V401.808C307.026 402.065 307.107 402.315 307.25 402.529C307.394 402.743 307.595 402.912 307.831 403.017L349.943 427.315C350.685 427.686 351.517 427.843 352.344 427.766L356.48 392.067Z" fill="#3169B1"/>
<path d="M308.572 398.543L307.018 398.344V401.808C307.026 402.065 307.107 402.315 307.251 402.529C307.394 402.743 307.595 402.912 307.831 403.016L308.572 403.449V398.543Z" fill="#3169B1"/>
<path d="M350.371 427.513C351.668 427.926 353.074 427.836 354.309 427.26V421.38H350.371V427.513Z" fill="#3169B1"/>
<path d="M349.941 423.851L307.829 399.571C306.637 398.868 306.782 397.677 308.154 396.883L336.831 380.342C337.539 379.951 338.33 379.73 339.139 379.699C339.948 379.668 340.753 379.826 341.49 380.162L383.602 404.442C384.794 405.127 384.649 406.336 383.277 407.129L354.582 423.671C353.875 424.058 353.088 424.276 352.283 424.307C351.477 424.338 350.676 424.182 349.941 423.851V423.851Z" fill="#F7FAFC"/>
<path d="M349.235 420.171L314.256 399.968C313.263 399.409 313.39 398.398 314.545 397.749L329.913 389.109C330.501 388.787 331.156 388.605 331.826 388.577C332.496 388.549 333.164 388.675 333.777 388.946L368.792 409.149C369.786 409.727 369.659 410.719 368.522 411.386L353.154 420.009C352.561 420.347 351.896 420.539 351.214 420.567C350.532 420.595 349.854 420.459 349.235 420.171V420.171Z" fill="#39BDE5"/>
<path d="M338.472 379.548L338.02 382.452C337.653 384.928 337.72 387.449 338.219 389.902L338.743 392.464C338.888 393.164 339.239 393.806 339.75 394.307C340.261 394.808 340.91 395.146 341.614 395.278C341.888 395.33 342.169 395.323 342.44 395.257C342.711 395.192 342.965 395.07 343.185 394.9C343.406 394.729 343.587 394.514 343.718 394.268C343.848 394.022 343.925 393.752 343.944 393.474L344.648 387.269C344.648 387.269 346.237 389.343 346.995 389.343C347.754 389.343 346.147 383.138 344.413 379.62C342.679 376.103 338.472 379.548 338.472 379.548Z" fill="#C2E7FF"/>
<path d="M352.734 333.406L348.219 342.425C347.172 344.543 346.558 346.849 346.413 349.208L344.463 379.765L338.522 379.621L335.813 345.347C335.723 344.293 335.778 343.23 335.976 342.191L339.045 324.783L352.734 333.406Z" fill="#C2E7FF"/>
<path d="M348.564 426.196L344.953 421.578L307.825 400.095C307.169 399.625 306.633 399.008 306.259 398.294C305.886 397.58 305.686 396.788 305.676 395.982V365.605L303.545 362.827L305.549 361.672C305.768 361.532 306.021 361.458 306.281 361.458C306.54 361.458 306.794 361.532 307.012 361.672L349.142 386.169C349.798 386.638 350.334 387.255 350.707 387.969C351.081 388.684 351.281 389.476 351.291 390.282V423.364C351.348 423.71 351.303 424.064 351.162 424.384C351.021 424.704 350.79 424.977 350.497 425.168L348.564 426.196Z" fill="#3169B1"/>
<path d="M322.829 408.771L320.193 407.238L305.746 382.11V365.605L303.615 362.827L305.62 361.672C305.838 361.532 306.092 361.458 306.351 361.458C306.61 361.458 306.864 361.532 307.082 361.672L349.14 386.169C349.831 386.607 350.382 387.232 350.729 387.973L322.829 408.771Z" fill="#3169B1"/>
<path d="M304.541 364.053L303.584 362.827L305.589 361.672C305.807 361.532 306.061 361.458 306.321 361.458C306.58 361.458 306.834 361.532 307.052 361.672L307.793 362.105L304.541 364.053Z" fill="#3169B1"/>
<path d="M349.526 386.367C350.582 387.284 351.231 388.581 351.332 389.974L347.232 392.355L345.245 388.928L349.526 386.367Z" fill="#3169B1"/>
<path d="M347.14 387.251L305.046 362.917C303.855 362.214 302.897 362.917 302.897 364.541V397.623C302.904 398.43 303.102 399.224 303.475 399.939C303.849 400.654 304.387 401.27 305.046 401.736L347.122 426.07C348.314 426.774 349.289 426.07 349.289 424.447V391.382C349.279 390.574 349.079 389.779 348.706 389.062C348.333 388.344 347.797 387.724 347.14 387.251V387.251Z" fill="#F7FAFC"/>
<path d="M367.832 393.672L367.146 395.061C366.373 396.667 365.158 398.018 363.643 398.958L359.399 401.537C358.755 401.922 358.019 402.125 357.268 402.125C356.518 402.125 355.781 401.922 355.137 401.537H354.993C354.685 401.33 354.427 401.057 354.238 400.738C354.049 400.419 353.933 400.062 353.898 399.693C353.864 399.323 353.911 398.951 354.038 398.602C354.165 398.254 354.368 397.938 354.632 397.677L359.002 393.185C359.002 393.185 356.546 394.989 355.86 394.304C355.173 393.618 358.243 391.039 360.464 390.949C362.055 390.762 363.561 390.138 364.817 389.145L367.832 393.672Z" fill="#C2E7FF"/>
<path d="M356.744 292.458C356.744 292.458 340.726 309.865 334.279 325.847C338.664 332.583 345.384 337.465 353.15 339.557C366.622 343.435 356.744 292.458 356.744 292.458Z" fill="#3169B1"/>
<path d="M350.141 338.528L352.742 313.491L346.618 336.941C347.726 337.518 348.9 338.047 350.141 338.528Z" fill="#3169B1"/>
<path d="M368.753 288.959L364.437 287.768C365.648 289.623 367.419 291.045 369.493 291.827C372.491 292.638 372.961 290.113 372.961 290.113L368.753 288.959Z" fill="#39BDE5"/>
<path d="M61.0593 557.788C79.4402 557.788 94.3408 549.194 94.3408 538.594C94.3408 527.994 79.4402 519.401 61.0593 519.401C42.6785 519.401 27.7778 527.994 27.7778 538.594C27.7778 549.194 42.6785 557.788 61.0593 557.788Z" fill="#3169B1"/>
<path d="M57.0276 523.712C57.5152 524.903 65.7859 534.969 74.0566 537.476C76.4852 538.345 79.0677 538.701 81.6411 538.522C82.0131 538.477 82.37 538.348 82.6853 538.146C83.0007 537.944 83.2662 537.673 83.4624 537.354C83.6585 537.035 83.78 536.676 83.818 536.304C83.856 535.931 83.8094 535.555 83.6817 535.203C80.8661 527.543 75.181 521.276 67.8265 517.724C53.7952 510.779 57.0276 523.712 57.0276 523.712Z" fill="#F7FAFC"/>
<path d="M54.2836 527.573C56.0915 531.891 57.453 536.382 58.3468 540.976C58.9427 544.71 56.884 549.544 55.2046 552.755C54.9585 553.227 54.6066 553.635 54.1763 553.947C53.746 554.26 53.2491 554.469 52.7245 554.559C52.1998 554.648 51.6617 554.614 51.1521 554.461C50.6425 554.308 50.1753 554.039 49.7871 553.675C46.015 550.402 43.6164 545.829 43.0694 540.868C42.1123 530.568 43.0694 528.782 43.0694 528.782L54.2836 527.573Z" fill="#F7FAFC"/>
<path d="M34.3603 403.143C33.7191 412.247 33.7191 421.385 34.3603 430.489C35.4258 444.92 39.2903 512.042 40.0126 528.204C40.0126 528.204 39.6514 533.093 49.132 532.01C58.6127 530.928 57.8542 525.516 57.8542 525.516C57.8542 525.516 71.1632 525.336 71.5966 517.489C72.03 509.643 85.2306 423.851 85.2306 393.023L34.3603 403.143Z" fill="#3169B1"/>
<path d="M80.6528 336.094L88.3457 383.03L95.3162 382.904L94.6841 339.9L80.6528 336.094Z" fill="white"/>
<path d="M77.438 294.551C77.438 294.551 87.8035 294.28 91.4151 309.252C95.0268 324.224 97.8439 342.876 94.7017 344.499C85.2753 349.171 79.316 343.706 79.316 343.706L77.438 294.551Z" fill="#3169B1"/>
<path d="M80.5394 295.182C78.7617 294.451 76.7884 294.343 74.9413 294.875C66.1108 297.419 32.9015 307.142 27.4298 311.814C21.1094 317.225 36.9105 347.548 36.6938 357.487C36.4771 367.426 35.3394 379.134 34.4545 389.957C33.5697 400.78 32.3959 406.696 41.2445 411.296C50.093 415.896 65.2079 416.095 76.5304 407.49C87.853 398.886 85.7763 393.059 85.3068 386.728C84.8372 380.396 80.9908 353.447 81.3159 345.762C84.102 343.559 86.4587 340.862 88.2683 337.807C91.2118 332.774 85.993 323.521 83.826 317.514C81.659 311.507 85.054 304.634 84.3858 299.728C84.2361 298.686 83.796 297.707 83.1158 296.903C82.4357 296.099 81.5428 295.503 80.5394 295.182V295.182Z" fill="#3169B1"/>
<path d="M69.9195 305.536C70.6238 310.948 65.6035 316.143 58.7053 317.009C51.807 317.875 45.6672 314.177 44.9629 308.729C44.2586 303.281 49.2788 298.122 56.1771 297.238C63.0754 296.355 69.2152 300.07 69.9195 305.536Z" fill="#C2E7FF"/>
<path d="M58.3418 314.184C63.2682 313.554 66.8561 309.879 66.3555 305.975C65.855 302.072 61.4555 299.419 56.529 300.049C51.6026 300.68 48.0147 304.355 48.5152 308.258C49.0158 312.161 53.4153 314.815 58.3418 314.184Z" fill="white"/>
<path d="M51.5059 306.794L53.236 295.032L62.2373 296.574L64.1367 307.86L51.5059 306.794Z" fill="white"/>
<path d="M108.5 293.162C108.5 293.162 102.504 288.237 101.276 290.727C100.048 293.216 99.1274 303.931 99.1274 303.931L111.028 307.124L109.222 296.301C109.222 296.301 111.66 294.262 108.5 293.162Z" fill="white"/>
<path d="M53.4706 293.829C53.3622 294.388 53.2539 295.002 53.1636 295.633C54.3554 301.802 63.6193 304.508 63.6193 304.508L62.2469 296.3C62.2469 296.3 63.3665 295.344 63.0415 294.496C59.3937 293.234 54.7888 292.206 53.4706 293.829Z" fill="#C2E7FF"/>
<path d="M80.0726 281.436C79.8664 284.941 78.6242 288.307 76.5032 291.106C74.3821 293.906 71.4774 296.014 68.1566 297.165C64.8358 298.315 61.248 298.456 57.847 297.57C54.446 296.683 51.3846 294.809 49.05 292.184C46.7155 289.56 45.2127 286.302 44.7316 282.824C44.2506 279.346 44.813 275.804 46.3477 272.645C47.8824 269.486 50.3204 266.853 53.3534 265.079C56.3864 263.304 59.878 262.468 63.3867 262.676C65.7161 262.812 67.9958 263.405 70.0955 264.422C72.1951 265.438 74.0735 266.858 75.6233 268.601C77.173 270.343 78.3637 272.374 79.1271 274.576C79.8906 276.779 80.2119 279.11 80.0726 281.436Z" fill="white"/>
<path d="M18.5449 355.539L20.5313 403.035L27.4838 403.757L32.0164 360.987L18.5449 355.539Z" fill="white"/>
<path d="M41.3882 351.571C39.0947 341.415 34.544 319.101 34.544 319.101L32.5938 341.397C34.851 347.999 36.7652 354.024 36.693 357.632C36.5485 363.476 36.1151 369.934 35.5914 376.446C35.5914 376.446 43.6996 361.708 41.3882 351.571Z" fill="#3169B1"/>
<path d="M75.8894 310.839C75.8894 310.839 70.3274 312.968 67.1853 330.032C64.0431 347.097 61.5872 364.161 67.2033 366.326C72.8195 368.491 77.4966 370.168 79.1399 365.605C80.7832 361.041 81.8125 339.07 82.0292 331.169C82.2459 323.268 82.5349 312.409 75.8894 310.839Z" fill="#3169B1"/>
<path d="M57.856 525.517C59.1337 525.466 60.4069 525.334 61.6676 525.12V525.12L64.2689 420.676L57.856 525.517Z" fill="#084EA8"/>
<path d="M47.8031 469.146L44.1915 464.33L5.18551 441.781C4.49937 441.285 3.93936 440.635 3.55047 439.883C3.16157 439.131 2.95464 438.298 2.94628 437.452V405.632L0.743164 402.728L2.83793 401.501C3.07633 401.37 3.34687 401.31 3.61842 401.325C3.88997 401.341 4.15149 401.434 4.37289 401.592L48.4532 427.098C49.1403 427.591 49.7023 428.237 50.0943 428.986C50.4862 429.735 50.6973 430.565 50.7105 431.409V466.061C50.7487 466.409 50.6915 466.761 50.5452 467.078C50.3989 467.396 50.1689 467.668 49.8799 467.865L47.8031 469.146Z" fill="#3169B1"/>
<path d="M20.8963 450.855L18.1333 449.304L2.96434 422.985V405.686L0.743164 402.728L2.83793 401.501C3.07633 401.37 3.34687 401.31 3.61842 401.325C3.88997 401.341 4.15149 401.434 4.37289 401.592L48.4532 427.098C49.1851 427.572 49.7626 428.249 50.1146 429.046L20.8963 450.855Z" fill="#3169B1"/>
<path d="M1.76747 404.009L0.773926 402.728L2.86941 401.501C3.10789 401.37 3.37852 401.31 3.65016 401.325C3.9218 401.341 4.18341 401.434 4.40489 401.592L5.18166 402.042L1.76747 404.009Z" fill="#3169B1"/>
<path d="M48.8506 427.387C49.9168 428.334 50.5659 429.663 50.657 431.085L46.3577 433.574L44.2803 429.966L48.8506 427.387Z" fill="#3169B1"/>
<path d="M46.3557 428.307L2.25729 402.818C1.01127 402.097 0 402.818 0 404.514V439.166C0.0132399 440.011 0.224296 440.841 0.616272 441.589C1.00825 442.338 1.57025 442.985 2.25729 443.477L46.3376 468.984C47.5837 469.706 48.613 468.984 48.613 467.18V432.546C48.5886 431.714 48.3723 430.898 47.9808 430.163C47.5892 429.427 47.0331 428.792 46.3557 428.307V428.307Z" fill="#C2E7FF"/>
<path d="M20.59 402.638C20.59 402.638 18.7841 413.731 19.037 417.285C19.2898 420.839 21.204 426.683 22.6486 426.575C24.0933 426.467 22.6486 412.288 25.231 413.695C27.8133 415.102 28.0481 417.52 29.1857 416.672C30.3234 415.824 27.1813 403.72 28.03 398.471C28.8787 393.222 20.59 402.638 20.59 402.638Z" fill="white"/>
<path fill-rule="evenodd" clip-rule="evenodd" d="M76.4322 416.129L72.9078 414.1C73.7512 414.701 74.2882 415.394 74.7062 415.934C75.2722 416.665 75.6202 417.115 76.2151 416.672C76.3248 416.59 76.3946 416.404 76.4322 416.129ZM72.069 413.617L71.9504 413.549C71.9125 413.522 71.8955 413.543 71.8921 413.598C71.9486 413.595 72.0075 413.601 72.069 413.617Z" fill="#3169B1"/>
<path d="M95.3146 382.904C95.3146 382.904 97.1204 393.997 96.8857 397.551C96.6509 401.105 94.7006 406.949 93.274 406.823C91.8474 406.697 93.274 392.554 90.6917 393.961C88.1093 395.368 87.8746 397.786 86.6466 396.992C85.4186 396.198 88.6511 384.022 87.8204 378.791C86.9897 373.56 95.3146 382.904 95.3146 382.904Z" fill="white"/>
<path d="M69.1617 281.942C78.0645 285.098 79.7981 283.168 79.8884 283.078C79.9764 282.534 80.0367 281.987 80.0689 281.437C80.1582 279.526 79.9387 277.613 79.4188 275.773L56.2861 272.652C59.4675 277.05 63.9822 280.307 69.1617 281.942V281.942Z" fill="#C2E7FF"/>
<path d="M80.7021 263.758C78.6074 261.955 71.0229 253.062 57.443 255.154C48.9556 256.471 41.8045 262.243 40.2154 275.447C39.7513 279.825 40.2458 284.251 41.6646 288.418C43.0834 292.586 45.3925 296.396 48.4319 299.583C48.765 299.45 49.0853 299.287 49.389 299.096C52.802 296.859 53.1632 295.633 53.1632 295.615L53.9216 288.886C53.9225 288.426 53.7471 287.983 53.4316 287.647C53.116 287.312 52.6841 287.11 52.2241 287.082C51.7235 287.026 51.2412 286.861 50.8108 286.599C50.3804 286.338 50.0123 285.985 49.7321 285.567C47.7818 283.006 48.6847 279.037 52.5853 278.893C53.2805 278.941 53.9709 278.746 54.5377 278.341C55.1046 277.936 55.5125 277.347 55.6913 276.674C55.7503 276.461 55.8528 276.262 55.9923 276.09C56.1318 275.919 56.3054 275.777 56.5021 275.676C56.6987 275.574 56.9143 275.514 57.1353 275.5C57.3563 275.485 57.5778 275.517 57.7861 275.592C62.2104 277.197 73.1537 280.661 80.1965 278.658C89.2076 276.133 82.8149 265.544 80.7021 263.758Z" fill="#3169B1"/>
<path d="M70.5933 289.951L76.0108 288.472C74.4818 290.813 72.2411 292.602 69.6182 293.576C65.8259 294.623 65.248 291.412 65.248 291.412L70.5933 289.951Z" fill="#39BDE5"/>
<defs>
<radialGradient id="paint0_radial_416_12095" cx="0" cy="0" r="1" gradientUnits="userSpaceOnUse" gradientTransform="translate(219.918 415.138) scale(89.2984 89.2008)">
<stop stop-color="#01C8EF"/>
<stop offset="0.09" stop-color="#03BEE9"/>
<stop offset="0.24" stop-color="#08A5D7"/>
<stop offset="0.43" stop-color="#107BBB"/>
<stop offset="0.45" stop-color="#1177B8"/>
<stop offset="1" stop-color="#112564"/>
</radialGradient>
</defs>
</svg>
