<svg width="880" height="862" viewBox="0 0 880 862" fill="none" xmlns="http://www.w3.org/2000/svg">
<rect width="880" height="862" rx="24" fill="#F7FAFC"/>
<path opacity="0.5" d="M474.66 571.189L358.346 504.933C354.084 502.48 354.626 498.187 359.538 495.355L426.462 456.77C431.374 453.92 438.796 453.614 443.058 456.067L559.371 522.323C563.633 524.776 563.109 529.069 558.179 531.901L491.346 570.504C486.343 573.336 478.921 573.642 474.66 571.189Z" fill="#3169B1"/>
<path d="M569.749 500.027V228.709L461.779 200.532L441.914 189.06C437.364 186.444 429.382 186.769 424.109 189.799L405.563 200.496H347.957L364.932 462.344C364.92 463.351 365.205 464.339 365.751 465.186C366.297 466.033 367.079 466.7 368.002 467.107L475.738 548.28C480.306 550.914 488.27 550.571 493.543 547.541L565.343 506.052C568.449 504.41 569.912 502.138 569.749 500.027Z" fill="#3169B1"/>
<path d="M433.644 187.31C430.305 187.353 427.026 188.208 424.091 189.799L405.545 200.496H347.957V472.464C347.946 473.471 348.231 474.459 348.777 475.305C349.322 476.152 350.105 476.82 351.027 477.226L475.81 548.316C478.348 549.648 481.2 550.272 484.063 550.12L485.363 276.439L433.644 187.31Z" fill="#C2E7FF"/>
<path d="M476.896 548.876C481.505 550.535 486.558 550.478 491.126 548.713V273.138H476.896V548.876Z" fill="#39BDE5"/>
<path d="M475.811 276.403L351.029 205.259C346.46 202.625 347.038 198.043 352.293 194.995L424.092 153.506C429.366 150.475 437.347 150.151 441.898 152.766L566.699 223.856C571.25 226.49 570.69 231.072 565.417 234.12L493.617 275.609C488.344 278.712 480.38 279.036 475.811 276.403Z" fill="#F7FAFC"/>
<path d="M565.378 229.213L493.578 270.702C488.305 273.733 480.341 274.075 475.773 271.442L351.026 200.298C350.104 199.805 349.302 199.115 348.678 198.277C347.179 200.785 347.884 203.454 351.026 205.258L475.809 276.33C480.377 278.964 488.341 278.639 493.614 275.609L565.414 234.12C569.495 231.757 570.741 228.456 569.026 225.876C568.107 227.275 566.853 228.422 565.378 229.213Z" fill="#F7FAFC"/>
<path d="M479.331 247.595L396.263 199.504C394.114 198.259 394.457 196.113 396.859 194.688L430.447 175.314C431.714 174.61 433.129 174.212 434.578 174.153C436.027 174.093 437.469 174.374 438.79 174.972L521.858 223.08C524.007 224.307 523.664 226.454 521.262 227.879L487.728 247.252C486.455 247.969 485.031 248.374 483.571 248.434C482.111 248.493 480.658 248.206 479.331 247.595Z" fill="#3169B1"/>
<path d="M434.492 201.651L429.67 198.873C429.381 198.711 429.417 198.422 429.67 198.224L434.329 195.536C434.509 195.447 434.707 195.401 434.907 195.401C435.108 195.401 435.305 195.447 435.485 195.536L440.288 198.314C440.595 198.494 440.559 198.783 440.288 198.981L435.629 201.651C435.454 201.744 435.259 201.793 435.061 201.793C434.862 201.793 434.667 201.744 434.492 201.651Z" fill="#C2E7FF"/>
<path d="M450.565 210.904L445.762 208.126C445.455 207.946 445.491 207.657 445.762 207.459L450.421 204.771C450.597 204.682 450.792 204.636 450.99 204.636C451.187 204.636 451.382 204.682 451.559 204.771L456.38 207.549C456.669 207.73 456.633 208.018 456.29 208.217L451.649 210.904C451.479 210.982 451.294 211.023 451.107 211.023C450.92 211.023 450.735 210.982 450.565 210.904Z" fill="#C2E7FF"/>
<path d="M466.656 220.141L461.835 217.363C461.546 217.182 461.582 216.894 461.925 216.695L466.566 214.007C466.744 213.914 466.943 213.866 467.144 213.866C467.345 213.866 467.544 213.914 467.722 214.007L472.543 216.785C472.832 216.948 472.796 217.236 472.453 217.435L467.866 220.086C467.684 220.191 467.478 220.251 467.268 220.261C467.057 220.27 466.848 220.229 466.656 220.141Z" fill="#C2E7FF"/>
<path d="M482.724 229.376L477.92 226.598C477.613 226.418 477.668 226.129 477.92 225.931L482.652 223.297C482.83 223.204 483.028 223.155 483.23 223.155C483.431 223.155 483.629 223.204 483.807 223.297L488.611 226.075C488.918 226.238 488.882 226.544 488.611 226.725L483.952 229.412C483.76 229.508 483.548 229.555 483.333 229.548C483.119 229.542 482.91 229.483 482.724 229.376Z" fill="#C2E7FF"/>
<path d="M396.269 199.505H396.359C396.518 199.376 396.687 199.262 396.865 199.162L430.453 179.788C431.719 179.083 433.133 178.683 434.582 178.62C436.03 178.557 437.474 178.834 438.796 179.428L521.774 227.482C523.742 226.075 523.851 224.163 521.864 223.027L438.796 174.918C437.475 174.32 436.033 174.04 434.584 174.099C433.135 174.159 431.72 174.557 430.453 175.261L396.865 194.634C394.391 196.113 394.12 198.26 396.269 199.505Z" fill="#3169B1"/>
<path d="M462.018 330.158L369.812 276.98C368.336 275.939 367.125 274.565 366.278 272.97C365.431 271.375 364.971 269.603 364.937 267.798V250.914C364.937 247.306 367.085 245.755 369.74 247.306L461.946 300.484C463.415 301.529 464.617 302.905 465.454 304.5C466.292 306.095 466.742 307.865 466.767 309.666V326.532C466.84 330.067 464.691 331.691 462.018 330.158Z" fill="white"/>
<path d="M455.044 315.294L450.708 312.787C450.388 312.559 450.126 312.259 449.944 311.911C449.762 311.563 449.665 311.177 449.661 310.784V306.112C449.661 305.337 450.13 304.994 450.708 305.319L455.044 307.826C455.364 308.054 455.626 308.354 455.808 308.702C455.99 309.05 456.087 309.436 456.092 309.828V314.446C456.092 315.294 455.622 315.565 455.044 315.294Z" fill="#394C8F"/>
<path d="M440.562 306.888L436.227 304.471C435.907 304.243 435.645 303.943 435.463 303.595C435.28 303.247 435.183 302.861 435.179 302.469V297.761C435.179 296.985 435.649 296.624 436.227 296.967L440.562 299.456C440.88 299.687 441.139 299.988 441.321 300.335C441.503 300.682 441.602 301.067 441.61 301.459V306.095C441.61 306.87 441.141 307.213 440.562 306.888Z" fill="#394C8F"/>
<path d="M462.018 391.056L369.812 337.95C368.334 336.906 367.123 335.53 366.276 333.932C365.429 332.333 364.97 330.559 364.937 328.751V311.885C364.937 308.277 367.085 306.708 369.74 308.277L461.946 361.455C463.416 362.502 464.619 363.881 465.456 365.479C466.294 367.078 466.743 368.85 466.767 370.654V387.448C466.84 391.056 464.691 392.661 462.018 391.056Z" fill="white"/>
<path d="M455.044 376.21L450.708 373.703C450.388 373.475 450.126 373.175 449.944 372.827C449.762 372.479 449.665 372.093 449.661 371.701V367.083C449.661 366.307 450.13 365.946 450.708 366.289L455.044 368.778C455.361 369.009 455.621 369.31 455.803 369.657C455.984 370.004 456.083 370.389 456.092 370.781V375.417C456.092 376.192 455.622 376.625 455.044 376.21Z" fill="#394C8F"/>
<path d="M440.562 367.84L436.227 365.351C435.909 365.121 435.648 364.821 435.466 364.473C435.285 364.126 435.186 363.741 435.179 363.348V358.731C435.179 357.955 435.649 357.594 436.227 357.937L440.562 360.426C440.881 360.656 441.141 360.956 441.323 361.304C441.505 361.651 441.603 362.036 441.61 362.428V367.064C441.61 367.822 441.141 368.183 440.562 367.84Z" fill="#C2E7FF"/>
<path d="M462.018 452.081L369.812 398.903C368.336 397.862 367.125 396.488 366.278 394.893C365.431 393.298 364.971 391.526 364.937 389.721V372.855C364.937 369.247 367.085 367.678 369.74 369.247L461.946 422.425C463.415 423.47 464.617 424.846 465.454 426.441C466.292 428.036 466.742 429.806 466.767 431.607V448.491C466.84 451.99 464.691 453.614 462.018 452.081Z" fill="white"/>
<path d="M455.044 437.163L450.708 434.673C450.39 434.444 450.13 434.143 449.948 433.796C449.766 433.448 449.668 433.063 449.661 432.671V428.053C449.661 427.278 450.13 426.917 450.708 427.26L455.044 429.749C455.362 429.979 455.623 430.279 455.804 430.627C455.986 430.974 456.085 431.359 456.092 431.751V436.387C456.092 437.145 455.622 437.506 455.044 437.163Z" fill="#C2E7FF"/>
<path d="M440.562 428.811L436.227 426.322C435.91 426.091 435.65 425.79 435.468 425.443C435.286 425.096 435.188 424.711 435.179 424.319V419.683C435.179 418.926 435.649 418.565 436.227 418.89L440.562 421.397C440.881 421.627 441.141 421.927 441.323 422.275C441.505 422.622 441.603 423.007 441.61 423.399V428.017C441.61 428.793 441.141 429.154 440.562 428.811Z" fill="#394C8F"/>
<path d="M462.018 513.051L369.812 459.873C368.336 458.832 367.125 457.459 366.278 455.864C365.431 454.269 364.971 452.497 364.937 450.692V433.826C364.937 430.218 367.085 428.649 369.74 430.218L461.946 483.396C463.415 484.441 464.617 485.816 465.454 487.411C466.292 489.007 466.742 490.776 466.767 492.577V509.461C466.84 512.961 464.691 514.584 462.018 513.051Z" fill="white"/>
<path d="M455.044 498.133L450.708 495.68C450.39 495.45 450.13 495.15 449.948 494.802C449.766 494.455 449.668 494.07 449.661 493.678V489.006C449.661 488.248 450.13 487.887 450.708 488.23L455.044 490.719C455.362 490.949 455.623 491.249 455.804 491.597C455.986 491.945 456.085 492.33 456.092 492.722V497.34C456.092 498.115 455.622 498.476 455.044 498.133Z" fill="#C2E7FF"/>
<path d="M440.562 489.781L436.227 487.292C435.91 487.061 435.65 486.76 435.468 486.413C435.286 486.066 435.188 485.681 435.179 485.29V480.654C435.179 479.878 435.649 479.535 436.227 479.86L440.562 482.367C440.883 482.595 441.145 482.895 441.327 483.243C441.509 483.591 441.606 483.977 441.61 484.37V488.987C441.61 489.763 441.141 490.124 440.562 489.781Z" fill="#C2E7FF"/>
<path d="M507.593 330.158L554.833 303.1C556.297 302.051 557.493 300.674 558.328 299.08C559.162 297.485 559.61 295.717 559.637 293.918V277.07C559.637 273.463 557.488 271.911 554.833 273.463L507.593 300.466C506.129 301.515 504.932 302.892 504.098 304.487C503.264 306.081 502.816 307.849 502.789 309.648V326.514C502.825 330.068 504.974 331.691 507.593 330.158Z" fill="#3169B1"/>
<path d="M507.593 391.056L554.833 363.998C556.297 362.949 557.493 361.572 558.328 359.977C559.162 358.383 559.61 356.615 559.637 354.816V337.932C559.637 334.324 557.488 332.773 554.833 334.324L507.593 361.382C506.128 362.434 504.93 363.814 504.096 365.412C503.262 367.009 502.814 368.78 502.789 370.582V387.448C502.825 391.056 504.974 392.661 507.593 391.056Z" fill="#3169B1"/>
<path d="M507.593 452.08L554.833 425.023C556.298 423.971 557.496 422.591 558.33 420.993C559.164 419.395 559.612 417.625 559.637 415.823V398.957C559.637 395.349 557.488 393.798 554.833 395.349L507.593 422.407C506.129 423.456 504.932 424.833 504.098 426.427C503.264 428.022 502.816 429.79 502.789 431.589V448.473C502.825 451.99 504.974 453.614 507.593 452.08Z" fill="#3169B1"/>
<path d="M507.593 513.051L554.833 485.993C556.298 484.941 557.496 483.561 558.33 481.964C559.164 480.366 559.612 478.595 559.637 476.793V459.927C559.637 456.32 557.488 454.75 554.833 456.32L507.593 483.377C506.129 484.426 504.932 485.803 504.098 487.398C503.264 488.992 502.816 490.76 502.789 492.559V509.443C502.825 512.961 504.974 514.584 507.593 513.051Z" fill="#394C8F"/>
<path d="M521.844 311.831L526.179 309.323C526.5 309.096 526.761 308.796 526.944 308.448C527.126 308.1 527.223 307.714 527.227 307.321V302.667C527.227 301.891 526.757 301.531 526.179 301.873L521.844 304.471C521.526 304.701 521.267 305.002 521.085 305.349C520.903 305.697 520.804 306.081 520.796 306.473V311.109C520.796 311.795 521.266 312.155 521.844 311.831Z" fill="white"/>
<path d="M536.329 303.461L540.665 300.972C540.983 300.742 541.244 300.442 541.426 300.094C541.607 299.746 541.706 299.361 541.713 298.969V294.351C541.713 293.576 541.243 293.215 540.665 293.558L536.329 296.047C536.011 296.277 535.751 296.577 535.569 296.925C535.387 297.272 535.289 297.657 535.282 298.049V302.667C535.282 303.443 535.751 303.804 536.329 303.461Z" fill="white"/>
<path d="M521.844 372.332L526.179 369.825C526.5 369.597 526.761 369.297 526.944 368.949C527.126 368.601 527.223 368.215 527.227 367.822V363.204C527.227 362.429 526.757 362.068 526.179 362.411L521.844 364.9C521.526 365.131 521.267 365.431 521.085 365.779C520.903 366.126 520.804 366.511 520.796 366.902V371.538C520.796 372.296 521.266 372.657 521.844 372.332Z" fill="white"/>
<path d="M536.329 363.998L540.665 361.509C540.983 361.279 541.244 360.979 541.426 360.631C541.607 360.284 541.706 359.899 541.713 359.507V354.889C541.713 354.113 541.243 353.752 540.665 354.095L536.329 356.584C536.011 356.814 535.751 357.114 535.569 357.462C535.387 357.81 535.289 358.195 535.282 358.587V363.205C535.282 363.998 535.751 364.305 536.329 363.998Z" fill="white"/>
<path d="M521.844 433.844L526.179 431.355C526.497 431.125 526.758 430.824 526.94 430.477C527.122 430.129 527.22 429.744 527.227 429.352V424.734C527.227 423.959 526.757 423.598 526.179 423.941L521.844 426.43C521.525 426.66 521.265 426.96 521.083 427.308C520.901 427.655 520.803 428.04 520.796 428.432V433.05C520.796 433.826 521.266 434.187 521.844 433.844Z" fill="white"/>
<path d="M536.329 425.492L540.665 423.002C540.982 422.772 541.242 422.471 541.424 422.124C541.605 421.776 541.704 421.392 541.713 421V416.31C541.713 415.552 541.243 415.191 540.665 415.516L536.329 418.024C536.009 418.251 535.747 418.551 535.565 418.899C535.383 419.247 535.286 419.633 535.282 420.026V424.644C535.282 425.473 535.751 425.834 536.329 425.492Z" fill="white"/>
<path d="M521.844 494.471L526.179 491.982C526.497 491.752 526.758 491.452 526.94 491.104C527.122 490.757 527.22 490.372 527.227 489.98V485.362C527.227 484.586 526.757 484.225 526.179 484.568L521.844 487.058C521.525 487.287 521.265 487.588 521.083 487.935C520.901 488.283 520.803 488.668 520.796 489.06V493.696C520.796 494.453 521.266 494.814 521.844 494.471Z" fill="white"/>
<path d="M536.329 486.119L540.665 483.63C540.982 483.4 541.242 483.099 541.424 482.751C541.605 482.404 541.704 482.02 541.713 481.628V476.992C541.713 476.234 541.243 475.873 540.665 476.198L536.329 478.706C536.011 478.935 535.751 479.236 535.569 479.583C535.387 479.931 535.289 480.316 535.282 480.708V485.326C535.282 486.101 535.751 486.462 536.329 486.119Z" fill="white"/>
<path d="M360.977 638.798L244.663 572.542C240.402 570.089 240.943 565.814 245.855 562.982L312.779 524.379C317.691 521.547 325.131 521.241 329.375 523.694L445.707 589.95C449.95 592.403 449.427 596.678 444.515 599.51L377.573 638.185C372.661 640.945 365.239 641.251 360.977 638.798Z" fill="#3169B1"/>
<path d="M456.071 567.636V296.371L348.118 268.141L328.254 256.686C323.704 254.053 315.722 254.378 310.449 257.426L291.867 268.123H234.279L251.344 529.953C251.326 530.959 251.607 531.947 252.15 532.795C252.692 533.642 253.474 534.31 254.396 534.715L362.132 615.889C366.7 618.523 374.664 618.18 379.937 615.149L451.737 573.661C454.771 572.019 456.234 569.746 456.071 567.636Z" fill="#3169B1"/>
<path d="M319.966 254.919C316.624 254.96 313.343 255.821 310.413 257.426L291.867 268.123H234.279V540.073C234.271 541.081 234.557 542.07 235.102 542.919C235.647 543.768 236.428 544.44 237.349 544.853L362.132 615.925C364.679 617.251 367.534 617.873 370.403 617.729L371.685 344.03L319.966 254.919Z" fill="#C2E7FF"/>
<path d="M363.27 616.538C367.884 618.198 372.943 618.14 377.518 616.376V340.764H363.27V616.538Z" fill="#39BDE5"/>
<path d="M362.131 344.029L237.348 272.939C232.779 270.306 233.357 265.724 238.63 262.675L310.412 221.277C315.685 218.228 323.666 217.903 328.217 220.537L453.018 291.609C457.569 294.243 457.009 298.825 451.736 301.873L379.936 343.362C374.663 346.32 366.736 346.663 362.131 344.029Z" fill="#F7FAFC"/>
<path d="M451.736 296.84L379.936 338.329C374.663 341.378 366.699 341.702 362.131 339.069L237.348 267.997C236.446 267.503 235.669 266.812 235.072 265.976C233.501 268.502 234.205 271.225 237.348 273.029L362.131 344.119C366.699 346.753 374.663 346.41 379.936 343.38L451.736 301.891C455.835 299.528 457.153 296.227 455.348 293.647C454.42 294.988 453.18 296.083 451.736 296.84Z" fill="#F7FAFC"/>
<path d="M365.652 315.294L282.583 267.185C280.434 265.959 280.778 263.794 283.179 262.369L316.768 242.996C318.041 242.265 319.468 241.847 320.934 241.775C322.4 241.703 323.863 241.979 325.201 242.581L408.269 290.69C410.418 291.916 410.075 294.081 407.673 295.488L373.958 314.879C372.7 315.584 371.295 315.988 369.854 316.06C368.413 316.132 366.975 315.87 365.652 315.294Z" fill="#3169B1"/>
<path d="M320.817 269.277L315.996 266.59C315.707 266.409 315.743 266.121 315.996 265.922L320.637 263.234C320.815 263.141 321.013 263.092 321.215 263.092C321.416 263.092 321.614 263.141 321.793 263.234L326.596 265.994C326.903 266.175 326.867 266.463 326.596 266.662L321.955 269.223C321.783 269.321 321.59 269.376 321.393 269.386C321.195 269.395 320.998 269.358 320.817 269.277Z" fill="#C2E7FF"/>
<path d="M336.887 278.513L332.083 275.735C331.776 275.555 331.812 275.266 332.083 275.068L336.742 272.38C336.92 272.287 337.119 272.238 337.32 272.238C337.521 272.238 337.72 272.287 337.898 272.38L342.701 275.158C343.008 275.32 342.954 275.627 342.701 275.807L338.042 278.495C337.864 278.587 337.667 278.636 337.467 278.639C337.266 278.642 337.068 278.599 336.887 278.513Z" fill="#C2E7FF"/>
<path d="M352.973 287.749L348.151 284.971C347.862 284.791 347.898 284.502 348.242 284.304L352.883 281.616C353.062 281.527 353.26 281.481 353.46 281.481C353.661 281.481 353.859 281.527 354.038 281.616L358.86 284.394C359.149 284.556 359.113 284.863 358.86 285.061L354.092 287.695C353.921 287.786 353.732 287.838 353.539 287.847C353.345 287.856 353.152 287.823 352.973 287.749Z" fill="#C2E7FF"/>
<path d="M369.073 296.985L364.252 294.207C363.963 294.044 363.999 293.738 364.252 293.539L368.893 290.869C369.071 290.776 369.269 290.728 369.471 290.728C369.672 290.728 369.87 290.776 370.048 290.869L374.942 293.647C375.249 293.81 375.213 294.116 374.942 294.315L370.283 296.985C370.098 297.086 369.89 297.139 369.678 297.139C369.467 297.139 369.259 297.086 369.073 296.985Z" fill="#C2E7FF"/>
<path d="M282.586 267.113H282.676C282.838 267.005 282.983 266.878 283.182 266.77L316.77 247.397C318.051 246.682 319.485 246.283 320.952 246.233C322.418 246.183 323.876 246.483 325.203 247.108L408.272 295.145C410.24 293.738 410.348 291.826 408.272 290.689L325.203 242.58C323.882 241.982 322.44 241.702 320.991 241.762C319.542 241.821 318.127 242.219 316.86 242.923L283.182 262.296C280.708 263.722 280.437 265.886 282.586 267.113Z" fill="#3169B1"/>
<path d="M348.359 397.766L256.154 344.589C254.685 343.544 253.483 342.168 252.645 340.573C251.808 338.978 251.358 337.208 251.332 335.407V318.523C251.332 314.915 253.481 313.364 256.154 314.915L348.359 368.093C349.823 369.142 351.02 370.519 351.854 372.113C352.688 373.708 353.136 375.476 353.163 377.275V394.159C353.163 397.676 351.014 399.3 348.359 397.766Z" fill="white"/>
<path d="M341.458 382.848L337.122 380.359C336.808 380.139 336.547 379.852 336.359 379.518C336.172 379.183 336.062 378.811 336.039 378.429V373.793C336.039 373.017 336.508 372.674 337.086 372.999L341.422 375.507C341.742 375.734 342.004 376.034 342.186 376.382C342.368 376.73 342.465 377.116 342.47 377.509V382.036C342.415 382.83 341.946 383.191 341.458 382.848Z" fill="#3169B1"/>
<path d="M326.884 374.496L322.548 371.989C322.228 371.761 321.966 371.461 321.784 371.113C321.602 370.765 321.505 370.379 321.5 369.987V365.369C321.5 364.593 321.97 364.25 322.548 364.575L326.884 367.083C327.204 367.31 327.466 367.61 327.648 367.958C327.83 368.306 327.927 368.692 327.931 369.085V373.703C327.931 374.478 327.462 374.821 326.884 374.496Z" fill="#3169B1"/>
<path d="M348.359 458.737L256.154 405.487C254.706 404.458 253.518 403.109 252.681 401.544C251.845 399.979 251.383 398.241 251.332 396.468V379.584C251.332 375.976 253.481 374.425 256.154 375.976L348.359 429.154C349.823 430.203 351.02 431.58 351.854 433.174C352.688 434.769 353.136 436.536 353.163 438.335V455.201C353.163 458.647 351.014 460.27 348.359 458.737Z" fill="white"/>
<path d="M341.457 443.819L337.121 441.311C336.801 441.084 336.539 440.784 336.357 440.436C336.175 440.088 336.078 439.702 336.074 439.309V434.691C336.074 433.916 336.543 433.573 337.121 433.898L341.457 436.405C341.777 436.632 342.039 436.933 342.221 437.281C342.403 437.628 342.501 438.015 342.505 438.407V443.025C342.414 443.801 341.945 444.143 341.457 443.819Z" fill="#3169B1"/>
<path d="M326.884 435.467L322.548 432.96C322.228 432.732 321.966 432.432 321.784 432.084C321.602 431.736 321.505 431.35 321.5 430.957V426.34C321.5 425.564 321.97 425.203 322.548 425.546L326.884 428.035C327.201 428.266 327.461 428.566 327.642 428.914C327.824 429.261 327.923 429.646 327.931 430.037V434.673C327.931 435.449 327.462 435.792 326.884 435.467Z" fill="#C2E7FF"/>
<path d="M348.359 519.707L256.154 466.53C254.683 465.482 253.481 464.103 252.643 462.505C251.805 460.907 251.356 459.134 251.332 457.33V440.464C251.332 436.856 253.481 435.305 256.154 436.856L348.359 490.034C349.824 491.086 351.022 492.466 351.856 494.063C352.69 495.661 353.138 497.432 353.163 499.234V516.1C353.163 519.599 351.014 521.241 348.359 519.707Z" fill="white"/>
<path d="M341.457 504.789L337.121 502.282C336.801 502.054 336.539 501.754 336.357 501.406C336.175 501.058 336.078 500.672 336.074 500.28V495.68C336.074 494.904 336.543 494.543 337.121 494.886L341.457 497.375C341.774 497.606 342.034 497.907 342.216 498.254C342.397 498.601 342.496 498.986 342.505 499.378V504.014C342.414 504.699 341.945 505.114 341.457 504.789Z" fill="#C2E7FF"/>
<path d="M326.884 496.419L322.548 493.876C322.23 493.646 321.969 493.346 321.788 492.998C321.606 492.651 321.507 492.266 321.5 491.874V487.256C321.5 486.48 321.97 486.119 322.548 486.462L326.884 488.951C327.202 489.181 327.462 489.482 327.644 489.829C327.826 490.177 327.924 490.562 327.931 490.954V495.68C327.931 496.401 327.462 496.762 326.884 496.419Z" fill="#3169B1"/>
<path d="M348.359 580.659L256.154 527.482C254.685 526.437 253.483 525.061 252.645 523.466C251.808 521.871 251.358 520.101 251.332 518.3V501.434C251.332 497.826 253.481 496.257 256.154 497.826L348.359 551.004C349.824 552.056 351.022 553.436 351.856 555.033C352.69 556.631 353.138 558.402 353.163 560.204V577.07C353.163 580.569 351.014 582.265 348.359 580.659Z" fill="white"/>
<path d="M341.457 565.76L337.121 563.252C336.803 563.023 336.543 562.722 336.361 562.375C336.179 562.027 336.081 561.642 336.074 561.25V556.632C336.074 555.857 336.543 555.496 337.121 555.839L341.457 558.328C341.775 558.557 342.036 558.858 342.218 559.205C342.399 559.553 342.498 559.938 342.505 560.33V564.966C342.414 565.724 341.945 566.03 341.457 565.76Z" fill="#C2E7FF"/>
<path d="M326.884 557.39L322.548 554.9C322.23 554.671 321.969 554.37 321.788 554.023C321.606 553.675 321.507 553.29 321.5 552.898V548.262C321.5 547.505 321.97 547.144 322.548 547.487L326.884 549.976C327.202 550.206 327.462 550.506 327.644 550.854C327.826 551.201 327.924 551.586 327.931 551.978V556.596C327.931 557.372 327.462 557.732 326.884 557.39Z" fill="#C2E7FF"/>
<path d="M393.957 397.766L441.198 370.708C442.664 369.661 443.863 368.284 444.7 366.69C445.538 365.095 445.989 363.327 446.019 361.527V344.697C446.019 341.089 443.852 339.52 441.198 341.089L393.957 368.147C392.494 369.196 391.297 370.573 390.463 372.167C389.629 373.762 389.18 375.53 389.154 377.329V394.213C389.154 397.676 391.303 399.3 393.957 397.766Z" fill="#3169B1"/>
<path d="M393.957 458.737L441.198 431.679C442.664 430.631 443.863 429.255 444.7 427.66C445.538 426.066 445.989 424.298 446.019 422.497V405.613C446.019 402.005 443.852 400.454 441.198 402.005L393.957 429.063C392.494 430.112 391.297 431.489 390.463 433.084C389.629 434.678 389.18 436.446 389.154 438.245V455.111C389.154 458.647 391.303 460.27 393.957 458.737Z" fill="#3169B1"/>
<path d="M393.957 519.707L441.198 492.649C442.664 491.601 443.863 490.225 444.7 488.631C445.538 487.036 445.989 485.268 446.019 483.468V466.584C446.019 462.976 443.852 461.425 441.198 462.976L393.957 490.034C392.492 491.085 391.295 492.466 390.461 494.063C389.626 495.661 389.179 497.432 389.154 499.234V516.1C389.154 519.599 391.303 521.241 393.957 519.707Z" fill="#3169B1"/>
<path d="M393.957 580.66L441.198 553.602C442.664 552.554 443.863 551.178 444.7 549.583C445.538 547.989 445.989 546.22 446.019 544.42V527.536C446.019 523.928 443.852 522.377 441.198 523.928L393.957 550.986C392.492 552.038 391.295 553.418 390.461 555.016C389.626 556.613 389.179 558.384 389.154 560.186V577.052C389.154 580.569 391.303 582.265 393.957 580.66Z" fill="#3169B1"/>
<path d="M408.165 379.439L412.5 376.932C412.821 376.704 413.083 376.404 413.265 376.056C413.447 375.708 413.544 375.322 413.548 374.93V370.312C413.548 369.536 413.078 369.193 412.5 369.518L408.165 372.026C407.845 372.253 407.583 372.553 407.4 372.901C407.218 373.249 407.121 373.635 407.117 374.028V378.646C407.117 379.421 407.587 379.764 408.165 379.439Z" fill="white"/>
<path d="M422.72 371.087L427.055 368.58C427.376 368.352 427.637 368.052 427.82 367.704C428.002 367.356 428.099 366.97 428.103 366.577V361.959C428.103 361.184 427.633 360.823 427.055 361.166L422.72 363.655C422.402 363.886 422.143 364.186 421.961 364.534C421.779 364.881 421.68 365.266 421.672 365.657V370.293C421.6 371.051 422.069 371.412 422.72 371.087Z" fill="white"/>
<path d="M408.165 439.941L412.5 437.434C412.821 437.206 413.083 436.906 413.265 436.558C413.447 436.21 413.544 435.824 413.548 435.431V430.741C413.548 429.966 413.078 429.623 412.5 429.948L408.165 432.455C407.845 432.682 407.583 432.983 407.4 433.33C407.218 433.678 407.121 434.065 407.117 434.457V439.075C407.117 439.923 407.587 440.266 408.165 439.941Z" fill="white"/>
<path d="M422.72 431.589L427.055 429.081C427.376 428.854 427.637 428.554 427.82 428.206C428.002 427.858 428.099 427.471 428.103 427.079V422.461C428.103 421.685 427.633 421.325 427.055 421.667L422.72 424.157C422.402 424.387 422.143 424.688 421.961 425.035C421.779 425.383 421.68 425.767 421.672 426.159V430.741C421.6 431.552 422.069 431.913 422.72 431.589Z" fill="white"/>
<path d="M408.165 501.47L412.5 498.963C412.821 498.735 413.083 498.435 413.265 498.087C413.447 497.739 413.544 497.353 413.548 496.96V492.342C413.548 491.567 413.078 491.206 412.5 491.549L408.165 494.038C407.848 494.269 407.588 494.569 407.406 494.917C407.224 495.264 407.126 495.649 407.117 496.04V500.676C407.117 501.434 407.587 501.795 408.165 501.47Z" fill="white"/>
<path d="M422.72 493.1L427.055 490.611C427.373 490.381 427.634 490.081 427.816 489.733C427.998 489.386 428.096 489.001 428.103 488.609V483.991C428.103 483.215 427.633 482.854 427.055 483.197L422.72 485.686C422.401 485.916 422.141 486.217 421.959 486.564C421.777 486.912 421.679 487.297 421.672 487.689V492.307C421.6 493.082 422.069 493.443 422.72 493.1Z" fill="white"/>
<path d="M408.165 562.098L412.5 559.59C412.821 559.363 413.083 559.063 413.265 558.715C413.447 558.367 413.544 557.981 413.548 557.588V552.97C413.548 552.195 413.078 551.834 412.5 552.177L408.165 554.666C407.848 554.896 407.588 555.197 407.406 555.544C407.224 555.892 407.126 556.276 407.117 556.668V561.304C407.117 562.08 407.587 562.422 408.165 562.098Z" fill="white"/>
<path d="M422.72 553.728L427.055 551.239C427.373 551.009 427.634 550.709 427.816 550.361C427.998 550.014 428.096 549.629 428.103 549.237V544.619C428.103 543.843 427.633 543.482 427.055 543.825L422.72 546.314C422.401 546.544 422.141 546.844 421.959 547.192C421.777 547.539 421.679 547.924 421.672 548.317V552.952C421.6 553.71 422.069 554.071 422.72 553.728Z" fill="white"/>
<path d="M634.887 660.841L518.555 594.585C514.311 592.132 514.835 587.857 519.747 585.025L586.689 546.422C591.601 543.59 599.023 543.283 603.285 545.737L719.598 611.992C723.86 614.446 723.318 618.739 718.406 621.571L651.482 660.155C646.643 662.987 639.148 663.312 634.887 660.841Z" fill="#3169B1"/>
<path d="M729.987 589.697V318.415L622.016 290.202L602.152 278.73C597.583 276.096 589.619 276.421 584.346 279.469L565.8 290.166H508.212L525.259 552.033C525.251 553.041 525.537 554.03 526.083 554.879C526.628 555.728 527.408 556.4 528.329 556.813L636.065 637.986C640.616 640.62 648.598 640.295 653.871 637.247L725.671 595.758C728.686 594.08 730.149 591.808 729.987 589.697Z" fill="#3169B1"/>
<path d="M593.878 276.962C590.537 277.012 587.259 277.872 584.325 279.469L565.779 290.166H508.191V562.134C508.183 563.138 508.467 564.123 509.009 564.968C509.551 565.814 510.327 566.484 511.243 566.896L636.044 637.968C638.585 639.292 641.434 639.915 644.297 639.772L645.597 366.073L593.878 276.962Z" fill="#C2E7FF"/>
<path d="M637.183 638.527C641.789 640.195 646.845 640.138 651.413 638.365V362.808H637.183V638.527Z" fill="#39BDE5"/>
<path d="M636.047 366.073L511.209 295.001C506.659 292.367 507.219 287.785 512.492 284.719L584.328 243.32C589.601 240.272 597.564 239.947 602.133 242.581L726.916 313.653C731.485 316.286 730.907 320.868 725.652 323.935L653.87 365.333C648.579 368.382 640.597 368.706 636.047 366.073Z" fill="#F7FAFC"/>
<path d="M725.651 318.902L653.851 360.39C648.578 363.439 640.596 363.764 636.046 361.13L511.208 290.04C510.311 289.542 509.534 288.852 508.933 288.02C507.38 290.545 508.084 293.269 511.208 295.091L636.009 366.163C640.56 368.796 648.542 368.472 653.815 365.423L725.615 324.025C729.696 321.662 730.942 318.361 729.227 315.763C728.309 317.085 727.082 318.163 725.651 318.902Z" fill="#F7FAFC"/>
<path d="M639.564 337.265L556.495 289.156C554.364 287.93 554.689 285.783 557.109 284.358L590.662 264.985C591.928 264.279 593.342 263.879 594.79 263.816C596.239 263.754 597.682 264.03 599.005 264.624L682.073 312.733C684.204 313.977 683.879 316.124 681.477 317.549L647.907 336.941C646.638 337.642 645.222 338.036 643.774 338.093C642.325 338.149 640.883 337.866 639.564 337.265Z" fill="#3169B1"/>
<path d="M594.704 291.321L589.9 288.543C589.593 288.38 589.629 288.074 589.9 287.875L594.559 285.205C594.737 285.112 594.936 285.063 595.137 285.063C595.338 285.063 595.536 285.112 595.715 285.205L600.518 287.983C600.825 288.146 600.789 288.452 600.518 288.651L595.859 291.321C595.68 291.41 595.482 291.456 595.281 291.456C595.081 291.456 594.883 291.41 594.704 291.321Z" fill="#C2E7FF"/>
<path d="M610.795 300.556L605.973 297.779C605.684 297.616 605.72 297.309 606.063 297.111L610.704 294.441C610.884 294.354 611.082 294.308 611.282 294.308C611.482 294.308 611.68 294.354 611.86 294.441L616.682 297.255C616.971 297.418 616.934 297.724 616.682 297.923L612.041 300.593C611.846 300.69 611.631 300.737 611.413 300.731C611.196 300.725 610.983 300.665 610.795 300.556Z" fill="#C2E7FF"/>
<path d="M626.886 309.882L622.064 307.104C621.775 306.942 621.812 306.635 622.155 306.437L626.778 303.677C626.958 303.589 627.155 303.544 627.355 303.544C627.556 303.544 627.753 303.589 627.933 303.677L632.755 306.455C633.044 306.617 633.008 306.924 632.755 307.122L628.114 309.792C627.935 309.912 627.727 309.984 627.512 309.999C627.297 310.015 627.081 309.975 626.886 309.882Z" fill="#C2E7FF"/>
<path d="M643.029 319.028L638.226 316.25C637.919 316.087 637.955 315.781 638.226 315.582L642.885 312.913C643.064 312.824 643.262 312.777 643.463 312.777C643.663 312.777 643.861 312.824 644.04 312.913L648.844 315.691C649.151 315.871 649.097 316.16 648.844 316.358L644.185 319.046C644.005 319.136 643.806 319.182 643.605 319.179C643.404 319.176 643.206 319.124 643.029 319.028Z" fill="#C2E7FF"/>
<path d="M556.474 289.156H556.582C556.745 289.048 556.889 288.922 557.088 288.814L590.658 269.494C591.926 268.79 593.34 268.392 594.789 268.333C596.238 268.273 597.681 268.554 599.001 269.152L681.979 317.206C683.948 315.799 684.038 313.869 682.07 312.733L599.001 264.624C597.679 264.03 596.236 263.754 594.787 263.816C593.339 263.879 591.925 264.279 590.658 264.985L557.07 284.358C554.542 285.783 554.343 287.93 556.474 289.156Z" fill="#3169B1"/>
<path d="M622.245 419.81L530.039 366.632C528.575 365.583 527.379 364.206 526.544 362.612C525.71 361.017 525.262 359.249 525.235 357.45V340.548C525.235 336.94 527.384 335.371 530.039 336.94L622.245 390.118C623.71 391.166 624.91 392.542 625.747 394.137C626.585 395.731 627.036 397.5 627.066 399.3V416.184C627.066 419.719 624.971 421.343 622.245 419.81Z" fill="white"/>
<path d="M615.278 404.892L610.942 402.402C610.624 402.173 610.364 401.872 610.182 401.525C610 401.177 609.902 400.792 609.895 400.4V395.782C609.895 395.006 610.364 394.646 610.942 394.988L615.278 397.478C615.596 397.707 615.856 398.008 616.038 398.355C616.22 398.703 616.319 399.088 616.326 399.48V404.098C616.326 404.874 615.946 405.234 615.278 404.892Z" fill="#3169B1"/>
<path d="M600.792 396.468L596.456 393.978C596.139 393.748 595.879 393.447 595.698 393.1C595.516 392.752 595.417 392.368 595.409 391.976V387.448C595.409 386.691 595.878 386.33 596.456 386.655L600.792 389.162C601.112 389.39 601.374 389.69 601.556 390.038C601.738 390.386 601.836 390.772 601.84 391.164V395.782C601.84 396.468 601.37 396.883 600.792 396.468Z" fill="#3169B1"/>
<path d="M622.245 480.78L530.039 427.602C528.575 426.553 527.379 425.176 526.544 423.582C525.71 421.987 525.262 420.219 525.235 418.42V401.536C525.235 397.928 527.384 396.377 530.039 397.928L622.245 451.106C623.71 452.154 624.91 453.53 625.747 455.125C626.585 456.719 627.036 458.488 627.066 460.288V477.172C627.066 480.69 624.971 482.313 622.245 480.78Z" fill="white"/>
<path d="M615.278 465.862L610.942 463.373C610.625 463.142 610.365 462.842 610.184 462.494C610.002 462.147 609.903 461.762 609.895 461.371V456.735C609.895 455.977 610.364 455.616 610.942 455.941L615.278 458.448C615.598 458.676 615.86 458.976 616.042 459.324C616.224 459.672 616.321 460.058 616.326 460.451V465.014C616.326 465.844 615.946 466.205 615.278 465.862Z" fill="#3169B1"/>
<path d="M600.792 457.51L596.456 455.003C596.136 454.775 595.874 454.475 595.692 454.127C595.51 453.779 595.413 453.393 595.409 453.001V448.383C595.409 447.607 595.878 447.264 596.456 447.589L600.792 450.096C601.112 450.324 601.374 450.624 601.556 450.972C601.738 451.32 601.836 451.706 601.84 452.099V456.717C601.84 457.492 601.37 457.799 600.792 457.51Z" fill="#C2E7FF"/>
<path d="M622.245 541.75L530.039 488.572C528.575 487.524 527.379 486.147 526.544 484.552C525.71 482.958 525.262 481.19 525.235 479.391V462.507C525.235 458.899 527.384 457.348 530.039 458.899L622.245 512.077C623.71 513.125 624.91 514.501 625.747 516.095C626.585 517.69 627.036 519.458 627.066 521.258V538.124C627.066 541.66 624.971 543.283 622.245 541.75Z" fill="white"/>
<path d="M615.278 526.832L610.942 524.325C610.622 524.097 610.36 523.797 610.178 523.449C609.996 523.101 609.899 522.715 609.895 522.323V517.705C609.895 516.929 610.364 516.587 610.942 516.911L615.278 519.419C615.598 519.646 615.86 519.946 616.042 520.294C616.224 520.642 616.321 521.028 616.326 521.421V526.039C616.326 526.814 615.946 527.175 615.278 526.832Z" fill="#C2E7FF"/>
<path d="M600.792 518.481L596.456 515.973C596.136 515.746 595.874 515.446 595.692 515.098C595.51 514.75 595.413 514.364 595.409 513.971V509.353C595.409 508.578 595.878 508.217 596.456 508.56L600.792 511.067C601.112 511.295 601.374 511.595 601.556 511.943C601.738 512.291 601.836 512.677 601.84 513.069V517.687C601.84 518.463 601.37 518.805 600.792 518.481Z" fill="#3169B1"/>
<path d="M622.245 602.721L530.039 549.543C528.575 548.494 527.379 547.117 526.544 545.523C525.71 543.928 525.262 542.16 525.235 540.361V523.477C525.235 519.869 527.384 518.318 530.039 519.869L622.245 573.047C623.71 574.095 624.91 575.471 625.747 577.066C626.585 578.66 627.036 580.429 627.066 582.229V599.095C627.066 602.631 624.971 604.254 622.245 602.721Z" fill="white"/>
<path d="M615.278 587.803L610.942 585.296C610.622 585.068 610.36 584.768 610.178 584.42C609.996 584.072 609.899 583.686 609.895 583.293V578.658C609.895 577.882 610.364 577.539 610.942 577.864L615.278 580.371C615.598 580.599 615.86 580.899 616.042 581.247C616.224 581.595 616.321 581.981 616.326 582.373V586.991C616.326 587.785 615.946 588.128 615.278 587.803Z" fill="#C2E7FF"/>
<path d="M600.792 579.451L596.456 576.943C596.136 576.716 595.874 576.416 595.692 576.068C595.51 575.72 595.413 575.334 595.409 574.941V570.323C595.409 569.548 595.878 569.187 596.456 569.53L600.792 572.019C601.109 572.25 601.369 572.55 601.551 572.898C601.732 573.245 601.831 573.629 601.84 574.021V578.657C601.84 579.415 601.37 579.776 600.792 579.451Z" fill="#C2E7FF"/>
<path d="M667.862 419.81L715.102 392.752C716.567 391.7 717.765 390.32 718.599 388.722C719.433 387.125 719.881 385.354 719.906 383.552V366.686C719.906 363.078 717.757 361.509 715.102 363.078L667.862 390.136C666.396 391.184 665.196 392.56 664.359 394.155C663.522 395.749 663.07 397.518 663.04 399.318V416.202C663.04 419.719 665.207 421.343 667.862 419.81Z" fill="#3169B1"/>
<path d="M667.862 480.78L715.102 453.722C716.566 452.673 717.762 451.296 718.597 449.702C719.431 448.107 719.879 446.339 719.906 444.541V427.674C719.906 424.067 717.757 422.497 715.102 424.067L667.862 451.125C666.396 452.173 665.196 453.549 664.359 455.143C663.522 456.738 663.07 458.506 663.04 460.306V477.19C663.04 480.69 665.207 482.313 667.862 480.78Z" fill="#3169B1"/>
<path d="M667.862 541.751L715.102 514.693C716.566 513.644 717.762 512.267 718.597 510.672C719.431 509.078 719.879 507.31 719.906 505.511V488.645C719.906 485.037 717.757 483.468 715.102 485.037L667.862 512.095C666.396 513.143 665.196 514.519 664.359 516.114C663.522 517.708 663.07 519.477 663.04 521.277V538.143C663.04 541.66 665.207 543.284 667.862 541.751Z" fill="#3169B1"/>
<path d="M667.862 602.721L715.102 575.663C716.566 574.614 717.762 573.237 718.597 571.643C719.431 570.048 719.879 568.28 719.906 566.482V549.597C719.906 545.99 717.757 544.438 715.102 545.99L667.862 573.048C666.396 574.095 665.196 575.472 664.359 577.066C663.522 578.661 663.07 580.429 663.04 582.229V599.095C663.04 602.631 665.207 604.254 667.862 602.721Z" fill="#3169B1"/>
<path d="M682.071 401.482L686.406 398.993C686.724 398.762 686.983 398.462 687.165 398.114C687.347 397.767 687.446 397.383 687.454 396.991V392.355C687.454 391.597 686.984 391.236 686.406 391.561L682.071 394.069C681.75 394.296 681.488 394.596 681.306 394.944C681.124 395.292 681.027 395.678 681.023 396.071V400.689C680.951 401.464 681.493 401.879 682.071 401.482Z" fill="white"/>
<path d="M696.555 393.13L700.89 390.623C701.21 390.396 701.472 390.095 701.654 389.747C701.837 389.399 701.934 389.013 701.938 388.621V384.003C701.938 383.227 701.468 382.885 700.89 383.209L696.555 385.717C696.234 385.944 695.972 386.244 695.79 386.592C695.608 386.94 695.511 387.326 695.507 387.719V392.337C695.507 393.112 695.977 393.455 696.555 393.13Z" fill="white"/>
<path d="M682.071 461.984L686.406 459.494C686.724 459.264 686.983 458.963 687.165 458.616C687.347 458.268 687.446 457.884 687.454 457.492V452.856C687.454 452.098 686.984 451.738 686.406 452.062L682.071 454.57C681.75 454.797 681.488 455.097 681.306 455.445C681.124 455.793 681.027 456.179 681.023 456.572V461.19C680.951 461.966 681.493 462.326 682.071 461.984Z" fill="white"/>
<path d="M696.555 453.632L700.89 451.124C701.21 450.897 701.472 450.597 701.654 450.249C701.837 449.901 701.934 449.515 701.938 449.122V444.504C701.938 443.729 701.468 443.386 700.89 443.711L696.555 446.218C696.234 446.445 695.972 446.746 695.79 447.093C695.608 447.441 695.511 447.828 695.507 448.22V452.838C695.507 453.614 695.977 453.956 696.555 453.632Z" fill="white"/>
<path d="M682.076 523.513L686.375 520.934C686.696 520.706 686.958 520.406 687.14 520.058C687.322 519.71 687.419 519.324 687.423 518.932V514.314C687.423 513.538 686.953 513.195 686.375 513.52L682.04 516.027C681.719 516.255 681.457 516.555 681.275 516.903C681.093 517.251 680.996 517.637 680.992 518.03V522.738C680.956 523.495 681.498 523.838 682.076 523.513Z" fill="white"/>
<path d="M696.555 515.162L700.89 512.654C701.21 512.427 701.472 512.127 701.654 511.779C701.837 511.431 701.934 511.045 701.938 510.652V506.034C701.938 505.259 701.468 504.898 700.89 505.241L696.555 507.73C696.237 507.96 695.978 508.261 695.796 508.608C695.614 508.956 695.515 509.34 695.507 509.732V514.368C695.507 515.144 695.977 515.523 696.555 515.162Z" fill="white"/>
<path d="M682.076 584.069L686.411 581.562C686.731 581.334 686.993 581.034 687.175 580.686C687.358 580.338 687.455 579.952 687.459 579.559V575.05C687.459 574.274 686.989 573.931 686.411 574.256L682.076 576.763C681.756 576.972 681.489 577.252 681.295 577.58C681.101 577.908 680.984 578.277 680.956 578.657V583.275C680.956 584.069 681.497 584.484 682.076 584.069Z" fill="white"/>
<path d="M696.557 575.789L700.82 573.246C701.141 573.018 701.403 572.718 701.585 572.37C701.767 572.022 701.864 571.636 701.868 571.244V566.626C701.868 565.85 701.398 565.489 700.82 565.832L696.485 568.339C696.164 568.567 695.902 568.867 695.72 569.215C695.538 569.563 695.441 569.949 695.437 570.342V575.05C695.509 575.771 695.979 576.114 696.557 575.789Z" fill="white"/>
<path d="M540.314 703.809C524.062 713.189 497.715 713.189 481.462 703.809C465.21 694.429 465.21 679.24 481.462 669.878C497.715 660.516 524.062 660.498 540.314 669.878C556.567 679.258 556.567 694.447 540.314 703.809Z" fill="#3169B1"/>
<path d="M530.043 672.26C528.831 671.565 527.57 670.962 526.268 670.456L519.045 667.227L519.587 668.49C513.956 667.402 508.174 667.34 502.522 668.309L502.865 666.902L494.305 670.69C493.214 671.159 492.147 671.683 491.109 672.26C480.364 678.465 480.364 688.494 491.109 694.7C501.854 700.905 519.28 700.905 530.025 694.7C540.769 688.494 540.805 678.465 530.043 672.26Z" fill="#39BDE5"/>
<path d="M519.711 678.104C516.885 679.537 513.761 680.283 510.592 680.283C507.423 680.283 504.299 679.537 501.473 678.104C496.434 675.2 496.434 670.492 501.473 667.588C504.299 666.155 507.423 665.409 510.592 665.409C513.761 665.409 516.885 666.155 519.711 667.588C524.75 670.492 524.75 675.2 519.711 678.104Z" fill="#39BDE5"/>
<path d="M510.594 674.857C509.43 674.857 508.314 674.395 507.491 673.573C506.668 672.751 506.206 671.636 506.206 670.474V615.113H514.982V670.474C514.982 671.636 514.52 672.751 513.697 673.573C512.874 674.395 511.758 674.857 510.594 674.857Z" fill="#39BDE5"/>
<path d="M513.683 617.134C512.699 617.623 511.614 617.878 510.514 617.878C509.414 617.878 508.33 617.623 507.345 617.134C506.979 616.994 506.664 616.747 506.441 616.425C506.219 616.103 506.1 615.721 506.1 615.33C506.1 614.939 506.219 614.557 506.441 614.234C506.664 613.912 506.979 613.665 507.345 613.526C508.327 613.028 509.413 612.769 510.514 612.769C511.615 612.769 512.701 613.028 513.683 613.526C514.042 613.672 514.349 613.922 514.565 614.243C514.782 614.564 514.897 614.943 514.897 615.33C514.897 615.717 514.782 616.095 514.565 616.417C514.349 616.738 514.042 616.987 513.683 617.134Z" fill="#39BDE5"/>
<path d="M510.596 617.025C509.638 617.025 508.719 616.645 508.042 615.969C507.364 615.292 506.984 614.374 506.984 613.418V561.43H514.099V613.472C514.085 614.401 513.714 615.289 513.061 615.951C512.408 616.613 511.525 616.997 510.596 617.025Z" fill="#39BDE5"/>
<path d="M561.77 588.705V586.667L564.641 586.252L567.874 583.835C568.192 583.639 568.554 583.528 568.927 583.512C569.3 583.496 569.671 583.576 570.005 583.744L572.37 585.133L574.736 584.791V586.847C574.709 586.991 574.645 587.125 574.55 587.235C574.455 587.346 574.332 587.43 574.194 587.478L566.664 590.816C566.355 590.958 566.019 591.032 565.68 591.032C565.34 591.032 565.004 590.958 564.695 590.816L562.203 589.372C562.082 589.32 561.977 589.235 561.901 589.127C561.824 589.018 561.779 588.891 561.77 588.759V588.705Z" fill="#39BDE5"/>
<path d="M562.006 586.107L567.802 581.778C568.126 581.591 568.494 581.493 568.868 581.493C569.242 581.493 569.609 581.591 569.933 581.778L574.249 584.267C574.863 584.61 574.791 585.187 574.123 585.494L566.592 588.831C566.284 588.973 565.948 589.047 565.608 589.047C565.268 589.047 564.933 588.973 564.624 588.831L562.132 587.388C561.59 586.937 561.536 586.45 562.006 586.107Z" fill="#F7FAFC"/>
<path d="M552.217 595.938C553.028 595.952 553.83 595.76 554.546 595.379L563.576 590.166C563.815 590.027 563.99 589.799 564.061 589.532C564.132 589.265 564.094 588.98 563.955 588.741C563.816 588.502 563.588 588.327 563.32 588.256C563.053 588.185 562.768 588.223 562.528 588.362L553.499 593.557C553.098 593.744 552.66 593.841 552.217 593.841C551.774 593.841 551.336 593.744 550.935 593.557L535.964 584.881C535.846 584.792 535.709 584.729 535.564 584.697C535.419 584.665 535.269 584.664 535.124 584.694C534.978 584.724 534.841 584.785 534.721 584.872C534.601 584.96 534.501 585.071 534.427 585.2C534.353 585.329 534.308 585.472 534.294 585.62C534.28 585.767 534.298 585.916 534.346 586.057C534.394 586.197 534.471 586.326 534.573 586.434C534.675 586.542 534.798 586.628 534.935 586.684L549.905 595.343C550.608 595.747 551.407 595.952 552.217 595.938Z" fill="#39BDE5"/>
<path d="M465.591 576.907L480.056 568.501L471.948 564.84L465.013 569.764L465.591 576.907Z" fill="url(#paint0_radial_111_10963)"/>
<path d="M558.501 564.443C557.653 563.997 556.838 563.491 556.063 562.927L525.237 540.361C519.675 536.284 513.933 535.22 509.509 537.475C509.382 537.475 509.292 537.619 509.184 537.673L466.566 562.422L470.394 563.703L485.31 570.449L505.59 584.88L521.59 593.377L522.33 593.521C526.05 590.382 530.24 587.694 532.533 583.113C536.488 576.186 547.521 574.202 554.022 568.573C554.672 568.988 555.323 569.385 555.973 569.728C557.168 568.157 558.029 566.359 558.501 564.443Z" fill="#3169B1"/>
<path d="M572.011 554.251C571.356 554.24 570.718 554.457 570.206 554.864L528.545 578.946L530.062 585.169L531.633 584.43C529.249 588.146 525.583 590.581 522.279 593.449L526.974 594.441L567.786 570.738L568.346 570.486C568.899 570.204 569.425 569.872 569.917 569.494C573.023 567.095 574.774 562.928 574.774 557.715V557.228C574.789 556.851 574.729 556.475 574.598 556.121C574.467 555.768 574.267 555.444 574.011 555.167C573.754 554.891 573.445 554.668 573.102 554.51C572.759 554.353 572.389 554.265 572.011 554.251Z" fill="#F7FAFC"/>
<path d="M514.962 536.321C517.868 536.507 520.68 537.419 523.142 538.973C520.68 537.419 517.868 536.507 514.962 536.321Z" fill="#E4E7E9"/>
<path d="M533.942 580.894V580.461C533.973 580.067 533.922 579.67 533.793 579.296C533.663 578.922 533.457 578.579 533.188 578.288C532.92 577.997 532.593 577.765 532.23 577.606C531.867 577.448 531.476 577.366 531.079 577.366C530.683 577.366 530.291 577.448 529.928 577.606C529.565 577.765 529.239 577.997 528.97 578.288C528.701 578.579 528.496 578.922 528.366 579.296C528.236 579.67 528.186 580.067 528.217 580.461V580.948C528.217 584.772 526.989 587.568 524.876 588.651C522.474 589.859 518.827 588.975 515.125 586.252L484.281 563.685C479.55 560.222 474.692 558.959 470.611 560.078L496.073 545.322L466.566 562.423L470.394 563.703L485.31 570.45L505.59 584.881L521.59 593.377L522.33 593.521C526.05 590.382 530.24 587.695 532.533 583.113C532.937 582.429 533.402 581.783 533.923 581.183C533.923 581.183 533.942 580.948 533.942 580.894Z" fill="#C2E7FF"/>
<path d="M521.586 595.776C517.668 595.594 513.907 594.18 510.842 591.735L480.016 569.169C476.404 566.463 472.666 565.561 470.265 566.788C468.152 567.852 466.924 570.666 466.924 574.49C466.866 575.209 466.54 575.88 466.01 576.37C465.479 576.859 464.784 577.131 464.061 577.131C463.339 577.131 462.644 576.859 462.113 576.37C461.583 575.88 461.256 575.209 461.199 574.49C461.199 568.429 463.565 563.757 467.682 561.683C472.106 559.428 477.849 560.492 483.411 564.551L514.237 587.117C517.848 589.841 521.586 590.725 523.988 589.516C526.101 588.452 527.329 585.638 527.329 581.814V581.327C527.297 580.932 527.348 580.536 527.478 580.162C527.607 579.788 527.813 579.444 528.082 579.154C528.351 578.863 528.677 578.631 529.04 578.472C529.403 578.313 529.795 578.232 530.191 578.232C530.587 578.232 530.979 578.313 531.342 578.472C531.705 578.631 532.031 578.863 532.3 579.154C532.569 579.444 532.775 579.788 532.904 580.162C533.034 580.536 533.085 580.932 533.053 581.327V581.814C533.053 587.875 530.688 592.529 526.57 594.621C525.025 595.398 523.316 595.794 521.586 595.776Z" fill="#39BDE5"/>
<path d="M497.358 646.23C497.358 646.23 491.544 643.308 487.986 647.655C484.429 652.002 479.318 662.302 479.174 669.301C479.029 676.3 484.591 675.777 488.04 674.136C491.489 672.494 501.223 658.244 501.819 655.448C502.047 654.182 502.019 652.884 501.737 651.629C501.455 650.374 500.924 649.189 500.175 648.142C499.236 647.348 497.358 646.23 497.358 646.23Z" fill="#F7FAFC"/>
<path d="M498.567 644.823L498.838 650.848C498.869 651.474 498.728 652.096 498.428 652.646C498.129 653.197 497.683 653.654 497.141 653.968C495.774 654.712 494.189 654.955 492.662 654.654C488.292 653.95 487.895 652.706 487.588 646.699C487.281 640.692 498.567 644.823 498.567 644.823Z" fill="#39BDE5"/>
<path d="M476.102 634.667C476.102 634.667 470.305 631.745 466.73 636.11C463.154 640.476 458.062 650.74 457.917 657.757C457.773 664.774 463.335 664.233 466.784 662.591C470.233 660.95 479.985 646.699 480.562 643.921C480.791 642.655 480.763 641.357 480.481 640.102C480.198 638.848 479.667 637.662 478.919 636.616C477.98 635.804 476.102 634.667 476.102 634.667Z" fill="#F7FAFC"/>
<path d="M477.364 633.278L477.634 639.285C477.668 639.911 477.527 640.534 477.227 641.085C476.928 641.636 476.481 642.093 475.937 642.406C474.573 643.158 472.988 643.407 471.458 643.109C467.088 642.406 466.691 641.161 466.384 635.154C466.077 629.148 477.364 633.278 477.364 633.278Z" fill="#39BDE5"/>
<path d="M529.265 522.954C527.549 495.031 498.981 527.067 498.981 527.067L479.352 546.188L461.745 565.507C460.048 567.372 458.778 569.584 458.023 571.989C457.268 574.394 457.047 576.934 457.375 579.433L464.49 633.549C464.682 634.843 465.336 636.023 466.332 636.872C467.328 637.721 468.598 638.181 469.907 638.167C470.791 638.159 471.672 638.081 472.544 637.932C474.243 637.75 475.805 636.917 476.903 635.609C478 634.3 478.548 632.618 478.431 630.915L477.13 580.263L514.096 558.003C514.096 558.003 530.89 550.896 529.265 522.954Z" fill="#C2E7FF"/>
<path d="M550.428 533.561C548.712 505.637 520.144 537.673 520.144 537.673L500.605 556.812L482.998 576.132C481.3 577.996 480.029 580.208 479.275 582.613C478.52 585.018 478.299 587.559 478.628 590.058L485.743 644.173C485.935 645.467 486.589 646.647 487.585 647.496C488.581 648.345 489.851 648.805 491.16 648.791C492.044 648.784 492.926 648.705 493.797 648.557C495.494 648.37 497.054 647.536 498.151 646.229C499.247 644.921 499.797 643.242 499.684 641.54L498.384 590.887L535.349 568.628C535.349 568.628 552.143 561.539 550.428 533.561Z" fill="#C2E7FF"/>
<path d="M533.527 443.945C555.197 452.965 554.746 465.7 554.746 465.7C554.746 465.7 550.52 512.6 551.965 543.879C552.561 556.975 482.35 557.967 492.824 523.044C505.176 481.88 500.535 448.563 506.313 443.53C512.092 438.498 527.929 441.564 533.527 443.945Z" fill="#3169B1"/>
<path d="M540.475 455.256C541.607 450.866 537.686 446.063 531.717 444.527C525.748 442.992 519.992 445.306 518.86 449.696C517.729 454.086 521.65 458.889 527.619 460.424C533.588 461.959 539.344 459.645 540.475 455.256Z" fill="white"/>
<path d="M531.32 461.966C530.014 461.939 528.716 461.751 527.455 461.407C524.502 460.696 521.848 459.074 519.871 456.771C518.954 455.808 518.298 454.628 517.964 453.342C517.63 452.056 517.629 450.706 517.962 449.419C518.294 448.133 518.949 446.952 519.864 445.988C520.779 445.024 521.925 444.309 523.194 443.909C526.049 442.896 529.143 442.758 532.077 443.514C535.012 444.269 537.653 445.883 539.663 448.148C540.585 449.108 541.246 450.286 541.584 451.573C541.922 452.859 541.926 454.21 541.595 455.498C541.264 456.786 540.609 457.968 539.693 458.933C538.776 459.897 537.629 460.612 536.358 461.01C534.758 461.655 533.046 461.98 531.32 461.966ZM528.033 445.172C526.607 445.158 525.192 445.416 523.862 445.929C522.896 446.211 522.02 446.74 521.321 447.462C520.622 448.185 520.122 449.077 519.873 450.051C519.623 451.025 519.632 452.046 519.897 453.016C520.163 453.985 520.677 454.869 521.388 455.58C523.124 457.498 525.388 458.864 527.896 459.505C530.404 460.147 533.046 460.036 535.491 459.188C536.459 458.911 537.337 458.387 538.039 457.667C538.741 456.947 539.242 456.056 539.494 455.083C539.746 454.11 539.739 453.088 539.474 452.119C539.209 451.149 538.695 450.266 537.983 449.555C536.288 447.586 534.013 446.203 531.482 445.605C530.356 445.314 529.197 445.168 528.033 445.172Z" fill="#C2E7FF"/>
<path d="M524.858 442.971C524.974 445.546 524.908 448.126 524.659 450.692C524.551 452.838 532.099 454.859 534.05 452.911C536 450.962 535.223 448.924 535.693 441.6C536.163 434.277 524.858 442.971 524.858 442.971Z" fill="white"/>
<path d="M535.692 441.564C535.692 441.564 533.886 448.365 524.658 450.962L524.803 444.793L535.692 441.564Z" fill="#C2E7FF"/>
<path d="M541.506 424.319C542.329 427.507 542.187 430.867 541.099 433.975C540.011 437.083 538.025 439.799 535.392 441.779C532.758 443.759 529.597 444.915 526.306 445.101C523.015 445.287 519.743 444.493 516.903 442.822C514.064 441.15 511.784 438.675 510.353 435.709C508.921 432.744 508.402 429.421 508.861 426.16C509.319 422.9 510.735 419.849 512.93 417.392C515.125 414.936 517.999 413.184 521.19 412.359C525.471 411.257 530.016 411.898 533.825 414.14C537.634 416.383 540.396 420.043 541.506 424.319Z" fill="white"/>
<path d="M529.267 429.099C529.267 429.099 520.093 433.031 513.736 433.068C507.38 433.104 508.77 427.8 508.77 427.8L527.641 425.076L529.267 429.099Z" fill="#C2E7FF"/>
<path d="M511.764 430.128C511.764 430.128 519.764 426.736 526.771 428.161C528.461 428.493 529.982 429.406 531.069 430.741C531.383 431.184 531.833 431.513 532.351 431.679C533.597 431.949 535.619 426.79 538.039 426.682C540.459 426.574 542.066 428.27 540.098 431.444C538.13 434.619 538.78 438.155 539.683 438.66C540.585 439.165 550.283 431.769 541.741 414.885C533.2 398.001 511.53 407.11 508.171 410.52C508.171 410.52 504.559 413.622 501.724 410.862C501.67 410.79 498.437 435.016 511.764 430.128Z" fill="#3169B1"/>
<path d="M542.609 499.955V512.582C542.608 513.3 542.457 514.009 542.165 514.665C541.872 515.321 541.445 515.908 540.911 516.388L514.817 540.145L517.778 544.673L552.18 519.743C552.975 519.169 553.64 518.433 554.131 517.585C554.623 516.736 554.93 515.794 555.033 514.819L557.344 492.739L542.609 499.955Z" fill="#C2E7FF"/>
<path d="M552.915 459.368C552.915 459.368 560.825 471.237 563.75 502.48C563.75 502.48 550.242 506.846 542.586 504.284C534.929 501.723 552.915 459.368 552.915 459.368Z" fill="#3169B1"/>
<path d="M541.165 474.376C541.165 474.376 538.076 490.918 537.895 498.692C537.865 499.732 538.165 500.754 538.752 501.613C539.34 502.471 540.184 503.122 541.165 503.472V474.376Z" fill="#3169B1"/>
<path d="M534.416 556.614L528.655 555.857L491.491 534.427C490.753 534.095 489.947 533.941 489.138 533.975C488.33 534.01 487.54 534.232 486.832 534.625L460.503 549.796L457.018 549.345V552.808C457.026 553.065 457.107 553.315 457.25 553.529C457.394 553.743 457.595 553.912 457.831 554.017L499.943 578.315C500.678 578.646 501.481 578.801 502.287 578.766C503.093 578.732 503.879 578.509 504.584 578.116L533.278 561.593C533.598 561.467 533.875 561.252 534.076 560.974C534.278 560.696 534.396 560.366 534.416 560.024V556.614Z" fill="#3169B1"/>
<path d="M506.48 543.067L503.843 541.552H474.824L460.503 549.796L457.018 549.345V552.808C457.026 553.065 457.107 553.315 457.25 553.529C457.394 553.743 457.595 553.912 457.831 554.017L499.943 578.315C500.685 578.686 501.517 578.842 502.344 578.766L506.48 543.067Z" fill="#3169B1"/>
<path d="M458.572 549.543L457.018 549.344V552.808C457.026 553.065 457.107 553.315 457.251 553.529C457.394 553.743 457.595 553.912 457.831 554.016L458.572 554.449V549.543Z" fill="#3169B1"/>
<path d="M500.371 578.513C501.668 578.926 503.074 578.836 504.309 578.26V572.38H500.371V578.513Z" fill="#3169B1"/>
<path d="M499.941 574.851L457.829 550.571C456.637 549.868 456.782 548.677 458.154 547.883L486.831 531.342C487.539 530.951 488.33 530.73 489.139 530.699C489.948 530.668 490.753 530.826 491.49 531.162L533.602 555.442C534.794 556.127 534.649 557.336 533.277 558.129L504.582 574.671C503.875 575.058 503.088 575.276 502.283 575.307C501.477 575.338 500.676 575.182 499.941 574.851Z" fill="#F7FAFC"/>
<path d="M499.235 571.171L464.256 550.968C463.263 550.409 463.39 549.398 464.545 548.749L479.913 540.109C480.501 539.787 481.156 539.605 481.826 539.577C482.496 539.549 483.164 539.675 483.777 539.946L518.792 560.149C519.786 560.727 519.659 561.719 518.522 562.386L503.154 571.009C502.561 571.347 501.896 571.539 501.214 571.567C500.532 571.595 499.854 571.459 499.235 571.171Z" fill="#39BDE5"/>
<path d="M488.472 530.548L488.02 533.452C487.653 535.928 487.72 538.449 488.219 540.902L488.743 543.464C488.888 544.164 489.239 544.806 489.75 545.307C490.261 545.808 490.91 546.146 491.614 546.278C491.888 546.33 492.169 546.323 492.44 546.257C492.711 546.192 492.965 546.07 493.185 545.9C493.406 545.729 493.587 545.514 493.718 545.268C493.848 545.022 493.925 544.752 493.944 544.474L494.648 538.269C494.648 538.269 496.237 540.343 496.995 540.343C497.754 540.343 496.147 534.138 494.413 530.62C492.679 527.103 488.472 530.548 488.472 530.548Z" fill="#C2E7FF"/>
<path d="M502.734 484.406L498.219 493.425C497.172 495.543 496.558 497.849 496.413 500.208L494.463 530.765L488.522 530.621L485.813 496.347C485.723 495.293 485.778 494.23 485.976 493.191L489.045 475.783L502.734 484.406Z" fill="#C2E7FF"/>
<path d="M498.564 577.196L494.953 572.578L457.825 551.095C457.169 550.625 456.633 550.008 456.259 549.294C455.886 548.58 455.686 547.788 455.676 546.982V516.605L453.545 513.827L455.549 512.672C455.768 512.532 456.021 512.458 456.281 512.458C456.54 512.458 456.794 512.532 457.012 512.672L499.142 537.169C499.798 537.638 500.334 538.255 500.707 538.969C501.081 539.684 501.281 540.476 501.291 541.282V574.364C501.348 574.71 501.303 575.064 501.162 575.384C501.021 575.704 500.79 575.977 500.497 576.168L498.564 577.196Z" fill="#3169B1"/>
<path d="M472.829 559.771L470.193 558.238L455.746 533.11V516.605L453.615 513.827L455.62 512.672C455.838 512.532 456.092 512.458 456.351 512.458C456.61 512.458 456.864 512.532 457.082 512.672L499.14 537.169C499.831 537.607 500.382 538.232 500.729 538.973L472.829 559.771Z" fill="#3169B1"/>
<path d="M454.541 515.053L453.584 513.827L455.589 512.672C455.807 512.532 456.061 512.458 456.321 512.458C456.58 512.458 456.834 512.532 457.052 512.672L457.793 513.105L454.541 515.053Z" fill="#3169B1"/>
<path d="M499.526 537.367C500.582 538.284 501.231 539.581 501.332 540.974L497.232 543.355L495.245 539.928L499.526 537.367Z" fill="#3169B1"/>
<path d="M497.14 538.251L455.046 513.917C453.855 513.214 452.897 513.917 452.897 515.541V548.623C452.904 549.43 453.102 550.224 453.475 550.939C453.849 551.654 454.387 552.27 455.046 552.736L497.122 577.07C498.314 577.774 499.289 577.07 499.289 575.447V542.382C499.279 541.574 499.079 540.779 498.706 540.062C498.333 539.344 497.797 538.724 497.14 538.251Z" fill="#F7FAFC"/>
<path d="M517.832 544.672L517.146 546.061C516.373 547.667 515.158 549.018 513.643 549.958L509.399 552.537C508.755 552.922 508.019 553.125 507.268 553.125C506.518 553.125 505.781 552.922 505.137 552.537H504.993C504.685 552.33 504.427 552.057 504.238 551.738C504.049 551.419 503.933 551.062 503.898 550.693C503.864 550.323 503.911 549.951 504.038 549.602C504.165 549.254 504.368 548.938 504.632 548.677L509.002 544.185C509.002 544.185 506.546 545.989 505.86 545.304C505.173 544.618 508.243 542.039 510.464 541.949C512.055 541.762 513.561 541.138 514.817 540.145L517.832 544.672Z" fill="#C2E7FF"/>
<path d="M506.744 443.458C506.744 443.458 490.726 460.865 484.279 476.847C488.664 483.583 495.384 488.465 503.15 490.557C516.622 494.435 506.744 443.458 506.744 443.458Z" fill="#3169B1"/>
<path d="M500.141 489.528L502.742 464.491L496.618 487.941C497.726 488.518 498.9 489.047 500.141 489.528Z" fill="#3169B1"/>
<path d="M518.753 439.959L514.437 438.768C515.648 440.623 517.419 442.045 519.493 442.827C522.491 443.638 522.961 441.113 522.961 441.113L518.753 439.959Z" fill="#39BDE5"/>
<path d="M211.059 708.788C229.44 708.788 244.341 700.194 244.341 689.594C244.341 678.994 229.44 670.401 211.059 670.401C192.678 670.401 177.778 678.994 177.778 689.594C177.778 700.194 192.678 708.788 211.059 708.788Z" fill="#3169B1"/>
<path d="M207.028 674.713C207.515 675.903 215.786 685.969 224.057 688.476C226.485 689.345 229.068 689.701 231.641 689.522C232.013 689.477 232.37 689.348 232.685 689.146C233.001 688.944 233.266 688.673 233.462 688.354C233.658 688.035 233.78 687.676 233.818 687.304C233.856 686.931 233.809 686.555 233.682 686.203C230.866 678.543 225.181 672.276 217.827 668.724C203.795 661.779 207.028 674.713 207.028 674.713Z" fill="#F7FAFC"/>
<path d="M204.284 678.573C206.092 682.891 207.453 687.382 208.347 691.976C208.943 695.71 206.884 700.544 205.205 703.755C204.959 704.227 204.607 704.635 204.176 704.947C203.746 705.26 203.249 705.469 202.724 705.559C202.2 705.648 201.662 705.614 201.152 705.461C200.642 705.308 200.175 705.039 199.787 704.675C196.015 701.402 193.616 696.829 193.069 691.868C192.112 681.568 193.069 679.782 193.069 679.782L204.284 678.573Z" fill="#F7FAFC"/>
<path d="M184.36 554.143C183.719 563.247 183.719 572.385 184.36 581.489C185.426 595.92 189.29 663.042 190.013 679.204C190.013 679.204 189.651 684.093 199.132 683.01C208.613 681.928 207.854 676.516 207.854 676.516C207.854 676.516 221.163 676.336 221.597 668.489C222.03 660.643 235.231 574.851 235.231 544.023L184.36 554.143Z" fill="#3169B1"/>
<path d="M230.653 487.094L238.346 534.03L245.316 533.904L244.684 490.9L230.653 487.094Z" fill="white"/>
<path d="M227.438 445.551C227.438 445.551 237.803 445.28 241.415 460.252C245.027 475.224 247.844 493.876 244.702 495.499C235.275 500.171 229.316 494.706 229.316 494.706L227.438 445.551Z" fill="#3169B1"/>
<path d="M230.539 446.182C228.762 445.451 226.788 445.343 224.941 445.875C216.111 448.419 182.902 458.142 177.43 462.814C171.109 468.225 186.91 498.548 186.694 508.487C186.477 518.426 185.339 530.134 184.455 540.957C183.57 551.78 182.396 557.696 191.244 562.296C200.093 566.896 215.208 567.095 226.53 558.49C237.853 549.886 235.776 544.059 235.307 537.728C234.837 531.396 230.991 504.447 231.316 496.762C234.102 494.559 236.459 491.862 238.268 488.807C241.212 483.774 235.993 474.521 233.826 468.514C231.659 462.507 235.054 455.634 234.386 450.728C234.236 449.686 233.796 448.707 233.116 447.903C232.436 447.099 231.543 446.503 230.539 446.182Z" fill="#3169B1"/>
<path d="M219.919 456.536C220.624 461.948 215.604 467.143 208.705 468.009C201.807 468.875 195.667 465.177 194.963 459.729C194.259 454.281 199.279 449.122 206.177 448.238C213.075 447.355 219.215 451.07 219.919 456.536Z" fill="#C2E7FF"/>
<path d="M208.342 465.184C213.268 464.554 216.856 460.879 216.356 456.975C215.855 453.072 211.455 450.419 206.529 451.049C201.603 451.68 198.015 455.355 198.515 459.258C199.016 463.161 203.415 465.815 208.342 465.184Z" fill="white"/>
<path d="M201.506 457.794L203.236 446.032L212.237 447.574L214.137 458.86L201.506 457.794Z" fill="white"/>
<path d="M258.5 444.162C258.5 444.162 252.504 439.237 251.276 441.727C250.048 444.216 249.127 454.931 249.127 454.931L261.028 458.124L259.222 447.301C259.222 447.301 261.66 445.262 258.5 444.162Z" fill="white"/>
<path d="M203.471 444.829C203.362 445.388 203.254 446.002 203.164 446.633C204.355 452.802 213.619 455.508 213.619 455.508L212.247 447.3C212.247 447.3 213.367 446.344 213.041 445.496C209.394 444.234 204.789 443.206 203.471 444.829Z" fill="#C2E7FF"/>
<path d="M230.073 432.436C229.866 435.941 228.624 439.307 226.503 442.106C224.382 444.906 221.477 447.014 218.157 448.165C214.836 449.315 211.248 449.456 207.847 448.57C204.446 447.683 201.385 445.809 199.05 443.184C196.715 440.56 195.213 437.302 194.732 433.824C194.251 430.346 194.813 426.804 196.348 423.645C197.882 420.486 200.32 417.853 203.353 416.079C206.386 414.304 209.878 413.468 213.387 413.676C215.716 413.812 217.996 414.405 220.095 415.422C222.195 416.438 224.074 417.858 225.623 419.601C227.173 421.343 228.364 423.374 229.127 425.576C229.891 427.779 230.212 430.11 230.073 432.436Z" fill="white"/>
<path d="M168.545 506.539L170.531 554.035L177.484 554.757L182.016 511.987L168.545 506.539Z" fill="white"/>
<path d="M191.388 502.571C189.095 492.415 184.544 470.101 184.544 470.101L182.594 492.397C184.851 498.999 186.765 505.024 186.693 508.632C186.549 514.476 186.115 520.934 185.591 527.446C185.591 527.446 193.7 512.708 191.388 502.571Z" fill="#3169B1"/>
<path d="M225.889 461.839C225.889 461.839 220.327 463.968 217.185 481.032C214.043 498.097 211.587 515.161 217.203 517.326C222.819 519.491 227.497 521.168 229.14 516.605C230.783 512.041 231.813 490.07 232.029 482.169C232.246 474.268 232.535 463.409 225.889 461.839Z" fill="#3169B1"/>
<path d="M207.856 676.517C209.134 676.466 210.407 676.334 211.668 676.12L214.269 571.676L207.856 676.517Z" fill="#084EA8"/>
<path d="M197.803 620.146L194.191 615.33L155.186 592.781C154.499 592.285 153.939 591.635 153.55 590.883C153.162 590.131 152.955 589.298 152.946 588.452V556.632L150.743 553.728L152.838 552.501C153.076 552.37 153.347 552.309 153.618 552.325C153.89 552.341 154.151 552.434 154.373 552.591L198.453 578.098C199.14 578.591 199.702 579.237 200.094 579.986C200.486 580.735 200.697 581.564 200.711 582.409V617.061C200.749 617.409 200.692 617.76 200.545 618.078C200.399 618.396 200.169 618.668 199.88 618.865L197.803 620.146Z" fill="#3169B1"/>
<path d="M170.896 601.855L168.133 600.304L152.964 573.985V556.686L150.743 553.728L152.838 552.501C153.076 552.37 153.347 552.309 153.618 552.325C153.89 552.341 154.151 552.434 154.373 552.591L198.453 578.098C199.185 578.572 199.763 579.249 200.115 580.046L170.896 601.855Z" fill="#3169B1"/>
<path d="M151.767 555.009L150.774 553.728L152.869 552.501C153.108 552.37 153.379 552.309 153.65 552.325C153.922 552.341 154.183 552.434 154.405 552.591L155.182 553.042L151.767 555.009Z" fill="#3169B1"/>
<path d="M198.851 578.387C199.917 579.334 200.566 580.663 200.657 582.085L196.358 584.574L194.28 580.966L198.851 578.387Z" fill="#3169B1"/>
<path d="M196.356 579.307L152.257 553.818C151.011 553.097 150 553.818 150 555.514V590.166C150.013 591.011 150.224 591.841 150.616 592.589C151.008 593.338 151.57 593.985 152.257 594.477L196.338 619.984C197.584 620.706 198.613 619.984 198.613 618.18V583.546C198.589 582.714 198.372 581.898 197.981 581.163C197.589 580.427 197.033 579.792 196.356 579.307Z" fill="#C2E7FF"/>
<path d="M170.59 553.638C170.59 553.638 168.784 564.731 169.037 568.285C169.29 571.839 171.204 577.683 172.649 577.575C174.093 577.467 172.649 563.288 175.231 564.695C177.813 566.102 178.048 568.519 179.186 567.672C180.323 566.824 177.181 554.72 178.03 549.471C178.879 544.221 170.59 553.638 170.59 553.638Z" fill="white"/>
<path fill-rule="evenodd" clip-rule="evenodd" d="M226.432 567.129L222.908 565.1C223.751 565.701 224.288 566.395 224.706 566.935C225.272 567.666 225.62 568.115 226.215 567.672C226.325 567.59 226.395 567.404 226.432 567.129ZM222.069 564.617L221.95 564.549C221.912 564.522 221.895 564.543 221.892 564.598C221.949 564.595 222.008 564.601 222.069 564.617Z" fill="#3169B1"/>
<path d="M245.315 533.904C245.315 533.904 247.12 544.998 246.886 548.551C246.651 552.105 244.701 557.949 243.274 557.823C241.847 557.697 243.274 543.554 240.692 544.961C238.109 546.368 237.875 548.786 236.647 547.992C235.419 547.198 238.651 535.022 237.82 529.791C236.99 524.56 245.315 533.904 245.315 533.904Z" fill="white"/>
<path d="M219.162 432.942C228.064 436.098 229.798 434.168 229.888 434.078C229.976 433.534 230.037 432.987 230.069 432.437C230.158 430.526 229.939 428.613 229.419 426.773L206.286 423.652C209.467 428.05 213.982 431.307 219.162 432.942Z" fill="#C2E7FF"/>
<path d="M230.702 414.758C228.607 412.955 221.023 404.061 207.443 406.154C198.956 407.471 191.804 413.243 190.215 426.447C189.751 430.825 190.246 435.251 191.665 439.418C193.083 443.586 195.393 447.396 198.432 450.583C198.765 450.45 199.085 450.287 199.389 450.096C202.802 447.859 203.163 446.633 203.163 446.615L203.922 439.886C203.922 439.426 203.747 438.983 203.432 438.647C203.116 438.312 202.684 438.11 202.224 438.082C201.723 438.026 201.241 437.861 200.811 437.599C200.38 437.338 200.012 436.985 199.732 436.567C197.782 434.006 198.685 430.037 202.585 429.893C203.281 429.941 203.971 429.746 204.538 429.341C205.105 428.936 205.513 428.347 205.691 427.674C205.75 427.461 205.853 427.262 205.992 427.09C206.132 426.919 206.305 426.777 206.502 426.676C206.699 426.574 206.914 426.514 207.135 426.5C207.356 426.485 207.578 426.517 207.786 426.592C212.21 428.197 223.154 431.661 230.196 429.658C239.208 427.133 232.815 416.544 230.702 414.758Z" fill="#3169B1"/>
<path d="M220.593 440.951L226.011 439.472C224.482 441.813 222.241 443.602 219.618 444.576C215.826 445.623 215.248 442.412 215.248 442.412L220.593 440.951Z" fill="#39BDE5"/>
<defs>
<radialGradient id="paint0_radial_111_10963" cx="0" cy="0" r="1" gradientUnits="userSpaceOnUse" gradientTransform="translate(369.918 566.138) scale(89.2984 89.2008)">
<stop stop-color="#01C8EF"/>
<stop offset="0.09" stop-color="#03BEE9"/>
<stop offset="0.24" stop-color="#08A5D7"/>
<stop offset="0.43" stop-color="#107BBB"/>
<stop offset="0.45" stop-color="#1177B8"/>
<stop offset="1" stop-color="#112564"/>
</radialGradient>
</defs>
</svg>
